G04 #@! TF.GenerationSoftware,KiCad,Pcbnew,6.0.0-unknown-3514473~86~ubuntu18.04.1*
G04 #@! TF.CreationDate,2019-07-31T16:13:07+03:00*
G04 #@! TF.ProjectId,ESP32-ADF_Rev_C,45535033-322d-4414-9446-5f5265765f43,rev?*
G04 #@! TF.SameCoordinates,Original*
G04 #@! TF.FileFunction,Soldermask,Bot*
G04 #@! TF.FilePolarity,Negative*
%FSLAX46Y46*%
G04 Gerber Fmt 4.6, Leading zero omitted, Abs format (unit mm)*
G04 Created by KiCad (PCBNEW 6.0.0-unknown-3514473~86~ubuntu18.04.1) date 2019-07-31 16:13:07*
%MOMM*%
%LPD*%
G04 APERTURE LIST*
%ADD10R,1.270000X1.701800*%
%ADD11C,1.301600*%
%ADD12O,1.601600X4.601600*%
%ADD13O,4.601600X1.601600*%
%ADD14C,2.101600*%
%ADD15C,3.101600*%
%ADD16C,1.625600*%
%ADD17R,1.501600X1.501600*%
%ADD18C,1.501600*%
%ADD19C,6.401600*%
%ADD20C,2.001600*%
%ADD21C,0.701600*%
%ADD22O,1.901600X1.301600*%
G04 APERTURE END LIST*
D10*
X109962000Y-55350000D03*
X108438000Y-55350000D03*
X108438000Y-55350000D03*
D11*
X83096100Y-39458900D03*
X90716100Y-39458900D03*
D12*
X64800000Y-43800000D03*
D13*
X69250000Y-40600000D03*
X69250000Y-47100000D03*
D14*
X126868680Y-48364200D03*
D15*
X101180000Y-62350000D03*
X102780000Y-69650000D03*
D16*
X109080000Y-63460000D03*
X109080000Y-66000000D03*
X109080000Y-68540000D03*
X133270000Y-68595000D03*
X130730000Y-68595000D03*
X62270000Y-68595000D03*
X59730000Y-68595000D03*
D17*
X59682380Y-42014140D03*
D18*
X57670700Y-42016680D03*
D17*
X110825380Y-40798140D03*
D18*
X108813700Y-40800680D03*
D17*
X102951380Y-40798140D03*
D18*
X100939700Y-40800680D03*
D11*
X96500000Y-45337000D03*
X96500000Y-50163000D03*
X94849000Y-49401000D03*
X94722000Y-46099000D03*
X98151000Y-49401000D03*
X98151000Y-46099000D03*
X94087000Y-47750000D03*
X98913000Y-47750000D03*
D19*
X96500000Y-47750000D03*
D20*
X83700000Y-72600000D03*
X83700000Y-79600000D03*
D11*
X60000000Y-77587000D03*
X60000000Y-82413000D03*
X58349000Y-81651000D03*
X58222000Y-78349000D03*
X61651000Y-81651000D03*
X61651000Y-78349000D03*
X57587000Y-80000000D03*
X62413000Y-80000000D03*
D19*
X60000000Y-80000000D03*
D11*
X133000000Y-77587000D03*
X133000000Y-82413000D03*
X131349000Y-81651000D03*
X131222000Y-78349000D03*
X134651000Y-81651000D03*
X134651000Y-78349000D03*
X130587000Y-80000000D03*
X135413000Y-80000000D03*
D19*
X133000000Y-80000000D03*
D21*
X60574000Y-57700000D03*
X60574000Y-61700000D03*
D22*
X58424000Y-56100000D03*
X61894000Y-56100000D03*
X61894000Y-63300000D03*
X58424000Y-63300000D03*
M02*
