G04 #@! TF.GenerationSoftware,KiCad,Pcbnew,5.1.0-unknown-223e24f~82~ubuntu18.04.1*
G04 #@! TF.CreationDate,2019-04-23T11:49:51+03:00*
G04 #@! TF.ProjectId,ESP32-ADF_Rev_B,45535033-322d-4414-9446-5f5265765f42,rev?*
G04 #@! TF.SameCoordinates,Original*
G04 #@! TF.FileFunction,Legend,Top*
G04 #@! TF.FilePolarity,Positive*
%FSLAX46Y46*%
G04 Gerber Fmt 4.6, Leading zero omitted, Abs format (unit mm)*
G04 Created by KiCad (PCBNEW 5.1.0-unknown-223e24f~82~ubuntu18.04.1) date 2019-04-23 11:49:51*
%MOMM*%
%LPD*%
G04 APERTURE LIST*
%ADD10C,0.150000*%
%ADD11C,0.300000*%
%ADD12C,0.120000*%
%ADD13C,0.254000*%
%ADD14C,0.400000*%
%ADD15C,0.700000*%
%ADD16C,0.500000*%
%ADD17C,0.100000*%
%ADD18C,0.127000*%
%ADD19C,0.508000*%
%ADD20C,0.250000*%
%ADD21C,0.050000*%
%ADD22C,0.200000*%
%ADD23C,0.152400*%
%ADD24C,0.158750*%
%ADD25C,0.317500*%
%ADD26C,0.175000*%
%ADD27C,0.154000*%
G04 APERTURE END LIST*
D10*
X97552260Y-37686098D02*
X98361784Y-37686098D01*
X98457022Y-37638479D01*
X98504641Y-37590860D01*
X98552260Y-37495621D01*
X98552260Y-37305145D01*
X98504641Y-37209907D01*
X98457022Y-37162288D01*
X98361784Y-37114669D01*
X97552260Y-37114669D01*
X98028451Y-36638479D02*
X98028451Y-36305145D01*
X98552260Y-36162288D02*
X98552260Y-36638479D01*
X97552260Y-36638479D01*
X97552260Y-36162288D01*
X97552260Y-35828955D02*
X98552260Y-35162288D01*
X97552260Y-35162288D02*
X98552260Y-35828955D01*
X97552260Y-34924193D02*
X97552260Y-34352764D01*
X98552260Y-34638479D02*
X97552260Y-34638479D01*
X106160529Y-39679570D02*
X106198624Y-39603380D01*
X106198624Y-39450999D01*
X106160529Y-39374808D01*
X106084339Y-39336713D01*
X106046243Y-39336713D01*
X105970053Y-39374808D01*
X105931958Y-39450999D01*
X105931958Y-39565284D01*
X105893862Y-39641475D01*
X105817672Y-39679570D01*
X105779577Y-39679570D01*
X105703386Y-39641475D01*
X105665291Y-39565284D01*
X105665291Y-39450999D01*
X105703386Y-39374808D01*
X105665291Y-38993856D02*
X106465291Y-38993856D01*
X105703386Y-38993856D02*
X105665291Y-38917665D01*
X105665291Y-38765284D01*
X105703386Y-38689094D01*
X105741481Y-38650999D01*
X105817672Y-38612903D01*
X106046243Y-38612903D01*
X106122434Y-38650999D01*
X106160529Y-38689094D01*
X106198624Y-38765284D01*
X106198624Y-38917665D01*
X106160529Y-38993856D01*
X106160529Y-37965284D02*
X106198624Y-38041475D01*
X106198624Y-38193856D01*
X106160529Y-38270046D01*
X106084339Y-38308141D01*
X105779577Y-38308141D01*
X105703386Y-38270046D01*
X105665291Y-38193856D01*
X105665291Y-38041475D01*
X105703386Y-37965284D01*
X105779577Y-37927189D01*
X105855767Y-37927189D01*
X105931958Y-38308141D01*
X106198624Y-37241475D02*
X105779577Y-37241475D01*
X105703386Y-37279570D01*
X105665291Y-37355760D01*
X105665291Y-37508141D01*
X105703386Y-37584332D01*
X106160529Y-37241475D02*
X106198624Y-37317665D01*
X106198624Y-37508141D01*
X106160529Y-37584332D01*
X106084339Y-37622427D01*
X106008148Y-37622427D01*
X105931958Y-37584332D01*
X105893862Y-37508141D01*
X105893862Y-37317665D01*
X105855767Y-37241475D01*
X106198624Y-36860522D02*
X105398624Y-36860522D01*
X105893862Y-36784332D02*
X106198624Y-36555760D01*
X105665291Y-36555760D02*
X105970053Y-36860522D01*
X106160529Y-35908141D02*
X106198624Y-35984332D01*
X106198624Y-36136713D01*
X106160529Y-36212903D01*
X106084339Y-36250999D01*
X105779577Y-36250999D01*
X105703386Y-36212903D01*
X105665291Y-36136713D01*
X105665291Y-35984332D01*
X105703386Y-35908141D01*
X105779577Y-35870046D01*
X105855767Y-35870046D01*
X105931958Y-36250999D01*
X106198624Y-35527189D02*
X105665291Y-35527189D01*
X105817672Y-35527189D02*
X105741481Y-35489094D01*
X105703386Y-35450999D01*
X105665291Y-35374808D01*
X105665291Y-35298618D01*
X106160529Y-35070046D02*
X106198624Y-34993856D01*
X106198624Y-34841475D01*
X106160529Y-34765284D01*
X106084339Y-34727189D01*
X106046243Y-34727189D01*
X105970053Y-34765284D01*
X105931958Y-34841475D01*
X105931958Y-34955760D01*
X105893862Y-35031951D01*
X105817672Y-35070046D01*
X105779577Y-35070046D01*
X105703386Y-35031951D01*
X105665291Y-34955760D01*
X105665291Y-34841475D01*
X105703386Y-34765284D01*
X109117218Y-34082944D02*
X109041027Y-34044849D01*
X109002932Y-33968659D01*
X109002932Y-33282944D01*
X109726741Y-34044849D02*
X109650551Y-34082944D01*
X109498170Y-34082944D01*
X109421980Y-34044849D01*
X109383884Y-33968659D01*
X109383884Y-33663897D01*
X109421980Y-33587706D01*
X109498170Y-33549611D01*
X109650551Y-33549611D01*
X109726741Y-33587706D01*
X109764837Y-33663897D01*
X109764837Y-33740087D01*
X109383884Y-33816278D01*
X109993408Y-33549611D02*
X110298170Y-33549611D01*
X110107694Y-34082944D02*
X110107694Y-33397230D01*
X110145789Y-33321040D01*
X110221980Y-33282944D01*
X110298170Y-33282944D01*
X110450551Y-33549611D02*
X110755313Y-33549611D01*
X110564837Y-33282944D02*
X110564837Y-33968659D01*
X110602932Y-34044849D01*
X110679122Y-34082944D01*
X110755313Y-34082944D01*
X100732740Y-34082944D02*
X100732740Y-33549611D01*
X100732740Y-33701992D02*
X100770835Y-33625801D01*
X100808930Y-33587706D01*
X100885120Y-33549611D01*
X100961311Y-33549611D01*
X101227978Y-34082944D02*
X101227978Y-33549611D01*
X101227978Y-33282944D02*
X101189882Y-33321040D01*
X101227978Y-33359135D01*
X101266073Y-33321040D01*
X101227978Y-33282944D01*
X101227978Y-33359135D01*
X101951787Y-33549611D02*
X101951787Y-34197230D01*
X101913692Y-34273420D01*
X101875597Y-34311516D01*
X101799406Y-34349611D01*
X101685120Y-34349611D01*
X101608930Y-34311516D01*
X101951787Y-34044849D02*
X101875597Y-34082944D01*
X101723216Y-34082944D01*
X101647025Y-34044849D01*
X101608930Y-34006754D01*
X101570835Y-33930563D01*
X101570835Y-33701992D01*
X101608930Y-33625801D01*
X101647025Y-33587706D01*
X101723216Y-33549611D01*
X101875597Y-33549611D01*
X101951787Y-33587706D01*
X102332740Y-34082944D02*
X102332740Y-33282944D01*
X102675597Y-34082944D02*
X102675597Y-33663897D01*
X102637501Y-33587706D01*
X102561311Y-33549611D01*
X102447025Y-33549611D01*
X102370835Y-33587706D01*
X102332740Y-33625801D01*
X102942263Y-33549611D02*
X103247025Y-33549611D01*
X103056549Y-33282944D02*
X103056549Y-33968659D01*
X103094644Y-34044849D01*
X103170835Y-34082944D01*
X103247025Y-34082944D01*
X88844380Y-78517285D02*
X88844380Y-78993476D01*
X87844380Y-78993476D01*
X88844380Y-78183952D02*
X87844380Y-78183952D01*
X88844380Y-77707761D02*
X87844380Y-77707761D01*
X88844380Y-77136333D01*
X87844380Y-77136333D01*
X88320571Y-76660142D02*
X88320571Y-76326809D01*
X88844380Y-76183952D02*
X88844380Y-76660142D01*
X87844380Y-76660142D01*
X87844380Y-76183952D01*
X87844380Y-74803000D02*
X87844380Y-74612523D01*
X87892000Y-74517285D01*
X87987238Y-74422047D01*
X88177714Y-74374428D01*
X88511047Y-74374428D01*
X88701523Y-74422047D01*
X88796761Y-74517285D01*
X88844380Y-74612523D01*
X88844380Y-74803000D01*
X88796761Y-74898238D01*
X88701523Y-74993476D01*
X88511047Y-75041095D01*
X88177714Y-75041095D01*
X87987238Y-74993476D01*
X87892000Y-74898238D01*
X87844380Y-74803000D01*
X87844380Y-73945857D02*
X88653904Y-73945857D01*
X88749142Y-73898238D01*
X88796761Y-73850619D01*
X88844380Y-73755380D01*
X88844380Y-73564904D01*
X88796761Y-73469666D01*
X88749142Y-73422047D01*
X88653904Y-73374428D01*
X87844380Y-73374428D01*
X87844380Y-73041095D02*
X87844380Y-72469666D01*
X88844380Y-72755380D02*
X87844380Y-72755380D01*
X75149864Y-78346560D02*
X74816531Y-77870370D01*
X74578436Y-78346560D02*
X74578436Y-77346560D01*
X74959388Y-77346560D01*
X75054626Y-77394180D01*
X75102245Y-77441799D01*
X75149864Y-77537037D01*
X75149864Y-77679894D01*
X75102245Y-77775132D01*
X75054626Y-77822751D01*
X74959388Y-77870370D01*
X74578436Y-77870370D01*
X75959388Y-78298941D02*
X75864150Y-78346560D01*
X75673674Y-78346560D01*
X75578436Y-78298941D01*
X75530817Y-78203703D01*
X75530817Y-77822751D01*
X75578436Y-77727513D01*
X75673674Y-77679894D01*
X75864150Y-77679894D01*
X75959388Y-77727513D01*
X76007007Y-77822751D01*
X76007007Y-77917989D01*
X75530817Y-78013227D01*
X76340340Y-77679894D02*
X76578436Y-78346560D01*
X76816531Y-77679894D01*
X77197483Y-78251322D02*
X77245102Y-78298941D01*
X77197483Y-78346560D01*
X77149864Y-78298941D01*
X77197483Y-78251322D01*
X77197483Y-78346560D01*
X78007007Y-77822751D02*
X78149864Y-77870370D01*
X78197483Y-77917989D01*
X78245102Y-78013227D01*
X78245102Y-78156084D01*
X78197483Y-78251322D01*
X78149864Y-78298941D01*
X78054626Y-78346560D01*
X77673674Y-78346560D01*
X77673674Y-77346560D01*
X78007007Y-77346560D01*
X78102245Y-77394180D01*
X78149864Y-77441799D01*
X78197483Y-77537037D01*
X78197483Y-77632275D01*
X78149864Y-77727513D01*
X78102245Y-77775132D01*
X78007007Y-77822751D01*
X77673674Y-77822751D01*
D11*
X66465853Y-79470580D02*
X66932520Y-79470580D01*
X67132520Y-80203913D02*
X66465853Y-80203913D01*
X66465853Y-78803913D01*
X67132520Y-78803913D01*
X67665853Y-80137246D02*
X67865853Y-80203913D01*
X68199186Y-80203913D01*
X68332520Y-80137246D01*
X68399186Y-80070580D01*
X68465853Y-79937246D01*
X68465853Y-79803913D01*
X68399186Y-79670580D01*
X68332520Y-79603913D01*
X68199186Y-79537246D01*
X67932520Y-79470580D01*
X67799186Y-79403913D01*
X67732520Y-79337246D01*
X67665853Y-79203913D01*
X67665853Y-79070580D01*
X67732520Y-78937246D01*
X67799186Y-78870580D01*
X67932520Y-78803913D01*
X68265853Y-78803913D01*
X68465853Y-78870580D01*
X69065853Y-80203913D02*
X69065853Y-78803913D01*
X69599186Y-78803913D01*
X69732520Y-78870580D01*
X69799186Y-78937246D01*
X69865853Y-79070580D01*
X69865853Y-79270580D01*
X69799186Y-79403913D01*
X69732520Y-79470580D01*
X69599186Y-79537246D01*
X69065853Y-79537246D01*
X70332520Y-78803913D02*
X71199186Y-78803913D01*
X70732520Y-79337246D01*
X70932520Y-79337246D01*
X71065853Y-79403913D01*
X71132520Y-79470580D01*
X71199186Y-79603913D01*
X71199186Y-79937246D01*
X71132520Y-80070580D01*
X71065853Y-80137246D01*
X70932520Y-80203913D01*
X70532520Y-80203913D01*
X70399186Y-80137246D01*
X70332520Y-80070580D01*
X71732520Y-78937246D02*
X71799186Y-78870580D01*
X71932520Y-78803913D01*
X72265853Y-78803913D01*
X72399186Y-78870580D01*
X72465853Y-78937246D01*
X72532520Y-79070580D01*
X72532520Y-79203913D01*
X72465853Y-79403913D01*
X71665853Y-80203913D01*
X72532520Y-80203913D01*
X73132520Y-79670580D02*
X74199186Y-79670580D01*
X74799186Y-79803913D02*
X75465853Y-79803913D01*
X74665853Y-80203913D02*
X75132520Y-78803913D01*
X75599186Y-80203913D01*
X76065853Y-80203913D02*
X76065853Y-78803913D01*
X76399186Y-78803913D01*
X76599186Y-78870580D01*
X76732520Y-79003913D01*
X76799186Y-79137246D01*
X76865853Y-79403913D01*
X76865853Y-79603913D01*
X76799186Y-79870580D01*
X76732520Y-80003913D01*
X76599186Y-80137246D01*
X76399186Y-80203913D01*
X76065853Y-80203913D01*
X77932520Y-79470580D02*
X77465853Y-79470580D01*
X77465853Y-80203913D02*
X77465853Y-78803913D01*
X78132520Y-78803913D01*
D10*
X119277332Y-68305940D02*
X119277332Y-67639274D01*
X119277332Y-67829750D02*
X119324951Y-67734512D01*
X119372570Y-67686893D01*
X119467808Y-67639274D01*
X119563046Y-67639274D01*
X120277332Y-68258321D02*
X120182094Y-68305940D01*
X119991618Y-68305940D01*
X119896380Y-68258321D01*
X119848760Y-68163083D01*
X119848760Y-67782131D01*
X119896380Y-67686893D01*
X119991618Y-67639274D01*
X120182094Y-67639274D01*
X120277332Y-67686893D01*
X120324951Y-67782131D01*
X120324951Y-67877369D01*
X119848760Y-67972607D01*
X120705903Y-68258321D02*
X120801141Y-68305940D01*
X120991618Y-68305940D01*
X121086856Y-68258321D01*
X121134475Y-68163083D01*
X121134475Y-68115464D01*
X121086856Y-68020226D01*
X120991618Y-67972607D01*
X120848760Y-67972607D01*
X120753522Y-67924988D01*
X120705903Y-67829750D01*
X120705903Y-67782131D01*
X120753522Y-67686893D01*
X120848760Y-67639274D01*
X120991618Y-67639274D01*
X121086856Y-67686893D01*
X121943999Y-68258321D02*
X121848760Y-68305940D01*
X121658284Y-68305940D01*
X121563046Y-68258321D01*
X121515427Y-68163083D01*
X121515427Y-67782131D01*
X121563046Y-67686893D01*
X121658284Y-67639274D01*
X121848760Y-67639274D01*
X121943999Y-67686893D01*
X121991618Y-67782131D01*
X121991618Y-67877369D01*
X121515427Y-67972607D01*
X122277332Y-67639274D02*
X122658284Y-67639274D01*
X122420189Y-67305940D02*
X122420189Y-68163083D01*
X122467808Y-68258321D01*
X122563046Y-68305940D01*
X122658284Y-68305940D01*
X55642857Y-53809523D02*
X55595238Y-53761904D01*
X55547619Y-53619047D01*
X55547619Y-53523809D01*
X55595238Y-53380952D01*
X55690476Y-53285714D01*
X55785714Y-53238095D01*
X55976190Y-53190476D01*
X56119047Y-53190476D01*
X56309523Y-53238095D01*
X56404761Y-53285714D01*
X56500000Y-53380952D01*
X56547619Y-53523809D01*
X56547619Y-53619047D01*
X56500000Y-53761904D01*
X56452380Y-53809523D01*
X55547619Y-45488095D02*
X56547619Y-45488095D01*
X56547619Y-45869047D01*
X56500000Y-45964285D01*
X56452380Y-46011904D01*
X56357142Y-46059523D01*
X56214285Y-46059523D01*
X56119047Y-46011904D01*
X56071428Y-45964285D01*
X56023809Y-45869047D01*
X56023809Y-45488095D01*
X57739707Y-34910020D02*
X57263517Y-34910020D01*
X57263517Y-33910020D01*
X58073040Y-34910020D02*
X58073040Y-34243354D01*
X58073040Y-33910020D02*
X58025421Y-33957640D01*
X58073040Y-34005259D01*
X58120660Y-33957640D01*
X58073040Y-33910020D01*
X58073040Y-34005259D01*
X58549231Y-34910020D02*
X58549231Y-33910020D01*
X58930183Y-33910020D01*
X59025421Y-33957640D01*
X59073040Y-34005259D01*
X59120660Y-34100497D01*
X59120660Y-34243354D01*
X59073040Y-34338592D01*
X59025421Y-34386211D01*
X58930183Y-34433830D01*
X58549231Y-34433830D01*
X59692088Y-34910020D02*
X59596850Y-34862401D01*
X59549231Y-34814782D01*
X59501612Y-34719544D01*
X59501612Y-34433830D01*
X59549231Y-34338592D01*
X59596850Y-34290973D01*
X59692088Y-34243354D01*
X59834945Y-34243354D01*
X59930183Y-34290973D01*
X59977802Y-34338592D01*
X60025421Y-34433830D01*
X60025421Y-34719544D01*
X59977802Y-34814782D01*
X59930183Y-34862401D01*
X59834945Y-34910020D01*
X59692088Y-34910020D01*
D12*
X103000000Y-78750000D02*
X103000000Y-82750000D01*
X103500000Y-83250000D02*
X112500000Y-83250000D01*
X113000000Y-82750000D02*
G75*
G02X112500000Y-83250000I-500000J0D01*
G01*
X103500000Y-83250000D02*
G75*
G02X103000000Y-82750000I0J500000D01*
G01*
X112500000Y-78250000D02*
G75*
G02X113000000Y-78750000I0J-500000D01*
G01*
X113000000Y-82750000D02*
X113000000Y-78750000D01*
X103500000Y-78250000D02*
X112500000Y-78250000D01*
X103000000Y-78750000D02*
G75*
G02X103500000Y-78250000I500000J0D01*
G01*
X101750000Y-82750000D02*
X101750000Y-78750000D01*
X92250000Y-78250000D02*
X101250000Y-78250000D01*
X91750000Y-78750000D02*
G75*
G02X92250000Y-78250000I500000J0D01*
G01*
X92250000Y-83250000D02*
G75*
G02X91750000Y-82750000I0J500000D01*
G01*
X92250000Y-83250000D02*
X101250000Y-83250000D01*
X101750000Y-82750000D02*
G75*
G02X101250000Y-83250000I-500000J0D01*
G01*
X91750000Y-78750000D02*
X91750000Y-82750000D01*
X101250000Y-78250000D02*
G75*
G02X101750000Y-78750000I0J-500000D01*
G01*
X112500000Y-72250000D02*
G75*
G02X113000000Y-72750000I0J-500000D01*
G01*
X103500000Y-77250000D02*
X112500000Y-77250000D01*
X113000000Y-76750000D02*
G75*
G02X112500000Y-77250000I-500000J0D01*
G01*
X103500000Y-72250000D02*
X112500000Y-72250000D01*
X103000000Y-72750000D02*
G75*
G02X103500000Y-72250000I500000J0D01*
G01*
X103500000Y-77250000D02*
G75*
G02X103000000Y-76750000I0J500000D01*
G01*
X103000000Y-72750000D02*
X103000000Y-76750000D01*
X113000000Y-76750000D02*
X113000000Y-72750000D01*
X101250000Y-72250000D02*
G75*
G02X101750000Y-72750000I0J-500000D01*
G01*
X101750000Y-76750000D02*
G75*
G02X101250000Y-77250000I-500000J0D01*
G01*
X92250000Y-77250000D02*
G75*
G02X91750000Y-76750000I0J500000D01*
G01*
X91750000Y-72750000D02*
G75*
G02X92250000Y-72250000I500000J0D01*
G01*
X92250000Y-72250000D02*
X101250000Y-72250000D01*
X101750000Y-76750000D02*
X101750000Y-72750000D01*
X92250000Y-77250000D02*
X101250000Y-77250000D01*
X91750000Y-72750000D02*
X91750000Y-76750000D01*
D10*
X122378102Y-84610200D02*
X122378102Y-83943534D01*
X122378102Y-84134010D02*
X122425721Y-84038772D01*
X122473340Y-83991153D01*
X122568579Y-83943534D01*
X122663817Y-83943534D01*
X123378102Y-84562581D02*
X123282864Y-84610200D01*
X123092388Y-84610200D01*
X122997150Y-84562581D01*
X122949531Y-84467343D01*
X122949531Y-84086391D01*
X122997150Y-83991153D01*
X123092388Y-83943534D01*
X123282864Y-83943534D01*
X123378102Y-83991153D01*
X123425721Y-84086391D01*
X123425721Y-84181629D01*
X122949531Y-84276867D01*
X124282864Y-84562581D02*
X124187626Y-84610200D01*
X123997150Y-84610200D01*
X123901912Y-84562581D01*
X123854293Y-84514962D01*
X123806674Y-84419724D01*
X123806674Y-84134010D01*
X123854293Y-84038772D01*
X123901912Y-83991153D01*
X123997150Y-83943534D01*
X124187626Y-83943534D01*
X124282864Y-83991153D01*
X124854293Y-84610200D02*
X124759055Y-84562581D01*
X124711436Y-84514962D01*
X124663817Y-84419724D01*
X124663817Y-84134010D01*
X124711436Y-84038772D01*
X124759055Y-83991153D01*
X124854293Y-83943534D01*
X124997150Y-83943534D01*
X125092388Y-83991153D01*
X125140007Y-84038772D01*
X125187626Y-84134010D01*
X125187626Y-84419724D01*
X125140007Y-84514962D01*
X125092388Y-84562581D01*
X124997150Y-84610200D01*
X124854293Y-84610200D01*
X125616198Y-84610200D02*
X125616198Y-83943534D01*
X125616198Y-84134010D02*
X125663817Y-84038772D01*
X125711436Y-83991153D01*
X125806674Y-83943534D01*
X125901912Y-83943534D01*
X126663817Y-84610200D02*
X126663817Y-83610200D01*
X126663817Y-84562581D02*
X126568579Y-84610200D01*
X126378102Y-84610200D01*
X126282864Y-84562581D01*
X126235245Y-84514962D01*
X126187626Y-84419724D01*
X126187626Y-84134010D01*
X126235245Y-84038772D01*
X126282864Y-83991153D01*
X126378102Y-83943534D01*
X126568579Y-83943534D01*
X126663817Y-83991153D01*
X115860415Y-84610200D02*
X115860415Y-83943534D01*
X115860415Y-84038772D02*
X115908034Y-83991153D01*
X116003272Y-83943534D01*
X116146129Y-83943534D01*
X116241367Y-83991153D01*
X116288986Y-84086391D01*
X116288986Y-84610200D01*
X116288986Y-84086391D02*
X116336605Y-83991153D01*
X116431843Y-83943534D01*
X116574700Y-83943534D01*
X116669939Y-83991153D01*
X116717558Y-84086391D01*
X116717558Y-84610200D01*
X117336605Y-84610200D02*
X117241367Y-84562581D01*
X117193748Y-84514962D01*
X117146129Y-84419724D01*
X117146129Y-84134010D01*
X117193748Y-84038772D01*
X117241367Y-83991153D01*
X117336605Y-83943534D01*
X117479462Y-83943534D01*
X117574700Y-83991153D01*
X117622320Y-84038772D01*
X117669939Y-84134010D01*
X117669939Y-84419724D01*
X117622320Y-84514962D01*
X117574700Y-84562581D01*
X117479462Y-84610200D01*
X117336605Y-84610200D01*
X118527081Y-84610200D02*
X118527081Y-83610200D01*
X118527081Y-84562581D02*
X118431843Y-84610200D01*
X118241367Y-84610200D01*
X118146129Y-84562581D01*
X118098510Y-84514962D01*
X118050891Y-84419724D01*
X118050891Y-84134010D01*
X118098510Y-84038772D01*
X118146129Y-83991153D01*
X118241367Y-83943534D01*
X118431843Y-83943534D01*
X118527081Y-83991153D01*
X119384224Y-84562581D02*
X119288986Y-84610200D01*
X119098510Y-84610200D01*
X119003272Y-84562581D01*
X118955653Y-84467343D01*
X118955653Y-84086391D01*
X119003272Y-83991153D01*
X119098510Y-83943534D01*
X119288986Y-83943534D01*
X119384224Y-83991153D01*
X119431843Y-84086391D01*
X119431843Y-84181629D01*
X118955653Y-84276867D01*
X95680952Y-74954761D02*
X95823809Y-75002380D01*
X96061904Y-75002380D01*
X96157142Y-74954761D01*
X96204761Y-74907142D01*
X96252380Y-74811904D01*
X96252380Y-74716666D01*
X96204761Y-74621428D01*
X96157142Y-74573809D01*
X96061904Y-74526190D01*
X95871428Y-74478571D01*
X95776190Y-74430952D01*
X95728571Y-74383333D01*
X95680952Y-74288095D01*
X95680952Y-74192857D01*
X95728571Y-74097619D01*
X95776190Y-74050000D01*
X95871428Y-74002380D01*
X96109523Y-74002380D01*
X96252380Y-74050000D01*
X96680952Y-74478571D02*
X97014285Y-74478571D01*
X97157142Y-75002380D02*
X96680952Y-75002380D01*
X96680952Y-74002380D01*
X97157142Y-74002380D01*
X97442857Y-74002380D02*
X98014285Y-74002380D01*
X97728571Y-75002380D02*
X97728571Y-74002380D01*
X95076190Y-81052380D02*
X95076190Y-80052380D01*
X95457142Y-80052380D01*
X95552380Y-80100000D01*
X95600000Y-80147619D01*
X95647619Y-80242857D01*
X95647619Y-80385714D01*
X95600000Y-80480952D01*
X95552380Y-80528571D01*
X95457142Y-80576190D01*
X95076190Y-80576190D01*
X96552380Y-81052380D02*
X96076190Y-81052380D01*
X96076190Y-80052380D01*
X96838095Y-80766666D02*
X97314285Y-80766666D01*
X96742857Y-81052380D02*
X97076190Y-80052380D01*
X97409523Y-81052380D01*
X97933333Y-80576190D02*
X97933333Y-81052380D01*
X97600000Y-80052380D02*
X97933333Y-80576190D01*
X98266666Y-80052380D01*
X106319047Y-79952380D02*
X106652380Y-80952380D01*
X106985714Y-79952380D01*
X107509523Y-79952380D02*
X107700000Y-79952380D01*
X107795238Y-80000000D01*
X107890476Y-80095238D01*
X107938095Y-80285714D01*
X107938095Y-80619047D01*
X107890476Y-80809523D01*
X107795238Y-80904761D01*
X107700000Y-80952380D01*
X107509523Y-80952380D01*
X107414285Y-80904761D01*
X107319047Y-80809523D01*
X107271428Y-80619047D01*
X107271428Y-80285714D01*
X107319047Y-80095238D01*
X107414285Y-80000000D01*
X107509523Y-79952380D01*
X108842857Y-80952380D02*
X108366666Y-80952380D01*
X108366666Y-79952380D01*
X109176190Y-80571428D02*
X109938095Y-80571428D01*
X105919047Y-74302380D02*
X106252380Y-75302380D01*
X106585714Y-74302380D01*
X107109523Y-74302380D02*
X107300000Y-74302380D01*
X107395238Y-74350000D01*
X107490476Y-74445238D01*
X107538095Y-74635714D01*
X107538095Y-74969047D01*
X107490476Y-75159523D01*
X107395238Y-75254761D01*
X107300000Y-75302380D01*
X107109523Y-75302380D01*
X107014285Y-75254761D01*
X106919047Y-75159523D01*
X106871428Y-74969047D01*
X106871428Y-74635714D01*
X106919047Y-74445238D01*
X107014285Y-74350000D01*
X107109523Y-74302380D01*
X108442857Y-75302380D02*
X107966666Y-75302380D01*
X107966666Y-74302380D01*
X108776190Y-74921428D02*
X109538095Y-74921428D01*
X109157142Y-75302380D02*
X109157142Y-74540476D01*
D13*
X76162000Y-36892000D02*
X76162000Y-37908000D01*
X74638000Y-36892000D02*
X74638000Y-37908000D01*
X80995520Y-45346620D02*
X80995520Y-46362620D01*
X79471520Y-45346620D02*
X79471520Y-46362620D01*
X79471520Y-45359320D02*
X79471520Y-46375320D01*
X77947520Y-45359320D02*
X77947520Y-46375320D01*
X83862000Y-50692000D02*
X83862000Y-51708000D01*
X82338000Y-50692000D02*
X82338000Y-51708000D01*
X86408000Y-55762000D02*
X85392000Y-55762000D01*
X86408000Y-54238000D02*
X85392000Y-54238000D01*
X84908000Y-60768500D02*
X83892000Y-60768500D01*
X84908000Y-59244500D02*
X83892000Y-59244500D01*
X84908000Y-59068500D02*
X83892000Y-59068500D01*
X84908000Y-57544500D02*
X83892000Y-57544500D01*
X91488260Y-52202080D02*
X91488260Y-51186080D01*
X93012260Y-52202080D02*
X93012260Y-51186080D01*
X96687640Y-57388760D02*
X97703640Y-57388760D01*
X96687640Y-58912760D02*
X97703640Y-58912760D01*
X84899500Y-57324500D02*
X83883500Y-57324500D01*
X84899500Y-55800500D02*
X83883500Y-55800500D01*
X111231680Y-62776100D02*
X111231680Y-61760100D01*
X112755680Y-62776100D02*
X112755680Y-61760100D01*
X68426240Y-72580140D02*
X69442240Y-72580140D01*
X68426240Y-74104140D02*
X69442240Y-74104140D01*
X73959720Y-75780900D02*
X73959720Y-76796900D01*
X72435720Y-75780900D02*
X72435720Y-76796900D01*
X75869800Y-68483480D02*
X76885800Y-68483480D01*
X75869800Y-70007480D02*
X76885800Y-70007480D01*
X71335900Y-69855080D02*
X71335900Y-70871080D01*
X69811900Y-69855080D02*
X69811900Y-70871080D01*
X65214500Y-61658500D02*
X65214500Y-60642500D01*
X66738500Y-61658500D02*
X66738500Y-60642500D01*
X116962000Y-62153000D02*
X116962000Y-63169000D01*
X115438000Y-62153000D02*
X115438000Y-63169000D01*
X68407280Y-76476860D02*
X69423280Y-76476860D01*
X68407280Y-78000860D02*
X69423280Y-78000860D01*
X113422000Y-55734000D02*
X114438000Y-55734000D01*
X113422000Y-57258000D02*
X114438000Y-57258000D01*
X113903760Y-48348900D02*
X114919760Y-48348900D01*
X113903760Y-49872900D02*
X114919760Y-49872900D01*
X110045500Y-57785000D02*
X111061500Y-57785000D01*
X110045500Y-59309000D02*
X111061500Y-59309000D01*
X115567460Y-41607740D02*
X115567460Y-40591740D01*
X117599460Y-41607740D02*
X117599460Y-40591740D01*
X61408000Y-54616000D02*
X60392000Y-54616000D01*
X61408000Y-52584000D02*
X60392000Y-52584000D01*
X60984000Y-45308000D02*
X60984000Y-44292000D01*
X63016000Y-45308000D02*
X63016000Y-44292000D01*
X76316000Y-53492000D02*
X76316000Y-54508000D01*
X74284000Y-53492000D02*
X74284000Y-54508000D01*
X78716000Y-53492000D02*
X78716000Y-54508000D01*
X76684000Y-53492000D02*
X76684000Y-54508000D01*
X87607140Y-52331620D02*
X87607140Y-51315620D01*
X89639140Y-52331620D02*
X89639140Y-51315620D01*
X89547700Y-52349400D02*
X89547700Y-51333400D01*
X91579700Y-52349400D02*
X91579700Y-51333400D01*
X87684000Y-65108000D02*
X87684000Y-64092000D01*
X89716000Y-65108000D02*
X89716000Y-64092000D01*
X85284000Y-65108000D02*
X85284000Y-64092000D01*
X87316000Y-65108000D02*
X87316000Y-64092000D01*
X97801000Y-56369000D02*
X96785000Y-56369000D01*
X97801000Y-54337000D02*
X96785000Y-54337000D01*
X97801000Y-54266000D02*
X96785000Y-54266000D01*
X97801000Y-52234000D02*
X96785000Y-52234000D01*
X94305120Y-65839340D02*
X95016320Y-65839340D01*
X94305120Y-65001140D02*
X94305120Y-65839340D01*
X97149920Y-65001140D02*
X97149920Y-65839340D01*
X96438720Y-65839340D02*
X97149920Y-65839340D01*
X60265000Y-49277600D02*
X60265000Y-49988800D01*
X61103200Y-49277600D02*
X60265000Y-49277600D01*
X61103200Y-52122400D02*
X60265000Y-52122400D01*
X60265000Y-51411200D02*
X60265000Y-52122400D01*
X64965000Y-56277600D02*
X64965000Y-56988800D01*
X65803200Y-56277600D02*
X64965000Y-56277600D01*
X65803200Y-59122400D02*
X64965000Y-59122400D01*
X64965000Y-58411200D02*
X64965000Y-59122400D01*
X91048840Y-65839340D02*
X91760040Y-65839340D01*
X91048840Y-65001140D02*
X91048840Y-65839340D01*
X93893640Y-65001140D02*
X93893640Y-65839340D01*
X93182440Y-65839340D02*
X93893640Y-65839340D01*
X78135000Y-63222400D02*
X78135000Y-62511200D01*
X77296800Y-63222400D02*
X78135000Y-63222400D01*
X77296800Y-60377600D02*
X78135000Y-60377600D01*
X78135000Y-61088800D02*
X78135000Y-60377600D01*
X78142440Y-59872360D02*
X78142440Y-59161160D01*
X77304240Y-59872360D02*
X78142440Y-59872360D01*
X77304240Y-57027560D02*
X78142440Y-57027560D01*
X78142440Y-57738760D02*
X78142440Y-57027560D01*
X114343180Y-50142140D02*
X114597180Y-50142140D01*
X114343180Y-50142140D02*
X114089180Y-50142140D01*
X114343180Y-51031140D02*
X114089180Y-51031140D01*
X114343180Y-51031140D02*
X114597180Y-51031140D01*
X112504220Y-50154840D02*
X112758220Y-50154840D01*
X112504220Y-50154840D02*
X112250220Y-50154840D01*
X112504220Y-51043840D02*
X112250220Y-51043840D01*
X112504220Y-51043840D02*
X112758220Y-51043840D01*
D14*
X63700287Y-82425540D02*
G75*
G03X63700287Y-82425540I-337447J0D01*
G01*
D15*
X63350140Y-81650840D02*
X63858140Y-81142840D01*
X64950340Y-81066640D02*
X65585340Y-81676240D01*
X65559940Y-83632040D02*
X65001140Y-84216240D01*
X67185540Y-84228940D02*
X66728340Y-83771740D01*
X68171340Y-84228940D02*
X67185540Y-84228940D01*
D14*
X69050464Y-84203540D02*
G75*
G03X69050464Y-84203540I-366324J0D01*
G01*
D15*
X68684140Y-81511140D02*
X68684140Y-83111340D01*
D14*
X69070358Y-80977740D02*
G75*
G03X69070358Y-80977740I-373518J0D01*
G01*
X70275699Y-84178140D02*
G75*
G03X70275699Y-84178140I-359659J0D01*
G01*
D15*
X69903340Y-83670140D02*
X69903340Y-81079340D01*
X69903340Y-81079340D02*
X70741540Y-81079340D01*
X70741540Y-81079340D02*
X71351140Y-81587340D01*
X71452740Y-82374740D02*
X71452740Y-81663540D01*
X71528940Y-81587340D02*
X72163940Y-81079340D01*
D14*
X71823658Y-82908140D02*
G75*
G03X71823658Y-82908140I-370918J0D01*
G01*
D15*
X72163940Y-81079340D02*
X73052940Y-81079340D01*
D14*
X73428869Y-84190840D02*
G75*
G03X73428869Y-84190840I-363229J0D01*
G01*
X79224406Y-84279740D02*
G75*
G03X79224406Y-84279740I-329466J0D01*
G01*
D15*
X78564740Y-83924140D02*
X77726540Y-83111340D01*
D16*
X77218540Y-83009740D02*
X77751940Y-83009740D01*
D15*
X76075540Y-84228940D02*
X77218540Y-83111340D01*
X74754740Y-84228940D02*
X76075540Y-84228940D01*
X74322940Y-83797140D02*
X74754740Y-84228940D01*
X74322940Y-81561940D02*
X74322940Y-83797140D01*
X74322940Y-81536540D02*
X74805540Y-81028540D01*
X74853640Y-81053940D02*
X76075540Y-81053940D01*
X76075540Y-81053940D02*
X77167740Y-82120740D01*
D16*
X77193140Y-82235040D02*
X77751940Y-82235040D01*
D15*
X78615540Y-81244440D02*
X77751940Y-82138140D01*
D14*
X79343275Y-80888840D02*
G75*
G03X79343275Y-80888840I-359435J0D01*
G01*
D15*
X75542140Y-82628740D02*
X74322940Y-82628740D01*
D14*
X76409799Y-82628740D02*
G75*
G03X76409799Y-82628740I-359659J0D01*
G01*
D15*
X63921640Y-84241640D02*
X64963040Y-84241640D01*
X63362840Y-83682840D02*
X63362840Y-82920840D01*
X63350140Y-83670140D02*
X63934340Y-84241640D01*
X63350140Y-81701640D02*
X63350140Y-81942940D01*
X65572640Y-81663540D02*
X65572640Y-83593940D01*
X64950340Y-81053940D02*
X63947040Y-81053940D01*
X73065640Y-81066640D02*
X73065640Y-83670140D01*
X66728340Y-83784440D02*
X66728340Y-81053940D01*
D17*
X66728340Y-80711040D02*
X66448940Y-80711040D01*
X66423540Y-80711040D02*
X66423540Y-83860640D01*
X66436240Y-80711040D02*
X66423540Y-80711040D01*
X66448940Y-80711040D02*
X66436240Y-80711040D01*
X66563240Y-80799940D02*
X66499740Y-80787240D01*
X67045840Y-80711040D02*
X67045840Y-83746340D01*
X66741040Y-80711040D02*
X67045840Y-80711040D01*
X66868040Y-80787240D02*
X66982340Y-80787240D01*
X68366640Y-81396840D02*
X68366640Y-83416140D01*
X69001640Y-83416140D02*
X69001640Y-81396840D01*
X68976240Y-83416140D02*
X69001640Y-83416140D01*
X68366640Y-83416140D02*
X68976240Y-83416140D01*
X68506340Y-83352640D02*
X68442840Y-83352640D01*
X68849240Y-83352640D02*
X68938140Y-83352640D01*
X69585840Y-83759040D02*
X69585840Y-80774540D01*
X70830440Y-80761840D02*
X71414640Y-81244440D01*
X69585840Y-80761840D02*
X70830440Y-80761840D01*
X69738240Y-80825340D02*
X69662040Y-80825340D01*
X73395840Y-83784440D02*
X73395840Y-80774540D01*
X72075040Y-80761840D02*
X71452740Y-81257140D01*
X72100440Y-80761840D02*
X72075040Y-80761840D01*
X73395840Y-80761840D02*
X72100440Y-80761840D01*
X73395840Y-80774540D02*
X73395840Y-80761840D01*
X73243440Y-80838040D02*
X73345040Y-80838040D01*
X76189840Y-80723740D02*
X77447140Y-81968340D01*
X76139040Y-80723740D02*
X76189840Y-80723740D01*
X74767440Y-80723740D02*
X76139040Y-80723740D01*
D13*
X74566780Y-70769480D02*
X74058780Y-70769480D01*
X74566780Y-73309480D02*
X74058780Y-73309480D01*
X90171180Y-46927720D02*
X90171180Y-45556120D01*
X88741180Y-46939320D02*
X88741180Y-45567720D01*
X90131180Y-45527720D02*
X88781180Y-45527720D01*
D18*
X100347226Y-54749700D02*
G75*
G03X100347226Y-54749700I-197566J0D01*
G01*
D10*
X100690680Y-54016400D02*
X100690680Y-53111400D01*
X110850680Y-54016400D02*
X100690680Y-54016400D01*
X110850680Y-50936400D02*
X110850680Y-54016400D01*
X100690680Y-50936400D02*
X110850680Y-50936400D01*
X100690680Y-51841400D02*
X100690680Y-50936400D01*
X100690680Y-53111400D02*
G75*
G03X101325680Y-52476400I0J635000D01*
G01*
X101325680Y-52476400D02*
G75*
G03X100690680Y-51841400I-635000J0D01*
G01*
D13*
X80838000Y-51719000D02*
X80838000Y-50703000D01*
X82362000Y-51719000D02*
X82362000Y-50703000D01*
X80662000Y-53592000D02*
X80662000Y-54608000D01*
X79138000Y-53592000D02*
X79138000Y-54608000D01*
D19*
X94526100Y-34378900D02*
X95161100Y-35013900D01*
X94208600Y-34378900D02*
X94208600Y-35013900D01*
X93891100Y-34378900D02*
X93891100Y-35013900D01*
X94526100Y-34378900D02*
X94526100Y-35013900D01*
X94526100Y-34378900D02*
X93891100Y-34378900D01*
X76746100Y-35013900D02*
X79921100Y-35013900D01*
X97066100Y-35013900D02*
X93891100Y-35013900D01*
X93891100Y-43903900D02*
X97066100Y-43903900D01*
X76746100Y-43903900D02*
X79921100Y-43903900D01*
X76746100Y-35013900D02*
X76746100Y-43903900D01*
X97066100Y-35013900D02*
X97066100Y-43903900D01*
D13*
X64800000Y-47100000D02*
X64800000Y-46400000D01*
X64800000Y-33600000D02*
X64800000Y-41300000D01*
X64799720Y-47100000D02*
X66658000Y-47100000D01*
X73852000Y-47100000D02*
X71754000Y-47100000D01*
X73852000Y-33600000D02*
X64800000Y-33600000D01*
X73852000Y-47100000D02*
X73852000Y-33600000D01*
X111861600Y-42821860D02*
X111861600Y-42567860D01*
X111861600Y-42821860D02*
X111861600Y-43075860D01*
X112750600Y-42821860D02*
X112750600Y-43075860D01*
X112750600Y-42821860D02*
X112750600Y-42567860D01*
X107535980Y-44886880D02*
X107535980Y-45140880D01*
X107535980Y-44886880D02*
X107535980Y-44632880D01*
X106646980Y-44886880D02*
X106646980Y-44632880D01*
X106646980Y-44886880D02*
X106646980Y-45140880D01*
X113180000Y-53086000D02*
X113434000Y-53086000D01*
X113180000Y-53086000D02*
X112926000Y-53086000D01*
X113180000Y-53975000D02*
X112926000Y-53975000D01*
X113180000Y-53975000D02*
X113434000Y-53975000D01*
X105166160Y-44897040D02*
X105166160Y-44643040D01*
X105166160Y-44897040D02*
X105166160Y-45151040D01*
X106055160Y-44897040D02*
X106055160Y-45151040D01*
X106055160Y-44897040D02*
X106055160Y-44643040D01*
X100411280Y-42799000D02*
X100411280Y-43053000D01*
X100411280Y-42799000D02*
X100411280Y-42545000D01*
X99522280Y-42799000D02*
X99522280Y-42545000D01*
X99522280Y-42799000D02*
X99522280Y-43053000D01*
X120055500Y-74750000D02*
X120055500Y-74496000D01*
X120055500Y-74750000D02*
X120055500Y-75004000D01*
X120944500Y-74750000D02*
X120944500Y-75004000D01*
X120944500Y-74750000D02*
X120944500Y-74496000D01*
X115555500Y-73500000D02*
X115555500Y-73246000D01*
X115555500Y-73500000D02*
X115555500Y-73754000D01*
X116444500Y-73500000D02*
X116444500Y-73754000D01*
X116444500Y-73500000D02*
X116444500Y-73246000D01*
X109728000Y-43370500D02*
X109474000Y-43370500D01*
X109728000Y-43370500D02*
X109982000Y-43370500D01*
X109728000Y-42481500D02*
X109982000Y-42481500D01*
X109728000Y-42481500D02*
X109474000Y-42481500D01*
X102616000Y-43243500D02*
X102362000Y-43243500D01*
X102616000Y-43243500D02*
X102870000Y-43243500D01*
X102616000Y-42354500D02*
X102870000Y-42354500D01*
X102616000Y-42354500D02*
X102362000Y-42354500D01*
X125069600Y-65280540D02*
X125323600Y-65280540D01*
X125069600Y-65280540D02*
X124815600Y-65280540D01*
X125069600Y-66169540D02*
X124815600Y-66169540D01*
X125069600Y-66169540D02*
X125323600Y-66169540D01*
X90246200Y-62402720D02*
X89992200Y-62402720D01*
X90246200Y-62402720D02*
X90500200Y-62402720D01*
X90246200Y-61513720D02*
X90500200Y-61513720D01*
X90246200Y-61513720D02*
X89992200Y-61513720D01*
X92151460Y-62398880D02*
X91897460Y-62398880D01*
X92151460Y-62398880D02*
X92405460Y-62398880D01*
X92151460Y-61509880D02*
X92405460Y-61509880D01*
X92151460Y-61509880D02*
X91897460Y-61509880D01*
X56644500Y-44235000D02*
X56644500Y-44489000D01*
X56644500Y-44235000D02*
X56644500Y-43981000D01*
X55755500Y-44235000D02*
X55755500Y-43981000D01*
X55755500Y-44235000D02*
X55755500Y-44489000D01*
X94855500Y-59500000D02*
X94855500Y-59246000D01*
X94855500Y-59500000D02*
X94855500Y-59754000D01*
X95744500Y-59500000D02*
X95744500Y-59754000D01*
X95744500Y-59500000D02*
X95744500Y-59246000D01*
X96172020Y-63113920D02*
X95918020Y-63113920D01*
X96172020Y-63113920D02*
X96426020Y-63113920D01*
X96172020Y-62224920D02*
X96426020Y-62224920D01*
X96172020Y-62224920D02*
X95918020Y-62224920D01*
X58244500Y-44100000D02*
X58244500Y-44354000D01*
X58244500Y-44100000D02*
X58244500Y-43846000D01*
X57355500Y-44100000D02*
X57355500Y-43846000D01*
X57355500Y-44100000D02*
X57355500Y-44354000D01*
X121055500Y-83250000D02*
X121055500Y-82996000D01*
X121055500Y-83250000D02*
X121055500Y-83504000D01*
X121944500Y-83250000D02*
X121944500Y-83504000D01*
X121944500Y-83250000D02*
X121944500Y-82996000D01*
X58344500Y-51300000D02*
X58344500Y-51554000D01*
X58344500Y-51300000D02*
X58344500Y-51046000D01*
X57455500Y-51300000D02*
X57455500Y-51046000D01*
X57455500Y-51300000D02*
X57455500Y-51554000D01*
X86355500Y-57300000D02*
X86355500Y-57046000D01*
X86355500Y-57300000D02*
X86355500Y-57554000D01*
X87244500Y-57300000D02*
X87244500Y-57554000D01*
X87244500Y-57300000D02*
X87244500Y-57046000D01*
X61500000Y-48444500D02*
X61246000Y-48444500D01*
X61500000Y-48444500D02*
X61754000Y-48444500D01*
X61500000Y-47555500D02*
X61754000Y-47555500D01*
X61500000Y-47555500D02*
X61246000Y-47555500D01*
X86536220Y-46398500D02*
X86282220Y-46398500D01*
X86536220Y-46398500D02*
X86790220Y-46398500D01*
X86536220Y-45509500D02*
X86790220Y-45509500D01*
X86536220Y-45509500D02*
X86282220Y-45509500D01*
X86532720Y-47482000D02*
X86278720Y-47482000D01*
X86532720Y-47482000D02*
X86786720Y-47482000D01*
X86532720Y-46593000D02*
X86786720Y-46593000D01*
X86532720Y-46593000D02*
X86278720Y-46593000D01*
X86532720Y-49641000D02*
X86278720Y-49641000D01*
X86532720Y-49641000D02*
X86786720Y-49641000D01*
X86532720Y-48752000D02*
X86786720Y-48752000D01*
X86532720Y-48752000D02*
X86278720Y-48752000D01*
X86536220Y-48561500D02*
X86282220Y-48561500D01*
X86536220Y-48561500D02*
X86790220Y-48561500D01*
X86536220Y-47672500D02*
X86790220Y-47672500D01*
X86536220Y-47672500D02*
X86282220Y-47672500D01*
X125039120Y-68544440D02*
X124785120Y-68544440D01*
X125039120Y-68544440D02*
X125293120Y-68544440D01*
X125039120Y-67655440D02*
X125293120Y-67655440D01*
X125039120Y-67655440D02*
X124785120Y-67655440D01*
X90344500Y-82000000D02*
X90344500Y-82254000D01*
X90344500Y-82000000D02*
X90344500Y-81746000D01*
X89455500Y-82000000D02*
X89455500Y-81746000D01*
X89455500Y-82000000D02*
X89455500Y-82254000D01*
X114200000Y-62705500D02*
X114454000Y-62705500D01*
X114200000Y-62705500D02*
X113946000Y-62705500D01*
X114200000Y-63594500D02*
X113946000Y-63594500D01*
X114200000Y-63594500D02*
X114454000Y-63594500D01*
X68478740Y-75242140D02*
X68478740Y-75496140D01*
X68478740Y-75242140D02*
X68478740Y-74988140D01*
X67589740Y-75242140D02*
X67589740Y-74988140D01*
X67589740Y-75242140D02*
X67589740Y-75496140D01*
X114200000Y-62294500D02*
X113946000Y-62294500D01*
X114200000Y-62294500D02*
X114454000Y-62294500D01*
X114200000Y-61405500D02*
X114454000Y-61405500D01*
X114200000Y-61405500D02*
X113946000Y-61405500D01*
X69590920Y-75300840D02*
X69844920Y-75300840D01*
X69590920Y-75300840D02*
X69336920Y-75300840D01*
X69590920Y-76189840D02*
X69336920Y-76189840D01*
X69590920Y-76189840D02*
X69844920Y-76189840D01*
X75250000Y-49694500D02*
X74996000Y-49694500D01*
X75250000Y-49694500D02*
X75504000Y-49694500D01*
X75250000Y-48805500D02*
X75504000Y-48805500D01*
X75250000Y-48805500D02*
X74996000Y-48805500D01*
X113168000Y-55289500D02*
X112914000Y-55289500D01*
X113168000Y-55289500D02*
X113422000Y-55289500D01*
X113168000Y-54400500D02*
X113422000Y-54400500D01*
X113168000Y-54400500D02*
X112914000Y-54400500D01*
X111930180Y-49532540D02*
X111676180Y-49532540D01*
X111930180Y-49532540D02*
X112184180Y-49532540D01*
X111930180Y-48643540D02*
X112184180Y-48643540D01*
X111930180Y-48643540D02*
X111676180Y-48643540D01*
X119805500Y-83250000D02*
X119805500Y-82996000D01*
X119805500Y-83250000D02*
X119805500Y-83504000D01*
X120694500Y-83250000D02*
X120694500Y-83504000D01*
X120694500Y-83250000D02*
X120694500Y-82996000D01*
X112671500Y-66858000D02*
X112417500Y-66858000D01*
X112671500Y-66858000D02*
X112925500Y-66858000D01*
X112671500Y-65969000D02*
X112925500Y-65969000D01*
X112671500Y-65969000D02*
X112417500Y-65969000D01*
X65791080Y-65270380D02*
X66045080Y-65270380D01*
X65791080Y-65270380D02*
X65537080Y-65270380D01*
X65791080Y-66159380D02*
X65537080Y-66159380D01*
X65791080Y-66159380D02*
X66045080Y-66159380D01*
X112671500Y-65858000D02*
X112417500Y-65858000D01*
X112671500Y-65858000D02*
X112925500Y-65858000D01*
X112671500Y-64969000D02*
X112925500Y-64969000D01*
X112671500Y-64969000D02*
X112417500Y-64969000D01*
X80571340Y-58887360D02*
X80317340Y-58887360D01*
X80571340Y-58887360D02*
X80825340Y-58887360D01*
X80571340Y-57998360D02*
X80825340Y-57998360D01*
X80571340Y-57998360D02*
X80317340Y-57998360D01*
X112671500Y-68958000D02*
X112417500Y-68958000D01*
X112671500Y-68958000D02*
X112925500Y-68958000D01*
X112671500Y-68069000D02*
X112925500Y-68069000D01*
X112671500Y-68069000D02*
X112417500Y-68069000D01*
X112671500Y-67858000D02*
X112417500Y-67858000D01*
X112671500Y-67858000D02*
X112925500Y-67858000D01*
X112671500Y-66969000D02*
X112925500Y-66969000D01*
X112671500Y-66969000D02*
X112417500Y-66969000D01*
X65811400Y-64256920D02*
X66065400Y-64256920D01*
X65811400Y-64256920D02*
X65557400Y-64256920D01*
X65811400Y-65145920D02*
X65557400Y-65145920D01*
X65811400Y-65145920D02*
X66065400Y-65145920D01*
X78541880Y-60055760D02*
X78541880Y-59801760D01*
X78541880Y-60055760D02*
X78541880Y-60309760D01*
X79430880Y-60055760D02*
X79430880Y-60309760D01*
X79430880Y-60055760D02*
X79430880Y-59801760D01*
X74434700Y-57957720D02*
X74180700Y-57957720D01*
X74434700Y-57957720D02*
X74688700Y-57957720D01*
X74434700Y-57068720D02*
X74688700Y-57068720D01*
X74434700Y-57068720D02*
X74180700Y-57068720D01*
X92933520Y-68308220D02*
X92933520Y-68562220D01*
X92933520Y-68308220D02*
X92933520Y-68054220D01*
X92044520Y-68308220D02*
X92044520Y-68054220D01*
X92044520Y-68308220D02*
X92044520Y-68562220D01*
X114305500Y-73500000D02*
X114305500Y-73246000D01*
X114305500Y-73500000D02*
X114305500Y-73754000D01*
X115194500Y-73500000D02*
X115194500Y-73754000D01*
X115194500Y-73500000D02*
X115194500Y-73246000D01*
X121305500Y-74742000D02*
X121305500Y-74488000D01*
X121305500Y-74742000D02*
X121305500Y-74996000D01*
X122194500Y-74742000D02*
X122194500Y-74996000D01*
X122194500Y-74742000D02*
X122194500Y-74488000D01*
X125034040Y-66540380D02*
X125288040Y-66540380D01*
X125034040Y-66540380D02*
X124780040Y-66540380D01*
X125034040Y-67429380D02*
X124780040Y-67429380D01*
X125034040Y-67429380D02*
X125288040Y-67429380D01*
X136868680Y-64814200D02*
X136868680Y-64514200D01*
X118868680Y-64814200D02*
X118868680Y-64514200D01*
X118868680Y-64814200D02*
X136868680Y-64814200D01*
X118868680Y-33414200D02*
X118868680Y-40034200D01*
X136868680Y-33414200D02*
X136868680Y-40034200D01*
X118868680Y-39414200D02*
X136868680Y-39414200D01*
X118868680Y-33414200D02*
X136868680Y-33414200D01*
X122200000Y-70599000D02*
X122200000Y-71799000D01*
X122200000Y-71799000D02*
X119600000Y-71799000D01*
X119600000Y-70599000D02*
X119600000Y-71799000D01*
X122200000Y-70599000D02*
X119600000Y-70599000D01*
X118000000Y-73299000D02*
X123800000Y-73299000D01*
X118000000Y-69099000D02*
X118000000Y-73299000D01*
X123800000Y-69099000D02*
X118000000Y-69099000D01*
X123800000Y-73299000D02*
X123800000Y-69099000D01*
D10*
X105796051Y-66000000D02*
G75*
G03X105796051Y-66000000I-1796051J0D01*
G01*
X105280000Y-64790000D02*
X102780000Y-67240000D01*
X102780000Y-64740000D02*
X105230000Y-67240000D01*
D20*
X99080000Y-62290000D02*
X99330000Y-62290000D01*
X99080000Y-69540000D02*
X99080000Y-62290000D01*
X100830000Y-69540000D02*
X99080000Y-69540000D01*
X107080000Y-69540000D02*
X104580000Y-69540000D01*
X107080000Y-62290000D02*
X107080000Y-69540000D01*
X103080000Y-62290000D02*
X107080000Y-62290000D01*
X107830000Y-68540000D02*
X107080000Y-68540000D01*
X107830000Y-66040000D02*
X107080000Y-66040000D01*
X107830000Y-63290000D02*
X107080000Y-63290000D01*
D10*
X136850000Y-70500000D02*
G75*
G03X136850000Y-70500000I-4850000J0D01*
G01*
X65850000Y-70500000D02*
G75*
G03X65850000Y-70500000I-4850000J0D01*
G01*
D13*
X56667400Y-42024300D02*
X55664100Y-42024300D01*
X61734700Y-42024300D02*
X60680600Y-42024300D01*
X61739780Y-42016680D02*
X61739780Y-35707320D01*
X61739780Y-35707320D02*
X55659020Y-35707320D01*
X55659020Y-35707320D02*
X55659020Y-42024302D01*
X107810400Y-40808300D02*
X106807100Y-40808300D01*
X112877700Y-40808300D02*
X111823600Y-40808300D01*
X112882780Y-40800680D02*
X112882780Y-34491320D01*
X112882780Y-34491320D02*
X106802020Y-34491320D01*
X106802020Y-34491320D02*
X106802020Y-40808302D01*
X99936400Y-40808300D02*
X98933100Y-40808300D01*
X105003700Y-40808300D02*
X103949600Y-40808300D01*
X105008780Y-40800680D02*
X105008780Y-34491320D01*
X105008780Y-34491320D02*
X98928020Y-34491320D01*
X98928020Y-34491320D02*
X98928020Y-40808302D01*
X123805025Y-77639340D02*
X125005025Y-77639340D01*
X125005025Y-77639340D02*
X125005025Y-80239340D01*
X123805025Y-80239340D02*
X125005025Y-80239340D01*
X123805025Y-77639340D02*
X123805025Y-80239340D01*
X126505025Y-81839340D02*
X126505025Y-76039340D01*
X122305025Y-81839340D02*
X126505025Y-81839340D01*
X122305025Y-76039340D02*
X122305025Y-81839340D01*
X126505025Y-76039340D02*
X122305025Y-76039340D01*
X116900000Y-77654000D02*
X118100000Y-77654000D01*
X118100000Y-77654000D02*
X118100000Y-80254000D01*
X116900000Y-80254000D02*
X118100000Y-80254000D01*
X116900000Y-77654000D02*
X116900000Y-80254000D01*
X119600000Y-81854000D02*
X119600000Y-76054000D01*
X115400000Y-81854000D02*
X119600000Y-81854000D01*
X115400000Y-76054000D02*
X115400000Y-81854000D01*
X119600000Y-76054000D02*
X115400000Y-76054000D01*
D18*
X111722000Y-44961200D02*
X111722000Y-45799400D01*
X109944000Y-44961200D02*
X109944000Y-45799400D01*
X109690000Y-44961200D02*
X109690000Y-45799400D01*
X107912000Y-44961200D02*
X107912000Y-45799400D01*
X104848000Y-44961200D02*
X104848000Y-45799400D01*
X103070000Y-44961200D02*
X103070000Y-45799400D01*
X102816000Y-44961200D02*
X102816000Y-45799400D01*
X101038000Y-44961200D02*
X101038000Y-45799400D01*
X74511000Y-41815800D02*
X74511000Y-40977600D01*
X76289000Y-41815800D02*
X76289000Y-40977600D01*
D13*
X84503000Y-52758800D02*
X84503000Y-51628500D01*
X87309700Y-52758800D02*
X87309700Y-51628500D01*
X77303000Y-50558800D02*
X77303000Y-49428500D01*
X80109700Y-50558800D02*
X80109700Y-49428500D01*
X60197000Y-46541200D02*
X60197000Y-47671500D01*
X57390300Y-46541200D02*
X57390300Y-47671500D01*
X80731000Y-84711000D02*
X86687300Y-84711000D01*
X81645400Y-84736400D02*
X81645400Y-85104700D01*
X81645400Y-85104700D02*
X81975600Y-85549200D01*
X81975600Y-85549200D02*
X85493500Y-85549200D01*
X85493500Y-85549200D02*
X85785600Y-85155500D01*
X85785600Y-85155500D02*
X85785600Y-84736400D01*
X81696200Y-85155500D02*
X85696700Y-85155500D01*
X80731000Y-84685600D02*
X80731000Y-80088200D01*
X80692900Y-77560900D02*
X80692900Y-68378800D01*
X80692900Y-68404200D02*
X81721600Y-68404200D01*
X84121900Y-68391500D02*
X86712700Y-68391500D01*
X86712700Y-79186500D02*
X86700000Y-72493600D01*
X86712700Y-69940900D02*
X86712700Y-68391500D01*
X86687300Y-84711000D02*
X86687300Y-84647500D01*
X86700000Y-82310700D02*
X86700000Y-81840800D01*
D18*
X55615800Y-52497000D02*
X55615800Y-51481000D01*
X56835000Y-51481000D02*
X56835000Y-52497000D01*
D17*
X56200000Y-50840000D02*
X56200000Y-51360000D01*
X56310000Y-51010000D02*
X56090000Y-51010000D01*
X56310000Y-51010000D02*
X56210000Y-51120000D01*
X56090000Y-51010000D02*
X56190000Y-51110000D01*
X56310000Y-51200000D02*
X56090000Y-51200000D01*
D21*
X55954400Y-51277800D02*
X55844400Y-51147800D01*
X55845400Y-51146200D02*
X55855400Y-51226200D01*
X55845400Y-51146200D02*
X55925400Y-51146200D01*
X55845400Y-50930800D02*
X55925400Y-50930800D01*
X55845400Y-50930800D02*
X55855400Y-51010800D01*
X55975400Y-51070800D02*
X55865400Y-50940800D01*
D13*
X56771500Y-52509700D02*
X56644500Y-52662100D01*
X55679300Y-52509700D02*
X55806300Y-52649400D01*
X56644500Y-52662100D02*
X55819000Y-52662100D01*
X55717400Y-52497000D02*
X56758800Y-52497000D01*
D18*
X91892120Y-69979540D02*
X92908120Y-69979540D01*
X92908120Y-71198740D02*
X91892120Y-71198740D01*
D17*
X93549120Y-70563740D02*
X93029120Y-70563740D01*
X93379120Y-70673740D02*
X93379120Y-70453740D01*
X93379120Y-70673740D02*
X93269120Y-70573740D01*
X93379120Y-70453740D02*
X93279120Y-70553740D01*
X93189120Y-70673740D02*
X93189120Y-70453740D01*
D21*
X93111320Y-70318140D02*
X93241320Y-70208140D01*
X93242920Y-70209140D02*
X93162920Y-70219140D01*
X93242920Y-70209140D02*
X93242920Y-70289140D01*
X93458320Y-70209140D02*
X93458320Y-70289140D01*
X93458320Y-70209140D02*
X93378320Y-70219140D01*
X93318320Y-70339140D02*
X93448320Y-70229140D01*
D13*
X91879420Y-71135240D02*
X91727020Y-71008240D01*
X91879420Y-70043040D02*
X91739720Y-70170040D01*
X91727020Y-71008240D02*
X91727020Y-70182740D01*
X91892120Y-70081140D02*
X91892120Y-71122540D01*
D14*
X66150000Y-52525000D02*
X66150000Y-55525000D01*
D13*
X64600640Y-52397260D02*
X69599360Y-52397260D01*
X69599360Y-55602740D02*
X64600640Y-55602740D01*
X67735000Y-54635000D02*
X67735000Y-53365000D01*
X67735000Y-53365000D02*
X66719000Y-54000000D01*
X67735000Y-54635000D02*
X66719000Y-54000000D01*
X66719000Y-54635000D02*
X66719000Y-53365000D01*
X66310000Y-49250000D02*
X66310000Y-51950000D01*
X69500000Y-49250000D02*
X64500000Y-49250000D01*
X65870000Y-49250000D02*
X65870000Y-51950000D01*
X64500000Y-51950000D02*
X69500000Y-51950000D01*
X71150000Y-52490000D02*
X73850000Y-52490000D01*
X71150000Y-49300000D02*
X71150000Y-54300000D01*
X71150000Y-52930000D02*
X73850000Y-52930000D01*
X73850000Y-54300000D02*
X73850000Y-49300000D01*
X77227560Y-46565160D02*
X77227560Y-46165160D01*
X74227560Y-46565160D02*
X74227560Y-46165160D01*
D22*
X75477560Y-46465160D02*
G75*
G02X75977560Y-46465160I250000J0D01*
G01*
X74977560Y-46465160D02*
G75*
G02X75477560Y-46465160I250000J0D01*
G01*
X75977560Y-46465160D02*
G75*
G02X76477560Y-46465160I250000J0D01*
G01*
X74977560Y-46515160D02*
X74627560Y-46515160D01*
X76477560Y-46515160D02*
X76827560Y-46515160D01*
D18*
X56784200Y-46703000D02*
X56784200Y-47719000D01*
X55565000Y-47719000D02*
X55565000Y-46703000D01*
D17*
X56200000Y-48360000D02*
X56200000Y-47840000D01*
X56090000Y-48190000D02*
X56310000Y-48190000D01*
X56090000Y-48190000D02*
X56190000Y-48080000D01*
X56310000Y-48190000D02*
X56210000Y-48090000D01*
X56090000Y-48000000D02*
X56310000Y-48000000D01*
D21*
X56445600Y-47922200D02*
X56555600Y-48052200D01*
X56554600Y-48053800D02*
X56544600Y-47973800D01*
X56554600Y-48053800D02*
X56474600Y-48053800D01*
X56554600Y-48269200D02*
X56474600Y-48269200D01*
X56554600Y-48269200D02*
X56544600Y-48189200D01*
X56424600Y-48129200D02*
X56534600Y-48259200D01*
D13*
X55628500Y-46690300D02*
X55755500Y-46537900D01*
X56720700Y-46690300D02*
X56593700Y-46550600D01*
X55755500Y-46537900D02*
X56581000Y-46537900D01*
X56682600Y-46703000D02*
X55641200Y-46703000D01*
X67471000Y-61169500D02*
X67471000Y-66630500D01*
X74710000Y-61169500D02*
X67090000Y-61169500D01*
X67090000Y-66630500D02*
X74710000Y-66630500D01*
X74710000Y-61169500D02*
X74710000Y-66630500D01*
X67090000Y-66630500D02*
X67090000Y-61169500D01*
X93252600Y-59932000D02*
X93130000Y-59932000D01*
X93532000Y-59652600D02*
X93532000Y-59530000D01*
X93532000Y-59652600D02*
X93252600Y-59932000D01*
X93538000Y-56250000D02*
X93538000Y-55900000D01*
X89462000Y-56250000D02*
X89462000Y-55900000D01*
X89462000Y-59550000D02*
X89462000Y-59900000D01*
X93524600Y-55862000D02*
X93150000Y-55862000D01*
X89850000Y-55862000D02*
X89475400Y-55862000D01*
X89825400Y-59938000D02*
X89475400Y-59938000D01*
D23*
X94225258Y-60234260D02*
G75*
G03X94225258Y-60234260I-337658J0D01*
G01*
D13*
X56274000Y-63400000D02*
X56274000Y-56000000D01*
X60774000Y-56000000D02*
X59574000Y-56000000D01*
X62274000Y-57900000D02*
X62274000Y-56900000D01*
X62274000Y-62500000D02*
X62274000Y-61500000D01*
X57274000Y-63400000D02*
X56274000Y-63400000D01*
X55174000Y-63764000D02*
X55174000Y-55636000D01*
X56274000Y-56000000D02*
X57274000Y-56000000D01*
X60774000Y-63400000D02*
X59574000Y-63400000D01*
X55245000Y-63764000D02*
X56261000Y-63383000D01*
X55245000Y-55636000D02*
X56261000Y-56017000D01*
X103832660Y-60985400D02*
X106779060Y-60985400D01*
X103832660Y-60972700D02*
X103832660Y-60794900D01*
X106779060Y-60998100D02*
X106779060Y-60782200D01*
X103832660Y-57175400D02*
X103832660Y-56984900D01*
X103832660Y-56984900D02*
X106779060Y-56984900D01*
X106779060Y-56984900D02*
X106779060Y-57200800D01*
D10*
X84163980Y-47518146D02*
X84197313Y-47551480D01*
X84230646Y-47651480D01*
X84230646Y-47718146D01*
X84197313Y-47818146D01*
X84130646Y-47884813D01*
X84063980Y-47918146D01*
X83930646Y-47951480D01*
X83830646Y-47951480D01*
X83697313Y-47918146D01*
X83630646Y-47884813D01*
X83563980Y-47818146D01*
X83530646Y-47718146D01*
X83530646Y-47651480D01*
X83563980Y-47551480D01*
X83597313Y-47518146D01*
X83530646Y-46918146D02*
X83530646Y-47051480D01*
X83563980Y-47118146D01*
X83597313Y-47151480D01*
X83697313Y-47218146D01*
X83830646Y-47251480D01*
X84097313Y-47251480D01*
X84163980Y-47218146D01*
X84197313Y-47184813D01*
X84230646Y-47118146D01*
X84230646Y-46984813D01*
X84197313Y-46918146D01*
X84163980Y-46884813D01*
X84097313Y-46851480D01*
X83930646Y-46851480D01*
X83863980Y-46884813D01*
X83830646Y-46918146D01*
X83797313Y-46984813D01*
X83797313Y-47118146D01*
X83830646Y-47184813D01*
X83863980Y-47218146D01*
X83930646Y-47251480D01*
X83191160Y-47414006D02*
X83224493Y-47447340D01*
X83257826Y-47547340D01*
X83257826Y-47614006D01*
X83224493Y-47714006D01*
X83157826Y-47780673D01*
X83091160Y-47814006D01*
X82957826Y-47847340D01*
X82857826Y-47847340D01*
X82724493Y-47814006D01*
X82657826Y-47780673D01*
X82591160Y-47714006D01*
X82557826Y-47614006D01*
X82557826Y-47547340D01*
X82591160Y-47447340D01*
X82624493Y-47414006D01*
X82557826Y-47180673D02*
X82557826Y-46714006D01*
X83257826Y-47014006D01*
X83383333Y-53750000D02*
X83350000Y-53783333D01*
X83250000Y-53816666D01*
X83183333Y-53816666D01*
X83083333Y-53783333D01*
X83016666Y-53716666D01*
X82983333Y-53650000D01*
X82950000Y-53516666D01*
X82950000Y-53416666D01*
X82983333Y-53283333D01*
X83016666Y-53216666D01*
X83083333Y-53150000D01*
X83183333Y-53116666D01*
X83250000Y-53116666D01*
X83350000Y-53150000D01*
X83383333Y-53183333D01*
X83783333Y-53416666D02*
X83716666Y-53383333D01*
X83683333Y-53350000D01*
X83650000Y-53283333D01*
X83650000Y-53250000D01*
X83683333Y-53183333D01*
X83716666Y-53150000D01*
X83783333Y-53116666D01*
X83916666Y-53116666D01*
X83983333Y-53150000D01*
X84016666Y-53183333D01*
X84050000Y-53250000D01*
X84050000Y-53283333D01*
X84016666Y-53350000D01*
X83983333Y-53383333D01*
X83916666Y-53416666D01*
X83783333Y-53416666D01*
X83716666Y-53450000D01*
X83683333Y-53483333D01*
X83650000Y-53550000D01*
X83650000Y-53683333D01*
X83683333Y-53750000D01*
X83716666Y-53783333D01*
X83783333Y-53816666D01*
X83916666Y-53816666D01*
X83983333Y-53783333D01*
X84016666Y-53750000D01*
X84050000Y-53683333D01*
X84050000Y-53550000D01*
X84016666Y-53483333D01*
X83983333Y-53450000D01*
X83916666Y-53416666D01*
X83241053Y-55207980D02*
X83207720Y-55241313D01*
X83107720Y-55274646D01*
X83041053Y-55274646D01*
X82941053Y-55241313D01*
X82874386Y-55174646D01*
X82841053Y-55107980D01*
X82807720Y-54974646D01*
X82807720Y-54874646D01*
X82841053Y-54741313D01*
X82874386Y-54674646D01*
X82941053Y-54607980D01*
X83041053Y-54574646D01*
X83107720Y-54574646D01*
X83207720Y-54607980D01*
X83241053Y-54641313D01*
X83574386Y-55274646D02*
X83707720Y-55274646D01*
X83774386Y-55241313D01*
X83807720Y-55207980D01*
X83874386Y-55107980D01*
X83907720Y-54974646D01*
X83907720Y-54707980D01*
X83874386Y-54641313D01*
X83841053Y-54607980D01*
X83774386Y-54574646D01*
X83641053Y-54574646D01*
X83574386Y-54607980D01*
X83541053Y-54641313D01*
X83507720Y-54707980D01*
X83507720Y-54874646D01*
X83541053Y-54941313D01*
X83574386Y-54974646D01*
X83641053Y-55007980D01*
X83774386Y-55007980D01*
X83841053Y-54974646D01*
X83874386Y-54941313D01*
X83907720Y-54874646D01*
X86672000Y-60178000D02*
X86638666Y-60211333D01*
X86538666Y-60244666D01*
X86472000Y-60244666D01*
X86372000Y-60211333D01*
X86305333Y-60144666D01*
X86272000Y-60078000D01*
X86238666Y-59944666D01*
X86238666Y-59844666D01*
X86272000Y-59711333D01*
X86305333Y-59644666D01*
X86372000Y-59578000D01*
X86472000Y-59544666D01*
X86538666Y-59544666D01*
X86638666Y-59578000D01*
X86672000Y-59611333D01*
X87338666Y-60244666D02*
X86938666Y-60244666D01*
X87138666Y-60244666D02*
X87138666Y-59544666D01*
X87072000Y-59644666D01*
X87005333Y-59711333D01*
X86938666Y-59744666D01*
X87772000Y-59544666D02*
X87838666Y-59544666D01*
X87905333Y-59578000D01*
X87938666Y-59611333D01*
X87972000Y-59678000D01*
X88005333Y-59811333D01*
X88005333Y-59978000D01*
X87972000Y-60111333D01*
X87938666Y-60178000D01*
X87905333Y-60211333D01*
X87838666Y-60244666D01*
X87772000Y-60244666D01*
X87705333Y-60211333D01*
X87672000Y-60178000D01*
X87638666Y-60111333D01*
X87605333Y-59978000D01*
X87605333Y-59811333D01*
X87638666Y-59678000D01*
X87672000Y-59611333D01*
X87705333Y-59578000D01*
X87772000Y-59544666D01*
X86672000Y-59035000D02*
X86638666Y-59068333D01*
X86538666Y-59101666D01*
X86472000Y-59101666D01*
X86372000Y-59068333D01*
X86305333Y-59001666D01*
X86272000Y-58935000D01*
X86238666Y-58801666D01*
X86238666Y-58701666D01*
X86272000Y-58568333D01*
X86305333Y-58501666D01*
X86372000Y-58435000D01*
X86472000Y-58401666D01*
X86538666Y-58401666D01*
X86638666Y-58435000D01*
X86672000Y-58468333D01*
X87338666Y-59101666D02*
X86938666Y-59101666D01*
X87138666Y-59101666D02*
X87138666Y-58401666D01*
X87072000Y-58501666D01*
X87005333Y-58568333D01*
X86938666Y-58601666D01*
X88005333Y-59101666D02*
X87605333Y-59101666D01*
X87805333Y-59101666D02*
X87805333Y-58401666D01*
X87738666Y-58501666D01*
X87672000Y-58568333D01*
X87605333Y-58601666D01*
X94044580Y-52230440D02*
X94077913Y-52263773D01*
X94111246Y-52363773D01*
X94111246Y-52430440D01*
X94077913Y-52530440D01*
X94011246Y-52597106D01*
X93944580Y-52630440D01*
X93811246Y-52663773D01*
X93711246Y-52663773D01*
X93577913Y-52630440D01*
X93511246Y-52597106D01*
X93444580Y-52530440D01*
X93411246Y-52430440D01*
X93411246Y-52363773D01*
X93444580Y-52263773D01*
X93477913Y-52230440D01*
X94111246Y-51563773D02*
X94111246Y-51963773D01*
X94111246Y-51763773D02*
X93411246Y-51763773D01*
X93511246Y-51830440D01*
X93577913Y-51897106D01*
X93611246Y-51963773D01*
X93477913Y-51297106D02*
X93444580Y-51263773D01*
X93411246Y-51197106D01*
X93411246Y-51030440D01*
X93444580Y-50963773D01*
X93477913Y-50930440D01*
X93544580Y-50897106D01*
X93611246Y-50897106D01*
X93711246Y-50930440D01*
X94111246Y-51330440D01*
X94111246Y-50897106D01*
X99664060Y-58370520D02*
X99630726Y-58403853D01*
X99530726Y-58437186D01*
X99464060Y-58437186D01*
X99364060Y-58403853D01*
X99297393Y-58337186D01*
X99264060Y-58270520D01*
X99230726Y-58137186D01*
X99230726Y-58037186D01*
X99264060Y-57903853D01*
X99297393Y-57837186D01*
X99364060Y-57770520D01*
X99464060Y-57737186D01*
X99530726Y-57737186D01*
X99630726Y-57770520D01*
X99664060Y-57803853D01*
X100330726Y-58437186D02*
X99930726Y-58437186D01*
X100130726Y-58437186D02*
X100130726Y-57737186D01*
X100064060Y-57837186D01*
X99997393Y-57903853D01*
X99930726Y-57937186D01*
X100564060Y-57737186D02*
X100997393Y-57737186D01*
X100764060Y-58003853D01*
X100864060Y-58003853D01*
X100930726Y-58037186D01*
X100964060Y-58070520D01*
X100997393Y-58137186D01*
X100997393Y-58303853D01*
X100964060Y-58370520D01*
X100930726Y-58403853D01*
X100864060Y-58437186D01*
X100664060Y-58437186D01*
X100597393Y-58403853D01*
X100564060Y-58370520D01*
X81010340Y-56836120D02*
X80977006Y-56869453D01*
X80877006Y-56902786D01*
X80810340Y-56902786D01*
X80710340Y-56869453D01*
X80643673Y-56802786D01*
X80610340Y-56736120D01*
X80577006Y-56602786D01*
X80577006Y-56502786D01*
X80610340Y-56369453D01*
X80643673Y-56302786D01*
X80710340Y-56236120D01*
X80810340Y-56202786D01*
X80877006Y-56202786D01*
X80977006Y-56236120D01*
X81010340Y-56269453D01*
X81677006Y-56902786D02*
X81277006Y-56902786D01*
X81477006Y-56902786D02*
X81477006Y-56202786D01*
X81410340Y-56302786D01*
X81343673Y-56369453D01*
X81277006Y-56402786D01*
X82077006Y-56502786D02*
X82010340Y-56469453D01*
X81977006Y-56436120D01*
X81943673Y-56369453D01*
X81943673Y-56336120D01*
X81977006Y-56269453D01*
X82010340Y-56236120D01*
X82077006Y-56202786D01*
X82210340Y-56202786D01*
X82277006Y-56236120D01*
X82310340Y-56269453D01*
X82343673Y-56336120D01*
X82343673Y-56369453D01*
X82310340Y-56436120D01*
X82277006Y-56469453D01*
X82210340Y-56502786D01*
X82077006Y-56502786D01*
X82010340Y-56536120D01*
X81977006Y-56569453D01*
X81943673Y-56636120D01*
X81943673Y-56769453D01*
X81977006Y-56836120D01*
X82010340Y-56869453D01*
X82077006Y-56902786D01*
X82210340Y-56902786D01*
X82277006Y-56869453D01*
X82310340Y-56836120D01*
X82343673Y-56769453D01*
X82343673Y-56636120D01*
X82310340Y-56569453D01*
X82277006Y-56536120D01*
X82210340Y-56502786D01*
X110828900Y-62613960D02*
X110862233Y-62647293D01*
X110895566Y-62747293D01*
X110895566Y-62813960D01*
X110862233Y-62913960D01*
X110795566Y-62980626D01*
X110728900Y-63013960D01*
X110595566Y-63047293D01*
X110495566Y-63047293D01*
X110362233Y-63013960D01*
X110295566Y-62980626D01*
X110228900Y-62913960D01*
X110195566Y-62813960D01*
X110195566Y-62747293D01*
X110228900Y-62647293D01*
X110262233Y-62613960D01*
X110895566Y-61947293D02*
X110895566Y-62347293D01*
X110895566Y-62147293D02*
X110195566Y-62147293D01*
X110295566Y-62213960D01*
X110362233Y-62280626D01*
X110395566Y-62347293D01*
X110895566Y-61613960D02*
X110895566Y-61480626D01*
X110862233Y-61413960D01*
X110828900Y-61380626D01*
X110728900Y-61313960D01*
X110595566Y-61280626D01*
X110328900Y-61280626D01*
X110262233Y-61313960D01*
X110228900Y-61347293D01*
X110195566Y-61413960D01*
X110195566Y-61547293D01*
X110228900Y-61613960D01*
X110262233Y-61647293D01*
X110328900Y-61680626D01*
X110495566Y-61680626D01*
X110562233Y-61647293D01*
X110595566Y-61613960D01*
X110628900Y-61547293D01*
X110628900Y-61413960D01*
X110595566Y-61347293D01*
X110562233Y-61313960D01*
X110495566Y-61280626D01*
X65684240Y-73981140D02*
X65650906Y-74014473D01*
X65550906Y-74047806D01*
X65484240Y-74047806D01*
X65384240Y-74014473D01*
X65317573Y-73947806D01*
X65284240Y-73881140D01*
X65250906Y-73747806D01*
X65250906Y-73647806D01*
X65284240Y-73514473D01*
X65317573Y-73447806D01*
X65384240Y-73381140D01*
X65484240Y-73347806D01*
X65550906Y-73347806D01*
X65650906Y-73381140D01*
X65684240Y-73414473D01*
X65950906Y-73414473D02*
X65984240Y-73381140D01*
X66050906Y-73347806D01*
X66217573Y-73347806D01*
X66284240Y-73381140D01*
X66317573Y-73414473D01*
X66350906Y-73481140D01*
X66350906Y-73547806D01*
X66317573Y-73647806D01*
X65917573Y-74047806D01*
X66350906Y-74047806D01*
X66784240Y-73347806D02*
X66850906Y-73347806D01*
X66917573Y-73381140D01*
X66950906Y-73414473D01*
X66984240Y-73481140D01*
X67017573Y-73614473D01*
X67017573Y-73781140D01*
X66984240Y-73914473D01*
X66950906Y-73981140D01*
X66917573Y-74014473D01*
X66850906Y-74047806D01*
X66784240Y-74047806D01*
X66717573Y-74014473D01*
X66684240Y-73981140D01*
X66650906Y-73914473D01*
X66617573Y-73781140D01*
X66617573Y-73614473D01*
X66650906Y-73481140D01*
X66684240Y-73414473D01*
X66717573Y-73381140D01*
X66784240Y-73347806D01*
X75121580Y-76568720D02*
X75154913Y-76602053D01*
X75188246Y-76702053D01*
X75188246Y-76768720D01*
X75154913Y-76868720D01*
X75088246Y-76935386D01*
X75021580Y-76968720D01*
X74888246Y-77002053D01*
X74788246Y-77002053D01*
X74654913Y-76968720D01*
X74588246Y-76935386D01*
X74521580Y-76868720D01*
X74488246Y-76768720D01*
X74488246Y-76702053D01*
X74521580Y-76602053D01*
X74554913Y-76568720D01*
X74554913Y-76302053D02*
X74521580Y-76268720D01*
X74488246Y-76202053D01*
X74488246Y-76035386D01*
X74521580Y-75968720D01*
X74554913Y-75935386D01*
X74621580Y-75902053D01*
X74688246Y-75902053D01*
X74788246Y-75935386D01*
X75188246Y-76335386D01*
X75188246Y-75902053D01*
X75188246Y-75235386D02*
X75188246Y-75635386D01*
X75188246Y-75435386D02*
X74488246Y-75435386D01*
X74588246Y-75502053D01*
X74654913Y-75568720D01*
X74688246Y-75635386D01*
X75927800Y-68065480D02*
X75894466Y-68098813D01*
X75794466Y-68132146D01*
X75727800Y-68132146D01*
X75627800Y-68098813D01*
X75561133Y-68032146D01*
X75527800Y-67965480D01*
X75494466Y-67832146D01*
X75494466Y-67732146D01*
X75527800Y-67598813D01*
X75561133Y-67532146D01*
X75627800Y-67465480D01*
X75727800Y-67432146D01*
X75794466Y-67432146D01*
X75894466Y-67465480D01*
X75927800Y-67498813D01*
X76194466Y-67498813D02*
X76227800Y-67465480D01*
X76294466Y-67432146D01*
X76461133Y-67432146D01*
X76527800Y-67465480D01*
X76561133Y-67498813D01*
X76594466Y-67565480D01*
X76594466Y-67632146D01*
X76561133Y-67732146D01*
X76161133Y-68132146D01*
X76594466Y-68132146D01*
X76861133Y-67498813D02*
X76894466Y-67465480D01*
X76961133Y-67432146D01*
X77127800Y-67432146D01*
X77194466Y-67465480D01*
X77227800Y-67498813D01*
X77261133Y-67565480D01*
X77261133Y-67632146D01*
X77227800Y-67732146D01*
X76827800Y-68132146D01*
X77261133Y-68132146D01*
X72256460Y-70122200D02*
X72289793Y-70155533D01*
X72323126Y-70255533D01*
X72323126Y-70322200D01*
X72289793Y-70422200D01*
X72223126Y-70488866D01*
X72156460Y-70522200D01*
X72023126Y-70555533D01*
X71923126Y-70555533D01*
X71789793Y-70522200D01*
X71723126Y-70488866D01*
X71656460Y-70422200D01*
X71623126Y-70322200D01*
X71623126Y-70255533D01*
X71656460Y-70155533D01*
X71689793Y-70122200D01*
X71689793Y-69855533D02*
X71656460Y-69822200D01*
X71623126Y-69755533D01*
X71623126Y-69588866D01*
X71656460Y-69522200D01*
X71689793Y-69488866D01*
X71756460Y-69455533D01*
X71823126Y-69455533D01*
X71923126Y-69488866D01*
X72323126Y-69888866D01*
X72323126Y-69455533D01*
X71623126Y-69222200D02*
X71623126Y-68788866D01*
X71889793Y-69022200D01*
X71889793Y-68922200D01*
X71923126Y-68855533D01*
X71956460Y-68822200D01*
X72023126Y-68788866D01*
X72189793Y-68788866D01*
X72256460Y-68822200D01*
X72289793Y-68855533D01*
X72323126Y-68922200D01*
X72323126Y-69122200D01*
X72289793Y-69188866D01*
X72256460Y-69222200D01*
X64763460Y-62629200D02*
X64796793Y-62662533D01*
X64830126Y-62762533D01*
X64830126Y-62829200D01*
X64796793Y-62929200D01*
X64730126Y-62995866D01*
X64663460Y-63029200D01*
X64530126Y-63062533D01*
X64430126Y-63062533D01*
X64296793Y-63029200D01*
X64230126Y-62995866D01*
X64163460Y-62929200D01*
X64130126Y-62829200D01*
X64130126Y-62762533D01*
X64163460Y-62662533D01*
X64196793Y-62629200D01*
X64196793Y-62362533D02*
X64163460Y-62329200D01*
X64130126Y-62262533D01*
X64130126Y-62095866D01*
X64163460Y-62029200D01*
X64196793Y-61995866D01*
X64263460Y-61962533D01*
X64330126Y-61962533D01*
X64430126Y-61995866D01*
X64830126Y-62395866D01*
X64830126Y-61962533D01*
X64363460Y-61362533D02*
X64830126Y-61362533D01*
X64096793Y-61529200D02*
X64596793Y-61695866D01*
X64596793Y-61262533D01*
X116500000Y-60200000D02*
X116533333Y-60233333D01*
X116566666Y-60333333D01*
X116566666Y-60400000D01*
X116533333Y-60500000D01*
X116466666Y-60566666D01*
X116400000Y-60600000D01*
X116266666Y-60633333D01*
X116166666Y-60633333D01*
X116033333Y-60600000D01*
X115966666Y-60566666D01*
X115900000Y-60500000D01*
X115866666Y-60400000D01*
X115866666Y-60333333D01*
X115900000Y-60233333D01*
X115933333Y-60200000D01*
X115933333Y-59933333D02*
X115900000Y-59900000D01*
X115866666Y-59833333D01*
X115866666Y-59666666D01*
X115900000Y-59600000D01*
X115933333Y-59566666D01*
X116000000Y-59533333D01*
X116066666Y-59533333D01*
X116166666Y-59566666D01*
X116566666Y-59966666D01*
X116566666Y-59533333D01*
X115866666Y-58900000D02*
X115866666Y-59233333D01*
X116200000Y-59266666D01*
X116166666Y-59233333D01*
X116133333Y-59166666D01*
X116133333Y-59000000D01*
X116166666Y-58933333D01*
X116200000Y-58900000D01*
X116266666Y-58866666D01*
X116433333Y-58866666D01*
X116500000Y-58900000D01*
X116533333Y-58933333D01*
X116566666Y-59000000D01*
X116566666Y-59166666D01*
X116533333Y-59233333D01*
X116500000Y-59266666D01*
X65165280Y-77538860D02*
X65131946Y-77572193D01*
X65031946Y-77605526D01*
X64965280Y-77605526D01*
X64865280Y-77572193D01*
X64798613Y-77505526D01*
X64765280Y-77438860D01*
X64731946Y-77305526D01*
X64731946Y-77205526D01*
X64765280Y-77072193D01*
X64798613Y-77005526D01*
X64865280Y-76938860D01*
X64965280Y-76905526D01*
X65031946Y-76905526D01*
X65131946Y-76938860D01*
X65165280Y-76972193D01*
X65431946Y-76972193D02*
X65465280Y-76938860D01*
X65531946Y-76905526D01*
X65698613Y-76905526D01*
X65765280Y-76938860D01*
X65798613Y-76972193D01*
X65831946Y-77038860D01*
X65831946Y-77105526D01*
X65798613Y-77205526D01*
X65398613Y-77605526D01*
X65831946Y-77605526D01*
X66431946Y-76905526D02*
X66298613Y-76905526D01*
X66231946Y-76938860D01*
X66198613Y-76972193D01*
X66131946Y-77072193D01*
X66098613Y-77205526D01*
X66098613Y-77472193D01*
X66131946Y-77538860D01*
X66165280Y-77572193D01*
X66231946Y-77605526D01*
X66365280Y-77605526D01*
X66431946Y-77572193D01*
X66465280Y-77538860D01*
X66498613Y-77472193D01*
X66498613Y-77305526D01*
X66465280Y-77238860D01*
X66431946Y-77205526D01*
X66365280Y-77172193D01*
X66231946Y-77172193D01*
X66165280Y-77205526D01*
X66131946Y-77238860D01*
X66098613Y-77305526D01*
X115550000Y-58250000D02*
X115516666Y-58283333D01*
X115416666Y-58316666D01*
X115350000Y-58316666D01*
X115250000Y-58283333D01*
X115183333Y-58216666D01*
X115150000Y-58150000D01*
X115116666Y-58016666D01*
X115116666Y-57916666D01*
X115150000Y-57783333D01*
X115183333Y-57716666D01*
X115250000Y-57650000D01*
X115350000Y-57616666D01*
X115416666Y-57616666D01*
X115516666Y-57650000D01*
X115550000Y-57683333D01*
X115816666Y-57683333D02*
X115850000Y-57650000D01*
X115916666Y-57616666D01*
X116083333Y-57616666D01*
X116150000Y-57650000D01*
X116183333Y-57683333D01*
X116216666Y-57750000D01*
X116216666Y-57816666D01*
X116183333Y-57916666D01*
X115783333Y-58316666D01*
X116216666Y-58316666D01*
X116450000Y-57616666D02*
X116916666Y-57616666D01*
X116616666Y-58316666D01*
X114655180Y-47979140D02*
X114621846Y-48012473D01*
X114521846Y-48045806D01*
X114455180Y-48045806D01*
X114355180Y-48012473D01*
X114288513Y-47945806D01*
X114255180Y-47879140D01*
X114221846Y-47745806D01*
X114221846Y-47645806D01*
X114255180Y-47512473D01*
X114288513Y-47445806D01*
X114355180Y-47379140D01*
X114455180Y-47345806D01*
X114521846Y-47345806D01*
X114621846Y-47379140D01*
X114655180Y-47412473D01*
X114921846Y-47412473D02*
X114955180Y-47379140D01*
X115021846Y-47345806D01*
X115188513Y-47345806D01*
X115255180Y-47379140D01*
X115288513Y-47412473D01*
X115321846Y-47479140D01*
X115321846Y-47545806D01*
X115288513Y-47645806D01*
X114888513Y-48045806D01*
X115321846Y-48045806D01*
X115721846Y-47645806D02*
X115655180Y-47612473D01*
X115621846Y-47579140D01*
X115588513Y-47512473D01*
X115588513Y-47479140D01*
X115621846Y-47412473D01*
X115655180Y-47379140D01*
X115721846Y-47345806D01*
X115855180Y-47345806D01*
X115921846Y-47379140D01*
X115955180Y-47412473D01*
X115988513Y-47479140D01*
X115988513Y-47512473D01*
X115955180Y-47579140D01*
X115921846Y-47612473D01*
X115855180Y-47645806D01*
X115721846Y-47645806D01*
X115655180Y-47679140D01*
X115621846Y-47712473D01*
X115588513Y-47779140D01*
X115588513Y-47912473D01*
X115621846Y-47979140D01*
X115655180Y-48012473D01*
X115721846Y-48045806D01*
X115855180Y-48045806D01*
X115921846Y-48012473D01*
X115955180Y-47979140D01*
X115988513Y-47912473D01*
X115988513Y-47779140D01*
X115955180Y-47712473D01*
X115921846Y-47679140D01*
X115855180Y-47645806D01*
X113103500Y-58797000D02*
X113070166Y-58830333D01*
X112970166Y-58863666D01*
X112903500Y-58863666D01*
X112803500Y-58830333D01*
X112736833Y-58763666D01*
X112703500Y-58697000D01*
X112670166Y-58563666D01*
X112670166Y-58463666D01*
X112703500Y-58330333D01*
X112736833Y-58263666D01*
X112803500Y-58197000D01*
X112903500Y-58163666D01*
X112970166Y-58163666D01*
X113070166Y-58197000D01*
X113103500Y-58230333D01*
X113370166Y-58230333D02*
X113403500Y-58197000D01*
X113470166Y-58163666D01*
X113636833Y-58163666D01*
X113703500Y-58197000D01*
X113736833Y-58230333D01*
X113770166Y-58297000D01*
X113770166Y-58363666D01*
X113736833Y-58463666D01*
X113336833Y-58863666D01*
X113770166Y-58863666D01*
X114103500Y-58863666D02*
X114236833Y-58863666D01*
X114303500Y-58830333D01*
X114336833Y-58797000D01*
X114403500Y-58697000D01*
X114436833Y-58563666D01*
X114436833Y-58297000D01*
X114403500Y-58230333D01*
X114370166Y-58197000D01*
X114303500Y-58163666D01*
X114170166Y-58163666D01*
X114103500Y-58197000D01*
X114070166Y-58230333D01*
X114036833Y-58297000D01*
X114036833Y-58463666D01*
X114070166Y-58530333D01*
X114103500Y-58563666D01*
X114170166Y-58597000D01*
X114303500Y-58597000D01*
X114370166Y-58563666D01*
X114403500Y-58530333D01*
X114436833Y-58463666D01*
D13*
X115132031Y-42551168D02*
X115192507Y-42611644D01*
X115252983Y-42793073D01*
X115252983Y-42914025D01*
X115192507Y-43095454D01*
X115071555Y-43216406D01*
X114950602Y-43276882D01*
X114708698Y-43337359D01*
X114527269Y-43337359D01*
X114285364Y-43276882D01*
X114164412Y-43216406D01*
X114043460Y-43095454D01*
X113982983Y-42914025D01*
X113982983Y-42793073D01*
X114043460Y-42611644D01*
X114103936Y-42551168D01*
X113982983Y-42127835D02*
X113982983Y-41341644D01*
X114466793Y-41764978D01*
X114466793Y-41583549D01*
X114527269Y-41462597D01*
X114587745Y-41402120D01*
X114708698Y-41341644D01*
X115011079Y-41341644D01*
X115132031Y-41402120D01*
X115192507Y-41462597D01*
X115252983Y-41583549D01*
X115252983Y-41946406D01*
X115192507Y-42067359D01*
X115132031Y-42127835D01*
X115252983Y-40736882D02*
X115252983Y-40494978D01*
X115192507Y-40374025D01*
X115132031Y-40313549D01*
X114950602Y-40192597D01*
X114708698Y-40132120D01*
X114224888Y-40132120D01*
X114103936Y-40192597D01*
X114043460Y-40253073D01*
X113982983Y-40374025D01*
X113982983Y-40615930D01*
X114043460Y-40736882D01*
X114103936Y-40797359D01*
X114224888Y-40857835D01*
X114527269Y-40857835D01*
X114648221Y-40797359D01*
X114708698Y-40736882D01*
X114769174Y-40615930D01*
X114769174Y-40374025D01*
X114708698Y-40253073D01*
X114648221Y-40192597D01*
X114527269Y-40132120D01*
D10*
X60133333Y-55500000D02*
X60100000Y-55533333D01*
X60000000Y-55566666D01*
X59933333Y-55566666D01*
X59833333Y-55533333D01*
X59766666Y-55466666D01*
X59733333Y-55400000D01*
X59700000Y-55266666D01*
X59700000Y-55166666D01*
X59733333Y-55033333D01*
X59766666Y-54966666D01*
X59833333Y-54900000D01*
X59933333Y-54866666D01*
X60000000Y-54866666D01*
X60100000Y-54900000D01*
X60133333Y-54933333D01*
X60800000Y-55566666D02*
X60400000Y-55566666D01*
X60600000Y-55566666D02*
X60600000Y-54866666D01*
X60533333Y-54966666D01*
X60466666Y-55033333D01*
X60400000Y-55066666D01*
X63000000Y-41866666D02*
X63033333Y-41900000D01*
X63066666Y-42000000D01*
X63066666Y-42066666D01*
X63033333Y-42166666D01*
X62966666Y-42233333D01*
X62900000Y-42266666D01*
X62766666Y-42300000D01*
X62666666Y-42300000D01*
X62533333Y-42266666D01*
X62466666Y-42233333D01*
X62400000Y-42166666D01*
X62366666Y-42066666D01*
X62366666Y-42000000D01*
X62400000Y-41900000D01*
X62433333Y-41866666D01*
X62433333Y-41600000D02*
X62400000Y-41566666D01*
X62366666Y-41500000D01*
X62366666Y-41333333D01*
X62400000Y-41266666D01*
X62433333Y-41233333D01*
X62500000Y-41200000D01*
X62566666Y-41200000D01*
X62666666Y-41233333D01*
X63066666Y-41633333D01*
X63066666Y-41200000D01*
X75204493Y-56671020D02*
X75171160Y-56704353D01*
X75071160Y-56737686D01*
X75004493Y-56737686D01*
X74904493Y-56704353D01*
X74837826Y-56637686D01*
X74804493Y-56571020D01*
X74771160Y-56437686D01*
X74771160Y-56337686D01*
X74804493Y-56204353D01*
X74837826Y-56137686D01*
X74904493Y-56071020D01*
X75004493Y-56037686D01*
X75071160Y-56037686D01*
X75171160Y-56071020D01*
X75204493Y-56104353D01*
X75437826Y-56037686D02*
X75871160Y-56037686D01*
X75637826Y-56304353D01*
X75737826Y-56304353D01*
X75804493Y-56337686D01*
X75837826Y-56371020D01*
X75871160Y-56437686D01*
X75871160Y-56604353D01*
X75837826Y-56671020D01*
X75804493Y-56704353D01*
X75737826Y-56737686D01*
X75537826Y-56737686D01*
X75471160Y-56704353D01*
X75437826Y-56671020D01*
X77566693Y-56653240D02*
X77533360Y-56686573D01*
X77433360Y-56719906D01*
X77366693Y-56719906D01*
X77266693Y-56686573D01*
X77200026Y-56619906D01*
X77166693Y-56553240D01*
X77133360Y-56419906D01*
X77133360Y-56319906D01*
X77166693Y-56186573D01*
X77200026Y-56119906D01*
X77266693Y-56053240D01*
X77366693Y-56019906D01*
X77433360Y-56019906D01*
X77533360Y-56053240D01*
X77566693Y-56086573D01*
X78166693Y-56253240D02*
X78166693Y-56719906D01*
X78000026Y-55986573D02*
X77833360Y-56486573D01*
X78266693Y-56486573D01*
X87982640Y-54357080D02*
X87949306Y-54390413D01*
X87849306Y-54423746D01*
X87782640Y-54423746D01*
X87682640Y-54390413D01*
X87615973Y-54323746D01*
X87582640Y-54257080D01*
X87549306Y-54123746D01*
X87549306Y-54023746D01*
X87582640Y-53890413D01*
X87615973Y-53823746D01*
X87682640Y-53757080D01*
X87782640Y-53723746D01*
X87849306Y-53723746D01*
X87949306Y-53757080D01*
X87982640Y-53790413D01*
X88649306Y-54423746D02*
X88249306Y-54423746D01*
X88449306Y-54423746D02*
X88449306Y-53723746D01*
X88382640Y-53823746D01*
X88315973Y-53890413D01*
X88249306Y-53923746D01*
X89249306Y-53957080D02*
X89249306Y-54423746D01*
X89082640Y-53690413D02*
X88915973Y-54190413D01*
X89349306Y-54190413D01*
X90088300Y-54336760D02*
X90054966Y-54370093D01*
X89954966Y-54403426D01*
X89888300Y-54403426D01*
X89788300Y-54370093D01*
X89721633Y-54303426D01*
X89688300Y-54236760D01*
X89654966Y-54103426D01*
X89654966Y-54003426D01*
X89688300Y-53870093D01*
X89721633Y-53803426D01*
X89788300Y-53736760D01*
X89888300Y-53703426D01*
X89954966Y-53703426D01*
X90054966Y-53736760D01*
X90088300Y-53770093D01*
X90754966Y-54403426D02*
X90354966Y-54403426D01*
X90554966Y-54403426D02*
X90554966Y-53703426D01*
X90488300Y-53803426D01*
X90421633Y-53870093D01*
X90354966Y-53903426D01*
X91388300Y-53703426D02*
X91054966Y-53703426D01*
X91021633Y-54036760D01*
X91054966Y-54003426D01*
X91121633Y-53970093D01*
X91288300Y-53970093D01*
X91354966Y-54003426D01*
X91388300Y-54036760D01*
X91421633Y-54103426D01*
X91421633Y-54270093D01*
X91388300Y-54336760D01*
X91354966Y-54370093D01*
X91288300Y-54403426D01*
X91121633Y-54403426D01*
X91054966Y-54370093D01*
X91021633Y-54336760D01*
X88185840Y-67562540D02*
X88152506Y-67595873D01*
X88052506Y-67629206D01*
X87985840Y-67629206D01*
X87885840Y-67595873D01*
X87819173Y-67529206D01*
X87785840Y-67462540D01*
X87752506Y-67329206D01*
X87752506Y-67229206D01*
X87785840Y-67095873D01*
X87819173Y-67029206D01*
X87885840Y-66962540D01*
X87985840Y-66929206D01*
X88052506Y-66929206D01*
X88152506Y-66962540D01*
X88185840Y-66995873D01*
X88852506Y-67629206D02*
X88452506Y-67629206D01*
X88652506Y-67629206D02*
X88652506Y-66929206D01*
X88585840Y-67029206D01*
X88519173Y-67095873D01*
X88452506Y-67129206D01*
X89452506Y-66929206D02*
X89319173Y-66929206D01*
X89252506Y-66962540D01*
X89219173Y-66995873D01*
X89152506Y-67095873D01*
X89119173Y-67229206D01*
X89119173Y-67495873D01*
X89152506Y-67562540D01*
X89185840Y-67595873D01*
X89252506Y-67629206D01*
X89385840Y-67629206D01*
X89452506Y-67595873D01*
X89485840Y-67562540D01*
X89519173Y-67495873D01*
X89519173Y-67329206D01*
X89485840Y-67262540D01*
X89452506Y-67229206D01*
X89385840Y-67195873D01*
X89252506Y-67195873D01*
X89185840Y-67229206D01*
X89152506Y-67262540D01*
X89119173Y-67329206D01*
X85678860Y-67620960D02*
X85645526Y-67654293D01*
X85545526Y-67687626D01*
X85478860Y-67687626D01*
X85378860Y-67654293D01*
X85312193Y-67587626D01*
X85278860Y-67520960D01*
X85245526Y-67387626D01*
X85245526Y-67287626D01*
X85278860Y-67154293D01*
X85312193Y-67087626D01*
X85378860Y-67020960D01*
X85478860Y-66987626D01*
X85545526Y-66987626D01*
X85645526Y-67020960D01*
X85678860Y-67054293D01*
X86345526Y-67687626D02*
X85945526Y-67687626D01*
X86145526Y-67687626D02*
X86145526Y-66987626D01*
X86078860Y-67087626D01*
X86012193Y-67154293D01*
X85945526Y-67187626D01*
X86578860Y-66987626D02*
X87045526Y-66987626D01*
X86745526Y-67687626D01*
X95037720Y-55888040D02*
X95071053Y-55921373D01*
X95104386Y-56021373D01*
X95104386Y-56088040D01*
X95071053Y-56188040D01*
X95004386Y-56254706D01*
X94937720Y-56288040D01*
X94804386Y-56321373D01*
X94704386Y-56321373D01*
X94571053Y-56288040D01*
X94504386Y-56254706D01*
X94437720Y-56188040D01*
X94404386Y-56088040D01*
X94404386Y-56021373D01*
X94437720Y-55921373D01*
X94471053Y-55888040D01*
X94404386Y-55654706D02*
X94404386Y-55221373D01*
X94671053Y-55454706D01*
X94671053Y-55354706D01*
X94704386Y-55288040D01*
X94737720Y-55254706D01*
X94804386Y-55221373D01*
X94971053Y-55221373D01*
X95037720Y-55254706D01*
X95071053Y-55288040D01*
X95104386Y-55354706D01*
X95104386Y-55554706D01*
X95071053Y-55621373D01*
X95037720Y-55654706D01*
X95104386Y-54554706D02*
X95104386Y-54954706D01*
X95104386Y-54754706D02*
X94404386Y-54754706D01*
X94504386Y-54821373D01*
X94571053Y-54888040D01*
X94604386Y-54954706D01*
X95037720Y-53703640D02*
X95071053Y-53736973D01*
X95104386Y-53836973D01*
X95104386Y-53903640D01*
X95071053Y-54003640D01*
X95004386Y-54070306D01*
X94937720Y-54103640D01*
X94804386Y-54136973D01*
X94704386Y-54136973D01*
X94571053Y-54103640D01*
X94504386Y-54070306D01*
X94437720Y-54003640D01*
X94404386Y-53903640D01*
X94404386Y-53836973D01*
X94437720Y-53736973D01*
X94471053Y-53703640D01*
X94404386Y-53470306D02*
X94404386Y-53036973D01*
X94671053Y-53270306D01*
X94671053Y-53170306D01*
X94704386Y-53103640D01*
X94737720Y-53070306D01*
X94804386Y-53036973D01*
X94971053Y-53036973D01*
X95037720Y-53070306D01*
X95071053Y-53103640D01*
X95104386Y-53170306D01*
X95104386Y-53370306D01*
X95071053Y-53436973D01*
X95037720Y-53470306D01*
X94404386Y-52803640D02*
X94404386Y-52370306D01*
X94671053Y-52603640D01*
X94671053Y-52503640D01*
X94704386Y-52436973D01*
X94737720Y-52403640D01*
X94804386Y-52370306D01*
X94971053Y-52370306D01*
X95037720Y-52403640D01*
X95071053Y-52436973D01*
X95104386Y-52503640D01*
X95104386Y-52703640D01*
X95071053Y-52770306D01*
X95037720Y-52803640D01*
X96591243Y-66203884D02*
X96591243Y-66851503D01*
X96629339Y-66927694D01*
X96667434Y-66965789D01*
X96743624Y-67003884D01*
X96896005Y-67003884D01*
X96972196Y-66965789D01*
X97010291Y-66927694D01*
X97048386Y-66851503D01*
X97048386Y-66203884D01*
X97848386Y-67003884D02*
X97391243Y-67003884D01*
X97619815Y-67003884D02*
X97619815Y-66203884D01*
X97543624Y-66318170D01*
X97467434Y-66394360D01*
X97391243Y-66432456D01*
X98343624Y-66203884D02*
X98419815Y-66203884D01*
X98496005Y-66241980D01*
X98534100Y-66280075D01*
X98572196Y-66356265D01*
X98610291Y-66508646D01*
X98610291Y-66699122D01*
X98572196Y-66851503D01*
X98534100Y-66927694D01*
X98496005Y-66965789D01*
X98419815Y-67003884D01*
X98343624Y-67003884D01*
X98267434Y-66965789D01*
X98229339Y-66927694D01*
X98191243Y-66851503D01*
X98153148Y-66699122D01*
X98153148Y-66508646D01*
X98191243Y-66356265D01*
X98229339Y-66280075D01*
X98267434Y-66241980D01*
X98343624Y-66203884D01*
X63044013Y-48631640D02*
X62810680Y-48631640D01*
X62810680Y-48998306D02*
X62810680Y-48298306D01*
X63144013Y-48298306D01*
X63410680Y-48631640D02*
X63644013Y-48631640D01*
X63744013Y-48998306D02*
X63410680Y-48998306D01*
X63410680Y-48298306D01*
X63744013Y-48298306D01*
X63944013Y-48298306D02*
X64344013Y-48298306D01*
X64144013Y-48998306D02*
X64144013Y-48298306D01*
X64944013Y-48998306D02*
X64544013Y-48998306D01*
X64744013Y-48998306D02*
X64744013Y-48298306D01*
X64677346Y-48398306D01*
X64610680Y-48464973D01*
X64544013Y-48498306D01*
X64200000Y-60566666D02*
X64200000Y-60800000D01*
X64566666Y-60800000D02*
X63866666Y-60800000D01*
X63866666Y-60466666D01*
X64200000Y-60200000D02*
X64200000Y-59966666D01*
X64566666Y-59866666D02*
X64566666Y-60200000D01*
X63866666Y-60200000D01*
X63866666Y-59866666D01*
X63866666Y-59666666D02*
X63866666Y-59266666D01*
X64566666Y-59466666D02*
X63866666Y-59466666D01*
X63933333Y-59066666D02*
X63900000Y-59033333D01*
X63866666Y-58966666D01*
X63866666Y-58800000D01*
X63900000Y-58733333D01*
X63933333Y-58700000D01*
X64000000Y-58666666D01*
X64066666Y-58666666D01*
X64166666Y-58700000D01*
X64566666Y-59100000D01*
X64566666Y-58666666D01*
X93863169Y-67080075D02*
X93786979Y-67041980D01*
X93710788Y-66965789D01*
X93596502Y-66851503D01*
X93520312Y-66813408D01*
X93444121Y-66813408D01*
X93482217Y-67003884D02*
X93406026Y-66965789D01*
X93329836Y-66889599D01*
X93291740Y-66737218D01*
X93291740Y-66470551D01*
X93329836Y-66318170D01*
X93406026Y-66241980D01*
X93482217Y-66203884D01*
X93634598Y-66203884D01*
X93710788Y-66241980D01*
X93786979Y-66318170D01*
X93825074Y-66470551D01*
X93825074Y-66737218D01*
X93786979Y-66889599D01*
X93710788Y-66965789D01*
X93634598Y-67003884D01*
X93482217Y-67003884D01*
X94586979Y-67003884D02*
X94129836Y-67003884D01*
X94358407Y-67003884D02*
X94358407Y-66203884D01*
X94282217Y-66318170D01*
X94206026Y-66394360D01*
X94129836Y-66432456D01*
X79300713Y-63349933D02*
X79234046Y-63316600D01*
X79167380Y-63249933D01*
X79067380Y-63149933D01*
X79000713Y-63116600D01*
X78934046Y-63116600D01*
X78967380Y-63283266D02*
X78900713Y-63249933D01*
X78834046Y-63183266D01*
X78800713Y-63049933D01*
X78800713Y-62816600D01*
X78834046Y-62683266D01*
X78900713Y-62616600D01*
X78967380Y-62583266D01*
X79100713Y-62583266D01*
X79167380Y-62616600D01*
X79234046Y-62683266D01*
X79267380Y-62816600D01*
X79267380Y-63049933D01*
X79234046Y-63183266D01*
X79167380Y-63249933D01*
X79100713Y-63283266D01*
X78967380Y-63283266D01*
X79867380Y-62816600D02*
X79867380Y-63283266D01*
X79700713Y-62549933D02*
X79534046Y-63049933D01*
X79967380Y-63049933D01*
X79051793Y-57741613D02*
X78985126Y-57708280D01*
X78918460Y-57641613D01*
X78818460Y-57541613D01*
X78751793Y-57508280D01*
X78685126Y-57508280D01*
X78718460Y-57674946D02*
X78651793Y-57641613D01*
X78585126Y-57574946D01*
X78551793Y-57441613D01*
X78551793Y-57208280D01*
X78585126Y-57074946D01*
X78651793Y-57008280D01*
X78718460Y-56974946D01*
X78851793Y-56974946D01*
X78918460Y-57008280D01*
X78985126Y-57074946D01*
X79018460Y-57208280D01*
X79018460Y-57441613D01*
X78985126Y-57574946D01*
X78918460Y-57641613D01*
X78851793Y-57674946D01*
X78718460Y-57674946D01*
X79651793Y-56974946D02*
X79318460Y-56974946D01*
X79285126Y-57308280D01*
X79318460Y-57274946D01*
X79385126Y-57241613D01*
X79551793Y-57241613D01*
X79618460Y-57274946D01*
X79651793Y-57308280D01*
X79685126Y-57374946D01*
X79685126Y-57541613D01*
X79651793Y-57608280D01*
X79618460Y-57641613D01*
X79551793Y-57674946D01*
X79385126Y-57674946D01*
X79318460Y-57641613D01*
X79285126Y-57608280D01*
X114168093Y-52015826D02*
X113934760Y-51682493D01*
X113768093Y-52015826D02*
X113768093Y-51315826D01*
X114034760Y-51315826D01*
X114101426Y-51349160D01*
X114134760Y-51382493D01*
X114168093Y-51449160D01*
X114168093Y-51549160D01*
X114134760Y-51615826D01*
X114101426Y-51649160D01*
X114034760Y-51682493D01*
X113768093Y-51682493D01*
X114501426Y-52015826D02*
X114634760Y-52015826D01*
X114701426Y-51982493D01*
X114734760Y-51949160D01*
X114801426Y-51849160D01*
X114834760Y-51715826D01*
X114834760Y-51449160D01*
X114801426Y-51382493D01*
X114768093Y-51349160D01*
X114701426Y-51315826D01*
X114568093Y-51315826D01*
X114501426Y-51349160D01*
X114468093Y-51382493D01*
X114434760Y-51449160D01*
X114434760Y-51615826D01*
X114468093Y-51682493D01*
X114501426Y-51715826D01*
X114568093Y-51749160D01*
X114701426Y-51749160D01*
X114768093Y-51715826D01*
X114801426Y-51682493D01*
X114834760Y-51615826D01*
X112519633Y-52013286D02*
X112286300Y-51679953D01*
X112119633Y-52013286D02*
X112119633Y-51313286D01*
X112386300Y-51313286D01*
X112452966Y-51346620D01*
X112486300Y-51379953D01*
X112519633Y-51446620D01*
X112519633Y-51546620D01*
X112486300Y-51613286D01*
X112452966Y-51646620D01*
X112386300Y-51679953D01*
X112119633Y-51679953D01*
X112919633Y-51613286D02*
X112852966Y-51579953D01*
X112819633Y-51546620D01*
X112786300Y-51479953D01*
X112786300Y-51446620D01*
X112819633Y-51379953D01*
X112852966Y-51346620D01*
X112919633Y-51313286D01*
X113052966Y-51313286D01*
X113119633Y-51346620D01*
X113152966Y-51379953D01*
X113186300Y-51446620D01*
X113186300Y-51479953D01*
X113152966Y-51546620D01*
X113119633Y-51579953D01*
X113052966Y-51613286D01*
X112919633Y-51613286D01*
X112852966Y-51646620D01*
X112819633Y-51679953D01*
X112786300Y-51746620D01*
X112786300Y-51879953D01*
X112819633Y-51946620D01*
X112852966Y-51979953D01*
X112919633Y-52013286D01*
X113052966Y-52013286D01*
X113119633Y-51979953D01*
X113152966Y-51946620D01*
X113186300Y-51879953D01*
X113186300Y-51746620D01*
X113152966Y-51679953D01*
X113119633Y-51646620D01*
X113052966Y-51613286D01*
X76869966Y-72093933D02*
X76869966Y-72427266D01*
X76636633Y-71727266D02*
X76869966Y-72093933D01*
X77103300Y-71727266D01*
X77703300Y-72427266D02*
X77303300Y-72427266D01*
X77503300Y-72427266D02*
X77503300Y-71727266D01*
X77436633Y-71827266D01*
X77369966Y-71893933D01*
X77303300Y-71927266D01*
D22*
X73214184Y-74065122D02*
X73176089Y-74141313D01*
X73137994Y-74179408D01*
X73061803Y-74217503D01*
X72833232Y-74217503D01*
X72757041Y-74179408D01*
X72718946Y-74141313D01*
X72680851Y-74065122D01*
X72680851Y-73950837D01*
X72718946Y-73874646D01*
X72757041Y-73836551D01*
X72833232Y-73798456D01*
X73061803Y-73798456D01*
X73137994Y-73836551D01*
X73176089Y-73874646D01*
X73214184Y-73950837D01*
X73214184Y-74065122D01*
D24*
X93596701Y-45843250D02*
X92961701Y-45843250D01*
X92961701Y-45692060D01*
X92991940Y-45601345D01*
X93052416Y-45540869D01*
X93112892Y-45510631D01*
X93233844Y-45480393D01*
X93324559Y-45480393D01*
X93445511Y-45510631D01*
X93505987Y-45540869D01*
X93566463Y-45601345D01*
X93596701Y-45692060D01*
X93596701Y-45843250D01*
X92961701Y-44905869D02*
X92961701Y-45208250D01*
X93264082Y-45238488D01*
X93233844Y-45208250D01*
X93203606Y-45147774D01*
X93203606Y-44996583D01*
X93233844Y-44936107D01*
X93264082Y-44905869D01*
X93324559Y-44875631D01*
X93475749Y-44875631D01*
X93536225Y-44905869D01*
X93566463Y-44936107D01*
X93596701Y-44996583D01*
X93596701Y-45147774D01*
X93566463Y-45208250D01*
X93536225Y-45238488D01*
D10*
X111137346Y-56259733D02*
X111704013Y-56259733D01*
X111770680Y-56226400D01*
X111804013Y-56193066D01*
X111837346Y-56126400D01*
X111837346Y-55993066D01*
X111804013Y-55926400D01*
X111770680Y-55893066D01*
X111704013Y-55859733D01*
X111137346Y-55859733D01*
X111137346Y-55593066D02*
X111137346Y-55126400D01*
X111837346Y-55426400D01*
X81300000Y-53816666D02*
X81066666Y-53483333D01*
X80900000Y-53816666D02*
X80900000Y-53116666D01*
X81166666Y-53116666D01*
X81233333Y-53150000D01*
X81266666Y-53183333D01*
X81300000Y-53250000D01*
X81300000Y-53350000D01*
X81266666Y-53416666D01*
X81233333Y-53450000D01*
X81166666Y-53483333D01*
X80900000Y-53483333D01*
X81966666Y-53816666D02*
X81566666Y-53816666D01*
X81766666Y-53816666D02*
X81766666Y-53116666D01*
X81700000Y-53216666D01*
X81633333Y-53283333D01*
X81566666Y-53316666D01*
X82300000Y-53816666D02*
X82433333Y-53816666D01*
X82500000Y-53783333D01*
X82533333Y-53750000D01*
X82600000Y-53650000D01*
X82633333Y-53516666D01*
X82633333Y-53250000D01*
X82600000Y-53183333D01*
X82566666Y-53150000D01*
X82500000Y-53116666D01*
X82366666Y-53116666D01*
X82300000Y-53150000D01*
X82266666Y-53183333D01*
X82233333Y-53250000D01*
X82233333Y-53416666D01*
X82266666Y-53483333D01*
X82300000Y-53516666D01*
X82366666Y-53550000D01*
X82500000Y-53550000D01*
X82566666Y-53516666D01*
X82600000Y-53483333D01*
X82633333Y-53416666D01*
X81325300Y-54759026D02*
X81091966Y-54425693D01*
X80925300Y-54759026D02*
X80925300Y-54059026D01*
X81191966Y-54059026D01*
X81258633Y-54092360D01*
X81291966Y-54125693D01*
X81325300Y-54192360D01*
X81325300Y-54292360D01*
X81291966Y-54359026D01*
X81258633Y-54392360D01*
X81191966Y-54425693D01*
X80925300Y-54425693D01*
X81591966Y-54125693D02*
X81625300Y-54092360D01*
X81691966Y-54059026D01*
X81858633Y-54059026D01*
X81925300Y-54092360D01*
X81958633Y-54125693D01*
X81991966Y-54192360D01*
X81991966Y-54259026D01*
X81958633Y-54359026D01*
X81558633Y-54759026D01*
X81991966Y-54759026D01*
X82425300Y-54059026D02*
X82491966Y-54059026D01*
X82558633Y-54092360D01*
X82591966Y-54125693D01*
X82625300Y-54192360D01*
X82658633Y-54325693D01*
X82658633Y-54492360D01*
X82625300Y-54625693D01*
X82591966Y-54692360D01*
X82558633Y-54725693D01*
X82491966Y-54759026D01*
X82425300Y-54759026D01*
X82358633Y-54725693D01*
X82325300Y-54692360D01*
X82291966Y-54625693D01*
X82258633Y-54492360D01*
X82258633Y-54325693D01*
X82291966Y-54192360D01*
X82325300Y-54125693D01*
X82358633Y-54092360D01*
X82425300Y-54059026D01*
X86753723Y-43462200D02*
X86182295Y-43462200D01*
X86468009Y-43462200D02*
X86468009Y-42462200D01*
X86372771Y-42605058D01*
X86277533Y-42700296D01*
X86182295Y-42747915D01*
X87372771Y-42462200D02*
X87468009Y-42462200D01*
X87563247Y-42509820D01*
X87610866Y-42557439D01*
X87658485Y-42652677D01*
X87706104Y-42843153D01*
X87706104Y-43081248D01*
X87658485Y-43271724D01*
X87610866Y-43366962D01*
X87563247Y-43414581D01*
X87468009Y-43462200D01*
X87372771Y-43462200D01*
X87277533Y-43414581D01*
X87229914Y-43366962D01*
X87182295Y-43271724D01*
X87134676Y-43081248D01*
X87134676Y-42843153D01*
X87182295Y-42652677D01*
X87229914Y-42557439D01*
X87277533Y-42509820D01*
X87372771Y-42462200D01*
D13*
X67201904Y-38074523D02*
X67201904Y-36804523D01*
X67685714Y-36804523D01*
X67806666Y-36865000D01*
X67867142Y-36925476D01*
X67927619Y-37046428D01*
X67927619Y-37227857D01*
X67867142Y-37348809D01*
X67806666Y-37409285D01*
X67685714Y-37469761D01*
X67201904Y-37469761D01*
X68350952Y-36804523D02*
X68653333Y-38074523D01*
X68895238Y-37167380D01*
X69137142Y-38074523D01*
X69439523Y-36804523D01*
X70649047Y-38074523D02*
X70225714Y-37469761D01*
X69923333Y-38074523D02*
X69923333Y-36804523D01*
X70407142Y-36804523D01*
X70528095Y-36865000D01*
X70588571Y-36925476D01*
X70649047Y-37046428D01*
X70649047Y-37227857D01*
X70588571Y-37348809D01*
X70528095Y-37409285D01*
X70407142Y-37469761D01*
X69923333Y-37469761D01*
X71858571Y-38074523D02*
X71132857Y-38074523D01*
X71495714Y-38074523D02*
X71495714Y-36804523D01*
X71374761Y-36985952D01*
X71253809Y-37106904D01*
X71132857Y-37167380D01*
X39009285Y-27324285D02*
X39190714Y-27384761D01*
X39251190Y-27445238D01*
X39311666Y-27566190D01*
X39311666Y-27747619D01*
X39251190Y-27868571D01*
X39190714Y-27929047D01*
X39069761Y-27989523D01*
X38585952Y-27989523D01*
X38585952Y-26719523D01*
X39009285Y-26719523D01*
X39130238Y-26780000D01*
X39190714Y-26840476D01*
X39251190Y-26961428D01*
X39251190Y-27082380D01*
X39190714Y-27203333D01*
X39130238Y-27263809D01*
X39009285Y-27324285D01*
X38585952Y-27324285D01*
X39855952Y-27566190D02*
X40400238Y-27566190D01*
X39855952Y-27142857D02*
X39855952Y-27989523D01*
X40400238Y-27142857D02*
X40400238Y-27989523D01*
X41005000Y-27142857D02*
X41005000Y-27989523D01*
X41609761Y-27142857D01*
X41609761Y-27989523D01*
X42214523Y-27989523D02*
X42214523Y-27142857D01*
X42577380Y-27808095D01*
X42940238Y-27142857D01*
X42940238Y-27989523D01*
X44089285Y-27989523D02*
X44089285Y-27324285D01*
X44028809Y-27203333D01*
X43907857Y-27142857D01*
X43665952Y-27142857D01*
X43545000Y-27203333D01*
X44089285Y-27929047D02*
X43968333Y-27989523D01*
X43665952Y-27989523D01*
X43545000Y-27929047D01*
X43484523Y-27808095D01*
X43484523Y-27687142D01*
X43545000Y-27566190D01*
X43665952Y-27505714D01*
X43968333Y-27505714D01*
X44089285Y-27445238D01*
X44694047Y-27566190D02*
X45238333Y-27566190D01*
X44694047Y-27142857D02*
X44694047Y-27989523D01*
X45238333Y-27142857D02*
X45238333Y-27989523D01*
X45843095Y-27142857D02*
X45843095Y-27989523D01*
X46447857Y-27142857D01*
X46447857Y-27989523D01*
X47536428Y-27929047D02*
X47415476Y-27989523D01*
X47173571Y-27989523D01*
X47052619Y-27929047D01*
X46992142Y-27808095D01*
X46992142Y-27324285D01*
X47052619Y-27203333D01*
X47173571Y-27142857D01*
X47415476Y-27142857D01*
X47536428Y-27203333D01*
X47596904Y-27324285D01*
X47596904Y-27445238D01*
X46992142Y-27566190D01*
X48141190Y-27868571D02*
X48201666Y-27929047D01*
X48141190Y-27989523D01*
X48080714Y-27929047D01*
X48141190Y-27868571D01*
X48141190Y-27989523D01*
X48141190Y-27505714D02*
X48080714Y-26780000D01*
X48141190Y-26719523D01*
X48201666Y-26780000D01*
X48141190Y-27505714D01*
X48141190Y-26719523D01*
X49713571Y-26719523D02*
X49713571Y-27989523D01*
X50439285Y-26719523D01*
X50439285Y-27989523D01*
X51044047Y-27989523D02*
X51044047Y-27142857D01*
X51406904Y-27808095D01*
X51769761Y-27142857D01*
X51769761Y-27989523D01*
X52918809Y-27989523D02*
X52918809Y-27324285D01*
X52858333Y-27203333D01*
X52737380Y-27142857D01*
X52495476Y-27142857D01*
X52374523Y-27203333D01*
X52918809Y-27929047D02*
X52797857Y-27989523D01*
X52495476Y-27989523D01*
X52374523Y-27929047D01*
X52314047Y-27808095D01*
X52314047Y-27687142D01*
X52374523Y-27566190D01*
X52495476Y-27505714D01*
X52797857Y-27505714D01*
X52918809Y-27445238D01*
X54854047Y-26719523D02*
X54854047Y-28412857D01*
X54733095Y-27142857D02*
X54975000Y-27142857D01*
X55095952Y-27203333D01*
X55216904Y-27324285D01*
X55277380Y-27445238D01*
X55277380Y-27687142D01*
X55216904Y-27808095D01*
X55095952Y-27929047D01*
X54975000Y-27989523D01*
X54733095Y-27989523D01*
X54612142Y-27929047D01*
X54491190Y-27808095D01*
X54430714Y-27687142D01*
X54430714Y-27445238D01*
X54491190Y-27324285D01*
X54612142Y-27203333D01*
X54733095Y-27142857D01*
X55821666Y-27142857D02*
X55821666Y-28412857D01*
X55821666Y-27203333D02*
X55942619Y-27142857D01*
X56184523Y-27142857D01*
X56305476Y-27203333D01*
X56365952Y-27263809D01*
X56426428Y-27384761D01*
X56426428Y-27747619D01*
X56365952Y-27868571D01*
X56305476Y-27929047D01*
X56184523Y-27989523D01*
X55942619Y-27989523D01*
X55821666Y-27929047D01*
X57454523Y-27929047D02*
X57333571Y-27989523D01*
X57091666Y-27989523D01*
X56970714Y-27929047D01*
X56910238Y-27808095D01*
X56910238Y-27324285D01*
X56970714Y-27203333D01*
X57091666Y-27142857D01*
X57333571Y-27142857D01*
X57454523Y-27203333D01*
X57515000Y-27324285D01*
X57515000Y-27445238D01*
X56910238Y-27566190D01*
X58180238Y-27566190D02*
X58301190Y-27566190D01*
X57938333Y-27203333D02*
X58059285Y-27142857D01*
X58301190Y-27142857D01*
X58422142Y-27203333D01*
X58482619Y-27324285D01*
X58482619Y-27384761D01*
X58422142Y-27505714D01*
X58301190Y-27566190D01*
X58422142Y-27626666D01*
X58482619Y-27747619D01*
X58482619Y-27808095D01*
X58422142Y-27929047D01*
X58301190Y-27989523D01*
X58059285Y-27989523D01*
X57938333Y-27929047D01*
X59208333Y-27989523D02*
X59087380Y-27929047D01*
X59026904Y-27868571D01*
X58966428Y-27747619D01*
X58966428Y-27384761D01*
X59026904Y-27263809D01*
X59087380Y-27203333D01*
X59208333Y-27142857D01*
X59389761Y-27142857D01*
X59510714Y-27203333D01*
X59571190Y-27263809D01*
X59631666Y-27384761D01*
X59631666Y-27747619D01*
X59571190Y-27868571D01*
X59510714Y-27929047D01*
X59389761Y-27989523D01*
X59208333Y-27989523D01*
X60478333Y-27566190D02*
X60659761Y-27626666D01*
X60720238Y-27747619D01*
X60720238Y-27808095D01*
X60659761Y-27929047D01*
X60538809Y-27989523D01*
X60175952Y-27989523D01*
X60175952Y-27142857D01*
X60478333Y-27142857D01*
X60599285Y-27203333D01*
X60659761Y-27324285D01*
X60659761Y-27384761D01*
X60599285Y-27505714D01*
X60478333Y-27566190D01*
X60175952Y-27566190D01*
X61808809Y-27989523D02*
X61808809Y-27324285D01*
X61748333Y-27203333D01*
X61627380Y-27142857D01*
X61385476Y-27142857D01*
X61264523Y-27203333D01*
X61808809Y-27929047D02*
X61687857Y-27989523D01*
X61385476Y-27989523D01*
X61264523Y-27929047D01*
X61204047Y-27808095D01*
X61204047Y-27687142D01*
X61264523Y-27566190D01*
X61385476Y-27505714D01*
X61687857Y-27505714D01*
X61808809Y-27445238D01*
X62413571Y-27566190D02*
X62957857Y-27566190D01*
X62413571Y-27142857D02*
X62413571Y-27989523D01*
X62957857Y-27142857D02*
X62957857Y-27989523D01*
X64046428Y-27929047D02*
X63925476Y-27989523D01*
X63683571Y-27989523D01*
X63562619Y-27929047D01*
X63502142Y-27808095D01*
X63502142Y-27324285D01*
X63562619Y-27203333D01*
X63683571Y-27142857D01*
X63925476Y-27142857D01*
X64046428Y-27203333D01*
X64106904Y-27324285D01*
X64106904Y-27445238D01*
X63502142Y-27566190D01*
X65618809Y-27566190D02*
X66163095Y-27566190D01*
X65618809Y-27142857D02*
X65618809Y-27989523D01*
X66163095Y-27142857D02*
X66163095Y-27989523D01*
X67312142Y-27989523D02*
X67312142Y-27324285D01*
X67251666Y-27203333D01*
X67130714Y-27142857D01*
X66888809Y-27142857D01*
X66767857Y-27203333D01*
X67312142Y-27929047D02*
X67191190Y-27989523D01*
X66888809Y-27989523D01*
X66767857Y-27929047D01*
X66707380Y-27808095D01*
X66707380Y-27687142D01*
X66767857Y-27566190D01*
X66888809Y-27505714D01*
X67191190Y-27505714D01*
X67312142Y-27445238D01*
X67916904Y-27989523D02*
X67916904Y-27142857D01*
X68461190Y-27142857D01*
X68461190Y-27989523D01*
X69065952Y-27142857D02*
X69065952Y-28412857D01*
X69065952Y-27203333D02*
X69186904Y-27142857D01*
X69428809Y-27142857D01*
X69549761Y-27203333D01*
X69610238Y-27263809D01*
X69670714Y-27384761D01*
X69670714Y-27747619D01*
X69610238Y-27868571D01*
X69549761Y-27929047D01*
X69428809Y-27989523D01*
X69186904Y-27989523D01*
X69065952Y-27929047D01*
X70759285Y-27989523D02*
X70759285Y-27324285D01*
X70698809Y-27203333D01*
X70577857Y-27142857D01*
X70335952Y-27142857D01*
X70215000Y-27203333D01*
X70759285Y-27929047D02*
X70638333Y-27989523D01*
X70335952Y-27989523D01*
X70215000Y-27929047D01*
X70154523Y-27808095D01*
X70154523Y-27687142D01*
X70215000Y-27566190D01*
X70335952Y-27505714D01*
X70638333Y-27505714D01*
X70759285Y-27445238D01*
X71666428Y-27566190D02*
X71847857Y-27626666D01*
X71908333Y-27747619D01*
X71908333Y-27808095D01*
X71847857Y-27929047D01*
X71726904Y-27989523D01*
X71364047Y-27989523D01*
X71364047Y-27142857D01*
X71666428Y-27142857D01*
X71787380Y-27203333D01*
X71847857Y-27324285D01*
X71847857Y-27384761D01*
X71787380Y-27505714D01*
X71666428Y-27566190D01*
X71364047Y-27566190D01*
X72936428Y-27929047D02*
X72815476Y-27989523D01*
X72573571Y-27989523D01*
X72452619Y-27929047D01*
X72392142Y-27808095D01*
X72392142Y-27324285D01*
X72452619Y-27203333D01*
X72573571Y-27142857D01*
X72815476Y-27142857D01*
X72936428Y-27203333D01*
X72996904Y-27324285D01*
X72996904Y-27445238D01*
X72392142Y-27566190D01*
X73541190Y-27566190D02*
X74085476Y-27566190D01*
X73541190Y-27142857D02*
X73541190Y-27989523D01*
X74085476Y-27142857D02*
X74085476Y-27989523D01*
X74871666Y-27989523D02*
X74750714Y-27929047D01*
X74690238Y-27868571D01*
X74629761Y-27747619D01*
X74629761Y-27384761D01*
X74690238Y-27263809D01*
X74750714Y-27203333D01*
X74871666Y-27142857D01*
X75053095Y-27142857D01*
X75174047Y-27203333D01*
X75234523Y-27263809D01*
X75295000Y-27384761D01*
X75295000Y-27747619D01*
X75234523Y-27868571D01*
X75174047Y-27929047D01*
X75053095Y-27989523D01*
X74871666Y-27989523D01*
X77351190Y-27929047D02*
X77230238Y-27989523D01*
X76988333Y-27989523D01*
X76867380Y-27929047D01*
X76806904Y-27868571D01*
X76746428Y-27747619D01*
X76746428Y-27384761D01*
X76806904Y-27263809D01*
X76867380Y-27203333D01*
X76988333Y-27142857D01*
X77230238Y-27142857D01*
X77351190Y-27203333D01*
X78863095Y-27989523D02*
X78863095Y-26719523D01*
X79165476Y-26719523D01*
X79346904Y-26780000D01*
X79467857Y-26900952D01*
X79528333Y-27021904D01*
X79588809Y-27263809D01*
X79588809Y-27445238D01*
X79528333Y-27687142D01*
X79467857Y-27808095D01*
X79346904Y-27929047D01*
X79165476Y-27989523D01*
X78863095Y-27989523D01*
X80133095Y-27989523D02*
X80133095Y-27142857D01*
X80133095Y-27384761D02*
X80193571Y-27263809D01*
X80254047Y-27203333D01*
X80375000Y-27142857D01*
X80495952Y-27142857D01*
X80919285Y-27989523D02*
X80919285Y-27142857D01*
X80919285Y-26719523D02*
X80858809Y-26780000D01*
X80919285Y-26840476D01*
X80979761Y-26780000D01*
X80919285Y-26719523D01*
X80919285Y-26840476D01*
X81705476Y-27989523D02*
X81584523Y-27929047D01*
X81524047Y-27808095D01*
X81524047Y-26719523D01*
X82370714Y-27989523D02*
X82249761Y-27929047D01*
X82189285Y-27808095D01*
X82189285Y-26719523D01*
X82854523Y-27505714D02*
X83822142Y-27505714D01*
X84366428Y-27929047D02*
X84547857Y-27989523D01*
X84850238Y-27989523D01*
X84971190Y-27929047D01*
X85031666Y-27868571D01*
X85092142Y-27747619D01*
X85092142Y-27626666D01*
X85031666Y-27505714D01*
X84971190Y-27445238D01*
X84850238Y-27384761D01*
X84608333Y-27324285D01*
X84487380Y-27263809D01*
X84426904Y-27203333D01*
X84366428Y-27082380D01*
X84366428Y-26961428D01*
X84426904Y-26840476D01*
X84487380Y-26780000D01*
X84608333Y-26719523D01*
X84910714Y-26719523D01*
X85092142Y-26780000D01*
X85817857Y-27989523D02*
X85696904Y-27929047D01*
X85636428Y-27808095D01*
X85636428Y-26719523D01*
X86483095Y-27989523D02*
X86362142Y-27929047D01*
X86301666Y-27868571D01*
X86241190Y-27747619D01*
X86241190Y-27384761D01*
X86301666Y-27263809D01*
X86362142Y-27203333D01*
X86483095Y-27142857D01*
X86664523Y-27142857D01*
X86785476Y-27203333D01*
X86845952Y-27263809D01*
X86906428Y-27384761D01*
X86906428Y-27747619D01*
X86845952Y-27868571D01*
X86785476Y-27929047D01*
X86664523Y-27989523D01*
X86483095Y-27989523D01*
X87269285Y-27142857D02*
X87753095Y-27142857D01*
X87450714Y-26719523D02*
X87450714Y-27808095D01*
X87511190Y-27929047D01*
X87632142Y-27989523D01*
X87753095Y-27989523D01*
X88115952Y-27929047D02*
X88236904Y-27989523D01*
X88478809Y-27989523D01*
X88599761Y-27929047D01*
X88660238Y-27808095D01*
X88660238Y-27747619D01*
X88599761Y-27626666D01*
X88478809Y-27566190D01*
X88297380Y-27566190D01*
X88176428Y-27505714D01*
X88115952Y-27384761D01*
X88115952Y-27324285D01*
X88176428Y-27203333D01*
X88297380Y-27142857D01*
X88478809Y-27142857D01*
X88599761Y-27203333D01*
X89204523Y-27868571D02*
X89265000Y-27929047D01*
X89204523Y-27989523D01*
X89144047Y-27929047D01*
X89204523Y-27868571D01*
X89204523Y-27989523D01*
X89204523Y-27505714D02*
X89144047Y-26780000D01*
X89204523Y-26719523D01*
X89265000Y-26780000D01*
X89204523Y-27505714D01*
X89204523Y-26719523D01*
X89809285Y-27868571D02*
X89869761Y-27929047D01*
X89809285Y-27989523D01*
X89748809Y-27929047D01*
X89809285Y-27868571D01*
X89809285Y-27989523D01*
X89809285Y-27505714D02*
X89748809Y-26780000D01*
X89809285Y-26719523D01*
X89869761Y-26780000D01*
X89809285Y-27505714D01*
X89809285Y-26719523D01*
X90414047Y-27868571D02*
X90474523Y-27929047D01*
X90414047Y-27989523D01*
X90353571Y-27929047D01*
X90414047Y-27868571D01*
X90414047Y-27989523D01*
X90414047Y-27505714D02*
X90353571Y-26780000D01*
X90414047Y-26719523D01*
X90474523Y-26780000D01*
X90414047Y-27505714D01*
X90414047Y-26719523D01*
D10*
X112572100Y-45390860D02*
X112605433Y-45424193D01*
X112638766Y-45524193D01*
X112638766Y-45590860D01*
X112605433Y-45690860D01*
X112538766Y-45757526D01*
X112472100Y-45790860D01*
X112338766Y-45824193D01*
X112238766Y-45824193D01*
X112105433Y-45790860D01*
X112038766Y-45757526D01*
X111972100Y-45690860D01*
X111938766Y-45590860D01*
X111938766Y-45524193D01*
X111972100Y-45424193D01*
X112005433Y-45390860D01*
X111938766Y-45157526D02*
X111938766Y-44724193D01*
X112205433Y-44957526D01*
X112205433Y-44857526D01*
X112238766Y-44790860D01*
X112272100Y-44757526D01*
X112338766Y-44724193D01*
X112505433Y-44724193D01*
X112572100Y-44757526D01*
X112605433Y-44790860D01*
X112638766Y-44857526D01*
X112638766Y-45057526D01*
X112605433Y-45124193D01*
X112572100Y-45157526D01*
X111938766Y-44290860D02*
X111938766Y-44224193D01*
X111972100Y-44157526D01*
X112005433Y-44124193D01*
X112072100Y-44090860D01*
X112205433Y-44057526D01*
X112372100Y-44057526D01*
X112505433Y-44090860D01*
X112572100Y-44124193D01*
X112605433Y-44157526D01*
X112638766Y-44224193D01*
X112638766Y-44290860D01*
X112605433Y-44357526D01*
X112572100Y-44390860D01*
X112505433Y-44424193D01*
X112372100Y-44457526D01*
X112205433Y-44457526D01*
X112072100Y-44424193D01*
X112005433Y-44390860D01*
X111972100Y-44357526D01*
X111938766Y-44290860D01*
X107441480Y-47455880D02*
X107474813Y-47489213D01*
X107508146Y-47589213D01*
X107508146Y-47655880D01*
X107474813Y-47755880D01*
X107408146Y-47822546D01*
X107341480Y-47855880D01*
X107208146Y-47889213D01*
X107108146Y-47889213D01*
X106974813Y-47855880D01*
X106908146Y-47822546D01*
X106841480Y-47755880D01*
X106808146Y-47655880D01*
X106808146Y-47589213D01*
X106841480Y-47489213D01*
X106874813Y-47455880D01*
X106808146Y-47222546D02*
X106808146Y-46789213D01*
X107074813Y-47022546D01*
X107074813Y-46922546D01*
X107108146Y-46855880D01*
X107141480Y-46822546D01*
X107208146Y-46789213D01*
X107374813Y-46789213D01*
X107441480Y-46822546D01*
X107474813Y-46855880D01*
X107508146Y-46922546D01*
X107508146Y-47122546D01*
X107474813Y-47189213D01*
X107441480Y-47222546D01*
X106874813Y-46522546D02*
X106841480Y-46489213D01*
X106808146Y-46422546D01*
X106808146Y-46255880D01*
X106841480Y-46189213D01*
X106874813Y-46155880D01*
X106941480Y-46122546D01*
X107008146Y-46122546D01*
X107108146Y-46155880D01*
X107508146Y-46555880D01*
X107508146Y-46122546D01*
X115247000Y-53844000D02*
X115213666Y-53877333D01*
X115113666Y-53910666D01*
X115047000Y-53910666D01*
X114947000Y-53877333D01*
X114880333Y-53810666D01*
X114847000Y-53744000D01*
X114813666Y-53610666D01*
X114813666Y-53510666D01*
X114847000Y-53377333D01*
X114880333Y-53310666D01*
X114947000Y-53244000D01*
X115047000Y-53210666D01*
X115113666Y-53210666D01*
X115213666Y-53244000D01*
X115247000Y-53277333D01*
X115480333Y-53210666D02*
X115913666Y-53210666D01*
X115680333Y-53477333D01*
X115780333Y-53477333D01*
X115847000Y-53510666D01*
X115880333Y-53544000D01*
X115913666Y-53610666D01*
X115913666Y-53777333D01*
X115880333Y-53844000D01*
X115847000Y-53877333D01*
X115780333Y-53910666D01*
X115580333Y-53910666D01*
X115513666Y-53877333D01*
X115480333Y-53844000D01*
X116513666Y-53444000D02*
X116513666Y-53910666D01*
X116347000Y-53177333D02*
X116180333Y-53677333D01*
X116613666Y-53677333D01*
X106000660Y-47466040D02*
X106033993Y-47499373D01*
X106067326Y-47599373D01*
X106067326Y-47666040D01*
X106033993Y-47766040D01*
X105967326Y-47832706D01*
X105900660Y-47866040D01*
X105767326Y-47899373D01*
X105667326Y-47899373D01*
X105533993Y-47866040D01*
X105467326Y-47832706D01*
X105400660Y-47766040D01*
X105367326Y-47666040D01*
X105367326Y-47599373D01*
X105400660Y-47499373D01*
X105433993Y-47466040D01*
X105367326Y-47232706D02*
X105367326Y-46799373D01*
X105633993Y-47032706D01*
X105633993Y-46932706D01*
X105667326Y-46866040D01*
X105700660Y-46832706D01*
X105767326Y-46799373D01*
X105933993Y-46799373D01*
X106000660Y-46832706D01*
X106033993Y-46866040D01*
X106067326Y-46932706D01*
X106067326Y-47132706D01*
X106033993Y-47199373D01*
X106000660Y-47232706D01*
X105367326Y-46166040D02*
X105367326Y-46499373D01*
X105700660Y-46532706D01*
X105667326Y-46499373D01*
X105633993Y-46432706D01*
X105633993Y-46266040D01*
X105667326Y-46199373D01*
X105700660Y-46166040D01*
X105767326Y-46132706D01*
X105933993Y-46132706D01*
X106000660Y-46166040D01*
X106033993Y-46199373D01*
X106067326Y-46266040D01*
X106067326Y-46432706D01*
X106033993Y-46499373D01*
X106000660Y-46532706D01*
X100190780Y-45368000D02*
X100224113Y-45401333D01*
X100257446Y-45501333D01*
X100257446Y-45568000D01*
X100224113Y-45668000D01*
X100157446Y-45734666D01*
X100090780Y-45768000D01*
X99957446Y-45801333D01*
X99857446Y-45801333D01*
X99724113Y-45768000D01*
X99657446Y-45734666D01*
X99590780Y-45668000D01*
X99557446Y-45568000D01*
X99557446Y-45501333D01*
X99590780Y-45401333D01*
X99624113Y-45368000D01*
X99557446Y-45134666D02*
X99557446Y-44701333D01*
X99824113Y-44934666D01*
X99824113Y-44834666D01*
X99857446Y-44768000D01*
X99890780Y-44734666D01*
X99957446Y-44701333D01*
X100124113Y-44701333D01*
X100190780Y-44734666D01*
X100224113Y-44768000D01*
X100257446Y-44834666D01*
X100257446Y-45034666D01*
X100224113Y-45101333D01*
X100190780Y-45134666D01*
X99557446Y-44101333D02*
X99557446Y-44234666D01*
X99590780Y-44301333D01*
X99624113Y-44334666D01*
X99724113Y-44401333D01*
X99857446Y-44434666D01*
X100124113Y-44434666D01*
X100190780Y-44401333D01*
X100224113Y-44368000D01*
X100257446Y-44301333D01*
X100257446Y-44168000D01*
X100224113Y-44101333D01*
X100190780Y-44068000D01*
X100124113Y-44034666D01*
X99957446Y-44034666D01*
X99890780Y-44068000D01*
X99857446Y-44101333D01*
X99824113Y-44168000D01*
X99824113Y-44301333D01*
X99857446Y-44368000D01*
X99890780Y-44401333D01*
X99957446Y-44434666D01*
X120750000Y-77450000D02*
X120783333Y-77483333D01*
X120816666Y-77583333D01*
X120816666Y-77650000D01*
X120783333Y-77750000D01*
X120716666Y-77816666D01*
X120650000Y-77850000D01*
X120516666Y-77883333D01*
X120416666Y-77883333D01*
X120283333Y-77850000D01*
X120216666Y-77816666D01*
X120150000Y-77750000D01*
X120116666Y-77650000D01*
X120116666Y-77583333D01*
X120150000Y-77483333D01*
X120183333Y-77450000D01*
X120116666Y-77216666D02*
X120116666Y-76783333D01*
X120383333Y-77016666D01*
X120383333Y-76916666D01*
X120416666Y-76850000D01*
X120450000Y-76816666D01*
X120516666Y-76783333D01*
X120683333Y-76783333D01*
X120750000Y-76816666D01*
X120783333Y-76850000D01*
X120816666Y-76916666D01*
X120816666Y-77116666D01*
X120783333Y-77183333D01*
X120750000Y-77216666D01*
X120116666Y-76550000D02*
X120116666Y-76083333D01*
X120816666Y-76383333D01*
X116250000Y-75950000D02*
X116283333Y-75983333D01*
X116316666Y-76083333D01*
X116316666Y-76150000D01*
X116283333Y-76250000D01*
X116216666Y-76316666D01*
X116150000Y-76350000D01*
X116016666Y-76383333D01*
X115916666Y-76383333D01*
X115783333Y-76350000D01*
X115716666Y-76316666D01*
X115650000Y-76250000D01*
X115616666Y-76150000D01*
X115616666Y-76083333D01*
X115650000Y-75983333D01*
X115683333Y-75950000D01*
X115616666Y-75716666D02*
X115616666Y-75283333D01*
X115883333Y-75516666D01*
X115883333Y-75416666D01*
X115916666Y-75350000D01*
X115950000Y-75316666D01*
X116016666Y-75283333D01*
X116183333Y-75283333D01*
X116250000Y-75316666D01*
X116283333Y-75350000D01*
X116316666Y-75416666D01*
X116316666Y-75616666D01*
X116283333Y-75683333D01*
X116250000Y-75716666D01*
X115916666Y-74883333D02*
X115883333Y-74950000D01*
X115850000Y-74983333D01*
X115783333Y-75016666D01*
X115750000Y-75016666D01*
X115683333Y-74983333D01*
X115650000Y-74950000D01*
X115616666Y-74883333D01*
X115616666Y-74750000D01*
X115650000Y-74683333D01*
X115683333Y-74650000D01*
X115750000Y-74616666D01*
X115783333Y-74616666D01*
X115850000Y-74650000D01*
X115883333Y-74683333D01*
X115916666Y-74750000D01*
X115916666Y-74883333D01*
X115950000Y-74950000D01*
X115983333Y-74983333D01*
X116050000Y-75016666D01*
X116183333Y-75016666D01*
X116250000Y-74983333D01*
X116283333Y-74950000D01*
X116316666Y-74883333D01*
X116316666Y-74750000D01*
X116283333Y-74683333D01*
X116250000Y-74650000D01*
X116183333Y-74616666D01*
X116050000Y-74616666D01*
X115983333Y-74650000D01*
X115950000Y-74683333D01*
X115916666Y-74750000D01*
X126807133Y-65937566D02*
X126573800Y-65604233D01*
X126407133Y-65937566D02*
X126407133Y-65237566D01*
X126673800Y-65237566D01*
X126740466Y-65270900D01*
X126773800Y-65304233D01*
X126807133Y-65370900D01*
X126807133Y-65470900D01*
X126773800Y-65537566D01*
X126740466Y-65570900D01*
X126673800Y-65604233D01*
X126407133Y-65604233D01*
X127473800Y-65937566D02*
X127073800Y-65937566D01*
X127273800Y-65937566D02*
X127273800Y-65237566D01*
X127207133Y-65337566D01*
X127140466Y-65404233D01*
X127073800Y-65437566D01*
X90129533Y-63332886D02*
X89896200Y-62999553D01*
X89729533Y-63332886D02*
X89729533Y-62632886D01*
X89996200Y-62632886D01*
X90062866Y-62666220D01*
X90096200Y-62699553D01*
X90129533Y-62766220D01*
X90129533Y-62866220D01*
X90096200Y-62932886D01*
X90062866Y-62966220D01*
X89996200Y-62999553D01*
X89729533Y-62999553D01*
X90396200Y-62699553D02*
X90429533Y-62666220D01*
X90496200Y-62632886D01*
X90662866Y-62632886D01*
X90729533Y-62666220D01*
X90762866Y-62699553D01*
X90796200Y-62766220D01*
X90796200Y-62832886D01*
X90762866Y-62932886D01*
X90362866Y-63332886D01*
X90796200Y-63332886D01*
X92034793Y-63321046D02*
X91801460Y-62987713D01*
X91634793Y-63321046D02*
X91634793Y-62621046D01*
X91901460Y-62621046D01*
X91968126Y-62654380D01*
X92001460Y-62687713D01*
X92034793Y-62754380D01*
X92034793Y-62854380D01*
X92001460Y-62921046D01*
X91968126Y-62954380D01*
X91901460Y-62987713D01*
X91634793Y-62987713D01*
X92268126Y-62621046D02*
X92701460Y-62621046D01*
X92468126Y-62887713D01*
X92568126Y-62887713D01*
X92634793Y-62921046D01*
X92668126Y-62954380D01*
X92701460Y-63021046D01*
X92701460Y-63187713D01*
X92668126Y-63254380D01*
X92634793Y-63287713D01*
X92568126Y-63321046D01*
X92368126Y-63321046D01*
X92301460Y-63287713D01*
X92268126Y-63254380D01*
X55883333Y-43066666D02*
X55650000Y-42733333D01*
X55483333Y-43066666D02*
X55483333Y-42366666D01*
X55750000Y-42366666D01*
X55816666Y-42400000D01*
X55850000Y-42433333D01*
X55883333Y-42500000D01*
X55883333Y-42600000D01*
X55850000Y-42666666D01*
X55816666Y-42700000D01*
X55750000Y-42733333D01*
X55483333Y-42733333D01*
X56483333Y-42600000D02*
X56483333Y-43066666D01*
X56316666Y-42333333D02*
X56150000Y-42833333D01*
X56583333Y-42833333D01*
X96516626Y-60911566D02*
X96183293Y-61144900D01*
X96516626Y-61311566D02*
X95816626Y-61311566D01*
X95816626Y-61044900D01*
X95849960Y-60978233D01*
X95883293Y-60944900D01*
X95949960Y-60911566D01*
X96049960Y-60911566D01*
X96116626Y-60944900D01*
X96149960Y-60978233D01*
X96183293Y-61044900D01*
X96183293Y-61311566D01*
X95816626Y-60311566D02*
X95816626Y-60444900D01*
X95849960Y-60511566D01*
X95883293Y-60544900D01*
X95983293Y-60611566D01*
X96116626Y-60644900D01*
X96383293Y-60644900D01*
X96449960Y-60611566D01*
X96483293Y-60578233D01*
X96516626Y-60511566D01*
X96516626Y-60378233D01*
X96483293Y-60311566D01*
X96449960Y-60278233D01*
X96383293Y-60244900D01*
X96216626Y-60244900D01*
X96149960Y-60278233D01*
X96116626Y-60311566D01*
X96083293Y-60378233D01*
X96083293Y-60511566D01*
X96116626Y-60578233D01*
X96149960Y-60611566D01*
X96216626Y-60644900D01*
X97847300Y-62931226D02*
X97613966Y-62597893D01*
X97447300Y-62931226D02*
X97447300Y-62231226D01*
X97713966Y-62231226D01*
X97780633Y-62264560D01*
X97813966Y-62297893D01*
X97847300Y-62364560D01*
X97847300Y-62464560D01*
X97813966Y-62531226D01*
X97780633Y-62564560D01*
X97713966Y-62597893D01*
X97447300Y-62597893D01*
X98513966Y-62931226D02*
X98113966Y-62931226D01*
X98313966Y-62931226D02*
X98313966Y-62231226D01*
X98247300Y-62331226D01*
X98180633Y-62397893D01*
X98113966Y-62431226D01*
X99180633Y-62931226D02*
X98780633Y-62931226D01*
X98980633Y-62931226D02*
X98980633Y-62231226D01*
X98913966Y-62331226D01*
X98847300Y-62397893D01*
X98780633Y-62431226D01*
X59316666Y-44700000D02*
X58983333Y-44933333D01*
X59316666Y-45100000D02*
X58616666Y-45100000D01*
X58616666Y-44833333D01*
X58650000Y-44766666D01*
X58683333Y-44733333D01*
X58750000Y-44700000D01*
X58850000Y-44700000D01*
X58916666Y-44733333D01*
X58950000Y-44766666D01*
X58983333Y-44833333D01*
X58983333Y-45100000D01*
X59316666Y-44033333D02*
X59316666Y-44433333D01*
X59316666Y-44233333D02*
X58616666Y-44233333D01*
X58716666Y-44300000D01*
X58783333Y-44366666D01*
X58816666Y-44433333D01*
X58616666Y-43800000D02*
X58616666Y-43366666D01*
X58883333Y-43600000D01*
X58883333Y-43500000D01*
X58916666Y-43433333D01*
X58950000Y-43400000D01*
X59016666Y-43366666D01*
X59183333Y-43366666D01*
X59250000Y-43400000D01*
X59283333Y-43433333D01*
X59316666Y-43500000D01*
X59316666Y-43700000D01*
X59283333Y-43766666D01*
X59250000Y-43800000D01*
X121766666Y-81600000D02*
X121433333Y-81833333D01*
X121766666Y-82000000D02*
X121066666Y-82000000D01*
X121066666Y-81733333D01*
X121100000Y-81666666D01*
X121133333Y-81633333D01*
X121200000Y-81600000D01*
X121300000Y-81600000D01*
X121366666Y-81633333D01*
X121400000Y-81666666D01*
X121433333Y-81733333D01*
X121433333Y-82000000D01*
X121766666Y-80933333D02*
X121766666Y-81333333D01*
X121766666Y-81133333D02*
X121066666Y-81133333D01*
X121166666Y-81200000D01*
X121233333Y-81266666D01*
X121266666Y-81333333D01*
X121300000Y-80333333D02*
X121766666Y-80333333D01*
X121033333Y-80500000D02*
X121533333Y-80666666D01*
X121533333Y-80233333D01*
X58316666Y-54200000D02*
X57983333Y-54433333D01*
X58316666Y-54600000D02*
X57616666Y-54600000D01*
X57616666Y-54333333D01*
X57650000Y-54266666D01*
X57683333Y-54233333D01*
X57750000Y-54200000D01*
X57850000Y-54200000D01*
X57916666Y-54233333D01*
X57950000Y-54266666D01*
X57983333Y-54333333D01*
X57983333Y-54600000D01*
X58316666Y-53533333D02*
X58316666Y-53933333D01*
X58316666Y-53733333D02*
X57616666Y-53733333D01*
X57716666Y-53800000D01*
X57783333Y-53866666D01*
X57816666Y-53933333D01*
X57616666Y-52900000D02*
X57616666Y-53233333D01*
X57950000Y-53266666D01*
X57916666Y-53233333D01*
X57883333Y-53166666D01*
X57883333Y-53000000D01*
X57916666Y-52933333D01*
X57950000Y-52900000D01*
X58016666Y-52866666D01*
X58183333Y-52866666D01*
X58250000Y-52900000D01*
X58283333Y-52933333D01*
X58316666Y-53000000D01*
X58316666Y-53166666D01*
X58283333Y-53233333D01*
X58250000Y-53266666D01*
X88286666Y-57750000D02*
X87953333Y-57983333D01*
X88286666Y-58150000D02*
X87586666Y-58150000D01*
X87586666Y-57883333D01*
X87620000Y-57816666D01*
X87653333Y-57783333D01*
X87720000Y-57750000D01*
X87820000Y-57750000D01*
X87886666Y-57783333D01*
X87920000Y-57816666D01*
X87953333Y-57883333D01*
X87953333Y-58150000D01*
X88286666Y-57083333D02*
X88286666Y-57483333D01*
X88286666Y-57283333D02*
X87586666Y-57283333D01*
X87686666Y-57350000D01*
X87753333Y-57416666D01*
X87786666Y-57483333D01*
X87586666Y-56483333D02*
X87586666Y-56616666D01*
X87620000Y-56683333D01*
X87653333Y-56716666D01*
X87753333Y-56783333D01*
X87886666Y-56816666D01*
X88153333Y-56816666D01*
X88220000Y-56783333D01*
X88253333Y-56750000D01*
X88286666Y-56683333D01*
X88286666Y-56550000D01*
X88253333Y-56483333D01*
X88220000Y-56450000D01*
X88153333Y-56416666D01*
X87986666Y-56416666D01*
X87920000Y-56450000D01*
X87886666Y-56483333D01*
X87853333Y-56550000D01*
X87853333Y-56683333D01*
X87886666Y-56750000D01*
X87920000Y-56783333D01*
X87986666Y-56816666D01*
X63210020Y-48025486D02*
X62976686Y-47692153D01*
X62810020Y-48025486D02*
X62810020Y-47325486D01*
X63076686Y-47325486D01*
X63143353Y-47358820D01*
X63176686Y-47392153D01*
X63210020Y-47458820D01*
X63210020Y-47558820D01*
X63176686Y-47625486D01*
X63143353Y-47658820D01*
X63076686Y-47692153D01*
X62810020Y-47692153D01*
X63876686Y-48025486D02*
X63476686Y-48025486D01*
X63676686Y-48025486D02*
X63676686Y-47325486D01*
X63610020Y-47425486D01*
X63543353Y-47492153D01*
X63476686Y-47525486D01*
X64110020Y-47325486D02*
X64576686Y-47325486D01*
X64276686Y-48025486D01*
X91119540Y-46590386D02*
X90886206Y-46257053D01*
X90719540Y-46590386D02*
X90719540Y-45890386D01*
X90986206Y-45890386D01*
X91052873Y-45923720D01*
X91086206Y-45957053D01*
X91119540Y-46023720D01*
X91119540Y-46123720D01*
X91086206Y-46190386D01*
X91052873Y-46223720D01*
X90986206Y-46257053D01*
X90719540Y-46257053D01*
X91786206Y-46590386D02*
X91386206Y-46590386D01*
X91586206Y-46590386D02*
X91586206Y-45890386D01*
X91519540Y-45990386D01*
X91452873Y-46057053D01*
X91386206Y-46090386D01*
X92186206Y-46190386D02*
X92119540Y-46157053D01*
X92086206Y-46123720D01*
X92052873Y-46057053D01*
X92052873Y-46023720D01*
X92086206Y-45957053D01*
X92119540Y-45923720D01*
X92186206Y-45890386D01*
X92319540Y-45890386D01*
X92386206Y-45923720D01*
X92419540Y-45957053D01*
X92452873Y-46023720D01*
X92452873Y-46057053D01*
X92419540Y-46123720D01*
X92386206Y-46157053D01*
X92319540Y-46190386D01*
X92186206Y-46190386D01*
X92119540Y-46223720D01*
X92086206Y-46257053D01*
X92052873Y-46323720D01*
X92052873Y-46457053D01*
X92086206Y-46523720D01*
X92119540Y-46557053D01*
X92186206Y-46590386D01*
X92319540Y-46590386D01*
X92386206Y-46557053D01*
X92419540Y-46523720D01*
X92452873Y-46457053D01*
X92452873Y-46323720D01*
X92419540Y-46257053D01*
X92386206Y-46223720D01*
X92319540Y-46190386D01*
X91099220Y-47603846D02*
X90865886Y-47270513D01*
X90699220Y-47603846D02*
X90699220Y-46903846D01*
X90965886Y-46903846D01*
X91032553Y-46937180D01*
X91065886Y-46970513D01*
X91099220Y-47037180D01*
X91099220Y-47137180D01*
X91065886Y-47203846D01*
X91032553Y-47237180D01*
X90965886Y-47270513D01*
X90699220Y-47270513D01*
X91365886Y-46970513D02*
X91399220Y-46937180D01*
X91465886Y-46903846D01*
X91632553Y-46903846D01*
X91699220Y-46937180D01*
X91732553Y-46970513D01*
X91765886Y-47037180D01*
X91765886Y-47103846D01*
X91732553Y-47203846D01*
X91332553Y-47603846D01*
X91765886Y-47603846D01*
X92432553Y-47603846D02*
X92032553Y-47603846D01*
X92232553Y-47603846D02*
X92232553Y-46903846D01*
X92165886Y-47003846D01*
X92099220Y-47070513D01*
X92032553Y-47103846D01*
X91099220Y-49607906D02*
X90865886Y-49274573D01*
X90699220Y-49607906D02*
X90699220Y-48907906D01*
X90965886Y-48907906D01*
X91032553Y-48941240D01*
X91065886Y-48974573D01*
X91099220Y-49041240D01*
X91099220Y-49141240D01*
X91065886Y-49207906D01*
X91032553Y-49241240D01*
X90965886Y-49274573D01*
X90699220Y-49274573D01*
X91365886Y-48974573D02*
X91399220Y-48941240D01*
X91465886Y-48907906D01*
X91632553Y-48907906D01*
X91699220Y-48941240D01*
X91732553Y-48974573D01*
X91765886Y-49041240D01*
X91765886Y-49107906D01*
X91732553Y-49207906D01*
X91332553Y-49607906D01*
X91765886Y-49607906D01*
X92032553Y-48974573D02*
X92065886Y-48941240D01*
X92132553Y-48907906D01*
X92299220Y-48907906D01*
X92365886Y-48941240D01*
X92399220Y-48974573D01*
X92432553Y-49041240D01*
X92432553Y-49107906D01*
X92399220Y-49207906D01*
X91999220Y-49607906D01*
X92432553Y-49607906D01*
X91099220Y-48635086D02*
X90865886Y-48301753D01*
X90699220Y-48635086D02*
X90699220Y-47935086D01*
X90965886Y-47935086D01*
X91032553Y-47968420D01*
X91065886Y-48001753D01*
X91099220Y-48068420D01*
X91099220Y-48168420D01*
X91065886Y-48235086D01*
X91032553Y-48268420D01*
X90965886Y-48301753D01*
X90699220Y-48301753D01*
X91365886Y-48001753D02*
X91399220Y-47968420D01*
X91465886Y-47935086D01*
X91632553Y-47935086D01*
X91699220Y-47968420D01*
X91732553Y-48001753D01*
X91765886Y-48068420D01*
X91765886Y-48135086D01*
X91732553Y-48235086D01*
X91332553Y-48635086D01*
X91765886Y-48635086D01*
X91999220Y-47935086D02*
X92432553Y-47935086D01*
X92199220Y-48201753D01*
X92299220Y-48201753D01*
X92365886Y-48235086D01*
X92399220Y-48268420D01*
X92432553Y-48335086D01*
X92432553Y-48501753D01*
X92399220Y-48568420D01*
X92365886Y-48601753D01*
X92299220Y-48635086D01*
X92099220Y-48635086D01*
X92032553Y-48601753D01*
X91999220Y-48568420D01*
X124611980Y-69496106D02*
X124378646Y-69162773D01*
X124211980Y-69496106D02*
X124211980Y-68796106D01*
X124478646Y-68796106D01*
X124545313Y-68829440D01*
X124578646Y-68862773D01*
X124611980Y-68929440D01*
X124611980Y-69029440D01*
X124578646Y-69096106D01*
X124545313Y-69129440D01*
X124478646Y-69162773D01*
X124211980Y-69162773D01*
X124878646Y-68862773D02*
X124911980Y-68829440D01*
X124978646Y-68796106D01*
X125145313Y-68796106D01*
X125211980Y-68829440D01*
X125245313Y-68862773D01*
X125278646Y-68929440D01*
X125278646Y-68996106D01*
X125245313Y-69096106D01*
X124845313Y-69496106D01*
X125278646Y-69496106D01*
X125878646Y-69029440D02*
X125878646Y-69496106D01*
X125711980Y-68762773D02*
X125545313Y-69262773D01*
X125978646Y-69262773D01*
X91316666Y-82450000D02*
X90983333Y-82683333D01*
X91316666Y-82850000D02*
X90616666Y-82850000D01*
X90616666Y-82583333D01*
X90650000Y-82516666D01*
X90683333Y-82483333D01*
X90750000Y-82450000D01*
X90850000Y-82450000D01*
X90916666Y-82483333D01*
X90950000Y-82516666D01*
X90983333Y-82583333D01*
X90983333Y-82850000D01*
X90683333Y-82183333D02*
X90650000Y-82150000D01*
X90616666Y-82083333D01*
X90616666Y-81916666D01*
X90650000Y-81850000D01*
X90683333Y-81816666D01*
X90750000Y-81783333D01*
X90816666Y-81783333D01*
X90916666Y-81816666D01*
X91316666Y-82216666D01*
X91316666Y-81783333D01*
X90616666Y-81150000D02*
X90616666Y-81483333D01*
X90950000Y-81516666D01*
X90916666Y-81483333D01*
X90883333Y-81416666D01*
X90883333Y-81250000D01*
X90916666Y-81183333D01*
X90950000Y-81150000D01*
X91016666Y-81116666D01*
X91183333Y-81116666D01*
X91250000Y-81150000D01*
X91283333Y-81183333D01*
X91316666Y-81250000D01*
X91316666Y-81416666D01*
X91283333Y-81483333D01*
X91250000Y-81516666D01*
X113800000Y-64566666D02*
X113566666Y-64233333D01*
X113400000Y-64566666D02*
X113400000Y-63866666D01*
X113666666Y-63866666D01*
X113733333Y-63900000D01*
X113766666Y-63933333D01*
X113800000Y-64000000D01*
X113800000Y-64100000D01*
X113766666Y-64166666D01*
X113733333Y-64200000D01*
X113666666Y-64233333D01*
X113400000Y-64233333D01*
X114066666Y-63933333D02*
X114100000Y-63900000D01*
X114166666Y-63866666D01*
X114333333Y-63866666D01*
X114400000Y-63900000D01*
X114433333Y-63933333D01*
X114466666Y-64000000D01*
X114466666Y-64066666D01*
X114433333Y-64166666D01*
X114033333Y-64566666D01*
X114466666Y-64566666D01*
X115066666Y-63866666D02*
X114933333Y-63866666D01*
X114866666Y-63900000D01*
X114833333Y-63933333D01*
X114766666Y-64033333D01*
X114733333Y-64166666D01*
X114733333Y-64433333D01*
X114766666Y-64500000D01*
X114800000Y-64533333D01*
X114866666Y-64566666D01*
X115000000Y-64566666D01*
X115066666Y-64533333D01*
X115100000Y-64500000D01*
X115133333Y-64433333D01*
X115133333Y-64266666D01*
X115100000Y-64200000D01*
X115066666Y-64166666D01*
X115000000Y-64133333D01*
X114866666Y-64133333D01*
X114800000Y-64166666D01*
X114766666Y-64200000D01*
X114733333Y-64266666D01*
X67180906Y-75692140D02*
X66847573Y-75925473D01*
X67180906Y-76092140D02*
X66480906Y-76092140D01*
X66480906Y-75825473D01*
X66514240Y-75758806D01*
X66547573Y-75725473D01*
X66614240Y-75692140D01*
X66714240Y-75692140D01*
X66780906Y-75725473D01*
X66814240Y-75758806D01*
X66847573Y-75825473D01*
X66847573Y-76092140D01*
X66547573Y-75425473D02*
X66514240Y-75392140D01*
X66480906Y-75325473D01*
X66480906Y-75158806D01*
X66514240Y-75092140D01*
X66547573Y-75058806D01*
X66614240Y-75025473D01*
X66680906Y-75025473D01*
X66780906Y-75058806D01*
X67180906Y-75458806D01*
X67180906Y-75025473D01*
X66480906Y-74792140D02*
X66480906Y-74325473D01*
X67180906Y-74625473D01*
X113750000Y-61066666D02*
X113516666Y-60733333D01*
X113350000Y-61066666D02*
X113350000Y-60366666D01*
X113616666Y-60366666D01*
X113683333Y-60400000D01*
X113716666Y-60433333D01*
X113750000Y-60500000D01*
X113750000Y-60600000D01*
X113716666Y-60666666D01*
X113683333Y-60700000D01*
X113616666Y-60733333D01*
X113350000Y-60733333D01*
X114016666Y-60433333D02*
X114050000Y-60400000D01*
X114116666Y-60366666D01*
X114283333Y-60366666D01*
X114350000Y-60400000D01*
X114383333Y-60433333D01*
X114416666Y-60500000D01*
X114416666Y-60566666D01*
X114383333Y-60666666D01*
X113983333Y-61066666D01*
X114416666Y-61066666D01*
X114816666Y-60666666D02*
X114750000Y-60633333D01*
X114716666Y-60600000D01*
X114683333Y-60533333D01*
X114683333Y-60500000D01*
X114716666Y-60433333D01*
X114750000Y-60400000D01*
X114816666Y-60366666D01*
X114950000Y-60366666D01*
X115016666Y-60400000D01*
X115050000Y-60433333D01*
X115083333Y-60500000D01*
X115083333Y-60533333D01*
X115050000Y-60600000D01*
X115016666Y-60633333D01*
X114950000Y-60666666D01*
X114816666Y-60666666D01*
X114750000Y-60700000D01*
X114716666Y-60733333D01*
X114683333Y-60800000D01*
X114683333Y-60933333D01*
X114716666Y-61000000D01*
X114750000Y-61033333D01*
X114816666Y-61066666D01*
X114950000Y-61066666D01*
X115016666Y-61033333D01*
X115050000Y-61000000D01*
X115083333Y-60933333D01*
X115083333Y-60800000D01*
X115050000Y-60733333D01*
X115016666Y-60700000D01*
X114950000Y-60666666D01*
X69638760Y-75066326D02*
X69405426Y-74732993D01*
X69238760Y-75066326D02*
X69238760Y-74366326D01*
X69505426Y-74366326D01*
X69572093Y-74399660D01*
X69605426Y-74432993D01*
X69638760Y-74499660D01*
X69638760Y-74599660D01*
X69605426Y-74666326D01*
X69572093Y-74699660D01*
X69505426Y-74732993D01*
X69238760Y-74732993D01*
X69905426Y-74432993D02*
X69938760Y-74399660D01*
X70005426Y-74366326D01*
X70172093Y-74366326D01*
X70238760Y-74399660D01*
X70272093Y-74432993D01*
X70305426Y-74499660D01*
X70305426Y-74566326D01*
X70272093Y-74666326D01*
X69872093Y-75066326D01*
X70305426Y-75066326D01*
X70638760Y-75066326D02*
X70772093Y-75066326D01*
X70838760Y-75032993D01*
X70872093Y-74999660D01*
X70938760Y-74899660D01*
X70972093Y-74766326D01*
X70972093Y-74499660D01*
X70938760Y-74432993D01*
X70905426Y-74399660D01*
X70838760Y-74366326D01*
X70705426Y-74366326D01*
X70638760Y-74399660D01*
X70605426Y-74432993D01*
X70572093Y-74499660D01*
X70572093Y-74666326D01*
X70605426Y-74732993D01*
X70638760Y-74766326D01*
X70705426Y-74799660D01*
X70838760Y-74799660D01*
X70905426Y-74766326D01*
X70938760Y-74732993D01*
X70972093Y-74666326D01*
X74800000Y-50816666D02*
X74566666Y-50483333D01*
X74400000Y-50816666D02*
X74400000Y-50116666D01*
X74666666Y-50116666D01*
X74733333Y-50150000D01*
X74766666Y-50183333D01*
X74800000Y-50250000D01*
X74800000Y-50350000D01*
X74766666Y-50416666D01*
X74733333Y-50450000D01*
X74666666Y-50483333D01*
X74400000Y-50483333D01*
X75033333Y-50116666D02*
X75466666Y-50116666D01*
X75233333Y-50383333D01*
X75333333Y-50383333D01*
X75400000Y-50416666D01*
X75433333Y-50450000D01*
X75466666Y-50516666D01*
X75466666Y-50683333D01*
X75433333Y-50750000D01*
X75400000Y-50783333D01*
X75333333Y-50816666D01*
X75133333Y-50816666D01*
X75066666Y-50783333D01*
X75033333Y-50750000D01*
X75900000Y-50116666D02*
X75966666Y-50116666D01*
X76033333Y-50150000D01*
X76066666Y-50183333D01*
X76100000Y-50250000D01*
X76133333Y-50383333D01*
X76133333Y-50550000D01*
X76100000Y-50683333D01*
X76066666Y-50750000D01*
X76033333Y-50783333D01*
X75966666Y-50816666D01*
X75900000Y-50816666D01*
X75833333Y-50783333D01*
X75800000Y-50750000D01*
X75766666Y-50683333D01*
X75733333Y-50550000D01*
X75733333Y-50383333D01*
X75766666Y-50250000D01*
X75800000Y-50183333D01*
X75833333Y-50150000D01*
X75900000Y-50116666D01*
X115300000Y-55316666D02*
X115066666Y-54983333D01*
X114900000Y-55316666D02*
X114900000Y-54616666D01*
X115166666Y-54616666D01*
X115233333Y-54650000D01*
X115266666Y-54683333D01*
X115300000Y-54750000D01*
X115300000Y-54850000D01*
X115266666Y-54916666D01*
X115233333Y-54950000D01*
X115166666Y-54983333D01*
X114900000Y-54983333D01*
X115533333Y-54616666D02*
X115966666Y-54616666D01*
X115733333Y-54883333D01*
X115833333Y-54883333D01*
X115900000Y-54916666D01*
X115933333Y-54950000D01*
X115966666Y-55016666D01*
X115966666Y-55183333D01*
X115933333Y-55250000D01*
X115900000Y-55283333D01*
X115833333Y-55316666D01*
X115633333Y-55316666D01*
X115566666Y-55283333D01*
X115533333Y-55250000D01*
X116633333Y-55316666D02*
X116233333Y-55316666D01*
X116433333Y-55316666D02*
X116433333Y-54616666D01*
X116366666Y-54716666D01*
X116300000Y-54783333D01*
X116233333Y-54816666D01*
X112638420Y-48010246D02*
X112405086Y-47676913D01*
X112238420Y-48010246D02*
X112238420Y-47310246D01*
X112505086Y-47310246D01*
X112571753Y-47343580D01*
X112605086Y-47376913D01*
X112638420Y-47443580D01*
X112638420Y-47543580D01*
X112605086Y-47610246D01*
X112571753Y-47643580D01*
X112505086Y-47676913D01*
X112238420Y-47676913D01*
X112871753Y-47310246D02*
X113305086Y-47310246D01*
X113071753Y-47576913D01*
X113171753Y-47576913D01*
X113238420Y-47610246D01*
X113271753Y-47643580D01*
X113305086Y-47710246D01*
X113305086Y-47876913D01*
X113271753Y-47943580D01*
X113238420Y-47976913D01*
X113171753Y-48010246D01*
X112971753Y-48010246D01*
X112905086Y-47976913D01*
X112871753Y-47943580D01*
X113571753Y-47376913D02*
X113605086Y-47343580D01*
X113671753Y-47310246D01*
X113838420Y-47310246D01*
X113905086Y-47343580D01*
X113938420Y-47376913D01*
X113971753Y-47443580D01*
X113971753Y-47510246D01*
X113938420Y-47610246D01*
X113538420Y-48010246D01*
X113971753Y-48010246D01*
X120616666Y-81600000D02*
X120283333Y-81833333D01*
X120616666Y-82000000D02*
X119916666Y-82000000D01*
X119916666Y-81733333D01*
X119950000Y-81666666D01*
X119983333Y-81633333D01*
X120050000Y-81600000D01*
X120150000Y-81600000D01*
X120216666Y-81633333D01*
X120250000Y-81666666D01*
X120283333Y-81733333D01*
X120283333Y-82000000D01*
X119916666Y-81366666D02*
X119916666Y-80933333D01*
X120183333Y-81166666D01*
X120183333Y-81066666D01*
X120216666Y-81000000D01*
X120250000Y-80966666D01*
X120316666Y-80933333D01*
X120483333Y-80933333D01*
X120550000Y-80966666D01*
X120583333Y-81000000D01*
X120616666Y-81066666D01*
X120616666Y-81266666D01*
X120583333Y-81333333D01*
X120550000Y-81366666D01*
X119916666Y-80700000D02*
X119916666Y-80266666D01*
X120183333Y-80500000D01*
X120183333Y-80400000D01*
X120216666Y-80333333D01*
X120250000Y-80300000D01*
X120316666Y-80266666D01*
X120483333Y-80266666D01*
X120550000Y-80300000D01*
X120583333Y-80333333D01*
X120616666Y-80400000D01*
X120616666Y-80600000D01*
X120583333Y-80666666D01*
X120550000Y-80700000D01*
X114371500Y-66880166D02*
X114138166Y-66546833D01*
X113971500Y-66880166D02*
X113971500Y-66180166D01*
X114238166Y-66180166D01*
X114304833Y-66213500D01*
X114338166Y-66246833D01*
X114371500Y-66313500D01*
X114371500Y-66413500D01*
X114338166Y-66480166D01*
X114304833Y-66513500D01*
X114238166Y-66546833D01*
X113971500Y-66546833D01*
X114604833Y-66180166D02*
X115038166Y-66180166D01*
X114804833Y-66446833D01*
X114904833Y-66446833D01*
X114971500Y-66480166D01*
X115004833Y-66513500D01*
X115038166Y-66580166D01*
X115038166Y-66746833D01*
X115004833Y-66813500D01*
X114971500Y-66846833D01*
X114904833Y-66880166D01*
X114704833Y-66880166D01*
X114638166Y-66846833D01*
X114604833Y-66813500D01*
X115638166Y-66413500D02*
X115638166Y-66880166D01*
X115471500Y-66146833D02*
X115304833Y-66646833D01*
X115738166Y-66646833D01*
X63341080Y-66081546D02*
X63107746Y-65748213D01*
X62941080Y-66081546D02*
X62941080Y-65381546D01*
X63207746Y-65381546D01*
X63274413Y-65414880D01*
X63307746Y-65448213D01*
X63341080Y-65514880D01*
X63341080Y-65614880D01*
X63307746Y-65681546D01*
X63274413Y-65714880D01*
X63207746Y-65748213D01*
X62941080Y-65748213D01*
X63574413Y-65381546D02*
X64007746Y-65381546D01*
X63774413Y-65648213D01*
X63874413Y-65648213D01*
X63941080Y-65681546D01*
X63974413Y-65714880D01*
X64007746Y-65781546D01*
X64007746Y-65948213D01*
X63974413Y-66014880D01*
X63941080Y-66048213D01*
X63874413Y-66081546D01*
X63674413Y-66081546D01*
X63607746Y-66048213D01*
X63574413Y-66014880D01*
X64641080Y-65381546D02*
X64307746Y-65381546D01*
X64274413Y-65714880D01*
X64307746Y-65681546D01*
X64374413Y-65648213D01*
X64541080Y-65648213D01*
X64607746Y-65681546D01*
X64641080Y-65714880D01*
X64674413Y-65781546D01*
X64674413Y-65948213D01*
X64641080Y-66014880D01*
X64607746Y-66048213D01*
X64541080Y-66081546D01*
X64374413Y-66081546D01*
X64307746Y-66048213D01*
X64274413Y-66014880D01*
X114371500Y-65880166D02*
X114138166Y-65546833D01*
X113971500Y-65880166D02*
X113971500Y-65180166D01*
X114238166Y-65180166D01*
X114304833Y-65213500D01*
X114338166Y-65246833D01*
X114371500Y-65313500D01*
X114371500Y-65413500D01*
X114338166Y-65480166D01*
X114304833Y-65513500D01*
X114238166Y-65546833D01*
X113971500Y-65546833D01*
X114604833Y-65180166D02*
X115038166Y-65180166D01*
X114804833Y-65446833D01*
X114904833Y-65446833D01*
X114971500Y-65480166D01*
X115004833Y-65513500D01*
X115038166Y-65580166D01*
X115038166Y-65746833D01*
X115004833Y-65813500D01*
X114971500Y-65846833D01*
X114904833Y-65880166D01*
X114704833Y-65880166D01*
X114638166Y-65846833D01*
X114604833Y-65813500D01*
X115638166Y-65180166D02*
X115504833Y-65180166D01*
X115438166Y-65213500D01*
X115404833Y-65246833D01*
X115338166Y-65346833D01*
X115304833Y-65480166D01*
X115304833Y-65746833D01*
X115338166Y-65813500D01*
X115371500Y-65846833D01*
X115438166Y-65880166D01*
X115571500Y-65880166D01*
X115638166Y-65846833D01*
X115671500Y-65813500D01*
X115704833Y-65746833D01*
X115704833Y-65580166D01*
X115671500Y-65513500D01*
X115638166Y-65480166D01*
X115571500Y-65446833D01*
X115438166Y-65446833D01*
X115371500Y-65480166D01*
X115338166Y-65513500D01*
X115304833Y-65580166D01*
X80132380Y-59884426D02*
X79899046Y-59551093D01*
X79732380Y-59884426D02*
X79732380Y-59184426D01*
X79999046Y-59184426D01*
X80065713Y-59217760D01*
X80099046Y-59251093D01*
X80132380Y-59317760D01*
X80132380Y-59417760D01*
X80099046Y-59484426D01*
X80065713Y-59517760D01*
X79999046Y-59551093D01*
X79732380Y-59551093D01*
X80365713Y-59184426D02*
X80799046Y-59184426D01*
X80565713Y-59451093D01*
X80665713Y-59451093D01*
X80732380Y-59484426D01*
X80765713Y-59517760D01*
X80799046Y-59584426D01*
X80799046Y-59751093D01*
X80765713Y-59817760D01*
X80732380Y-59851093D01*
X80665713Y-59884426D01*
X80465713Y-59884426D01*
X80399046Y-59851093D01*
X80365713Y-59817760D01*
X81032380Y-59184426D02*
X81499046Y-59184426D01*
X81199046Y-59884426D01*
X114371500Y-68880166D02*
X114138166Y-68546833D01*
X113971500Y-68880166D02*
X113971500Y-68180166D01*
X114238166Y-68180166D01*
X114304833Y-68213500D01*
X114338166Y-68246833D01*
X114371500Y-68313500D01*
X114371500Y-68413500D01*
X114338166Y-68480166D01*
X114304833Y-68513500D01*
X114238166Y-68546833D01*
X113971500Y-68546833D01*
X114604833Y-68180166D02*
X115038166Y-68180166D01*
X114804833Y-68446833D01*
X114904833Y-68446833D01*
X114971500Y-68480166D01*
X115004833Y-68513500D01*
X115038166Y-68580166D01*
X115038166Y-68746833D01*
X115004833Y-68813500D01*
X114971500Y-68846833D01*
X114904833Y-68880166D01*
X114704833Y-68880166D01*
X114638166Y-68846833D01*
X114604833Y-68813500D01*
X115438166Y-68480166D02*
X115371500Y-68446833D01*
X115338166Y-68413500D01*
X115304833Y-68346833D01*
X115304833Y-68313500D01*
X115338166Y-68246833D01*
X115371500Y-68213500D01*
X115438166Y-68180166D01*
X115571500Y-68180166D01*
X115638166Y-68213500D01*
X115671500Y-68246833D01*
X115704833Y-68313500D01*
X115704833Y-68346833D01*
X115671500Y-68413500D01*
X115638166Y-68446833D01*
X115571500Y-68480166D01*
X115438166Y-68480166D01*
X115371500Y-68513500D01*
X115338166Y-68546833D01*
X115304833Y-68613500D01*
X115304833Y-68746833D01*
X115338166Y-68813500D01*
X115371500Y-68846833D01*
X115438166Y-68880166D01*
X115571500Y-68880166D01*
X115638166Y-68846833D01*
X115671500Y-68813500D01*
X115704833Y-68746833D01*
X115704833Y-68613500D01*
X115671500Y-68546833D01*
X115638166Y-68513500D01*
X115571500Y-68480166D01*
X114371500Y-67880166D02*
X114138166Y-67546833D01*
X113971500Y-67880166D02*
X113971500Y-67180166D01*
X114238166Y-67180166D01*
X114304833Y-67213500D01*
X114338166Y-67246833D01*
X114371500Y-67313500D01*
X114371500Y-67413500D01*
X114338166Y-67480166D01*
X114304833Y-67513500D01*
X114238166Y-67546833D01*
X113971500Y-67546833D01*
X114604833Y-67180166D02*
X115038166Y-67180166D01*
X114804833Y-67446833D01*
X114904833Y-67446833D01*
X114971500Y-67480166D01*
X115004833Y-67513500D01*
X115038166Y-67580166D01*
X115038166Y-67746833D01*
X115004833Y-67813500D01*
X114971500Y-67846833D01*
X114904833Y-67880166D01*
X114704833Y-67880166D01*
X114638166Y-67846833D01*
X114604833Y-67813500D01*
X115371500Y-67880166D02*
X115504833Y-67880166D01*
X115571500Y-67846833D01*
X115604833Y-67813500D01*
X115671500Y-67713500D01*
X115704833Y-67580166D01*
X115704833Y-67313500D01*
X115671500Y-67246833D01*
X115638166Y-67213500D01*
X115571500Y-67180166D01*
X115438166Y-67180166D01*
X115371500Y-67213500D01*
X115338166Y-67246833D01*
X115304833Y-67313500D01*
X115304833Y-67480166D01*
X115338166Y-67546833D01*
X115371500Y-67580166D01*
X115438166Y-67613500D01*
X115571500Y-67613500D01*
X115638166Y-67580166D01*
X115671500Y-67546833D01*
X115704833Y-67480166D01*
X63361400Y-64968086D02*
X63128066Y-64634753D01*
X62961400Y-64968086D02*
X62961400Y-64268086D01*
X63228066Y-64268086D01*
X63294733Y-64301420D01*
X63328066Y-64334753D01*
X63361400Y-64401420D01*
X63361400Y-64501420D01*
X63328066Y-64568086D01*
X63294733Y-64601420D01*
X63228066Y-64634753D01*
X62961400Y-64634753D01*
X63961400Y-64501420D02*
X63961400Y-64968086D01*
X63794733Y-64234753D02*
X63628066Y-64734753D01*
X64061400Y-64734753D01*
X64461400Y-64268086D02*
X64528066Y-64268086D01*
X64594733Y-64301420D01*
X64628066Y-64334753D01*
X64661400Y-64401420D01*
X64694733Y-64534753D01*
X64694733Y-64701420D01*
X64661400Y-64834753D01*
X64628066Y-64901420D01*
X64594733Y-64934753D01*
X64528066Y-64968086D01*
X64461400Y-64968086D01*
X64394733Y-64934753D01*
X64361400Y-64901420D01*
X64328066Y-64834753D01*
X64294733Y-64701420D01*
X64294733Y-64534753D01*
X64328066Y-64401420D01*
X64361400Y-64334753D01*
X64394733Y-64301420D01*
X64461400Y-64268086D01*
X80167060Y-60964246D02*
X79933726Y-60630913D01*
X79767060Y-60964246D02*
X79767060Y-60264246D01*
X80033726Y-60264246D01*
X80100393Y-60297580D01*
X80133726Y-60330913D01*
X80167060Y-60397580D01*
X80167060Y-60497580D01*
X80133726Y-60564246D01*
X80100393Y-60597580D01*
X80033726Y-60630913D01*
X79767060Y-60630913D01*
X80767060Y-60497580D02*
X80767060Y-60964246D01*
X80600393Y-60230913D02*
X80433726Y-60730913D01*
X80867060Y-60730913D01*
X81500393Y-60964246D02*
X81100393Y-60964246D01*
X81300393Y-60964246D02*
X81300393Y-60264246D01*
X81233726Y-60364246D01*
X81167060Y-60430913D01*
X81100393Y-60464246D01*
X74012640Y-59023686D02*
X73779306Y-58690353D01*
X73612640Y-59023686D02*
X73612640Y-58323686D01*
X73879306Y-58323686D01*
X73945973Y-58357020D01*
X73979306Y-58390353D01*
X74012640Y-58457020D01*
X74012640Y-58557020D01*
X73979306Y-58623686D01*
X73945973Y-58657020D01*
X73879306Y-58690353D01*
X73612640Y-58690353D01*
X74612640Y-58557020D02*
X74612640Y-59023686D01*
X74445973Y-58290353D02*
X74279306Y-58790353D01*
X74712640Y-58790353D01*
X74945973Y-58390353D02*
X74979306Y-58357020D01*
X75045973Y-58323686D01*
X75212640Y-58323686D01*
X75279306Y-58357020D01*
X75312640Y-58390353D01*
X75345973Y-58457020D01*
X75345973Y-58523686D01*
X75312640Y-58623686D01*
X74912640Y-59023686D01*
X75345973Y-59023686D01*
X91635686Y-68758220D02*
X91302353Y-68991553D01*
X91635686Y-69158220D02*
X90935686Y-69158220D01*
X90935686Y-68891553D01*
X90969020Y-68824886D01*
X91002353Y-68791553D01*
X91069020Y-68758220D01*
X91169020Y-68758220D01*
X91235686Y-68791553D01*
X91269020Y-68824886D01*
X91302353Y-68891553D01*
X91302353Y-69158220D01*
X91169020Y-68158220D02*
X91635686Y-68158220D01*
X90902353Y-68324886D02*
X91402353Y-68491553D01*
X91402353Y-68058220D01*
X90935686Y-67858220D02*
X90935686Y-67424886D01*
X91202353Y-67658220D01*
X91202353Y-67558220D01*
X91235686Y-67491553D01*
X91269020Y-67458220D01*
X91335686Y-67424886D01*
X91502353Y-67424886D01*
X91569020Y-67458220D01*
X91602353Y-67491553D01*
X91635686Y-67558220D01*
X91635686Y-67758220D01*
X91602353Y-67824886D01*
X91569020Y-67858220D01*
X115066666Y-75950000D02*
X114733333Y-76183333D01*
X115066666Y-76350000D02*
X114366666Y-76350000D01*
X114366666Y-76083333D01*
X114400000Y-76016666D01*
X114433333Y-75983333D01*
X114500000Y-75950000D01*
X114600000Y-75950000D01*
X114666666Y-75983333D01*
X114700000Y-76016666D01*
X114733333Y-76083333D01*
X114733333Y-76350000D01*
X114600000Y-75350000D02*
X115066666Y-75350000D01*
X114333333Y-75516666D02*
X114833333Y-75683333D01*
X114833333Y-75250000D01*
X114600000Y-74683333D02*
X115066666Y-74683333D01*
X114333333Y-74850000D02*
X114833333Y-75016666D01*
X114833333Y-74583333D01*
X121816666Y-77450000D02*
X121483333Y-77683333D01*
X121816666Y-77850000D02*
X121116666Y-77850000D01*
X121116666Y-77583333D01*
X121150000Y-77516666D01*
X121183333Y-77483333D01*
X121250000Y-77450000D01*
X121350000Y-77450000D01*
X121416666Y-77483333D01*
X121450000Y-77516666D01*
X121483333Y-77583333D01*
X121483333Y-77850000D01*
X121350000Y-76850000D02*
X121816666Y-76850000D01*
X121083333Y-77016666D02*
X121583333Y-77183333D01*
X121583333Y-76750000D01*
X121116666Y-76150000D02*
X121116666Y-76483333D01*
X121450000Y-76516666D01*
X121416666Y-76483333D01*
X121383333Y-76416666D01*
X121383333Y-76250000D01*
X121416666Y-76183333D01*
X121450000Y-76150000D01*
X121516666Y-76116666D01*
X121683333Y-76116666D01*
X121750000Y-76150000D01*
X121783333Y-76183333D01*
X121816666Y-76250000D01*
X121816666Y-76416666D01*
X121783333Y-76483333D01*
X121750000Y-76516666D01*
X126753200Y-67265986D02*
X126519866Y-66932653D01*
X126353200Y-67265986D02*
X126353200Y-66565986D01*
X126619866Y-66565986D01*
X126686533Y-66599320D01*
X126719866Y-66632653D01*
X126753200Y-66699320D01*
X126753200Y-66799320D01*
X126719866Y-66865986D01*
X126686533Y-66899320D01*
X126619866Y-66932653D01*
X126353200Y-66932653D01*
X127386533Y-66565986D02*
X127053200Y-66565986D01*
X127019866Y-66899320D01*
X127053200Y-66865986D01*
X127119866Y-66832653D01*
X127286533Y-66832653D01*
X127353200Y-66865986D01*
X127386533Y-66899320D01*
X127419866Y-66965986D01*
X127419866Y-67132653D01*
X127386533Y-67199320D01*
X127353200Y-67232653D01*
X127286533Y-67265986D01*
X127119866Y-67265986D01*
X127053200Y-67232653D01*
X127019866Y-67199320D01*
X128019866Y-66799320D02*
X128019866Y-67265986D01*
X127853200Y-66532653D02*
X127686533Y-67032653D01*
X128119866Y-67032653D01*
D13*
X115641240Y-45665363D02*
X115641240Y-46693459D01*
X115701717Y-46814411D01*
X115762193Y-46874887D01*
X115883145Y-46935363D01*
X116125050Y-46935363D01*
X116246002Y-46874887D01*
X116306479Y-46814411D01*
X116366955Y-46693459D01*
X116366955Y-45665363D01*
X116850764Y-45665363D02*
X117636955Y-45665363D01*
X117213621Y-46149173D01*
X117395050Y-46149173D01*
X117516002Y-46209649D01*
X117576479Y-46270125D01*
X117636955Y-46391078D01*
X117636955Y-46693459D01*
X117576479Y-46814411D01*
X117516002Y-46874887D01*
X117395050Y-46935363D01*
X117032193Y-46935363D01*
X116911240Y-46874887D01*
X116850764Y-46814411D01*
X132761203Y-40302819D02*
X133390156Y-40302819D01*
X133051489Y-40689866D01*
X133196632Y-40689866D01*
X133293394Y-40738247D01*
X133341775Y-40786628D01*
X133390156Y-40883390D01*
X133390156Y-41125295D01*
X133341775Y-41222057D01*
X133293394Y-41270438D01*
X133196632Y-41318819D01*
X132906346Y-41318819D01*
X132809584Y-41270438D01*
X132761203Y-41222057D01*
X133970727Y-40738247D02*
X133873965Y-40689866D01*
X133825584Y-40641485D01*
X133777203Y-40544723D01*
X133777203Y-40496342D01*
X133825584Y-40399580D01*
X133873965Y-40351200D01*
X133970727Y-40302819D01*
X134164251Y-40302819D01*
X134261013Y-40351200D01*
X134309394Y-40399580D01*
X134357775Y-40496342D01*
X134357775Y-40544723D01*
X134309394Y-40641485D01*
X134261013Y-40689866D01*
X134164251Y-40738247D01*
X133970727Y-40738247D01*
X133873965Y-40786628D01*
X133825584Y-40835009D01*
X133777203Y-40931771D01*
X133777203Y-41125295D01*
X133825584Y-41222057D01*
X133873965Y-41270438D01*
X133970727Y-41318819D01*
X134164251Y-41318819D01*
X134261013Y-41270438D01*
X134309394Y-41222057D01*
X134357775Y-41125295D01*
X134357775Y-40931771D01*
X134309394Y-40835009D01*
X134261013Y-40786628D01*
X134164251Y-40738247D01*
X132809584Y-63259580D02*
X132857965Y-63211200D01*
X132954727Y-63162819D01*
X133196632Y-63162819D01*
X133293394Y-63211200D01*
X133341775Y-63259580D01*
X133390156Y-63356342D01*
X133390156Y-63453104D01*
X133341775Y-63598247D01*
X132761203Y-64178819D01*
X133390156Y-64178819D01*
X134019108Y-63162819D02*
X134115870Y-63162819D01*
X134212632Y-63211200D01*
X134261013Y-63259580D01*
X134309394Y-63356342D01*
X134357775Y-63549866D01*
X134357775Y-63791771D01*
X134309394Y-63985295D01*
X134261013Y-64082057D01*
X134212632Y-64130438D01*
X134115870Y-64178819D01*
X134019108Y-64178819D01*
X133922346Y-64130438D01*
X133873965Y-64082057D01*
X133825584Y-63985295D01*
X133777203Y-63791771D01*
X133777203Y-63549866D01*
X133825584Y-63356342D01*
X133873965Y-63259580D01*
X133922346Y-63211200D01*
X134019108Y-63162819D01*
X121960156Y-64178819D02*
X121379584Y-64178819D01*
X121669870Y-64178819D02*
X121669870Y-63162819D01*
X121573108Y-63307961D01*
X121476346Y-63404723D01*
X121379584Y-63453104D01*
X122443965Y-64178819D02*
X122637489Y-64178819D01*
X122734251Y-64130438D01*
X122782632Y-64082057D01*
X122879394Y-63936914D01*
X122927775Y-63743390D01*
X122927775Y-63356342D01*
X122879394Y-63259580D01*
X122831013Y-63211200D01*
X122734251Y-63162819D01*
X122540727Y-63162819D01*
X122443965Y-63211200D01*
X122395584Y-63259580D01*
X122347203Y-63356342D01*
X122347203Y-63598247D01*
X122395584Y-63695009D01*
X122443965Y-63743390D01*
X122540727Y-63791771D01*
X122734251Y-63791771D01*
X122831013Y-63743390D01*
X122879394Y-63695009D01*
X122927775Y-63598247D01*
X121808965Y-41318819D02*
X121228394Y-41318819D01*
X121518680Y-41318819D02*
X121518680Y-40302819D01*
X121421918Y-40447961D01*
X121325156Y-40544723D01*
X121228394Y-40593104D01*
X122038775Y-61106628D02*
X122377441Y-61106628D01*
X122522584Y-61638819D02*
X122038775Y-61638819D01*
X122038775Y-60622819D01*
X122522584Y-60622819D01*
X122909632Y-61590438D02*
X123054775Y-61638819D01*
X123296680Y-61638819D01*
X123393441Y-61590438D01*
X123441822Y-61542057D01*
X123490203Y-61445295D01*
X123490203Y-61348533D01*
X123441822Y-61251771D01*
X123393441Y-61203390D01*
X123296680Y-61155009D01*
X123103156Y-61106628D01*
X123006394Y-61058247D01*
X122958013Y-61009866D01*
X122909632Y-60913104D01*
X122909632Y-60816342D01*
X122958013Y-60719580D01*
X123006394Y-60671200D01*
X123103156Y-60622819D01*
X123345060Y-60622819D01*
X123490203Y-60671200D01*
X123925632Y-61638819D02*
X123925632Y-60622819D01*
X124312680Y-60622819D01*
X124409441Y-60671200D01*
X124457822Y-60719580D01*
X124506203Y-60816342D01*
X124506203Y-60961485D01*
X124457822Y-61058247D01*
X124409441Y-61106628D01*
X124312680Y-61155009D01*
X123925632Y-61155009D01*
X124844870Y-60622819D02*
X125473822Y-60622819D01*
X125135156Y-61009866D01*
X125280299Y-61009866D01*
X125377060Y-61058247D01*
X125425441Y-61106628D01*
X125473822Y-61203390D01*
X125473822Y-61445295D01*
X125425441Y-61542057D01*
X125377060Y-61590438D01*
X125280299Y-61638819D01*
X124990013Y-61638819D01*
X124893251Y-61590438D01*
X124844870Y-61542057D01*
X125860870Y-60719580D02*
X125909251Y-60671200D01*
X126006013Y-60622819D01*
X126247918Y-60622819D01*
X126344680Y-60671200D01*
X126393060Y-60719580D01*
X126441441Y-60816342D01*
X126441441Y-60913104D01*
X126393060Y-61058247D01*
X125812489Y-61638819D01*
X126441441Y-61638819D01*
X126876870Y-61251771D02*
X127650965Y-61251771D01*
X128038013Y-60622819D02*
X128279918Y-61638819D01*
X128473441Y-60913104D01*
X128666965Y-61638819D01*
X128908870Y-60622819D01*
X129876489Y-61638819D02*
X129537822Y-61155009D01*
X129295918Y-61638819D02*
X129295918Y-60622819D01*
X129682965Y-60622819D01*
X129779727Y-60671200D01*
X129828108Y-60719580D01*
X129876489Y-60816342D01*
X129876489Y-60961485D01*
X129828108Y-61058247D01*
X129779727Y-61106628D01*
X129682965Y-61155009D01*
X129295918Y-61155009D01*
X130505441Y-60622819D02*
X130698965Y-60622819D01*
X130795727Y-60671200D01*
X130892489Y-60767961D01*
X130940870Y-60961485D01*
X130940870Y-61300152D01*
X130892489Y-61493676D01*
X130795727Y-61590438D01*
X130698965Y-61638819D01*
X130505441Y-61638819D01*
X130408680Y-61590438D01*
X130311918Y-61493676D01*
X130263537Y-61300152D01*
X130263537Y-60961485D01*
X130311918Y-60767961D01*
X130408680Y-60671200D01*
X130505441Y-60622819D01*
X131231156Y-60622819D02*
X131569822Y-61638819D01*
X131908489Y-60622819D01*
X132247156Y-61106628D02*
X132585822Y-61106628D01*
X132730965Y-61638819D02*
X132247156Y-61638819D01*
X132247156Y-60622819D01*
X132730965Y-60622819D01*
X133746965Y-61638819D02*
X133408299Y-61155009D01*
X133166394Y-61638819D02*
X133166394Y-60622819D01*
X133553441Y-60622819D01*
X133650203Y-60671200D01*
X133698584Y-60719580D01*
X133746965Y-60816342D01*
X133746965Y-60961485D01*
X133698584Y-61058247D01*
X133650203Y-61106628D01*
X133553441Y-61155009D01*
X133166394Y-61155009D01*
X124361060Y-36625866D02*
X124965822Y-36625866D01*
X124240108Y-36988723D02*
X124663441Y-35718723D01*
X125086775Y-36988723D01*
X125510108Y-36142057D02*
X125510108Y-36988723D01*
X125510108Y-36263009D02*
X125570584Y-36202533D01*
X125691537Y-36142057D01*
X125872965Y-36142057D01*
X125993918Y-36202533D01*
X126054394Y-36323485D01*
X126054394Y-36988723D01*
X126477727Y-36142057D02*
X126961537Y-36142057D01*
X126659156Y-35718723D02*
X126659156Y-36807295D01*
X126719632Y-36928247D01*
X126840584Y-36988723D01*
X126961537Y-36988723D01*
X127868680Y-36928247D02*
X127747727Y-36988723D01*
X127505822Y-36988723D01*
X127384870Y-36928247D01*
X127324394Y-36807295D01*
X127324394Y-36323485D01*
X127384870Y-36202533D01*
X127505822Y-36142057D01*
X127747727Y-36142057D01*
X127868680Y-36202533D01*
X127929156Y-36323485D01*
X127929156Y-36444438D01*
X127324394Y-36565390D01*
X128473441Y-36142057D02*
X128473441Y-36988723D01*
X128473441Y-36263009D02*
X128533918Y-36202533D01*
X128654870Y-36142057D01*
X128836299Y-36142057D01*
X128957251Y-36202533D01*
X129017727Y-36323485D01*
X129017727Y-36988723D01*
X129622489Y-36142057D02*
X129622489Y-36988723D01*
X129622489Y-36263009D02*
X129682965Y-36202533D01*
X129803918Y-36142057D01*
X129985346Y-36142057D01*
X130106299Y-36202533D01*
X130166775Y-36323485D01*
X130166775Y-36988723D01*
X131315822Y-36988723D02*
X131315822Y-36323485D01*
X131255346Y-36202533D01*
X131134394Y-36142057D01*
X130892489Y-36142057D01*
X130771537Y-36202533D01*
X131315822Y-36928247D02*
X131194870Y-36988723D01*
X130892489Y-36988723D01*
X130771537Y-36928247D01*
X130711060Y-36807295D01*
X130711060Y-36686342D01*
X130771537Y-36565390D01*
X130892489Y-36504914D01*
X131194870Y-36504914D01*
X131315822Y-36444438D01*
X117489877Y-39070763D02*
X116764162Y-39070763D01*
X117127020Y-39070763D02*
X117127020Y-37800763D01*
X117006067Y-37982192D01*
X116885115Y-38103144D01*
X116764162Y-38163620D01*
D20*
X97704660Y-63819944D02*
X98514184Y-63819944D01*
X98609422Y-63772325D01*
X98657041Y-63724706D01*
X98704660Y-63629468D01*
X98704660Y-63438992D01*
X98657041Y-63343754D01*
X98609422Y-63296135D01*
X98514184Y-63248516D01*
X97704660Y-63248516D01*
X98133232Y-62629468D02*
X98085613Y-62724706D01*
X98037994Y-62772325D01*
X97942756Y-62819944D01*
X97895137Y-62819944D01*
X97799899Y-62772325D01*
X97752280Y-62724706D01*
X97704660Y-62629468D01*
X97704660Y-62438992D01*
X97752280Y-62343754D01*
X97799899Y-62296135D01*
X97895137Y-62248516D01*
X97942756Y-62248516D01*
X98037994Y-62296135D01*
X98085613Y-62343754D01*
X98133232Y-62438992D01*
X98133232Y-62629468D01*
X98180851Y-62724706D01*
X98228470Y-62772325D01*
X98323708Y-62819944D01*
X98514184Y-62819944D01*
X98609422Y-62772325D01*
X98657041Y-62724706D01*
X98704660Y-62629468D01*
X98704660Y-62438992D01*
X98657041Y-62343754D01*
X98609422Y-62296135D01*
X98514184Y-62248516D01*
X98323708Y-62248516D01*
X98228470Y-62296135D01*
X98180851Y-62343754D01*
X98133232Y-62438992D01*
D10*
X130349047Y-70571428D02*
X131110952Y-70571428D01*
X132889047Y-70571428D02*
X133650952Y-70571428D01*
X133270000Y-70952380D02*
X133270000Y-70190476D01*
X59349047Y-70571428D02*
X60110952Y-70571428D01*
X61889047Y-70571428D02*
X62650952Y-70571428D01*
X62270000Y-70952380D02*
X62270000Y-70190476D01*
D25*
X57207857Y-39909285D02*
X57389285Y-39969761D01*
X57449761Y-40030238D01*
X57510238Y-40151190D01*
X57510238Y-40332619D01*
X57449761Y-40453571D01*
X57389285Y-40514047D01*
X57268333Y-40574523D01*
X56784523Y-40574523D01*
X56784523Y-39304523D01*
X57207857Y-39304523D01*
X57328809Y-39365000D01*
X57389285Y-39425476D01*
X57449761Y-39546428D01*
X57449761Y-39667380D01*
X57389285Y-39788333D01*
X57328809Y-39848809D01*
X57207857Y-39909285D01*
X56784523Y-39909285D01*
X57994047Y-40211666D02*
X58598809Y-40211666D01*
X57873095Y-40574523D02*
X58296428Y-39304523D01*
X58719761Y-40574523D01*
X58961666Y-39304523D02*
X59687380Y-39304523D01*
X59324523Y-40574523D02*
X59324523Y-39304523D01*
X60775952Y-40574523D02*
X60050238Y-40574523D01*
X60413095Y-40574523D02*
X60413095Y-39304523D01*
X60292142Y-39485952D01*
X60171190Y-39606904D01*
X60050238Y-39667380D01*
D10*
X108705000Y-38543666D02*
X108371666Y-38543666D01*
X108371666Y-37843666D01*
X108905000Y-38510333D02*
X109005000Y-38543666D01*
X109171666Y-38543666D01*
X109238333Y-38510333D01*
X109271666Y-38477000D01*
X109305000Y-38410333D01*
X109305000Y-38343666D01*
X109271666Y-38277000D01*
X109238333Y-38243666D01*
X109171666Y-38210333D01*
X109038333Y-38177000D01*
X108971666Y-38143666D01*
X108938333Y-38110333D01*
X108905000Y-38043666D01*
X108905000Y-37977000D01*
X108938333Y-37910333D01*
X108971666Y-37877000D01*
X109038333Y-37843666D01*
X109205000Y-37843666D01*
X109305000Y-37877000D01*
X109605000Y-38543666D02*
X109605000Y-37843666D01*
X109871666Y-37843666D01*
X109938333Y-37877000D01*
X109971666Y-37910333D01*
X110005000Y-37977000D01*
X110005000Y-38077000D01*
X109971666Y-38143666D01*
X109938333Y-38177000D01*
X109871666Y-38210333D01*
X109605000Y-38210333D01*
X110305000Y-38543666D02*
X110305000Y-37843666D01*
X110705000Y-38543666D02*
X110405000Y-38143666D01*
X110705000Y-37843666D02*
X110305000Y-38243666D01*
X111371666Y-38543666D02*
X110971666Y-38543666D01*
X111171666Y-38543666D02*
X111171666Y-37843666D01*
X111105000Y-37943666D01*
X111038333Y-38010333D01*
X110971666Y-38043666D01*
X100704000Y-38543666D02*
X100470666Y-38210333D01*
X100304000Y-38543666D02*
X100304000Y-37843666D01*
X100570666Y-37843666D01*
X100637333Y-37877000D01*
X100670666Y-37910333D01*
X100704000Y-37977000D01*
X100704000Y-38077000D01*
X100670666Y-38143666D01*
X100637333Y-38177000D01*
X100570666Y-38210333D01*
X100304000Y-38210333D01*
X100970666Y-38510333D02*
X101070666Y-38543666D01*
X101237333Y-38543666D01*
X101304000Y-38510333D01*
X101337333Y-38477000D01*
X101370666Y-38410333D01*
X101370666Y-38343666D01*
X101337333Y-38277000D01*
X101304000Y-38243666D01*
X101237333Y-38210333D01*
X101104000Y-38177000D01*
X101037333Y-38143666D01*
X101004000Y-38110333D01*
X100970666Y-38043666D01*
X100970666Y-37977000D01*
X101004000Y-37910333D01*
X101037333Y-37877000D01*
X101104000Y-37843666D01*
X101270666Y-37843666D01*
X101370666Y-37877000D01*
X101670666Y-38543666D02*
X101670666Y-37843666D01*
X101937333Y-37843666D01*
X102004000Y-37877000D01*
X102037333Y-37910333D01*
X102070666Y-37977000D01*
X102070666Y-38077000D01*
X102037333Y-38143666D01*
X102004000Y-38177000D01*
X101937333Y-38210333D01*
X101670666Y-38210333D01*
X102370666Y-38543666D02*
X102370666Y-37843666D01*
X102770666Y-38543666D02*
X102470666Y-38143666D01*
X102770666Y-37843666D02*
X102370666Y-38243666D01*
X103437333Y-38543666D02*
X103037333Y-38543666D01*
X103237333Y-38543666D02*
X103237333Y-37843666D01*
X103170666Y-37943666D01*
X103104000Y-38010333D01*
X103037333Y-38043666D01*
X110416666Y-48077000D02*
X110183333Y-48077000D01*
X110183333Y-48443666D02*
X110183333Y-47743666D01*
X110516666Y-47743666D01*
X111016666Y-48077000D02*
X111116666Y-48110333D01*
X111150000Y-48143666D01*
X111183333Y-48210333D01*
X111183333Y-48310333D01*
X111150000Y-48377000D01*
X111116666Y-48410333D01*
X111050000Y-48443666D01*
X110783333Y-48443666D01*
X110783333Y-47743666D01*
X111016666Y-47743666D01*
X111083333Y-47777000D01*
X111116666Y-47810333D01*
X111150000Y-47877000D01*
X111150000Y-47943666D01*
X111116666Y-48010333D01*
X111083333Y-48043666D01*
X111016666Y-48077000D01*
X110783333Y-48077000D01*
X111850000Y-48443666D02*
X111450000Y-48443666D01*
X111650000Y-48443666D02*
X111650000Y-47743666D01*
X111583333Y-47843666D01*
X111516666Y-47910333D01*
X111450000Y-47943666D01*
X108166666Y-48077000D02*
X107933333Y-48077000D01*
X107933333Y-48443666D02*
X107933333Y-47743666D01*
X108266666Y-47743666D01*
X108766666Y-48077000D02*
X108866666Y-48110333D01*
X108900000Y-48143666D01*
X108933333Y-48210333D01*
X108933333Y-48310333D01*
X108900000Y-48377000D01*
X108866666Y-48410333D01*
X108800000Y-48443666D01*
X108533333Y-48443666D01*
X108533333Y-47743666D01*
X108766666Y-47743666D01*
X108833333Y-47777000D01*
X108866666Y-47810333D01*
X108900000Y-47877000D01*
X108900000Y-47943666D01*
X108866666Y-48010333D01*
X108833333Y-48043666D01*
X108766666Y-48077000D01*
X108533333Y-48077000D01*
X109200000Y-47810333D02*
X109233333Y-47777000D01*
X109300000Y-47743666D01*
X109466666Y-47743666D01*
X109533333Y-47777000D01*
X109566666Y-47810333D01*
X109600000Y-47877000D01*
X109600000Y-47943666D01*
X109566666Y-48043666D01*
X109166666Y-48443666D01*
X109600000Y-48443666D01*
X103416666Y-48077000D02*
X103183333Y-48077000D01*
X103183333Y-48443666D02*
X103183333Y-47743666D01*
X103516666Y-47743666D01*
X104016666Y-48077000D02*
X104116666Y-48110333D01*
X104150000Y-48143666D01*
X104183333Y-48210333D01*
X104183333Y-48310333D01*
X104150000Y-48377000D01*
X104116666Y-48410333D01*
X104050000Y-48443666D01*
X103783333Y-48443666D01*
X103783333Y-47743666D01*
X104016666Y-47743666D01*
X104083333Y-47777000D01*
X104116666Y-47810333D01*
X104150000Y-47877000D01*
X104150000Y-47943666D01*
X104116666Y-48010333D01*
X104083333Y-48043666D01*
X104016666Y-48077000D01*
X103783333Y-48077000D01*
X104416666Y-47743666D02*
X104850000Y-47743666D01*
X104616666Y-48010333D01*
X104716666Y-48010333D01*
X104783333Y-48043666D01*
X104816666Y-48077000D01*
X104850000Y-48143666D01*
X104850000Y-48310333D01*
X104816666Y-48377000D01*
X104783333Y-48410333D01*
X104716666Y-48443666D01*
X104516666Y-48443666D01*
X104450000Y-48410333D01*
X104416666Y-48377000D01*
X101166666Y-48077000D02*
X100933333Y-48077000D01*
X100933333Y-48443666D02*
X100933333Y-47743666D01*
X101266666Y-47743666D01*
X101766666Y-48077000D02*
X101866666Y-48110333D01*
X101900000Y-48143666D01*
X101933333Y-48210333D01*
X101933333Y-48310333D01*
X101900000Y-48377000D01*
X101866666Y-48410333D01*
X101800000Y-48443666D01*
X101533333Y-48443666D01*
X101533333Y-47743666D01*
X101766666Y-47743666D01*
X101833333Y-47777000D01*
X101866666Y-47810333D01*
X101900000Y-47877000D01*
X101900000Y-47943666D01*
X101866666Y-48010333D01*
X101833333Y-48043666D01*
X101766666Y-48077000D01*
X101533333Y-48077000D01*
X102533333Y-47977000D02*
X102533333Y-48443666D01*
X102366666Y-47710333D02*
X102200000Y-48210333D01*
X102633333Y-48210333D01*
D26*
X84444906Y-49156826D02*
X84444906Y-49723493D01*
X84478240Y-49790160D01*
X84511573Y-49823493D01*
X84578240Y-49856826D01*
X84711573Y-49856826D01*
X84778240Y-49823493D01*
X84811573Y-49790160D01*
X84844906Y-49723493D01*
X84844906Y-49156826D01*
X85544906Y-49856826D02*
X85144906Y-49856826D01*
X85344906Y-49856826D02*
X85344906Y-49156826D01*
X85278240Y-49256826D01*
X85211573Y-49323493D01*
X85144906Y-49356826D01*
D10*
X75829866Y-51116666D02*
X75829866Y-51683333D01*
X75863200Y-51750000D01*
X75896533Y-51783333D01*
X75963200Y-51816666D01*
X76096533Y-51816666D01*
X76163200Y-51783333D01*
X76196533Y-51750000D01*
X76229866Y-51683333D01*
X76229866Y-51116666D01*
X76529866Y-51183333D02*
X76563200Y-51150000D01*
X76629866Y-51116666D01*
X76796533Y-51116666D01*
X76863200Y-51150000D01*
X76896533Y-51183333D01*
X76929866Y-51250000D01*
X76929866Y-51316666D01*
X76896533Y-51416666D01*
X76496533Y-51816666D01*
X76929866Y-51816666D01*
D27*
X58267666Y-49227946D02*
X58267666Y-49794613D01*
X58301000Y-49861280D01*
X58334333Y-49894613D01*
X58401000Y-49927946D01*
X58534333Y-49927946D01*
X58601000Y-49894613D01*
X58634333Y-49861280D01*
X58667666Y-49794613D01*
X58667666Y-49227946D01*
X59301000Y-49461280D02*
X59301000Y-49927946D01*
X59134333Y-49194613D02*
X58967666Y-49694613D01*
X59401000Y-49694613D01*
D10*
X69983333Y-56566666D02*
X69983333Y-55866666D01*
X70150000Y-55866666D01*
X70250000Y-55900000D01*
X70316666Y-55966666D01*
X70350000Y-56033333D01*
X70383333Y-56166666D01*
X70383333Y-56266666D01*
X70350000Y-56400000D01*
X70316666Y-56466666D01*
X70250000Y-56533333D01*
X70150000Y-56566666D01*
X69983333Y-56566666D01*
X70650000Y-55933333D02*
X70683333Y-55900000D01*
X70750000Y-55866666D01*
X70916666Y-55866666D01*
X70983333Y-55900000D01*
X71016666Y-55933333D01*
X71050000Y-56000000D01*
X71050000Y-56066666D01*
X71016666Y-56166666D01*
X70616666Y-56566666D01*
X71050000Y-56566666D01*
D24*
X66785309Y-48855261D02*
X66785309Y-48220261D01*
X66936500Y-48220261D01*
X67027214Y-48250500D01*
X67087690Y-48310976D01*
X67117928Y-48371452D01*
X67148166Y-48492404D01*
X67148166Y-48583119D01*
X67117928Y-48704071D01*
X67087690Y-48764547D01*
X67027214Y-48825023D01*
X66936500Y-48855261D01*
X66785309Y-48855261D01*
X67692452Y-48431928D02*
X67692452Y-48855261D01*
X67541261Y-48190023D02*
X67390071Y-48643595D01*
X67783166Y-48643595D01*
X72031309Y-56537261D02*
X72031309Y-55902261D01*
X72182500Y-55902261D01*
X72273214Y-55932500D01*
X72333690Y-55992976D01*
X72363928Y-56053452D01*
X72394166Y-56174404D01*
X72394166Y-56265119D01*
X72363928Y-56386071D01*
X72333690Y-56446547D01*
X72273214Y-56507023D01*
X72182500Y-56537261D01*
X72031309Y-56537261D01*
X72938452Y-55902261D02*
X72817500Y-55902261D01*
X72757023Y-55932500D01*
X72726785Y-55962738D01*
X72666309Y-56053452D01*
X72636071Y-56174404D01*
X72636071Y-56416309D01*
X72666309Y-56476785D01*
X72696547Y-56507023D01*
X72757023Y-56537261D01*
X72877976Y-56537261D01*
X72938452Y-56507023D01*
X72968690Y-56476785D01*
X72998928Y-56416309D01*
X72998928Y-56265119D01*
X72968690Y-56204642D01*
X72938452Y-56174404D01*
X72877976Y-56144166D01*
X72757023Y-56144166D01*
X72696547Y-56174404D01*
X72666309Y-56204642D01*
X72636071Y-56265119D01*
D20*
X82245460Y-47392886D02*
X82245460Y-47869077D01*
X81245460Y-47869077D01*
X81340699Y-47107172D02*
X81293080Y-47059553D01*
X81245460Y-46964315D01*
X81245460Y-46726220D01*
X81293080Y-46630981D01*
X81340699Y-46583362D01*
X81435937Y-46535743D01*
X81531175Y-46535743D01*
X81674032Y-46583362D01*
X82245460Y-47154791D01*
X82245460Y-46535743D01*
D10*
X75301860Y-65707164D02*
X76111384Y-65707164D01*
X76206622Y-65659545D01*
X76254241Y-65611926D01*
X76301860Y-65516688D01*
X76301860Y-65326212D01*
X76254241Y-65230974D01*
X76206622Y-65183355D01*
X76111384Y-65135736D01*
X75301860Y-65135736D01*
X75301860Y-64183355D02*
X75301860Y-64659545D01*
X75778051Y-64707164D01*
X75730432Y-64659545D01*
X75682813Y-64564307D01*
X75682813Y-64326212D01*
X75730432Y-64230974D01*
X75778051Y-64183355D01*
X75873289Y-64135736D01*
X76111384Y-64135736D01*
X76206622Y-64183355D01*
X76254241Y-64230974D01*
X76301860Y-64326212D01*
X76301860Y-64564307D01*
X76254241Y-64659545D01*
X76206622Y-64707164D01*
D13*
X67017428Y-67915619D02*
X66920666Y-67867238D01*
X66872285Y-67818857D01*
X66823904Y-67722095D01*
X66823904Y-67431809D01*
X66872285Y-67335047D01*
X66920666Y-67286666D01*
X67017428Y-67238285D01*
X67162571Y-67238285D01*
X67259333Y-67286666D01*
X67307714Y-67335047D01*
X67356095Y-67431809D01*
X67356095Y-67722095D01*
X67307714Y-67818857D01*
X67259333Y-67867238D01*
X67162571Y-67915619D01*
X67017428Y-67915619D01*
D22*
X93281576Y-60956244D02*
X93281576Y-61603863D01*
X93319671Y-61680054D01*
X93357766Y-61718149D01*
X93433957Y-61756244D01*
X93586338Y-61756244D01*
X93662528Y-61718149D01*
X93700623Y-61680054D01*
X93738719Y-61603863D01*
X93738719Y-60956244D01*
X94462528Y-60956244D02*
X94310147Y-60956244D01*
X94233957Y-60994340D01*
X94195861Y-61032435D01*
X94119671Y-61146720D01*
X94081576Y-61299101D01*
X94081576Y-61603863D01*
X94119671Y-61680054D01*
X94157766Y-61718149D01*
X94233957Y-61756244D01*
X94386338Y-61756244D01*
X94462528Y-61718149D01*
X94500623Y-61680054D01*
X94538719Y-61603863D01*
X94538719Y-61413387D01*
X94500623Y-61337197D01*
X94462528Y-61299101D01*
X94386338Y-61261006D01*
X94233957Y-61261006D01*
X94157766Y-61299101D01*
X94119671Y-61337197D01*
X94081576Y-61413387D01*
D13*
X39533285Y-84888333D02*
X39593761Y-84706904D01*
X39654238Y-84646428D01*
X39775190Y-84585952D01*
X39956619Y-84585952D01*
X40077571Y-84646428D01*
X40138047Y-84706904D01*
X40198523Y-84827857D01*
X40198523Y-85311666D01*
X38928523Y-85311666D01*
X38928523Y-84888333D01*
X38989000Y-84767380D01*
X39049476Y-84706904D01*
X39170428Y-84646428D01*
X39291380Y-84646428D01*
X39412333Y-84706904D01*
X39472809Y-84767380D01*
X39533285Y-84888333D01*
X39533285Y-85311666D01*
X39775190Y-84041666D02*
X39775190Y-83497380D01*
X39351857Y-84041666D02*
X40198523Y-84041666D01*
X39351857Y-83497380D02*
X40198523Y-83497380D01*
X39351857Y-82892619D02*
X40198523Y-82892619D01*
X39351857Y-82287857D01*
X40198523Y-82287857D01*
X40198523Y-81683095D02*
X39351857Y-81683095D01*
X40017095Y-81320238D01*
X39351857Y-80957380D01*
X40198523Y-80957380D01*
X40198523Y-79808333D02*
X39533285Y-79808333D01*
X39412333Y-79868809D01*
X39351857Y-79989761D01*
X39351857Y-80231666D01*
X39412333Y-80352619D01*
X40138047Y-79808333D02*
X40198523Y-79929285D01*
X40198523Y-80231666D01*
X40138047Y-80352619D01*
X40017095Y-80413095D01*
X39896142Y-80413095D01*
X39775190Y-80352619D01*
X39714714Y-80231666D01*
X39714714Y-79929285D01*
X39654238Y-79808333D01*
X39775190Y-79203571D02*
X39775190Y-78659285D01*
X39351857Y-79203571D02*
X40198523Y-79203571D01*
X39351857Y-78659285D02*
X40198523Y-78659285D01*
X39351857Y-78054523D02*
X40198523Y-78054523D01*
X39351857Y-77449761D01*
X40198523Y-77449761D01*
X40138047Y-76361190D02*
X40198523Y-76482142D01*
X40198523Y-76724047D01*
X40138047Y-76845000D01*
X40017095Y-76905476D01*
X39533285Y-76905476D01*
X39412333Y-76845000D01*
X39351857Y-76724047D01*
X39351857Y-76482142D01*
X39412333Y-76361190D01*
X39533285Y-76300714D01*
X39654238Y-76300714D01*
X39775190Y-76905476D01*
X40077571Y-75756428D02*
X40138047Y-75695952D01*
X40198523Y-75756428D01*
X40138047Y-75816904D01*
X40077571Y-75756428D01*
X40198523Y-75756428D01*
X39714714Y-75756428D02*
X38989000Y-75816904D01*
X38928523Y-75756428D01*
X38989000Y-75695952D01*
X39714714Y-75756428D01*
X38928523Y-75756428D01*
X38928523Y-74184047D02*
X40198523Y-74184047D01*
X38928523Y-73458333D01*
X40198523Y-73458333D01*
X40198523Y-72853571D02*
X39351857Y-72853571D01*
X40017095Y-72490714D01*
X39351857Y-72127857D01*
X40198523Y-72127857D01*
X40198523Y-70978809D02*
X39533285Y-70978809D01*
X39412333Y-71039285D01*
X39351857Y-71160238D01*
X39351857Y-71402142D01*
X39412333Y-71523095D01*
X40138047Y-70978809D02*
X40198523Y-71099761D01*
X40198523Y-71402142D01*
X40138047Y-71523095D01*
X40017095Y-71583571D01*
X39896142Y-71583571D01*
X39775190Y-71523095D01*
X39714714Y-71402142D01*
X39714714Y-71099761D01*
X39654238Y-70978809D01*
X38928523Y-69043571D02*
X40621857Y-69043571D01*
X39351857Y-69164523D02*
X39351857Y-68922619D01*
X39412333Y-68801666D01*
X39533285Y-68680714D01*
X39654238Y-68620238D01*
X39896142Y-68620238D01*
X40017095Y-68680714D01*
X40138047Y-68801666D01*
X40198523Y-68922619D01*
X40198523Y-69164523D01*
X40138047Y-69285476D01*
X40017095Y-69406428D01*
X39896142Y-69466904D01*
X39654238Y-69466904D01*
X39533285Y-69406428D01*
X39412333Y-69285476D01*
X39351857Y-69164523D01*
X39351857Y-68075952D02*
X40621857Y-68075952D01*
X39412333Y-68075952D02*
X39351857Y-67955000D01*
X39351857Y-67713095D01*
X39412333Y-67592142D01*
X39472809Y-67531666D01*
X39593761Y-67471190D01*
X39956619Y-67471190D01*
X40077571Y-67531666D01*
X40138047Y-67592142D01*
X40198523Y-67713095D01*
X40198523Y-67955000D01*
X40138047Y-68075952D01*
X40138047Y-66443095D02*
X40198523Y-66564047D01*
X40198523Y-66805952D01*
X40138047Y-66926904D01*
X40017095Y-66987380D01*
X39533285Y-66987380D01*
X39412333Y-66926904D01*
X39351857Y-66805952D01*
X39351857Y-66564047D01*
X39412333Y-66443095D01*
X39533285Y-66382619D01*
X39654238Y-66382619D01*
X39775190Y-66987380D01*
X39775190Y-65717380D02*
X39775190Y-65596428D01*
X39412333Y-65959285D02*
X39351857Y-65838333D01*
X39351857Y-65596428D01*
X39412333Y-65475476D01*
X39533285Y-65415000D01*
X39593761Y-65415000D01*
X39714714Y-65475476D01*
X39775190Y-65596428D01*
X39835666Y-65475476D01*
X39956619Y-65415000D01*
X40017095Y-65415000D01*
X40138047Y-65475476D01*
X40198523Y-65596428D01*
X40198523Y-65838333D01*
X40138047Y-65959285D01*
X40198523Y-64689285D02*
X40138047Y-64810238D01*
X40077571Y-64870714D01*
X39956619Y-64931190D01*
X39593761Y-64931190D01*
X39472809Y-64870714D01*
X39412333Y-64810238D01*
X39351857Y-64689285D01*
X39351857Y-64507857D01*
X39412333Y-64386904D01*
X39472809Y-64326428D01*
X39593761Y-64265952D01*
X39956619Y-64265952D01*
X40077571Y-64326428D01*
X40138047Y-64386904D01*
X40198523Y-64507857D01*
X40198523Y-64689285D01*
X39775190Y-63419285D02*
X39835666Y-63237857D01*
X39956619Y-63177380D01*
X40017095Y-63177380D01*
X40138047Y-63237857D01*
X40198523Y-63358809D01*
X40198523Y-63721666D01*
X39351857Y-63721666D01*
X39351857Y-63419285D01*
X39412333Y-63298333D01*
X39533285Y-63237857D01*
X39593761Y-63237857D01*
X39714714Y-63298333D01*
X39775190Y-63419285D01*
X39775190Y-63721666D01*
X40198523Y-62088809D02*
X39533285Y-62088809D01*
X39412333Y-62149285D01*
X39351857Y-62270238D01*
X39351857Y-62512142D01*
X39412333Y-62633095D01*
X40138047Y-62088809D02*
X40198523Y-62209761D01*
X40198523Y-62512142D01*
X40138047Y-62633095D01*
X40017095Y-62693571D01*
X39896142Y-62693571D01*
X39775190Y-62633095D01*
X39714714Y-62512142D01*
X39714714Y-62209761D01*
X39654238Y-62088809D01*
X39775190Y-61484047D02*
X39775190Y-60939761D01*
X39351857Y-61484047D02*
X40198523Y-61484047D01*
X39351857Y-60939761D02*
X40198523Y-60939761D01*
X40138047Y-59851190D02*
X40198523Y-59972142D01*
X40198523Y-60214047D01*
X40138047Y-60335000D01*
X40017095Y-60395476D01*
X39533285Y-60395476D01*
X39412333Y-60335000D01*
X39351857Y-60214047D01*
X39351857Y-59972142D01*
X39412333Y-59851190D01*
X39533285Y-59790714D01*
X39654238Y-59790714D01*
X39775190Y-60395476D01*
X39775190Y-58278809D02*
X39775190Y-57734523D01*
X39351857Y-58278809D02*
X40198523Y-58278809D01*
X39351857Y-57734523D02*
X40198523Y-57734523D01*
X40198523Y-56585476D02*
X39533285Y-56585476D01*
X39412333Y-56645952D01*
X39351857Y-56766904D01*
X39351857Y-57008809D01*
X39412333Y-57129761D01*
X40138047Y-56585476D02*
X40198523Y-56706428D01*
X40198523Y-57008809D01*
X40138047Y-57129761D01*
X40017095Y-57190238D01*
X39896142Y-57190238D01*
X39775190Y-57129761D01*
X39714714Y-57008809D01*
X39714714Y-56706428D01*
X39654238Y-56585476D01*
X40198523Y-55980714D02*
X39351857Y-55980714D01*
X39351857Y-55436428D01*
X40198523Y-55436428D01*
X39351857Y-54831666D02*
X40621857Y-54831666D01*
X39412333Y-54831666D02*
X39351857Y-54710714D01*
X39351857Y-54468809D01*
X39412333Y-54347857D01*
X39472809Y-54287380D01*
X39593761Y-54226904D01*
X39956619Y-54226904D01*
X40077571Y-54287380D01*
X40138047Y-54347857D01*
X40198523Y-54468809D01*
X40198523Y-54710714D01*
X40138047Y-54831666D01*
X40198523Y-53138333D02*
X39533285Y-53138333D01*
X39412333Y-53198809D01*
X39351857Y-53319761D01*
X39351857Y-53561666D01*
X39412333Y-53682619D01*
X40138047Y-53138333D02*
X40198523Y-53259285D01*
X40198523Y-53561666D01*
X40138047Y-53682619D01*
X40017095Y-53743095D01*
X39896142Y-53743095D01*
X39775190Y-53682619D01*
X39714714Y-53561666D01*
X39714714Y-53259285D01*
X39654238Y-53138333D01*
X39775190Y-52231190D02*
X39835666Y-52049761D01*
X39956619Y-51989285D01*
X40017095Y-51989285D01*
X40138047Y-52049761D01*
X40198523Y-52170714D01*
X40198523Y-52533571D01*
X39351857Y-52533571D01*
X39351857Y-52231190D01*
X39412333Y-52110238D01*
X39533285Y-52049761D01*
X39593761Y-52049761D01*
X39714714Y-52110238D01*
X39775190Y-52231190D01*
X39775190Y-52533571D01*
X40138047Y-50961190D02*
X40198523Y-51082142D01*
X40198523Y-51324047D01*
X40138047Y-51444999D01*
X40017095Y-51505476D01*
X39533285Y-51505476D01*
X39412333Y-51444999D01*
X39351857Y-51324047D01*
X39351857Y-51082142D01*
X39412333Y-50961190D01*
X39533285Y-50900714D01*
X39654238Y-50900714D01*
X39775190Y-51505476D01*
X39775190Y-50356428D02*
X39775190Y-49812142D01*
X39351857Y-50356428D02*
X40198523Y-50356428D01*
X39351857Y-49812142D02*
X40198523Y-49812142D01*
X40198523Y-49025952D02*
X40138047Y-49146904D01*
X40077571Y-49207380D01*
X39956619Y-49267857D01*
X39593761Y-49267857D01*
X39472809Y-49207380D01*
X39412333Y-49146904D01*
X39351857Y-49025952D01*
X39351857Y-48844523D01*
X39412333Y-48723571D01*
X39472809Y-48663095D01*
X39593761Y-48602619D01*
X39956619Y-48602619D01*
X40077571Y-48663095D01*
X40138047Y-48723571D01*
X40198523Y-48844523D01*
X40198523Y-49025952D01*
X40138047Y-46546428D02*
X40198523Y-46667380D01*
X40198523Y-46909285D01*
X40138047Y-47030238D01*
X40077571Y-47090714D01*
X39956619Y-47151190D01*
X39593761Y-47151190D01*
X39472809Y-47090714D01*
X39412333Y-47030238D01*
X39351857Y-46909285D01*
X39351857Y-46667380D01*
X39412333Y-46546428D01*
X40198523Y-45034523D02*
X38928523Y-45034523D01*
X38928523Y-44732142D01*
X38989000Y-44550714D01*
X39109952Y-44429761D01*
X39230904Y-44369285D01*
X39472809Y-44308809D01*
X39654238Y-44308809D01*
X39896142Y-44369285D01*
X40017095Y-44429761D01*
X40138047Y-44550714D01*
X40198523Y-44732142D01*
X40198523Y-45034523D01*
X40198523Y-43764523D02*
X39351857Y-43764523D01*
X39593761Y-43764523D02*
X39472809Y-43704047D01*
X39412333Y-43643571D01*
X39351857Y-43522619D01*
X39351857Y-43401666D01*
X40198523Y-42978333D02*
X39351857Y-42978333D01*
X38928523Y-42978333D02*
X38989000Y-43038809D01*
X39049476Y-42978333D01*
X38989000Y-42917857D01*
X38928523Y-42978333D01*
X39049476Y-42978333D01*
X40198523Y-42192142D02*
X40138047Y-42313095D01*
X40017095Y-42373571D01*
X38928523Y-42373571D01*
X40198523Y-41526904D02*
X40138047Y-41647857D01*
X40017095Y-41708333D01*
X38928523Y-41708333D01*
X40138047Y-40135952D02*
X40198523Y-39954523D01*
X40198523Y-39652142D01*
X40138047Y-39531190D01*
X40077571Y-39470714D01*
X39956619Y-39410238D01*
X39835666Y-39410238D01*
X39714714Y-39470714D01*
X39654238Y-39531190D01*
X39593761Y-39652142D01*
X39533285Y-39894047D01*
X39472809Y-40015000D01*
X39412333Y-40075476D01*
X39291380Y-40135952D01*
X39170428Y-40135952D01*
X39049476Y-40075476D01*
X38989000Y-40015000D01*
X38928523Y-39894047D01*
X38928523Y-39591666D01*
X38989000Y-39410238D01*
X40198523Y-38684523D02*
X40138047Y-38805476D01*
X40017095Y-38865952D01*
X38928523Y-38865952D01*
X40198523Y-38019285D02*
X40138047Y-38140238D01*
X40077571Y-38200714D01*
X39956619Y-38261190D01*
X39593761Y-38261190D01*
X39472809Y-38200714D01*
X39412333Y-38140238D01*
X39351857Y-38019285D01*
X39351857Y-37837857D01*
X39412333Y-37716904D01*
X39472809Y-37656428D01*
X39593761Y-37595952D01*
X39956619Y-37595952D01*
X40077571Y-37656428D01*
X40138047Y-37716904D01*
X40198523Y-37837857D01*
X40198523Y-38019285D01*
X39351857Y-37233095D02*
X39351857Y-36749285D01*
X38928523Y-37051666D02*
X40017095Y-37051666D01*
X40138047Y-36991190D01*
X40198523Y-36870238D01*
X40198523Y-36749285D01*
X40138047Y-36386428D02*
X40198523Y-36265476D01*
X40198523Y-36023571D01*
X40138047Y-35902619D01*
X40017095Y-35842142D01*
X39956619Y-35842142D01*
X39835666Y-35902619D01*
X39775190Y-36023571D01*
X39775190Y-36205000D01*
X39714714Y-36325952D01*
X39593761Y-36386428D01*
X39533285Y-36386428D01*
X39412333Y-36325952D01*
X39351857Y-36205000D01*
X39351857Y-36023571D01*
X39412333Y-35902619D01*
X40077571Y-35297857D02*
X40138047Y-35237380D01*
X40198523Y-35297857D01*
X40138047Y-35358333D01*
X40077571Y-35297857D01*
X40198523Y-35297857D01*
X39714714Y-35297857D02*
X38989000Y-35358333D01*
X38928523Y-35297857D01*
X38989000Y-35237380D01*
X39714714Y-35297857D01*
X38928523Y-35297857D01*
X40077571Y-34693095D02*
X40138047Y-34632619D01*
X40198523Y-34693095D01*
X40138047Y-34753571D01*
X40077571Y-34693095D01*
X40198523Y-34693095D01*
X39714714Y-34693095D02*
X38989000Y-34753571D01*
X38928523Y-34693095D01*
X38989000Y-34632619D01*
X39714714Y-34693095D01*
X38928523Y-34693095D01*
X40077571Y-34088333D02*
X40138047Y-34027857D01*
X40198523Y-34088333D01*
X40138047Y-34148809D01*
X40077571Y-34088333D01*
X40198523Y-34088333D01*
X39714714Y-34088333D02*
X38989000Y-34148809D01*
X38928523Y-34088333D01*
X38989000Y-34027857D01*
X39714714Y-34088333D01*
X38928523Y-34088333D01*
D10*
X103341606Y-59500546D02*
X103008273Y-59733880D01*
X103341606Y-59900546D02*
X102641606Y-59900546D01*
X102641606Y-59633880D01*
X102674940Y-59567213D01*
X102708273Y-59533880D01*
X102774940Y-59500546D01*
X102874940Y-59500546D01*
X102941606Y-59533880D01*
X102974940Y-59567213D01*
X103008273Y-59633880D01*
X103008273Y-59900546D01*
X103341606Y-59200546D02*
X102641606Y-59200546D01*
X103141606Y-58967213D01*
X102641606Y-58733880D01*
X103341606Y-58733880D01*
X103341606Y-58033880D02*
X103341606Y-58433880D01*
X103341606Y-58233880D02*
X102641606Y-58233880D01*
X102741606Y-58300546D01*
X102808273Y-58367213D01*
X102841606Y-58433880D01*
M02*
