M48
; DRILL file {KiCad 5.1.0-unknown-223e24f~82~ubuntu18.04.1} date 23.04.2019 (вт) 11:49:56 EEST
; FORMAT={-:-/ absolute / metric / decimal}
; #@! TF.CreationDate,2019-04-23T11:49:56+03:00
; #@! TF.GenerationSoftware,Kicad,Pcbnew,5.1.0-unknown-223e24f~82~ubuntu18.04.1
; #@! TF.FileFunction,Plated,1,4,PTH
FMAT,2
METRIC
T1C0.400
T2C0.600
T3C0.762
T4C0.800
T5C0.900
T6C1.000
T7C1.100
T8C1.300
T9C1.900
T10C2.000
T11C3.300
%
G90
G05
T1
X60.682Y-45.8
X63.236Y-61.087
X63.251Y-52.639
X63.335Y-64.694
X63.647Y-49.747
X63.664Y-48.899
X64.564Y-65.722
X67.107Y-62.039
X67.183Y-60.261
X68.069Y-72.245
X68.288Y-58.679
X69.306Y-55.596
X69.571Y-71.239
X70.575Y-68.716
X70.594Y-53.967
X70.759Y-77.234
X70.788Y-73.344
X70.8Y-75.745
X72.525Y-66.017
X73.238Y-78.146
X75.4Y-35.486
X75.4Y-39.225
X76.418Y-49.253
X76.505Y-55.016
X76.532Y-52.984
X78.252Y-69.215
X78.727Y-47.615
X78.981Y-54.989
X79.416Y-42.52
X79.416Y-43.363
X79.416Y-44.153
X79.416Y-44.966
X80.195Y-47.638
X81.349Y-38.524
X81.6Y-49.211
X81.769Y-40.446
X82.454Y-48.852
X83.511Y-57.421
X83.741Y-55.0
X84.348Y-33.939
X84.374Y-40.165
X84.533Y-49.894
X85.07Y-63.581
X85.89Y-51.94
X86.215Y-45.09
X86.906Y-38.933
X86.921Y-61.996
X87.767Y-46.622
X87.782Y-54.237
X87.958Y-49.207
X87.978Y-56.19
X88.481Y-55.128
X88.908Y-83.5
X88.948Y-38.689
X89.103Y-55.948
X89.154Y-61.913
X89.649Y-52.857
X89.896Y-80.703
X90.597Y-61.018
X90.668Y-64.112
X91.447Y-61.084
X91.656Y-46.69
X91.951Y-44.968
X91.978Y-40.277
X92.591Y-54.173
X92.778Y-61.177
X93.18Y-34.966
X93.315Y-62.926
X93.513Y-61.965
X93.68Y-61.129
X94.149Y-62.549
X94.579Y-37.15
X95.268Y-70.505
X95.303Y-61.097
X96.277Y-54.279
X96.408Y-59.762
X96.545Y-34.15
X96.733Y-74.539
X96.734Y-80.625
X97.152Y-65.799
X98.93Y-58.143
X99.521Y-51.642
X99.548Y-54.994
X99.825Y-34.15
X100.105Y-51.058
X100.124Y-57.993
X102.608Y-53.68
X103.85Y-53.683
X103.866Y-51.349
X105.138Y-53.757
X105.611Y-46.203
X106.451Y-53.744
X107.038Y-58.616
X107.048Y-57.721
X107.091Y-46.291
X108.184Y-74.525
X108.184Y-80.625
X108.816Y-47.516
X110.175Y-53.673
X110.853Y-47.503
X111.211Y-65.415
X111.224Y-66.398
X111.29Y-67.417
X111.57Y-68.514
X112.001Y-60.455
X112.329Y-44.092
X112.797Y-58.634
X112.964Y-63.165
X113.645Y-58.938
X113.68Y-61.138
X113.922Y-66.413
X113.929Y-68.504
X113.944Y-67.399
X113.949Y-65.435
X114.328Y-53.52
X114.381Y-42.128
X114.461Y-43.963
X114.75Y-72.238
X115.574Y-42.124
X115.715Y-56.49
X115.811Y-51.656
X116.441Y-55.575
X116.74Y-73.998
X116.855Y-72.989
X117.0Y-63.563
X117.231Y-48.501
X117.546Y-53.556
X117.699Y-58.623
X117.744Y-52.291
X117.866Y-56.086
X118.648Y-71.199
X120.5Y-73.508
X120.859Y-83.758
X120.886Y-58.626
X121.021Y-40.851
X121.232Y-54.839
X121.313Y-59.87
X121.641Y-49.878
X121.684Y-50.998
X121.747Y-73.508
X122.253Y-41.9
X122.334Y-64.488
X123.002Y-75.25
X123.07Y-63.523
X123.673Y-46.063
X123.838Y-66.992
X124.381Y-51.94
X124.381Y-53.21
X124.381Y-54.48
X124.381Y-55.75
X124.381Y-57.02
X124.381Y-58.29
X124.897Y-41.821
X125.547Y-69.245
X125.651Y-51.94
X125.651Y-53.21
X125.651Y-54.48
X125.651Y-55.75
X125.651Y-57.02
X125.651Y-58.29
X126.167Y-41.821
X126.921Y-51.94
X126.921Y-53.21
X126.921Y-54.48
X126.921Y-55.75
X126.921Y-57.02
X126.921Y-58.29
X127.437Y-41.821
X128.191Y-51.94
X128.191Y-53.21
X128.191Y-54.48
X128.191Y-55.75
X128.191Y-57.02
X128.191Y-58.29
X128.707Y-41.821
X129.461Y-51.94
X129.461Y-53.21
X129.461Y-54.48
X129.461Y-55.75
X129.461Y-57.02
X129.461Y-58.29
X129.977Y-41.821
X130.88Y-44.413
X130.983Y-42.433
X131.521Y-47.186
X131.532Y-52.255
X133.617Y-53.523
X133.624Y-54.877
X133.807Y-59.83
X134.602Y-45.9
X134.612Y-44.656
X134.681Y-59.903
X134.719Y-49.766
X134.729Y-40.856
T2
X130.587Y-80.0
X131.222Y-78.349
X131.349Y-81.651
X133.0Y-77.587
X133.0Y-82.413
X134.651Y-78.349
X134.651Y-81.651
X135.413Y-80.0
X90.6Y-57.0
X90.6Y-58.8
X92.4Y-57.0
X92.4Y-58.8
X94.087Y-47.75
X94.722Y-46.099
X94.849Y-49.401
X96.5Y-45.337
X96.5Y-50.163
X98.151Y-46.099
X98.151Y-49.401
X98.913Y-47.75
X125.069Y-46.564
X125.069Y-48.364
X125.069Y-50.164
X126.869Y-46.564
X126.869Y-50.164
X128.669Y-46.564
X128.669Y-48.364
X128.669Y-50.164
X57.587Y-80.0
X58.222Y-78.349
X58.349Y-81.651
X60.0Y-77.587
X60.0Y-82.413
X61.651Y-78.349
X61.651Y-81.651
X62.413Y-80.0
T3
X59.73Y-68.595
X62.27Y-68.595
X130.73Y-68.595
X133.27Y-68.595
T4
X109.08Y-63.46
X109.08Y-66.0
X109.08Y-68.54
T5
X57.671Y-42.017
X59.682Y-42.014
X108.814Y-40.801
X110.825Y-40.798
X100.94Y-40.801
X102.951Y-40.798
T7
X91.5Y-57.9
T8
X126.869Y-48.364
T9
X83.7Y-72.6
X83.7Y-79.6
T10
X101.18Y-62.35
X102.78Y-69.65
T11
X60.0Y-80.0
X133.0Y-80.0
X96.5Y-47.75
T2
G00X58.724Y-56.1
M15
G01X58.124Y-56.1
M16
G05
G00X58.724Y-63.3
M15
G01X58.124Y-63.3
M16
G05
G00X62.194Y-56.1
M15
G01X61.594Y-56.1
M16
G05
G00X62.194Y-63.3
M15
G01X61.594Y-63.3
M16
G05
T6
G00X64.8Y-42.3
M15
G01X64.8Y-45.3
M16
G05
G00X70.75Y-40.6
M15
G01X67.75Y-40.6
M16
G05
G00X70.75Y-47.1
M15
G01X67.75Y-47.1
M16
G05
T0
M30
