G04 #@! TF.GenerationSoftware,KiCad,Pcbnew,6.0.0-unknown-3514473~86~ubuntu18.04.1*
G04 #@! TF.CreationDate,2019-07-31T16:13:07+03:00*
G04 #@! TF.ProjectId,ESP32-ADF_Rev_C,45535033-322d-4414-9446-5f5265765f43,rev?*
G04 #@! TF.SameCoordinates,Original*
G04 #@! TF.FileFunction,Copper,L2,Inr*
G04 #@! TF.FilePolarity,Positive*
%FSLAX46Y46*%
G04 Gerber Fmt 4.6, Leading zero omitted, Abs format (unit mm)*
G04 Created by KiCad (PCBNEW 6.0.0-unknown-3514473~86~ubuntu18.04.1) date 2019-07-31 16:13:07*
%MOMM*%
%LPD*%
G04 APERTURE LIST*
%ADD10O,1.500000X4.500000*%
%ADD11O,4.500000X1.500000*%
%ADD12C,1.300000*%
%ADD13C,2.000000*%
%ADD14C,3.000000*%
%ADD15C,1.524000*%
%ADD16R,1.400000X1.400000*%
%ADD17C,1.400000*%
%ADD18C,1.200000*%
%ADD19C,6.300000*%
%ADD20C,1.900000*%
%ADD21C,1.600000*%
%ADD22C,0.890000*%
%ADD23O,1.800000X1.200000*%
%ADD24C,0.700000*%
%ADD25C,1.524000*%
%ADD26C,0.254000*%
%ADD27C,0.381000*%
G04 APERTURE END LIST*
D10*
X64800000Y-43800000D03*
D11*
X69250000Y-40600000D03*
X69250000Y-47100000D03*
D12*
X128668680Y-48364200D03*
X125068680Y-48364200D03*
X126868680Y-50164200D03*
X126868680Y-46564200D03*
X128668680Y-46564200D03*
X125068680Y-46564200D03*
X128668680Y-50164200D03*
D13*
X126868680Y-48364200D03*
D12*
X125068680Y-50164200D03*
D14*
X101180000Y-62350000D03*
X102780000Y-69650000D03*
D15*
X109080000Y-63460000D03*
X109080000Y-66000000D03*
X109080000Y-68540000D03*
X133270000Y-68595000D03*
X130730000Y-68595000D03*
X62270000Y-68595000D03*
X59730000Y-68595000D03*
D16*
X59682380Y-42014140D03*
D17*
X57670700Y-42016680D03*
D16*
X110825380Y-40798140D03*
D17*
X108813700Y-40800680D03*
D16*
X102951380Y-40798140D03*
D17*
X100939700Y-40800680D03*
D18*
X96500000Y-45337000D03*
X96500000Y-50163000D03*
X94849000Y-49401000D03*
X94722000Y-46099000D03*
X98151000Y-49401000D03*
X98151000Y-46099000D03*
X94087000Y-47750000D03*
X98913000Y-47750000D03*
D19*
X96500000Y-47750000D03*
D20*
X83700000Y-72600000D03*
X83700000Y-79600000D03*
D18*
X60000000Y-77587000D03*
X60000000Y-82413000D03*
X58349000Y-81651000D03*
X58222000Y-78349000D03*
X61651000Y-81651000D03*
X61651000Y-78349000D03*
X57587000Y-80000000D03*
X62413000Y-80000000D03*
D19*
X60000000Y-80000000D03*
D18*
X133000000Y-77587000D03*
X133000000Y-82413000D03*
X131349000Y-81651000D03*
X131222000Y-78349000D03*
X134651000Y-81651000D03*
X134651000Y-78349000D03*
X130587000Y-80000000D03*
X135413000Y-80000000D03*
D19*
X133000000Y-80000000D03*
D21*
X91500000Y-57900000D03*
D22*
X92400000Y-58800000D03*
X92400000Y-57000000D03*
X90600000Y-58800000D03*
X90600000Y-57000000D03*
D23*
X58424000Y-56100000D03*
X61894000Y-56100000D03*
X61894000Y-63300000D03*
X58424000Y-63300000D03*
D24*
X86450000Y-78625000D03*
X87975000Y-78625000D03*
X87200000Y-78625000D03*
X80184048Y-47626328D03*
X84500000Y-45175000D03*
X77250000Y-34950000D03*
X97675000Y-70950000D03*
X84026000Y-50401000D03*
X87259928Y-39493116D03*
X84750000Y-38650000D03*
X125547710Y-64402290D03*
X123750000Y-68100000D03*
X120950000Y-49050000D03*
X117650000Y-43650000D03*
X89150000Y-39900000D03*
X90050000Y-76700000D03*
X96407721Y-59761639D03*
X113680240Y-61137800D03*
X89649300Y-52857400D03*
X68750000Y-70400000D03*
X134800000Y-47250000D03*
X79200000Y-74020600D03*
X133000000Y-49950000D03*
X133000000Y-52050000D03*
X134565800Y-52284200D03*
X132600000Y-56100000D03*
X110853220Y-47535821D03*
X108816140Y-47535821D03*
X117650000Y-62930520D03*
X132600000Y-59950000D03*
X115588809Y-56557794D03*
X114500000Y-58900000D03*
X117900000Y-59900000D03*
X95424700Y-36313776D03*
X117900000Y-57350000D03*
X134600000Y-49750000D03*
X134725800Y-42124200D03*
X134900000Y-58650000D03*
X78450000Y-63100000D03*
X82500000Y-69350000D03*
X79900000Y-69800000D03*
X76900000Y-76350000D03*
X74950000Y-78450000D03*
X72200000Y-78450000D03*
X74350000Y-76350000D03*
X84350000Y-40150000D03*
X73150000Y-79700000D03*
X76650000Y-71950000D03*
X81729410Y-49211000D03*
X70950000Y-80650000D03*
X69300000Y-69150000D03*
X106400000Y-56743601D03*
X129461260Y-58290460D03*
X128191260Y-58290460D03*
X126921260Y-58290460D03*
X125651260Y-58290460D03*
X124381260Y-58290460D03*
X129461260Y-57020460D03*
X128191260Y-57020460D03*
X126921260Y-57020460D03*
X125651260Y-57020460D03*
X124381260Y-57020460D03*
X129461260Y-55750460D03*
X128191260Y-55750460D03*
X126921260Y-55750460D03*
X125651260Y-55750460D03*
X124381260Y-55750460D03*
X129461260Y-54480460D03*
X128191260Y-54480460D03*
X126921260Y-54480460D03*
X125651260Y-54480460D03*
X124381260Y-54480460D03*
X129461260Y-53210460D03*
X128191260Y-53210460D03*
X126921260Y-53210460D03*
X125651260Y-53210460D03*
X124381260Y-53210460D03*
X129461260Y-51940460D03*
X128191260Y-51940460D03*
X126921260Y-51940460D03*
X125651260Y-51940460D03*
X128706880Y-41821100D03*
X127436880Y-41821100D03*
X129976880Y-41821100D03*
X126166880Y-41821100D03*
X124896880Y-41821100D03*
X124381260Y-51940460D03*
X99824540Y-34150300D03*
X96545400Y-34150300D03*
X91950540Y-44968160D03*
X91978480Y-40276780D03*
X75399900Y-35486340D03*
X112796693Y-58633733D03*
X117000020Y-63563500D03*
X120885732Y-58625740D03*
X112328960Y-44091860D03*
X107091480Y-46291474D03*
X105610646Y-46202600D03*
X98930460Y-58143140D03*
X93512906Y-61964796D03*
X114327940Y-53520340D03*
X96277000Y-54278960D03*
X110175040Y-53672740D03*
X103850440Y-53682900D03*
X103865680Y-51348640D03*
X90667840Y-64112140D03*
X134729220Y-40855900D03*
X121020840Y-40850820D03*
X70594220Y-53967380D03*
X69306440Y-55595520D03*
X76418440Y-49253140D03*
X78727300Y-47614840D03*
X78980760Y-54989000D03*
X76505200Y-55016000D03*
X83741000Y-55000000D03*
X83511000Y-57420900D03*
X85890100Y-51940460D03*
X63235840Y-61087000D03*
X67183000Y-60261500D03*
X72524620Y-66017140D03*
X120859320Y-83758000D03*
X120500140Y-73507600D03*
X118648480Y-71198740D03*
X116855240Y-72989440D03*
X123070110Y-63522860D03*
X123002080Y-75250000D03*
X122334020Y-64488060D03*
X116739900Y-73997820D03*
X60681880Y-45800000D03*
X63251080Y-52638960D03*
X99521010Y-51642010D03*
X100105210Y-51057810D03*
X63663830Y-48898810D03*
X84533401Y-49893599D03*
X63647500Y-49747500D03*
X76532340Y-52984000D03*
X93179900Y-34965640D03*
X75400000Y-39225120D03*
X82454154Y-48851820D03*
X79415640Y-44152820D03*
X79415640Y-43362880D03*
X79415640Y-42519600D03*
X79415640Y-44965620D03*
X115573934Y-42124200D03*
X114381280Y-42128440D03*
X70575000Y-68716060D03*
X89154000Y-61913020D03*
X95267780Y-70505320D03*
X67106800Y-62039500D03*
X121747280Y-73507600D03*
X114749580Y-72237600D03*
X87900000Y-55128160D03*
X86921340Y-61996320D03*
X87782400Y-54236620D03*
X85069680Y-63581280D03*
X90596720Y-61018420D03*
X112001300Y-60454540D03*
X112963960Y-63164720D03*
X91446591Y-61084051D03*
X87978253Y-56189971D03*
X89103200Y-55947598D03*
X115811300Y-51655980D03*
X68287900Y-58679080D03*
X105138220Y-53756560D03*
X102608380Y-53680360D03*
X123672600Y-46062900D03*
X125547120Y-69245480D03*
X93680263Y-61128975D03*
X86215220Y-45090080D03*
X97525000Y-63450000D03*
X87767160Y-46621700D03*
X92778060Y-61176978D03*
X121684300Y-50998120D03*
X113921540Y-66413380D03*
X134602220Y-45900340D03*
X64564260Y-65722500D03*
X121640600Y-49877980D03*
X113949480Y-65435480D03*
X113929160Y-68503800D03*
X121231660Y-54838600D03*
X113944400Y-67398900D03*
X63334900Y-64693800D03*
X134612380Y-44655740D03*
X92590620Y-54173120D03*
X99547680Y-54993599D03*
X100124260Y-57992759D03*
X117744240Y-52290980D03*
X107048300Y-57721500D03*
X113644680Y-58938160D03*
X117546120Y-53555900D03*
X107038140Y-58615580D03*
X117866160Y-56085740D03*
X81348580Y-38524180D03*
X97152460Y-65798700D03*
X111513498Y-66413500D03*
X96734025Y-80625000D03*
X111513500Y-65413500D03*
X96733360Y-74538840D03*
X111450006Y-68500000D03*
X108184025Y-80625000D03*
X111486500Y-67413500D03*
X108184025Y-74525000D03*
X88948260Y-38689280D03*
X81768575Y-40446075D03*
X87957660Y-49207420D03*
X69850000Y-81250000D03*
X63150000Y-83500000D03*
X72050000Y-81250000D03*
X72200000Y-71400000D03*
D25*
X68299000Y-43825000D02*
X68274000Y-43800000D01*
X68274000Y-43800000D02*
X64800000Y-43800000D01*
X69250000Y-40600000D02*
X69250000Y-42874000D01*
X69250000Y-42874000D02*
X68299000Y-43825000D01*
X56983320Y-42016680D02*
X57670700Y-42016680D01*
D26*
X82056410Y-47893091D02*
X81075000Y-48874501D01*
X82056410Y-41418590D02*
X82056410Y-47893091D01*
X83375000Y-40800000D02*
X82675000Y-40800000D01*
X84350000Y-40150000D02*
X84025000Y-40150000D01*
X81075000Y-48874501D02*
X81075000Y-71175000D01*
X82675000Y-40800000D02*
X82056410Y-41418590D01*
X73150000Y-79100000D02*
X73150000Y-79205026D01*
X84025000Y-40150000D02*
X83375000Y-40800000D01*
X81075000Y-71175000D02*
X73150000Y-79100000D01*
X73150000Y-79205026D02*
X73150000Y-79700000D01*
X80675000Y-38305026D02*
X81105025Y-37875001D01*
X80675000Y-41050000D02*
X80675000Y-38305026D01*
X81099999Y-40900249D02*
X81606411Y-41406660D01*
X81200000Y-41575000D02*
X80675000Y-41050000D01*
X81606411Y-41406660D02*
X81606411Y-47768340D01*
X81606411Y-47768340D02*
X80668589Y-48706161D01*
X81099999Y-39267735D02*
X81099999Y-40900249D01*
X81348580Y-38524180D02*
X81348580Y-39019154D01*
X80250000Y-68350000D02*
X80250000Y-48550000D01*
X80668589Y-70931411D02*
X71299999Y-80300001D01*
X71299999Y-80300001D02*
X70950000Y-80650000D01*
X76650000Y-71950000D02*
X80250000Y-68350000D01*
X81105025Y-37875001D02*
X83975001Y-37875001D01*
X81200000Y-47600000D02*
X81200000Y-41575000D01*
X80250000Y-48550000D02*
X81200000Y-47600000D01*
X80668589Y-48706161D02*
X80668589Y-70931411D01*
X81348580Y-39019154D02*
X81099999Y-39267735D01*
X83975001Y-37875001D02*
X84400001Y-38300001D01*
X84400001Y-38300001D02*
X84750000Y-38650000D01*
D27*
X125547710Y-64402290D02*
X125547710Y-69244890D01*
D26*
X125547710Y-69244890D02*
X125547120Y-69245480D01*
G36*
X55634000Y-77234871D02*
G01*
X57415890Y-77234871D01*
X60000000Y-79818981D01*
X62584110Y-77234871D01*
X62384616Y-77055244D01*
X62063743Y-76822116D01*
X61720257Y-76623804D01*
X61357925Y-76462483D01*
X60980715Y-76339920D01*
X60592761Y-76257458D01*
X60198311Y-76216000D01*
X59801689Y-76216000D01*
X59407239Y-76257458D01*
X59019285Y-76339920D01*
X58642075Y-76462483D01*
X58279743Y-76623804D01*
X57936257Y-76822116D01*
X57615384Y-77055244D01*
X57415890Y-77234871D01*
X55634000Y-77234871D01*
X55634000Y-70270454D01*
X67766001Y-70270454D01*
X67766001Y-70529546D01*
X67833059Y-70779809D01*
X67962605Y-71004190D01*
X68145810Y-71187395D01*
X68370191Y-71316941D01*
X68620454Y-71383999D01*
X68879546Y-71383999D01*
X69129809Y-71316941D01*
X69354190Y-71187395D01*
X69537395Y-71004190D01*
X69666941Y-70779809D01*
X69733999Y-70529546D01*
X69733999Y-70270454D01*
X69679491Y-70067026D01*
X69679809Y-70066941D01*
X69904190Y-69937395D01*
X70087395Y-69754190D01*
X70166820Y-69616621D01*
X70195191Y-69633001D01*
X70445454Y-69700059D01*
X70704546Y-69700059D01*
X70954809Y-69633001D01*
X71179190Y-69503455D01*
X71362395Y-69320250D01*
X71491941Y-69095869D01*
X71558999Y-68845606D01*
X71558999Y-68586514D01*
X71491941Y-68336251D01*
X71362395Y-68111870D01*
X71179190Y-67928665D01*
X70954809Y-67799119D01*
X70704546Y-67732061D01*
X70445454Y-67732061D01*
X70195191Y-67799119D01*
X69970810Y-67928665D01*
X69787605Y-68111870D01*
X69708180Y-68249439D01*
X69679809Y-68233059D01*
X69429546Y-68166001D01*
X69170454Y-68166001D01*
X68920191Y-68233059D01*
X68695810Y-68362605D01*
X68512605Y-68545810D01*
X68383059Y-68770191D01*
X68316001Y-69020454D01*
X68316001Y-69279546D01*
X68370509Y-69482974D01*
X68370191Y-69483059D01*
X68145810Y-69612605D01*
X67962605Y-69795810D01*
X67833059Y-70020191D01*
X67766001Y-70270454D01*
X55634000Y-70270454D01*
X55634000Y-69671403D01*
X58834616Y-69671403D01*
X59022837Y-69805164D01*
X59248315Y-69911266D01*
X59489019Y-69975762D01*
X59737339Y-69996615D01*
X59985428Y-69973164D01*
X60225442Y-69906150D01*
X60449796Y-69797693D01*
X60624643Y-69670662D01*
X59730000Y-68776019D01*
X58834616Y-69671403D01*
X55634000Y-69671403D01*
X55634000Y-68558310D01*
X58328847Y-68558310D01*
X58344494Y-68807013D01*
X58403934Y-69049014D01*
X58505291Y-69276664D01*
X58651773Y-69492208D01*
X59548981Y-68595000D01*
X59911019Y-68595000D01*
X60809309Y-69493290D01*
X60961780Y-69263802D01*
X61000119Y-69175206D01*
X61045291Y-69276664D01*
X61185360Y-69482768D01*
X61359711Y-69660811D01*
X61562837Y-69805164D01*
X61788315Y-69911266D01*
X62029019Y-69975762D01*
X62277339Y-69996615D01*
X62525428Y-69973164D01*
X62765442Y-69906150D01*
X62989796Y-69797693D01*
X63191399Y-69651221D01*
X63363878Y-69471362D01*
X63501780Y-69263802D01*
X63600747Y-69035102D01*
X63658031Y-68790872D01*
X63666380Y-68472041D01*
X63621956Y-68225147D01*
X63535094Y-67991581D01*
X63408244Y-67777089D01*
X63245414Y-67588449D01*
X63051754Y-67431627D01*
X62833384Y-67311576D01*
X62597205Y-67232093D01*
X62350684Y-67195690D01*
X62101612Y-67203517D01*
X61857863Y-67255328D01*
X61627141Y-67349484D01*
X61416739Y-67483009D01*
X61233308Y-67651683D01*
X61082645Y-67850173D01*
X61001634Y-68009167D01*
X60995094Y-67991581D01*
X60816472Y-67689547D01*
X59911019Y-68595000D01*
X59548981Y-68595000D01*
X58655487Y-67701506D01*
X58542645Y-67850175D01*
X58429513Y-68072208D01*
X58357489Y-68310766D01*
X58328847Y-68558310D01*
X55634000Y-68558310D01*
X55634000Y-67513179D01*
X58829198Y-67513179D01*
X59730000Y-68413981D01*
X60641194Y-67502786D01*
X60293384Y-67311576D01*
X60057205Y-67232093D01*
X59810684Y-67195690D01*
X59561612Y-67203517D01*
X59317863Y-67255328D01*
X59087142Y-67349484D01*
X58829198Y-67513179D01*
X55634000Y-67513179D01*
X55634000Y-64839305D01*
X56843726Y-64032822D01*
X56915127Y-63987772D01*
X56950634Y-63947567D01*
X56990586Y-63911795D01*
X57010438Y-63879851D01*
X57024719Y-63863681D01*
X57049385Y-63917931D01*
X57185620Y-64109988D01*
X57355715Y-64272818D01*
X57553532Y-64400546D01*
X57774820Y-64489728D01*
X58080159Y-64534000D01*
X58296000Y-64534000D01*
X58296000Y-63428000D01*
X58552000Y-63428000D01*
X58552000Y-64534000D01*
X58782811Y-64534000D01*
X58958405Y-64517247D01*
X59184352Y-64450961D01*
X59393688Y-64343146D01*
X59578860Y-64197692D01*
X59733186Y-64019846D01*
X59851099Y-63816027D01*
X59928344Y-63593585D01*
X59952346Y-63428000D01*
X60355511Y-63428000D01*
X60421925Y-63703578D01*
X60519385Y-63917931D01*
X60655620Y-64109988D01*
X60825715Y-64272818D01*
X61023532Y-64400546D01*
X61244820Y-64489728D01*
X61550159Y-64534000D01*
X61766000Y-64534000D01*
X61766000Y-63428000D01*
X62022000Y-63428000D01*
X62022000Y-64534000D01*
X62252811Y-64534000D01*
X62361794Y-64523602D01*
X62350901Y-64564254D01*
X62350901Y-64823346D01*
X62417959Y-65073609D01*
X62547505Y-65297990D01*
X62730710Y-65481195D01*
X62955091Y-65610741D01*
X63205354Y-65677799D01*
X63464446Y-65677799D01*
X63580261Y-65646766D01*
X63580261Y-65852046D01*
X63647319Y-66102309D01*
X63776865Y-66326690D01*
X63960070Y-66509895D01*
X64184451Y-66639441D01*
X64434714Y-66706499D01*
X64693806Y-66706499D01*
X64944069Y-66639441D01*
X65168450Y-66509895D01*
X65351655Y-66326690D01*
X65481201Y-66102309D01*
X65548259Y-65852046D01*
X65548259Y-65592954D01*
X65481201Y-65342691D01*
X65351655Y-65118310D01*
X65168450Y-64935105D01*
X64944069Y-64805559D01*
X64693806Y-64738501D01*
X64434714Y-64738501D01*
X64318899Y-64769534D01*
X64318899Y-64564254D01*
X64251841Y-64313991D01*
X64122295Y-64089610D01*
X63939090Y-63906405D01*
X63714709Y-63776859D01*
X63464446Y-63709801D01*
X63357987Y-63709801D01*
X63398344Y-63593585D01*
X63422346Y-63428000D01*
X62022000Y-63428000D01*
X61766000Y-63428000D01*
X60355511Y-63428000D01*
X59952346Y-63428000D01*
X58552000Y-63428000D01*
X58296000Y-63428000D01*
X58296000Y-62066000D01*
X58552000Y-62066000D01*
X58552000Y-63172000D01*
X59962489Y-63172000D01*
X59896075Y-62896422D01*
X59798615Y-62682069D01*
X59662380Y-62490012D01*
X59492285Y-62327182D01*
X59294468Y-62199454D01*
X59073180Y-62110272D01*
X58767841Y-62066000D01*
X58552000Y-62066000D01*
X58296000Y-62066000D01*
X58065189Y-62066000D01*
X57889595Y-62082753D01*
X57663648Y-62149039D01*
X57454312Y-62256854D01*
X57269140Y-62402308D01*
X57134000Y-62558044D01*
X57134000Y-61791719D01*
X59638584Y-61791719D01*
X59682150Y-61996679D01*
X59770041Y-62186895D01*
X59897891Y-62352911D01*
X60059344Y-62486477D01*
X60246377Y-62580953D01*
X60449692Y-62631645D01*
X60553764Y-62633825D01*
X60466901Y-62783973D01*
X60389656Y-63006415D01*
X60365654Y-63172000D01*
X61766000Y-63172000D01*
X61766000Y-62066000D01*
X62022000Y-62066000D01*
X62022000Y-63172000D01*
X63432489Y-63172000D01*
X63366075Y-62896422D01*
X63268615Y-62682069D01*
X63132380Y-62490012D01*
X62962285Y-62327182D01*
X62764468Y-62199454D01*
X62543180Y-62110272D01*
X62237841Y-62066000D01*
X62022000Y-62066000D01*
X61766000Y-62066000D01*
X61535189Y-62066000D01*
X61430969Y-62075943D01*
X61452645Y-62033766D01*
X61484434Y-61909954D01*
X66122801Y-61909954D01*
X66122801Y-62169046D01*
X66189859Y-62419309D01*
X66319405Y-62643690D01*
X66502610Y-62826895D01*
X66726991Y-62956441D01*
X66977254Y-63023499D01*
X67236346Y-63023499D01*
X67486609Y-62956441D01*
X67710990Y-62826895D01*
X67894195Y-62643690D01*
X68023741Y-62419309D01*
X68090799Y-62169046D01*
X68090799Y-61909954D01*
X68023741Y-61659691D01*
X67894195Y-61435310D01*
X67710990Y-61252105D01*
X67486609Y-61122559D01*
X67236346Y-61055501D01*
X66977254Y-61055501D01*
X66726991Y-61122559D01*
X66502610Y-61252105D01*
X66319405Y-61435310D01*
X66189859Y-61659691D01*
X66122801Y-61909954D01*
X61484434Y-61909954D01*
X61504977Y-61829945D01*
X61508243Y-61596099D01*
X61461622Y-61390898D01*
X61371082Y-61201927D01*
X61240926Y-61037712D01*
X61077625Y-60906415D01*
X60889292Y-60814558D01*
X60685289Y-60766710D01*
X60475754Y-60765246D01*
X60271102Y-60810242D01*
X60081505Y-60899460D01*
X59916385Y-61028466D01*
X59783949Y-61190848D01*
X59690781Y-61378534D01*
X59641510Y-61582199D01*
X59638584Y-61791719D01*
X57134000Y-61791719D01*
X57134000Y-57791719D01*
X59638584Y-57791719D01*
X59682150Y-57996679D01*
X59770041Y-58186895D01*
X59897891Y-58352911D01*
X60059344Y-58486477D01*
X60246377Y-58580953D01*
X60449692Y-58631645D01*
X60659185Y-58636034D01*
X60864445Y-58593900D01*
X60962250Y-58549534D01*
X67303901Y-58549534D01*
X67303901Y-58808626D01*
X67370959Y-59058889D01*
X67500505Y-59283270D01*
X67683710Y-59466475D01*
X67908091Y-59596021D01*
X68158354Y-59663079D01*
X68417446Y-59663079D01*
X68667709Y-59596021D01*
X68892090Y-59466475D01*
X69075295Y-59283270D01*
X69204841Y-59058889D01*
X69271899Y-58808626D01*
X69271899Y-58549534D01*
X69204841Y-58299271D01*
X69075295Y-58074890D01*
X68892090Y-57891685D01*
X68667709Y-57762139D01*
X68417446Y-57695081D01*
X68158354Y-57695081D01*
X67908091Y-57762139D01*
X67683710Y-57891685D01*
X67500505Y-58074890D01*
X67370959Y-58299271D01*
X67303901Y-58549534D01*
X60962250Y-58549534D01*
X61055270Y-58507339D01*
X61222175Y-58380651D01*
X61356864Y-58220134D01*
X61452645Y-58033766D01*
X61504977Y-57829945D01*
X61508243Y-57596099D01*
X61461622Y-57390898D01*
X61425716Y-57315957D01*
X61550159Y-57334000D01*
X61766000Y-57334000D01*
X61766000Y-56228000D01*
X62022000Y-56228000D01*
X62022000Y-57334000D01*
X62252811Y-57334000D01*
X62428405Y-57317247D01*
X62654352Y-57250961D01*
X62863688Y-57143146D01*
X63048860Y-56997692D01*
X63203186Y-56819846D01*
X63321099Y-56616027D01*
X63398344Y-56393585D01*
X63422346Y-56228000D01*
X62022000Y-56228000D01*
X61766000Y-56228000D01*
X60355511Y-56228000D01*
X60421925Y-56503578D01*
X60519385Y-56717931D01*
X60553332Y-56765788D01*
X60475754Y-56765246D01*
X60271102Y-56810242D01*
X60081505Y-56899460D01*
X59916385Y-57028466D01*
X59783949Y-57190848D01*
X59690781Y-57378534D01*
X59641510Y-57582199D01*
X59638584Y-57791719D01*
X57134000Y-57791719D01*
X57134000Y-56837217D01*
X57185620Y-56909988D01*
X57355715Y-57072818D01*
X57553532Y-57200546D01*
X57774820Y-57289728D01*
X58080159Y-57334000D01*
X58296000Y-57334000D01*
X58296000Y-56228000D01*
X58552000Y-56228000D01*
X58552000Y-57334000D01*
X58782811Y-57334000D01*
X58958405Y-57317247D01*
X59184352Y-57250961D01*
X59393688Y-57143146D01*
X59578860Y-56997692D01*
X59733186Y-56819846D01*
X59851099Y-56616027D01*
X59928344Y-56393585D01*
X59952346Y-56228000D01*
X58552000Y-56228000D01*
X58296000Y-56228000D01*
X58296000Y-54866000D01*
X58552000Y-54866000D01*
X58552000Y-55972000D01*
X59962489Y-55972000D01*
X60365654Y-55972000D01*
X61766000Y-55972000D01*
X61766000Y-54866000D01*
X62022000Y-54866000D01*
X62022000Y-55972000D01*
X63432489Y-55972000D01*
X63366075Y-55696422D01*
X63268615Y-55482069D01*
X63132380Y-55290012D01*
X62962285Y-55127182D01*
X62764468Y-54999454D01*
X62543180Y-54910272D01*
X62237841Y-54866000D01*
X62022000Y-54866000D01*
X61766000Y-54866000D01*
X61535189Y-54866000D01*
X61359595Y-54882753D01*
X61133648Y-54949039D01*
X60924312Y-55056854D01*
X60739140Y-55202308D01*
X60584814Y-55380154D01*
X60466901Y-55583973D01*
X60389656Y-55806415D01*
X60365654Y-55972000D01*
X59962489Y-55972000D01*
X59896075Y-55696422D01*
X59798615Y-55482069D01*
X59662380Y-55290012D01*
X59492285Y-55127182D01*
X59294468Y-54999454D01*
X59073180Y-54910272D01*
X58767841Y-54866000D01*
X58552000Y-54866000D01*
X58296000Y-54866000D01*
X58065189Y-54866000D01*
X57889595Y-54882753D01*
X57663648Y-54949039D01*
X57454312Y-55056854D01*
X57269140Y-55202308D01*
X57114814Y-55380154D01*
X56996901Y-55583973D01*
X56993917Y-55592567D01*
X56957206Y-55559292D01*
X56921054Y-55517336D01*
X56845792Y-55468555D01*
X55634000Y-54660694D01*
X55634000Y-52509414D01*
X62267081Y-52509414D01*
X62267081Y-52768506D01*
X62334139Y-53018769D01*
X62463685Y-53243150D01*
X62646890Y-53426355D01*
X62871271Y-53555901D01*
X63121534Y-53622959D01*
X63380626Y-53622959D01*
X63630889Y-53555901D01*
X63855270Y-53426355D01*
X64038475Y-53243150D01*
X64168021Y-53018769D01*
X64212049Y-52854454D01*
X75548341Y-52854454D01*
X75548341Y-53113546D01*
X75615399Y-53363809D01*
X75744945Y-53588190D01*
X75928150Y-53771395D01*
X76152531Y-53900941D01*
X76402794Y-53967999D01*
X76661886Y-53967999D01*
X76912149Y-53900941D01*
X77136530Y-53771395D01*
X77319735Y-53588190D01*
X77449281Y-53363809D01*
X77516339Y-53113546D01*
X77516339Y-52854454D01*
X77449281Y-52604191D01*
X77319735Y-52379810D01*
X77136530Y-52196605D01*
X76912149Y-52067059D01*
X76661886Y-52000001D01*
X76402794Y-52000001D01*
X76152531Y-52067059D01*
X75928150Y-52196605D01*
X75744945Y-52379810D01*
X75615399Y-52604191D01*
X75548341Y-52854454D01*
X64212049Y-52854454D01*
X64235079Y-52768506D01*
X64235079Y-52509414D01*
X64168021Y-52259151D01*
X64038475Y-52034770D01*
X63855270Y-51851565D01*
X63630889Y-51722019D01*
X63380626Y-51654961D01*
X63121534Y-51654961D01*
X62871271Y-51722019D01*
X62646890Y-51851565D01*
X62463685Y-52034770D01*
X62334139Y-52259151D01*
X62267081Y-52509414D01*
X55634000Y-52509414D01*
X55634000Y-49617954D01*
X62663501Y-49617954D01*
X62663501Y-49877046D01*
X62730559Y-50127309D01*
X62860105Y-50351690D01*
X63043310Y-50534895D01*
X63267691Y-50664441D01*
X63517954Y-50731499D01*
X63777046Y-50731499D01*
X64027309Y-50664441D01*
X64251690Y-50534895D01*
X64434895Y-50351690D01*
X64564441Y-50127309D01*
X64631499Y-49877046D01*
X64631499Y-49617954D01*
X64564441Y-49367691D01*
X64546893Y-49337297D01*
X64580771Y-49278619D01*
X64647829Y-49028356D01*
X64647829Y-48769264D01*
X64580771Y-48519001D01*
X64451225Y-48294620D01*
X64268020Y-48111415D01*
X64043639Y-47981869D01*
X63793376Y-47914811D01*
X63534284Y-47914811D01*
X63284021Y-47981869D01*
X63059640Y-48111415D01*
X62876435Y-48294620D01*
X62746889Y-48519001D01*
X62679831Y-48769264D01*
X62679831Y-49028356D01*
X62746889Y-49278619D01*
X62764437Y-49309013D01*
X62730559Y-49367691D01*
X62663501Y-49617954D01*
X55634000Y-49617954D01*
X55634000Y-47143647D01*
X66361101Y-47143647D01*
X66390781Y-47388911D01*
X66463425Y-47625042D01*
X66576735Y-47844577D01*
X66727131Y-48040576D01*
X66909859Y-48206846D01*
X67119142Y-48338129D01*
X67351769Y-48431645D01*
X67706318Y-48484000D01*
X70812577Y-48484000D01*
X70996074Y-48467624D01*
X71234371Y-48402433D01*
X71457356Y-48296073D01*
X71657983Y-48151909D01*
X71829911Y-47974495D01*
X71967703Y-47769437D01*
X72067004Y-47543221D01*
X72124678Y-47302995D01*
X72138899Y-47056353D01*
X72109219Y-46811089D01*
X72036575Y-46574958D01*
X71923265Y-46355423D01*
X71772869Y-46159424D01*
X71590141Y-45993154D01*
X71380858Y-45861871D01*
X71148231Y-45768355D01*
X70793682Y-45716000D01*
X67687423Y-45716000D01*
X67503926Y-45732376D01*
X67265629Y-45797567D01*
X67042644Y-45903927D01*
X66842017Y-46048091D01*
X66670089Y-46225505D01*
X66532297Y-46430563D01*
X66432996Y-46656779D01*
X66375322Y-46897005D01*
X66361101Y-47143647D01*
X55634000Y-47143647D01*
X55634000Y-45670454D01*
X59697881Y-45670454D01*
X59697881Y-45929546D01*
X59764939Y-46179809D01*
X59894485Y-46404190D01*
X60077690Y-46587395D01*
X60302071Y-46716941D01*
X60552334Y-46783999D01*
X60811426Y-46783999D01*
X61061689Y-46716941D01*
X61286070Y-46587395D01*
X61469275Y-46404190D01*
X61598821Y-46179809D01*
X61665879Y-45929546D01*
X61665879Y-45670454D01*
X61598821Y-45420191D01*
X61469275Y-45195810D01*
X61286070Y-45012605D01*
X61061689Y-44883059D01*
X60811426Y-44816001D01*
X60552334Y-44816001D01*
X60302071Y-44883059D01*
X60077690Y-45012605D01*
X59894485Y-45195810D01*
X59764939Y-45420191D01*
X59697881Y-45670454D01*
X55634000Y-45670454D01*
X55634000Y-43928000D01*
X63416000Y-43928000D01*
X63416000Y-45362576D01*
X63432376Y-45546073D01*
X63497567Y-45784370D01*
X63603927Y-46007355D01*
X63748091Y-46207982D01*
X63925505Y-46379910D01*
X64130563Y-46517703D01*
X64356779Y-46617004D01*
X64672000Y-46692682D01*
X64672000Y-43928000D01*
X64928000Y-43928000D01*
X64928000Y-46678695D01*
X65088912Y-46659219D01*
X65325041Y-46586575D01*
X65544575Y-46473265D01*
X65740576Y-46322869D01*
X65906846Y-46140141D01*
X66038129Y-45930858D01*
X66131645Y-45698231D01*
X66184000Y-45343682D01*
X66184000Y-43928000D01*
X64928000Y-43928000D01*
X64672000Y-43928000D01*
X63416000Y-43928000D01*
X55634000Y-43928000D01*
X55634000Y-41981619D01*
X56331777Y-41981619D01*
X56346729Y-42219276D01*
X56403529Y-42450530D01*
X56500384Y-42668069D01*
X56637109Y-42869252D01*
X57489681Y-42016680D01*
X56640446Y-41167445D01*
X56536080Y-41304932D01*
X56427972Y-41517107D01*
X56359145Y-41745070D01*
X56331777Y-41981619D01*
X55634000Y-41981619D01*
X55634000Y-40979785D01*
X56814824Y-40979785D01*
X57851720Y-42016680D01*
X56819784Y-43048615D01*
X56994944Y-43173097D01*
X57210408Y-43274487D01*
X57440421Y-43336118D01*
X57677713Y-43356044D01*
X57914783Y-43333635D01*
X58144138Y-43269597D01*
X58358528Y-43165957D01*
X58467460Y-43086813D01*
X58568565Y-43207305D01*
X58762194Y-43319096D01*
X58971356Y-43355977D01*
X60398968Y-43355977D01*
X60699892Y-43275345D01*
X60875545Y-43127955D01*
X60987336Y-42934326D01*
X61024217Y-42725164D01*
X61024217Y-42256318D01*
X63416001Y-42256318D01*
X63416001Y-43672000D01*
X64672000Y-43672000D01*
X64672000Y-40921305D01*
X64511088Y-40940781D01*
X64274959Y-41013425D01*
X64055424Y-41126735D01*
X63859425Y-41277131D01*
X63693155Y-41459859D01*
X63561872Y-41669142D01*
X63468356Y-41901769D01*
X63416001Y-42256318D01*
X61024217Y-42256318D01*
X61024217Y-41297552D01*
X60943585Y-40996629D01*
X60868645Y-40907318D01*
X64928000Y-40907318D01*
X64928000Y-43672000D01*
X66184000Y-43672000D01*
X66184000Y-43233334D01*
X78431641Y-43233334D01*
X78431641Y-43492426D01*
X78498699Y-43742689D01*
X78507452Y-43757850D01*
X78498699Y-43773011D01*
X78431641Y-44023274D01*
X78431641Y-44282366D01*
X78498699Y-44532629D01*
X78514051Y-44559220D01*
X78498699Y-44585811D01*
X78431641Y-44836074D01*
X78431641Y-45095166D01*
X78498699Y-45345429D01*
X78628245Y-45569810D01*
X78811450Y-45753015D01*
X79035831Y-45882561D01*
X79286094Y-45949619D01*
X79545186Y-45949619D01*
X79795449Y-45882561D01*
X80019830Y-45753015D01*
X80203035Y-45569810D01*
X80332581Y-45345429D01*
X80399639Y-45095166D01*
X80399639Y-44836074D01*
X80332581Y-44585811D01*
X80317229Y-44559220D01*
X80332581Y-44532629D01*
X80399639Y-44282366D01*
X80399639Y-44023274D01*
X80332581Y-43773011D01*
X80323828Y-43757850D01*
X80332581Y-43742689D01*
X80399639Y-43492426D01*
X80399639Y-43233334D01*
X80332581Y-42983071D01*
X80308430Y-42941240D01*
X80332581Y-42899409D01*
X80399639Y-42649146D01*
X80399639Y-42390054D01*
X80332581Y-42139791D01*
X80203035Y-41915410D01*
X80019830Y-41732205D01*
X79795449Y-41602659D01*
X79545186Y-41535601D01*
X79286094Y-41535601D01*
X79035831Y-41602659D01*
X78811450Y-41732205D01*
X78628245Y-41915410D01*
X78498699Y-42139791D01*
X78431641Y-42390054D01*
X78431641Y-42649146D01*
X78498699Y-42899409D01*
X78522850Y-42941240D01*
X78498699Y-42983071D01*
X78431641Y-43233334D01*
X66184000Y-43233334D01*
X66184000Y-42390054D01*
X66184000Y-42237423D01*
X66167624Y-42053926D01*
X66102433Y-41815629D01*
X65996073Y-41592644D01*
X65851909Y-41392017D01*
X65674495Y-41220089D01*
X65469437Y-41082297D01*
X65243221Y-40982996D01*
X64928000Y-40907318D01*
X60868645Y-40907318D01*
X60796195Y-40820975D01*
X60635157Y-40728000D01*
X66371307Y-40728000D01*
X66390781Y-40888912D01*
X66463425Y-41125042D01*
X66576735Y-41344577D01*
X66727131Y-41540576D01*
X66909859Y-41706846D01*
X67119142Y-41838129D01*
X67351769Y-41931645D01*
X67706318Y-41984000D01*
X69122000Y-41984000D01*
X69122000Y-40728000D01*
X69378000Y-40728000D01*
X69378000Y-41984000D01*
X70812577Y-41984000D01*
X70996074Y-41967624D01*
X71234371Y-41902433D01*
X71457356Y-41796073D01*
X71657983Y-41651909D01*
X71829911Y-41474495D01*
X71967703Y-41269437D01*
X72067004Y-41043221D01*
X72142682Y-40728000D01*
X69378000Y-40728000D01*
X69122000Y-40728000D01*
X66371307Y-40728000D01*
X60635157Y-40728000D01*
X60602566Y-40709184D01*
X60393404Y-40672303D01*
X58965792Y-40672303D01*
X58664869Y-40752935D01*
X58489215Y-40900325D01*
X58464613Y-40942938D01*
X58417734Y-40904976D01*
X58209062Y-40790257D01*
X57983373Y-40714304D01*
X57747800Y-40679518D01*
X57509790Y-40686997D01*
X57276868Y-40736507D01*
X57056393Y-40826481D01*
X56814824Y-40979785D01*
X55634000Y-40979785D01*
X55634000Y-40472000D01*
X66357318Y-40472000D01*
X69122000Y-40472000D01*
X69122000Y-39216000D01*
X69378000Y-39216000D01*
X69378000Y-40472000D01*
X72128693Y-40472000D01*
X72109219Y-40311088D01*
X72036575Y-40074958D01*
X71923265Y-39855423D01*
X71772869Y-39659424D01*
X71590141Y-39493154D01*
X71380858Y-39361871D01*
X71148231Y-39268355D01*
X70793682Y-39216000D01*
X69378000Y-39216000D01*
X69122000Y-39216000D01*
X67687423Y-39216000D01*
X67503926Y-39232376D01*
X67265629Y-39297567D01*
X67042644Y-39403927D01*
X66842017Y-39548091D01*
X66670089Y-39725505D01*
X66532297Y-39930563D01*
X66432996Y-40156779D01*
X66357318Y-40472000D01*
X55634000Y-40472000D01*
X55634000Y-39095574D01*
X74416001Y-39095574D01*
X74416001Y-39354666D01*
X74483059Y-39604929D01*
X74612605Y-39829310D01*
X74795810Y-40012515D01*
X75020191Y-40142061D01*
X75270454Y-40209119D01*
X75529546Y-40209119D01*
X75779809Y-40142061D01*
X76004190Y-40012515D01*
X76187395Y-39829310D01*
X76316941Y-39604929D01*
X76383999Y-39354666D01*
X76383999Y-39095574D01*
X76316941Y-38845311D01*
X76187395Y-38620930D01*
X76004190Y-38437725D01*
X75779809Y-38308179D01*
X75529546Y-38241121D01*
X75270454Y-38241121D01*
X75020191Y-38308179D01*
X74795810Y-38437725D01*
X74612605Y-38620930D01*
X74483059Y-38845311D01*
X74416001Y-39095574D01*
X55634000Y-39095574D01*
X55634000Y-36184230D01*
X94440701Y-36184230D01*
X94440701Y-36443322D01*
X94507759Y-36693585D01*
X94637305Y-36917966D01*
X94820510Y-37101171D01*
X95044891Y-37230717D01*
X95295154Y-37297775D01*
X95554246Y-37297775D01*
X95804509Y-37230717D01*
X96028890Y-37101171D01*
X96212095Y-36917966D01*
X96341641Y-36693585D01*
X96408699Y-36443322D01*
X96408699Y-36184230D01*
X96341641Y-35933967D01*
X96212095Y-35709586D01*
X96028890Y-35526381D01*
X95804509Y-35396835D01*
X95554246Y-35329777D01*
X95295154Y-35329777D01*
X95044891Y-35396835D01*
X94820510Y-35526381D01*
X94637305Y-35709586D01*
X94507759Y-35933967D01*
X94440701Y-36184230D01*
X55634000Y-36184230D01*
X55634000Y-34836094D01*
X92195901Y-34836094D01*
X92195901Y-35095186D01*
X92262959Y-35345449D01*
X92392505Y-35569830D01*
X92575710Y-35753035D01*
X92800091Y-35882581D01*
X93050354Y-35949639D01*
X93309446Y-35949639D01*
X93559709Y-35882581D01*
X93784090Y-35753035D01*
X93967295Y-35569830D01*
X94096841Y-35345449D01*
X94163899Y-35095186D01*
X94163899Y-34836094D01*
X94096841Y-34585831D01*
X93967295Y-34361450D01*
X93784090Y-34178245D01*
X93559709Y-34048699D01*
X93309446Y-33981641D01*
X93050354Y-33981641D01*
X92800091Y-34048699D01*
X92575710Y-34178245D01*
X92392505Y-34361450D01*
X92262959Y-34585831D01*
X92195901Y-34836094D01*
X55634000Y-34836094D01*
X55634000Y-33634000D01*
X117366001Y-33634000D01*
X117366000Y-39991460D01*
X117365417Y-40086927D01*
X117378493Y-40132678D01*
X117385237Y-40179769D01*
X117403318Y-40219538D01*
X117415322Y-40261539D01*
X117440706Y-40301771D01*
X117460402Y-40345089D01*
X117488920Y-40378184D01*
X117512227Y-40415126D01*
X117547889Y-40446621D01*
X117578946Y-40482664D01*
X117615601Y-40506422D01*
X117648346Y-40535342D01*
X117691416Y-40555564D01*
X117731338Y-40581439D01*
X117773183Y-40593953D01*
X117813088Y-40612689D01*
X117858546Y-40619483D01*
X117905327Y-40633473D01*
X117954168Y-40633772D01*
X117955694Y-40634000D01*
X117991461Y-40634000D01*
X118086926Y-40634583D01*
X118088966Y-40634000D01*
X137366001Y-40634000D01*
X137366000Y-84366000D01*
X55634000Y-84366000D01*
X55634000Y-82765129D01*
X57415890Y-82765129D01*
X57615384Y-82944756D01*
X57936257Y-83177884D01*
X58279743Y-83376196D01*
X58642075Y-83537517D01*
X59019285Y-83660080D01*
X59407239Y-83742542D01*
X59801689Y-83784000D01*
X60198311Y-83784000D01*
X60592761Y-83742542D01*
X60980715Y-83660080D01*
X61357925Y-83537517D01*
X61720257Y-83376196D01*
X62063743Y-83177884D01*
X62384616Y-82944756D01*
X62584110Y-82765129D01*
X130415890Y-82765129D01*
X130615384Y-82944756D01*
X130936257Y-83177884D01*
X131279743Y-83376196D01*
X131642075Y-83537517D01*
X132019285Y-83660080D01*
X132407239Y-83742542D01*
X132801689Y-83784000D01*
X133198311Y-83784000D01*
X133592761Y-83742542D01*
X133980715Y-83660080D01*
X134357925Y-83537517D01*
X134720257Y-83376196D01*
X135063743Y-83177884D01*
X135384616Y-82944756D01*
X135584110Y-82765129D01*
X133000000Y-80181019D01*
X130415890Y-82765129D01*
X62584110Y-82765129D01*
X60000000Y-80181019D01*
X57415890Y-82765129D01*
X55634000Y-82765129D01*
X55634000Y-79801689D01*
X56216000Y-79801689D01*
X56216000Y-80198311D01*
X56257458Y-80592761D01*
X56339920Y-80980715D01*
X56462483Y-81357925D01*
X56623804Y-81720257D01*
X56822116Y-82063743D01*
X57055244Y-82384616D01*
X57234871Y-82584110D01*
X59818981Y-80000000D01*
X60181019Y-80000000D01*
X62765129Y-82584110D01*
X62944756Y-82384616D01*
X63177884Y-82063743D01*
X63376196Y-81720257D01*
X63537517Y-81357925D01*
X63660080Y-80980715D01*
X63742542Y-80592761D01*
X63750141Y-80520454D01*
X69966001Y-80520454D01*
X69966001Y-80779546D01*
X70033059Y-81029809D01*
X70162605Y-81254190D01*
X70345810Y-81437395D01*
X70570191Y-81566941D01*
X70820454Y-81633999D01*
X71079546Y-81633999D01*
X71130522Y-81620340D01*
X71133059Y-81629809D01*
X71262605Y-81854190D01*
X71445810Y-82037395D01*
X71670191Y-82166941D01*
X71920454Y-82233999D01*
X72179546Y-82233999D01*
X72429809Y-82166941D01*
X72654190Y-82037395D01*
X72837395Y-81854190D01*
X72966941Y-81629809D01*
X73033999Y-81379546D01*
X73033999Y-81120454D01*
X72966941Y-80870191D01*
X72837395Y-80645810D01*
X72822558Y-80630973D01*
X73020454Y-80683999D01*
X73279546Y-80683999D01*
X73529809Y-80616941D01*
X73754190Y-80487395D01*
X73937395Y-80304190D01*
X74066941Y-80079809D01*
X74133999Y-79829546D01*
X74133999Y-79691493D01*
X82113215Y-79691493D01*
X82149465Y-79949428D01*
X82227355Y-80197979D01*
X82344796Y-80430470D01*
X82498630Y-80640659D01*
X82684729Y-80822899D01*
X82898093Y-80972299D01*
X83132993Y-81084844D01*
X83383121Y-81157513D01*
X83641757Y-81188353D01*
X83901959Y-81176538D01*
X84156737Y-81122383D01*
X84399248Y-81027344D01*
X84622982Y-80893973D01*
X84821927Y-80725850D01*
X84990743Y-80527492D01*
X85009993Y-80495454D01*
X95750026Y-80495454D01*
X95750026Y-80754546D01*
X95817084Y-81004809D01*
X95946630Y-81229190D01*
X96129835Y-81412395D01*
X96354216Y-81541941D01*
X96604479Y-81608999D01*
X96863571Y-81608999D01*
X97113834Y-81541941D01*
X97338215Y-81412395D01*
X97521420Y-81229190D01*
X97650966Y-81004809D01*
X97718024Y-80754546D01*
X97718024Y-80495454D01*
X107200026Y-80495454D01*
X107200026Y-80754546D01*
X107267084Y-81004809D01*
X107396630Y-81229190D01*
X107579835Y-81412395D01*
X107804216Y-81541941D01*
X108054479Y-81608999D01*
X108313571Y-81608999D01*
X108563834Y-81541941D01*
X108788215Y-81412395D01*
X108971420Y-81229190D01*
X109100966Y-81004809D01*
X109168024Y-80754546D01*
X109168024Y-80495454D01*
X109100966Y-80245191D01*
X108971420Y-80020810D01*
X108788215Y-79837605D01*
X108726007Y-79801689D01*
X129216000Y-79801689D01*
X129216000Y-80198311D01*
X129257458Y-80592761D01*
X129339920Y-80980715D01*
X129462483Y-81357925D01*
X129623804Y-81720257D01*
X129822116Y-82063743D01*
X130055244Y-82384616D01*
X130234871Y-82584110D01*
X132818981Y-80000000D01*
X133181019Y-80000000D01*
X135765129Y-82584110D01*
X135944756Y-82384616D01*
X136177884Y-82063743D01*
X136376196Y-81720257D01*
X136537517Y-81357925D01*
X136660080Y-80980715D01*
X136742542Y-80592761D01*
X136784000Y-80198311D01*
X136784000Y-79801689D01*
X136742542Y-79407239D01*
X136660080Y-79019285D01*
X136537517Y-78642075D01*
X136376196Y-78279743D01*
X136177884Y-77936257D01*
X135944756Y-77615384D01*
X135765129Y-77415890D01*
X133181019Y-80000000D01*
X132818981Y-80000000D01*
X130234871Y-77415890D01*
X130055244Y-77615384D01*
X129822116Y-77936257D01*
X129623804Y-78279743D01*
X129462483Y-78642075D01*
X129339920Y-79019285D01*
X129257458Y-79407239D01*
X129216000Y-79801689D01*
X108726007Y-79801689D01*
X108563834Y-79708059D01*
X108313571Y-79641001D01*
X108054479Y-79641001D01*
X107804216Y-79708059D01*
X107579835Y-79837605D01*
X107396630Y-80020810D01*
X107267084Y-80245191D01*
X107200026Y-80495454D01*
X97718024Y-80495454D01*
X97650966Y-80245191D01*
X97521420Y-80020810D01*
X97338215Y-79837605D01*
X97113834Y-79708059D01*
X96863571Y-79641001D01*
X96604479Y-79641001D01*
X96354216Y-79708059D01*
X96129835Y-79837605D01*
X95946630Y-80020810D01*
X95817084Y-80245191D01*
X95750026Y-80495454D01*
X85009993Y-80495454D01*
X85124894Y-80304226D01*
X85220779Y-80062048D01*
X85276151Y-79805945D01*
X85284330Y-79471295D01*
X85241535Y-79212793D01*
X85157594Y-78966220D01*
X85034510Y-78736667D01*
X84875585Y-78530299D01*
X84685090Y-78352659D01*
X84468139Y-78208518D01*
X84230560Y-78101745D01*
X83978732Y-78035210D01*
X83719418Y-78010697D01*
X83459583Y-78028867D01*
X83206205Y-78089230D01*
X82966087Y-78190167D01*
X82745680Y-78328965D01*
X82550901Y-78501897D01*
X82386981Y-78704320D01*
X82258325Y-78930797D01*
X82168386Y-79175246D01*
X82119579Y-79431101D01*
X82113215Y-79691493D01*
X74133999Y-79691493D01*
X74133999Y-79570454D01*
X74066941Y-79320191D01*
X74044643Y-79281571D01*
X76755761Y-76570454D01*
X89066001Y-76570454D01*
X89066001Y-76829546D01*
X89133059Y-77079809D01*
X89262605Y-77304190D01*
X89445810Y-77487395D01*
X89670191Y-77616941D01*
X89920454Y-77683999D01*
X90179546Y-77683999D01*
X90429809Y-77616941D01*
X90654190Y-77487395D01*
X90837395Y-77304190D01*
X90877416Y-77234871D01*
X130415890Y-77234871D01*
X133000000Y-79818981D01*
X135584110Y-77234871D01*
X135384616Y-77055244D01*
X135063743Y-76822116D01*
X134720257Y-76623804D01*
X134357925Y-76462483D01*
X133980715Y-76339920D01*
X133592761Y-76257458D01*
X133198311Y-76216000D01*
X132801689Y-76216000D01*
X132407239Y-76257458D01*
X132019285Y-76339920D01*
X131642075Y-76462483D01*
X131279743Y-76623804D01*
X130936257Y-76822116D01*
X130615384Y-77055244D01*
X130415890Y-77234871D01*
X90877416Y-77234871D01*
X90966941Y-77079809D01*
X91033999Y-76829546D01*
X91033999Y-76570454D01*
X90966941Y-76320191D01*
X90837395Y-76095810D01*
X90654190Y-75912605D01*
X90429809Y-75783059D01*
X90179546Y-75716001D01*
X89920454Y-75716001D01*
X89670191Y-75783059D01*
X89445810Y-75912605D01*
X89262605Y-76095810D01*
X89133059Y-76320191D01*
X89066001Y-76570454D01*
X76755761Y-76570454D01*
X78557016Y-74769200D01*
X78595810Y-74807995D01*
X78820191Y-74937541D01*
X79070454Y-75004599D01*
X79329546Y-75004599D01*
X79579809Y-74937541D01*
X79804190Y-74807995D01*
X79987395Y-74624790D01*
X80111811Y-74409294D01*
X95749361Y-74409294D01*
X95749361Y-74668386D01*
X95816419Y-74918649D01*
X95945965Y-75143030D01*
X96129170Y-75326235D01*
X96353551Y-75455781D01*
X96603814Y-75522839D01*
X96862906Y-75522839D01*
X97113169Y-75455781D01*
X97337550Y-75326235D01*
X97520755Y-75143030D01*
X97650301Y-74918649D01*
X97717359Y-74668386D01*
X97717359Y-74409294D01*
X97713651Y-74395454D01*
X107200026Y-74395454D01*
X107200026Y-74654546D01*
X107267084Y-74904809D01*
X107396630Y-75129190D01*
X107579835Y-75312395D01*
X107804216Y-75441941D01*
X108054479Y-75508999D01*
X108313571Y-75508999D01*
X108563834Y-75441941D01*
X108788215Y-75312395D01*
X108971420Y-75129190D01*
X108976463Y-75120454D01*
X122018081Y-75120454D01*
X122018081Y-75379546D01*
X122085139Y-75629809D01*
X122214685Y-75854190D01*
X122397890Y-76037395D01*
X122622271Y-76166941D01*
X122872534Y-76233999D01*
X123131626Y-76233999D01*
X123381889Y-76166941D01*
X123606270Y-76037395D01*
X123789475Y-75854190D01*
X123919021Y-75629809D01*
X123986079Y-75379546D01*
X123986079Y-75120454D01*
X123919021Y-74870191D01*
X123789475Y-74645810D01*
X123606270Y-74462605D01*
X123381889Y-74333059D01*
X123131626Y-74266001D01*
X122872534Y-74266001D01*
X122622271Y-74333059D01*
X122397890Y-74462605D01*
X122214685Y-74645810D01*
X122085139Y-74870191D01*
X122018081Y-75120454D01*
X108976463Y-75120454D01*
X109100966Y-74904809D01*
X109168024Y-74654546D01*
X109168024Y-74395454D01*
X109100966Y-74145191D01*
X108971420Y-73920810D01*
X108918884Y-73868274D01*
X115755901Y-73868274D01*
X115755901Y-74127366D01*
X115822959Y-74377629D01*
X115952505Y-74602010D01*
X116135710Y-74785215D01*
X116360091Y-74914761D01*
X116610354Y-74981819D01*
X116869446Y-74981819D01*
X117119709Y-74914761D01*
X117344090Y-74785215D01*
X117527295Y-74602010D01*
X117656841Y-74377629D01*
X117723899Y-74127366D01*
X117723899Y-73868274D01*
X117656841Y-73618011D01*
X117527295Y-73393630D01*
X117511719Y-73378054D01*
X120763281Y-73378054D01*
X120763281Y-73637146D01*
X120830339Y-73887409D01*
X120959885Y-74111790D01*
X121143090Y-74294995D01*
X121367471Y-74424541D01*
X121617734Y-74491599D01*
X121876826Y-74491599D01*
X122127089Y-74424541D01*
X122351470Y-74294995D01*
X122534675Y-74111790D01*
X122664221Y-73887409D01*
X122731279Y-73637146D01*
X122731279Y-73378054D01*
X122664221Y-73127791D01*
X122534675Y-72903410D01*
X122351470Y-72720205D01*
X122127089Y-72590659D01*
X121876826Y-72523601D01*
X121617734Y-72523601D01*
X121367471Y-72590659D01*
X121143090Y-72720205D01*
X120959885Y-72903410D01*
X120830339Y-73127791D01*
X120763281Y-73378054D01*
X117511719Y-73378054D01*
X117344090Y-73210425D01*
X117119709Y-73080879D01*
X116869446Y-73013821D01*
X116610354Y-73013821D01*
X116360091Y-73080879D01*
X116135710Y-73210425D01*
X115952505Y-73393630D01*
X115822959Y-73618011D01*
X115755901Y-73868274D01*
X108918884Y-73868274D01*
X108788215Y-73737605D01*
X108563834Y-73608059D01*
X108313571Y-73541001D01*
X108054479Y-73541001D01*
X107804216Y-73608059D01*
X107579835Y-73737605D01*
X107396630Y-73920810D01*
X107267084Y-74145191D01*
X107200026Y-74395454D01*
X97713651Y-74395454D01*
X97650301Y-74159031D01*
X97520755Y-73934650D01*
X97337550Y-73751445D01*
X97113169Y-73621899D01*
X96862906Y-73554841D01*
X96603814Y-73554841D01*
X96353551Y-73621899D01*
X96129170Y-73751445D01*
X95945965Y-73934650D01*
X95816419Y-74159031D01*
X95749361Y-74409294D01*
X80111811Y-74409294D01*
X80116941Y-74400409D01*
X80183999Y-74150146D01*
X80183999Y-73891054D01*
X80116941Y-73640791D01*
X79987395Y-73416410D01*
X79948600Y-73377616D01*
X80634723Y-72691493D01*
X82113215Y-72691493D01*
X82149465Y-72949428D01*
X82227355Y-73197979D01*
X82344796Y-73430470D01*
X82498630Y-73640659D01*
X82684729Y-73822899D01*
X82898093Y-73972299D01*
X83132993Y-74084844D01*
X83383121Y-74157513D01*
X83641757Y-74188353D01*
X83901959Y-74176538D01*
X84156737Y-74122383D01*
X84399248Y-74027344D01*
X84622982Y-73893973D01*
X84821927Y-73725850D01*
X84990743Y-73527492D01*
X85124894Y-73304226D01*
X85220779Y-73062048D01*
X85276151Y-72805945D01*
X85284330Y-72471295D01*
X85241535Y-72212793D01*
X85205879Y-72108054D01*
X113765581Y-72108054D01*
X113765581Y-72367146D01*
X113832639Y-72617409D01*
X113962185Y-72841790D01*
X114145390Y-73024995D01*
X114369771Y-73154541D01*
X114620034Y-73221599D01*
X114879126Y-73221599D01*
X115129389Y-73154541D01*
X115353770Y-73024995D01*
X115536975Y-72841790D01*
X115666521Y-72617409D01*
X115733579Y-72367146D01*
X115733579Y-72108054D01*
X115666521Y-71857791D01*
X115536975Y-71633410D01*
X115353770Y-71450205D01*
X115129389Y-71320659D01*
X114879126Y-71253601D01*
X114620034Y-71253601D01*
X114369771Y-71320659D01*
X114145390Y-71450205D01*
X113962185Y-71633410D01*
X113832639Y-71857791D01*
X113765581Y-72108054D01*
X85205879Y-72108054D01*
X85157594Y-71966220D01*
X85034510Y-71736667D01*
X84875585Y-71530299D01*
X84685090Y-71352659D01*
X84468139Y-71208518D01*
X84230560Y-71101745D01*
X83978732Y-71035210D01*
X83719418Y-71010697D01*
X83459583Y-71028867D01*
X83206205Y-71089230D01*
X82966087Y-71190167D01*
X82745680Y-71328965D01*
X82550901Y-71501897D01*
X82386981Y-71704320D01*
X82258325Y-71930797D01*
X82168386Y-72175246D01*
X82119579Y-72431101D01*
X82113215Y-72691493D01*
X80634723Y-72691493D01*
X81654776Y-71671441D01*
X81654782Y-71671434D01*
X81698336Y-71627880D01*
X81725866Y-71573850D01*
X81761507Y-71524794D01*
X81780245Y-71467127D01*
X81807776Y-71413093D01*
X81817263Y-71353194D01*
X81835999Y-71295531D01*
X81835999Y-71235408D01*
X81836000Y-71235402D01*
X81836000Y-70375774D01*
X94283781Y-70375774D01*
X94283781Y-70634866D01*
X94350839Y-70885129D01*
X94480385Y-71109510D01*
X94663590Y-71292715D01*
X94887971Y-71422261D01*
X95138234Y-71489319D01*
X95397326Y-71489319D01*
X95647589Y-71422261D01*
X95871970Y-71292715D01*
X95914992Y-71249693D01*
X101361326Y-71249693D01*
X101583768Y-71423486D01*
X101842231Y-71572710D01*
X102118948Y-71684511D01*
X102408530Y-71756711D01*
X102705343Y-71787908D01*
X103003609Y-71777492D01*
X103297522Y-71725667D01*
X103581363Y-71633441D01*
X103849606Y-71502611D01*
X104209106Y-71260125D01*
X102780000Y-69831019D01*
X101361326Y-71249693D01*
X95914992Y-71249693D01*
X96055175Y-71109510D01*
X96184721Y-70885129D01*
X96251779Y-70634866D01*
X96251779Y-70375774D01*
X96184721Y-70125511D01*
X96055175Y-69901130D01*
X95871970Y-69717925D01*
X95754321Y-69650000D01*
X100640789Y-69650000D01*
X100661608Y-69947721D01*
X100723658Y-70239646D01*
X100825734Y-70520095D01*
X100965846Y-70783609D01*
X101176052Y-71072929D01*
X102598981Y-69650000D01*
X102961019Y-69650000D01*
X104377322Y-71066303D01*
X104510658Y-70907396D01*
X104668811Y-70654299D01*
X104790200Y-70381653D01*
X104872464Y-70094767D01*
X104914000Y-69799224D01*
X104914000Y-69500776D01*
X104872464Y-69205233D01*
X104790200Y-68918347D01*
X104668811Y-68645701D01*
X104579835Y-68503310D01*
X107678847Y-68503310D01*
X107694494Y-68752013D01*
X107753934Y-68994014D01*
X107855291Y-69221664D01*
X107995360Y-69427768D01*
X108169711Y-69605811D01*
X108372837Y-69750164D01*
X108598315Y-69856266D01*
X108839019Y-69920762D01*
X109087339Y-69941615D01*
X109335428Y-69918164D01*
X109575442Y-69851150D01*
X109799796Y-69742693D01*
X110001399Y-69596221D01*
X110173878Y-69416362D01*
X110311780Y-69208802D01*
X110410747Y-68980102D01*
X110468031Y-68735872D01*
X110470387Y-68645893D01*
X110533065Y-68879809D01*
X110662611Y-69104190D01*
X110845816Y-69287395D01*
X111070197Y-69416941D01*
X111320460Y-69483999D01*
X111579552Y-69483999D01*
X111829815Y-69416941D01*
X112054196Y-69287395D01*
X112237401Y-69104190D01*
X112366947Y-68879809D01*
X112434005Y-68629546D01*
X112434005Y-68370454D01*
X112366947Y-68120191D01*
X112290832Y-67988355D01*
X112403441Y-67793309D01*
X112470499Y-67543046D01*
X112470499Y-67283954D01*
X112403441Y-67033691D01*
X112347548Y-66936881D01*
X112430439Y-66793309D01*
X112497497Y-66543046D01*
X112497497Y-66283954D01*
X112497465Y-66283834D01*
X112937541Y-66283834D01*
X112937541Y-66542926D01*
X113004599Y-66793189D01*
X113081241Y-66925937D01*
X113027459Y-67019091D01*
X112960401Y-67269354D01*
X112960401Y-67528446D01*
X113027459Y-67778709D01*
X113119513Y-67938152D01*
X113012219Y-68123991D01*
X112945161Y-68374254D01*
X112945161Y-68633346D01*
X113012219Y-68883609D01*
X113141765Y-69107990D01*
X113324970Y-69291195D01*
X113549351Y-69420741D01*
X113799614Y-69487799D01*
X114058706Y-69487799D01*
X114308969Y-69420741D01*
X114533350Y-69291195D01*
X114716555Y-69107990D01*
X114846101Y-68883609D01*
X114913159Y-68633346D01*
X114913159Y-68374254D01*
X114846101Y-68123991D01*
X114757457Y-67970454D01*
X122766001Y-67970454D01*
X122766001Y-68229546D01*
X122833059Y-68479809D01*
X122962605Y-68704190D01*
X123145810Y-68887395D01*
X123370191Y-69016941D01*
X123620454Y-69083999D01*
X123879546Y-69083999D01*
X124129809Y-69016941D01*
X124354190Y-68887395D01*
X124537395Y-68704190D01*
X124666941Y-68479809D01*
X124723211Y-68269808D01*
X124723211Y-68704535D01*
X124630179Y-68865671D01*
X124563121Y-69115934D01*
X124563121Y-69375026D01*
X124630179Y-69625289D01*
X124759725Y-69849670D01*
X124942930Y-70032875D01*
X125167311Y-70162421D01*
X125417574Y-70229479D01*
X125676666Y-70229479D01*
X125926929Y-70162421D01*
X126151310Y-70032875D01*
X126334515Y-69849670D01*
X126437437Y-69671403D01*
X129834616Y-69671403D01*
X130022837Y-69805164D01*
X130248315Y-69911266D01*
X130489019Y-69975762D01*
X130737339Y-69996615D01*
X130985428Y-69973164D01*
X131225442Y-69906150D01*
X131449796Y-69797693D01*
X131624643Y-69670662D01*
X130730000Y-68776019D01*
X129834616Y-69671403D01*
X126437437Y-69671403D01*
X126464061Y-69625289D01*
X126531119Y-69375026D01*
X126531119Y-69115934D01*
X126464061Y-68865671D01*
X126372210Y-68706580D01*
X126372210Y-68558310D01*
X129328847Y-68558310D01*
X129344494Y-68807013D01*
X129403934Y-69049014D01*
X129505291Y-69276664D01*
X129651773Y-69492208D01*
X130548981Y-68595000D01*
X130911019Y-68595000D01*
X131809309Y-69493290D01*
X131961780Y-69263802D01*
X132000119Y-69175206D01*
X132045291Y-69276664D01*
X132185360Y-69482768D01*
X132359711Y-69660811D01*
X132562837Y-69805164D01*
X132788315Y-69911266D01*
X133029019Y-69975762D01*
X133277339Y-69996615D01*
X133525428Y-69973164D01*
X133765442Y-69906150D01*
X133989796Y-69797693D01*
X134191399Y-69651221D01*
X134363878Y-69471362D01*
X134501780Y-69263802D01*
X134600747Y-69035102D01*
X134658031Y-68790872D01*
X134666380Y-68472041D01*
X134621956Y-68225147D01*
X134535094Y-67991581D01*
X134408244Y-67777089D01*
X134245414Y-67588449D01*
X134051754Y-67431627D01*
X133833384Y-67311576D01*
X133597205Y-67232093D01*
X133350684Y-67195690D01*
X133101612Y-67203517D01*
X132857863Y-67255328D01*
X132627141Y-67349484D01*
X132416739Y-67483009D01*
X132233308Y-67651683D01*
X132082645Y-67850173D01*
X132001634Y-68009167D01*
X131995094Y-67991581D01*
X131816472Y-67689547D01*
X130911019Y-68595000D01*
X130548981Y-68595000D01*
X129655487Y-67701506D01*
X129542645Y-67850175D01*
X129429513Y-68072208D01*
X129357489Y-68310766D01*
X129328847Y-68558310D01*
X126372210Y-68558310D01*
X126372210Y-67513179D01*
X129829198Y-67513179D01*
X130730000Y-68413981D01*
X131641194Y-67502786D01*
X131293384Y-67311576D01*
X131057205Y-67232093D01*
X130810684Y-67195690D01*
X130561612Y-67203517D01*
X130317863Y-67255328D01*
X130087142Y-67349484D01*
X129829198Y-67513179D01*
X126372210Y-67513179D01*
X126372210Y-64942212D01*
X126464651Y-64782099D01*
X126531709Y-64531836D01*
X126531709Y-64272744D01*
X126464651Y-64022481D01*
X126335105Y-63798100D01*
X126151900Y-63614895D01*
X125927519Y-63485349D01*
X125677256Y-63418291D01*
X125418164Y-63418291D01*
X125167901Y-63485349D01*
X124943520Y-63614895D01*
X124760315Y-63798100D01*
X124630769Y-64022481D01*
X124563711Y-64272744D01*
X124563711Y-64531836D01*
X124630769Y-64782099D01*
X124723210Y-64942212D01*
X124723211Y-67930192D01*
X124666941Y-67720191D01*
X124537395Y-67495810D01*
X124354190Y-67312605D01*
X124129809Y-67183059D01*
X123879546Y-67116001D01*
X123620454Y-67116001D01*
X123370191Y-67183059D01*
X123145810Y-67312605D01*
X122962605Y-67495810D01*
X122833059Y-67720191D01*
X122766001Y-67970454D01*
X114757457Y-67970454D01*
X114754047Y-67964548D01*
X114861341Y-67778709D01*
X114928399Y-67528446D01*
X114928399Y-67269354D01*
X114861341Y-67019091D01*
X114784699Y-66886343D01*
X114838481Y-66793189D01*
X114905539Y-66542926D01*
X114905539Y-66283834D01*
X114838481Y-66033571D01*
X114789439Y-65948627D01*
X114866421Y-65815289D01*
X114933479Y-65565026D01*
X114933479Y-65305934D01*
X114866421Y-65055671D01*
X114736875Y-64831290D01*
X114553670Y-64648085D01*
X114329289Y-64518539D01*
X114079026Y-64451481D01*
X113819934Y-64451481D01*
X113569671Y-64518539D01*
X113345290Y-64648085D01*
X113162085Y-64831290D01*
X113032539Y-65055671D01*
X112965481Y-65305934D01*
X112965481Y-65565026D01*
X113032539Y-65815289D01*
X113081581Y-65900233D01*
X113004599Y-66033571D01*
X112937541Y-66283834D01*
X112497465Y-66283834D01*
X112430439Y-66033691D01*
X112361048Y-65913502D01*
X112430441Y-65793309D01*
X112497499Y-65543046D01*
X112497499Y-65283954D01*
X112430441Y-65033691D01*
X112300895Y-64809310D01*
X112117690Y-64626105D01*
X111893309Y-64496559D01*
X111643046Y-64429501D01*
X111383954Y-64429501D01*
X111133691Y-64496559D01*
X110909310Y-64626105D01*
X110726105Y-64809310D01*
X110596559Y-65033691D01*
X110529501Y-65283954D01*
X110529501Y-65543046D01*
X110596559Y-65793309D01*
X110665950Y-65913498D01*
X110596557Y-66033691D01*
X110529499Y-66283954D01*
X110529499Y-66543046D01*
X110596557Y-66793309D01*
X110652450Y-66890119D01*
X110569559Y-67033691D01*
X110502501Y-67283954D01*
X110502501Y-67543046D01*
X110569559Y-67793309D01*
X110645674Y-67925145D01*
X110533065Y-68120191D01*
X110467198Y-68366010D01*
X110431956Y-68170147D01*
X110345094Y-67936581D01*
X110218244Y-67722089D01*
X110055414Y-67533449D01*
X109861754Y-67376627D01*
X109664416Y-67268138D01*
X109799796Y-67202693D01*
X109974643Y-67075662D01*
X109080000Y-66181019D01*
X108184616Y-67076403D01*
X108372837Y-67210164D01*
X108498668Y-67269375D01*
X108437141Y-67294484D01*
X108226739Y-67428009D01*
X108043308Y-67596683D01*
X107892645Y-67795173D01*
X107779513Y-68017208D01*
X107707489Y-68255766D01*
X107678847Y-68503310D01*
X104579835Y-68503310D01*
X104510658Y-68392604D01*
X104377322Y-68233697D01*
X102961019Y-69650000D01*
X102598981Y-69650000D01*
X101176052Y-68227071D01*
X100965846Y-68516391D01*
X100825734Y-68779905D01*
X100723658Y-69060354D01*
X100661608Y-69352279D01*
X100640789Y-69650000D01*
X95754321Y-69650000D01*
X95647589Y-69588379D01*
X95397326Y-69521321D01*
X95138234Y-69521321D01*
X94887971Y-69588379D01*
X94663590Y-69717925D01*
X94480385Y-69901130D01*
X94350839Y-70125511D01*
X94283781Y-70375774D01*
X81836000Y-70375774D01*
X81836000Y-68050307D01*
X101361326Y-68050307D01*
X102780000Y-69468981D01*
X104209106Y-68039875D01*
X103849606Y-67797389D01*
X103581363Y-67666559D01*
X103297522Y-67574333D01*
X103003609Y-67522508D01*
X102705343Y-67512092D01*
X102408530Y-67543289D01*
X102118948Y-67615489D01*
X101842231Y-67727290D01*
X101583768Y-67876514D01*
X101361326Y-68050307D01*
X81836000Y-68050307D01*
X81836000Y-65669154D01*
X96168461Y-65669154D01*
X96168461Y-65928246D01*
X96235519Y-66178509D01*
X96365065Y-66402890D01*
X96548270Y-66586095D01*
X96772651Y-66715641D01*
X97022914Y-66782699D01*
X97282006Y-66782699D01*
X97532269Y-66715641D01*
X97756650Y-66586095D01*
X97939855Y-66402890D01*
X98069401Y-66178509D01*
X98127063Y-65963310D01*
X107678847Y-65963310D01*
X107694494Y-66212013D01*
X107753934Y-66454014D01*
X107855291Y-66681664D01*
X108001773Y-66897208D01*
X108898981Y-66000000D01*
X109261019Y-66000000D01*
X110159309Y-66898290D01*
X110311780Y-66668802D01*
X110410747Y-66440102D01*
X110468031Y-66195872D01*
X110476380Y-65877041D01*
X110431956Y-65630147D01*
X110345094Y-65396581D01*
X110166472Y-65094547D01*
X109261019Y-66000000D01*
X108898981Y-66000000D01*
X108005487Y-65106506D01*
X107892645Y-65255175D01*
X107779513Y-65477208D01*
X107707489Y-65715766D01*
X107678847Y-65963310D01*
X98127063Y-65963310D01*
X98136459Y-65928246D01*
X98136459Y-65669154D01*
X98069401Y-65418891D01*
X97939855Y-65194510D01*
X97756650Y-65011305D01*
X97532269Y-64881759D01*
X97282006Y-64814701D01*
X97022914Y-64814701D01*
X96772651Y-64881759D01*
X96548270Y-65011305D01*
X96365065Y-65194510D01*
X96235519Y-65418891D01*
X96168461Y-65669154D01*
X81836000Y-65669154D01*
X81836000Y-63451734D01*
X84085681Y-63451734D01*
X84085681Y-63710826D01*
X84152739Y-63961089D01*
X84282285Y-64185470D01*
X84465490Y-64368675D01*
X84689871Y-64498221D01*
X84940134Y-64565279D01*
X85199226Y-64565279D01*
X85449489Y-64498221D01*
X85673870Y-64368675D01*
X85857075Y-64185470D01*
X85986621Y-63961089D01*
X86053679Y-63710826D01*
X86053679Y-63451734D01*
X86018503Y-63320454D01*
X96541001Y-63320454D01*
X96541001Y-63579546D01*
X96608059Y-63829809D01*
X96737605Y-64054190D01*
X96920810Y-64237395D01*
X97145191Y-64366941D01*
X97395454Y-64433999D01*
X97654546Y-64433999D01*
X97904809Y-64366941D01*
X98129190Y-64237395D01*
X98312395Y-64054190D01*
X98372726Y-63949693D01*
X99761326Y-63949693D01*
X99983768Y-64123486D01*
X100242231Y-64272710D01*
X100518948Y-64384511D01*
X100808530Y-64456711D01*
X101105343Y-64487908D01*
X101403609Y-64477492D01*
X101697522Y-64425667D01*
X101981363Y-64333441D01*
X102249606Y-64202611D01*
X102609106Y-63960125D01*
X101180000Y-62531019D01*
X99761326Y-63949693D01*
X98372726Y-63949693D01*
X98441941Y-63829809D01*
X98508999Y-63579546D01*
X98508999Y-63320454D01*
X98441941Y-63070191D01*
X98312395Y-62845810D01*
X98129190Y-62662605D01*
X97904809Y-62533059D01*
X97654546Y-62466001D01*
X97395454Y-62466001D01*
X97145191Y-62533059D01*
X96920810Y-62662605D01*
X96737605Y-62845810D01*
X96608059Y-63070191D01*
X96541001Y-63320454D01*
X86018503Y-63320454D01*
X85986621Y-63201471D01*
X85857075Y-62977090D01*
X85673870Y-62793885D01*
X85449489Y-62664339D01*
X85199226Y-62597281D01*
X84940134Y-62597281D01*
X84689871Y-62664339D01*
X84465490Y-62793885D01*
X84282285Y-62977090D01*
X84152739Y-63201471D01*
X84085681Y-63451734D01*
X81836000Y-63451734D01*
X81836000Y-61866774D01*
X85937341Y-61866774D01*
X85937341Y-62125866D01*
X86004399Y-62376129D01*
X86133945Y-62600510D01*
X86317150Y-62783715D01*
X86541531Y-62913261D01*
X86791794Y-62980319D01*
X87050886Y-62980319D01*
X87301149Y-62913261D01*
X87525530Y-62783715D01*
X87708735Y-62600510D01*
X87838281Y-62376129D01*
X87905339Y-62125866D01*
X87905339Y-61866774D01*
X87883019Y-61783474D01*
X88170001Y-61783474D01*
X88170001Y-62042566D01*
X88237059Y-62292829D01*
X88366605Y-62517210D01*
X88549810Y-62700415D01*
X88774191Y-62829961D01*
X89024454Y-62897019D01*
X89283546Y-62897019D01*
X89533809Y-62829961D01*
X89758190Y-62700415D01*
X89941395Y-62517210D01*
X90037933Y-62350000D01*
X99040789Y-62350000D01*
X99061608Y-62647721D01*
X99123658Y-62939646D01*
X99225734Y-63220095D01*
X99365846Y-63483609D01*
X99576052Y-63772929D01*
X100998981Y-62350000D01*
X101361019Y-62350000D01*
X102777322Y-63766303D01*
X102910658Y-63607396D01*
X103025688Y-63423310D01*
X107678847Y-63423310D01*
X107694494Y-63672013D01*
X107753934Y-63914014D01*
X107855291Y-64141664D01*
X107995360Y-64347768D01*
X108169711Y-64525811D01*
X108372837Y-64670164D01*
X108498668Y-64729376D01*
X108437142Y-64754484D01*
X108179198Y-64918179D01*
X109080000Y-65818981D01*
X109991194Y-64907786D01*
X109664416Y-64728138D01*
X109799796Y-64662693D01*
X110001399Y-64516221D01*
X110152634Y-64358514D01*
X121350021Y-64358514D01*
X121350021Y-64617606D01*
X121417079Y-64867869D01*
X121546625Y-65092250D01*
X121729830Y-65275455D01*
X121954211Y-65405001D01*
X122204474Y-65472059D01*
X122463566Y-65472059D01*
X122713829Y-65405001D01*
X122938210Y-65275455D01*
X123121415Y-65092250D01*
X123250961Y-64867869D01*
X123318019Y-64617606D01*
X123318019Y-64475144D01*
X123449919Y-64439801D01*
X123674300Y-64310255D01*
X123857505Y-64127050D01*
X123987051Y-63902669D01*
X124054109Y-63652406D01*
X124054109Y-63393314D01*
X123987051Y-63143051D01*
X123857505Y-62918670D01*
X123674300Y-62735465D01*
X123449919Y-62605919D01*
X123199656Y-62538861D01*
X122940564Y-62538861D01*
X122690301Y-62605919D01*
X122465920Y-62735465D01*
X122282715Y-62918670D01*
X122153169Y-63143051D01*
X122086111Y-63393314D01*
X122086111Y-63535776D01*
X121954211Y-63571119D01*
X121729830Y-63700665D01*
X121546625Y-63883870D01*
X121417079Y-64108251D01*
X121350021Y-64358514D01*
X110152634Y-64358514D01*
X110173878Y-64336362D01*
X110311780Y-64128802D01*
X110410747Y-63900102D01*
X110468031Y-63655872D01*
X110476380Y-63337041D01*
X110431956Y-63090147D01*
X110411512Y-63035174D01*
X111979961Y-63035174D01*
X111979961Y-63294266D01*
X112047019Y-63544529D01*
X112176565Y-63768910D01*
X112359770Y-63952115D01*
X112584151Y-64081661D01*
X112834414Y-64148719D01*
X113093506Y-64148719D01*
X113343769Y-64081661D01*
X113568150Y-63952115D01*
X113751355Y-63768910D01*
X113880901Y-63544529D01*
X113947959Y-63294266D01*
X113947959Y-63035174D01*
X113885206Y-62800974D01*
X116666001Y-62800974D01*
X116666001Y-63060066D01*
X116733059Y-63310329D01*
X116862605Y-63534710D01*
X117045810Y-63717915D01*
X117270191Y-63847461D01*
X117520454Y-63914519D01*
X117779546Y-63914519D01*
X118029809Y-63847461D01*
X118254190Y-63717915D01*
X118437395Y-63534710D01*
X118566941Y-63310329D01*
X118633999Y-63060066D01*
X118633999Y-62800974D01*
X118566941Y-62550711D01*
X118437395Y-62326330D01*
X118254190Y-62143125D01*
X118029809Y-62013579D01*
X117779546Y-61946521D01*
X117520454Y-61946521D01*
X117270191Y-62013579D01*
X117045810Y-62143125D01*
X116862605Y-62326330D01*
X116733059Y-62550711D01*
X116666001Y-62800974D01*
X113885206Y-62800974D01*
X113880901Y-62784911D01*
X113751355Y-62560530D01*
X113568150Y-62377325D01*
X113343769Y-62247779D01*
X113093506Y-62180721D01*
X112834414Y-62180721D01*
X112584151Y-62247779D01*
X112359770Y-62377325D01*
X112176565Y-62560530D01*
X112047019Y-62784911D01*
X111979961Y-63035174D01*
X110411512Y-63035174D01*
X110345094Y-62856581D01*
X110218244Y-62642089D01*
X110055414Y-62453449D01*
X109861754Y-62296627D01*
X109643384Y-62176576D01*
X109407205Y-62097093D01*
X109160684Y-62060690D01*
X108911612Y-62068517D01*
X108667863Y-62120328D01*
X108437141Y-62214484D01*
X108226739Y-62348009D01*
X108043308Y-62516683D01*
X107892645Y-62715173D01*
X107779513Y-62937208D01*
X107707489Y-63175766D01*
X107678847Y-63423310D01*
X103025688Y-63423310D01*
X103068811Y-63354299D01*
X103190200Y-63081653D01*
X103272464Y-62794767D01*
X103314000Y-62499224D01*
X103314000Y-62200776D01*
X103272464Y-61905233D01*
X103190200Y-61618347D01*
X103068811Y-61345701D01*
X102910658Y-61092604D01*
X102777322Y-60933697D01*
X101361019Y-62350000D01*
X100998981Y-62350000D01*
X99576052Y-60927071D01*
X99365846Y-61216391D01*
X99225734Y-61479905D01*
X99123658Y-61760354D01*
X99061608Y-62052279D01*
X99040789Y-62350000D01*
X90037933Y-62350000D01*
X90070941Y-62292829D01*
X90137999Y-62042566D01*
X90137999Y-61889801D01*
X90216911Y-61935361D01*
X90467174Y-62002419D01*
X90726266Y-62002419D01*
X90960530Y-61939648D01*
X91066782Y-62000992D01*
X91317045Y-62068050D01*
X91576137Y-62068050D01*
X91826400Y-62000992D01*
X92050781Y-61871446D01*
X92065862Y-61856365D01*
X92173870Y-61964373D01*
X92398251Y-62093919D01*
X92648514Y-62160977D01*
X92907606Y-62160977D01*
X93157869Y-62093919D01*
X93270733Y-62028757D01*
X93300454Y-62045916D01*
X93550717Y-62112974D01*
X93809809Y-62112974D01*
X94060072Y-62045916D01*
X94284453Y-61916370D01*
X94467658Y-61733165D01*
X94597204Y-61508784D01*
X94664262Y-61258521D01*
X94664262Y-60999429D01*
X94597510Y-60750307D01*
X99761326Y-60750307D01*
X101180000Y-62168981D01*
X102609106Y-60739875D01*
X102249606Y-60497389D01*
X101981363Y-60366559D01*
X101853440Y-60324994D01*
X111017301Y-60324994D01*
X111017301Y-60584086D01*
X111084359Y-60834349D01*
X111213905Y-61058730D01*
X111397110Y-61241935D01*
X111621491Y-61371481D01*
X111871754Y-61438539D01*
X112130846Y-61438539D01*
X112381109Y-61371481D01*
X112605490Y-61241935D01*
X112696241Y-61151184D01*
X112696241Y-61267346D01*
X112763299Y-61517609D01*
X112892845Y-61741990D01*
X113076050Y-61925195D01*
X113300431Y-62054741D01*
X113550694Y-62121799D01*
X113809786Y-62121799D01*
X114060049Y-62054741D01*
X114284430Y-61925195D01*
X114467635Y-61741990D01*
X114597181Y-61517609D01*
X114664239Y-61267346D01*
X114664239Y-61008254D01*
X114597181Y-60757991D01*
X114467635Y-60533610D01*
X114284430Y-60350405D01*
X114060049Y-60220859D01*
X113809786Y-60153801D01*
X113550694Y-60153801D01*
X113300431Y-60220859D01*
X113076050Y-60350405D01*
X112985299Y-60441156D01*
X112985299Y-60324994D01*
X112918241Y-60074731D01*
X112788695Y-59850350D01*
X112605490Y-59667145D01*
X112381109Y-59537599D01*
X112130846Y-59470541D01*
X111871754Y-59470541D01*
X111621491Y-59537599D01*
X111397110Y-59667145D01*
X111213905Y-59850350D01*
X111084359Y-60074731D01*
X111017301Y-60324994D01*
X101853440Y-60324994D01*
X101697522Y-60274333D01*
X101403609Y-60222508D01*
X101105343Y-60212092D01*
X100808530Y-60243289D01*
X100518948Y-60315489D01*
X100242231Y-60427290D01*
X99983768Y-60576514D01*
X99761326Y-60750307D01*
X94597510Y-60750307D01*
X94597204Y-60749166D01*
X94467658Y-60524785D01*
X94284453Y-60341580D01*
X94060072Y-60212034D01*
X93809809Y-60144976D01*
X93550717Y-60144976D01*
X93300454Y-60212034D01*
X93187590Y-60277196D01*
X93157869Y-60260037D01*
X92907606Y-60192979D01*
X92648514Y-60192979D01*
X92398251Y-60260037D01*
X92173870Y-60389583D01*
X92158789Y-60404664D01*
X92050781Y-60296656D01*
X91826400Y-60167110D01*
X91576137Y-60100052D01*
X91317045Y-60100052D01*
X91082781Y-60162823D01*
X90976529Y-60101479D01*
X90726266Y-60034421D01*
X90467174Y-60034421D01*
X90216911Y-60101479D01*
X89992530Y-60231025D01*
X89809325Y-60414230D01*
X89679779Y-60638611D01*
X89612721Y-60888874D01*
X89612721Y-61041639D01*
X89533809Y-60996079D01*
X89283546Y-60929021D01*
X89024454Y-60929021D01*
X88774191Y-60996079D01*
X88549810Y-61125625D01*
X88366605Y-61308830D01*
X88237059Y-61533211D01*
X88170001Y-61783474D01*
X87883019Y-61783474D01*
X87838281Y-61616511D01*
X87708735Y-61392130D01*
X87525530Y-61208925D01*
X87301149Y-61079379D01*
X87050886Y-61012321D01*
X86791794Y-61012321D01*
X86541531Y-61079379D01*
X86317150Y-61208925D01*
X86133945Y-61392130D01*
X86004399Y-61616511D01*
X85937341Y-61866774D01*
X81836000Y-61866774D01*
X81836000Y-59632093D01*
X95423722Y-59632093D01*
X95423722Y-59891185D01*
X95490780Y-60141448D01*
X95620326Y-60365829D01*
X95803531Y-60549034D01*
X96027912Y-60678580D01*
X96278175Y-60745638D01*
X96537267Y-60745638D01*
X96787530Y-60678580D01*
X97011911Y-60549034D01*
X97195116Y-60365829D01*
X97324662Y-60141448D01*
X97391720Y-59891185D01*
X97391720Y-59632093D01*
X97324662Y-59381830D01*
X97195116Y-59157449D01*
X97011911Y-58974244D01*
X96787530Y-58844698D01*
X96537267Y-58777640D01*
X96278175Y-58777640D01*
X96027912Y-58844698D01*
X95803531Y-58974244D01*
X95620326Y-59157449D01*
X95490780Y-59381830D01*
X95423722Y-59632093D01*
X81836000Y-59632093D01*
X81836000Y-57863213D01*
X99140261Y-57863213D01*
X99140261Y-58122305D01*
X99207319Y-58372568D01*
X99336865Y-58596949D01*
X99520070Y-58780154D01*
X99744451Y-58909700D01*
X99994714Y-58976758D01*
X100253806Y-58976758D01*
X100504069Y-58909700D01*
X100728450Y-58780154D01*
X100911655Y-58596949D01*
X101041201Y-58372568D01*
X101108259Y-58122305D01*
X101108259Y-57863213D01*
X101041201Y-57612950D01*
X100911655Y-57388569D01*
X100728450Y-57205364D01*
X100504069Y-57075818D01*
X100253806Y-57008760D01*
X99994714Y-57008760D01*
X99744451Y-57075818D01*
X99520070Y-57205364D01*
X99336865Y-57388569D01*
X99207319Y-57612950D01*
X99140261Y-57863213D01*
X81836000Y-57863213D01*
X81836000Y-54107074D01*
X86798401Y-54107074D01*
X86798401Y-54366166D01*
X86865459Y-54616429D01*
X86969924Y-54797369D01*
X86916001Y-54998614D01*
X86916001Y-55257706D01*
X86983059Y-55507969D01*
X87109421Y-55726835D01*
X87061312Y-55810162D01*
X86994254Y-56060425D01*
X86994254Y-56319517D01*
X87061312Y-56569780D01*
X87190858Y-56794161D01*
X87374063Y-56977366D01*
X87598444Y-57106912D01*
X87848707Y-57173970D01*
X88107799Y-57173970D01*
X88358062Y-57106912D01*
X88582443Y-56977366D01*
X88705563Y-56854246D01*
X88723391Y-56864539D01*
X88973654Y-56931597D01*
X89232746Y-56931597D01*
X89483009Y-56864539D01*
X89707390Y-56734993D01*
X89828328Y-56614055D01*
X105416001Y-56614055D01*
X105416001Y-56873147D01*
X105483059Y-57123410D01*
X105612605Y-57347791D01*
X105795810Y-57530996D01*
X106020191Y-57660542D01*
X106064301Y-57672361D01*
X106064301Y-57851046D01*
X106131359Y-58101309D01*
X106165095Y-58159741D01*
X106121199Y-58235771D01*
X106054141Y-58486034D01*
X106054141Y-58745126D01*
X106121199Y-58995389D01*
X106250745Y-59219770D01*
X106433950Y-59402975D01*
X106658331Y-59532521D01*
X106908594Y-59599579D01*
X107167686Y-59599579D01*
X107417949Y-59532521D01*
X107642330Y-59402975D01*
X107825535Y-59219770D01*
X107955081Y-58995389D01*
X108005127Y-58808614D01*
X112660681Y-58808614D01*
X112660681Y-59067706D01*
X112727739Y-59317969D01*
X112857285Y-59542350D01*
X113040490Y-59725555D01*
X113264871Y-59855101D01*
X113515134Y-59922159D01*
X113774226Y-59922159D01*
X114024489Y-59855101D01*
X114105387Y-59808394D01*
X114120190Y-59816941D01*
X114370454Y-59883999D01*
X114629546Y-59883999D01*
X114879809Y-59816941D01*
X114960327Y-59770454D01*
X116916001Y-59770454D01*
X116916001Y-60029546D01*
X116983059Y-60279809D01*
X117112605Y-60504190D01*
X117295810Y-60687395D01*
X117520191Y-60816941D01*
X117770454Y-60883999D01*
X118029546Y-60883999D01*
X118279809Y-60816941D01*
X118504190Y-60687395D01*
X118687395Y-60504190D01*
X118816941Y-60279809D01*
X118883999Y-60029546D01*
X118883999Y-59820454D01*
X131616001Y-59820454D01*
X131616001Y-60079546D01*
X131683059Y-60329809D01*
X131812605Y-60554190D01*
X131995810Y-60737395D01*
X132220191Y-60866941D01*
X132470454Y-60933999D01*
X132729546Y-60933999D01*
X132979809Y-60866941D01*
X133204190Y-60737395D01*
X133387395Y-60554190D01*
X133516941Y-60329809D01*
X133583999Y-60079546D01*
X133583999Y-59820454D01*
X133516941Y-59570191D01*
X133387395Y-59345810D01*
X133204190Y-59162605D01*
X132979809Y-59033059D01*
X132729546Y-58966001D01*
X132470454Y-58966001D01*
X132220191Y-59033059D01*
X131995810Y-59162605D01*
X131812605Y-59345810D01*
X131683059Y-59570191D01*
X131616001Y-59820454D01*
X118883999Y-59820454D01*
X118883999Y-59770454D01*
X118816941Y-59520191D01*
X118687395Y-59295810D01*
X118504190Y-59112605D01*
X118279809Y-58983059D01*
X118029546Y-58916001D01*
X117770454Y-58916001D01*
X117520191Y-58983059D01*
X117295810Y-59112605D01*
X117112605Y-59295810D01*
X116983059Y-59520191D01*
X116916001Y-59770454D01*
X114960327Y-59770454D01*
X115104190Y-59687395D01*
X115287395Y-59504190D01*
X115416941Y-59279809D01*
X115483999Y-59029546D01*
X115483999Y-58770454D01*
X115417012Y-58520454D01*
X133916001Y-58520454D01*
X133916001Y-58779546D01*
X133983059Y-59029809D01*
X134112605Y-59254190D01*
X134295810Y-59437395D01*
X134520191Y-59566941D01*
X134770454Y-59633999D01*
X135029546Y-59633999D01*
X135279809Y-59566941D01*
X135504190Y-59437395D01*
X135687395Y-59254190D01*
X135816941Y-59029809D01*
X135883999Y-58779546D01*
X135883999Y-58520454D01*
X135816941Y-58270191D01*
X135687395Y-58045810D01*
X135504190Y-57862605D01*
X135279809Y-57733059D01*
X135029546Y-57666001D01*
X134770454Y-57666001D01*
X134520191Y-57733059D01*
X134295810Y-57862605D01*
X134112605Y-58045810D01*
X133983059Y-58270191D01*
X133916001Y-58520454D01*
X115417012Y-58520454D01*
X115416941Y-58520191D01*
X115287395Y-58295810D01*
X115104190Y-58112605D01*
X114879809Y-57983059D01*
X114629546Y-57916001D01*
X114370454Y-57916001D01*
X114120191Y-57983059D01*
X114039293Y-58029766D01*
X114024490Y-58021219D01*
X113774226Y-57954161D01*
X113515134Y-57954161D01*
X113264871Y-58021219D01*
X113040490Y-58150765D01*
X112857285Y-58333970D01*
X112727739Y-58558351D01*
X112660681Y-58808614D01*
X108005127Y-58808614D01*
X108022139Y-58745126D01*
X108022139Y-58486034D01*
X107955081Y-58235771D01*
X107921345Y-58177339D01*
X107965241Y-58101309D01*
X108032299Y-57851046D01*
X108032299Y-57591954D01*
X107965241Y-57341691D01*
X107835695Y-57117310D01*
X107652490Y-56934105D01*
X107428109Y-56804559D01*
X107383999Y-56792740D01*
X107383999Y-56614055D01*
X107334212Y-56428248D01*
X114604810Y-56428248D01*
X114604810Y-56687340D01*
X114671868Y-56937603D01*
X114801414Y-57161984D01*
X114984619Y-57345189D01*
X115209000Y-57474735D01*
X115459263Y-57541793D01*
X115718355Y-57541793D01*
X115968618Y-57474735D01*
X116192999Y-57345189D01*
X116376204Y-57161984D01*
X116505750Y-56937603D01*
X116572808Y-56687340D01*
X116572808Y-56428248D01*
X116505750Y-56177985D01*
X116377700Y-55956194D01*
X116882161Y-55956194D01*
X116882161Y-56215286D01*
X116949219Y-56465549D01*
X117078765Y-56689930D01*
X117123625Y-56734790D01*
X117112605Y-56745810D01*
X116983059Y-56970191D01*
X116916001Y-57220454D01*
X116916001Y-57479546D01*
X116983059Y-57729809D01*
X117112605Y-57954190D01*
X117295810Y-58137395D01*
X117520191Y-58266941D01*
X117770454Y-58333999D01*
X118029546Y-58333999D01*
X118279809Y-58266941D01*
X118504190Y-58137395D01*
X118687395Y-57954190D01*
X118816941Y-57729809D01*
X118883999Y-57479546D01*
X118883999Y-57220454D01*
X118816941Y-56970191D01*
X118687395Y-56745810D01*
X118642535Y-56700950D01*
X118653555Y-56689930D01*
X118783101Y-56465549D01*
X118850159Y-56215286D01*
X118850159Y-55970454D01*
X131616001Y-55970454D01*
X131616001Y-56229546D01*
X131683059Y-56479809D01*
X131812605Y-56704190D01*
X131995810Y-56887395D01*
X132220191Y-57016941D01*
X132470454Y-57083999D01*
X132729546Y-57083999D01*
X132979809Y-57016941D01*
X133204190Y-56887395D01*
X133387395Y-56704190D01*
X133516941Y-56479809D01*
X133583999Y-56229546D01*
X133583999Y-55970454D01*
X133516941Y-55720191D01*
X133387395Y-55495810D01*
X133204190Y-55312605D01*
X132979809Y-55183059D01*
X132729546Y-55116001D01*
X132470454Y-55116001D01*
X132220191Y-55183059D01*
X131995810Y-55312605D01*
X131812605Y-55495810D01*
X131683059Y-55720191D01*
X131616001Y-55970454D01*
X118850159Y-55970454D01*
X118850159Y-55956194D01*
X118783101Y-55705931D01*
X118653555Y-55481550D01*
X118470350Y-55298345D01*
X118245969Y-55168799D01*
X117995706Y-55101741D01*
X117736614Y-55101741D01*
X117486351Y-55168799D01*
X117261970Y-55298345D01*
X117078765Y-55481550D01*
X116949219Y-55705931D01*
X116882161Y-55956194D01*
X116377700Y-55956194D01*
X116376204Y-55953604D01*
X116192999Y-55770399D01*
X115968618Y-55640853D01*
X115718355Y-55573795D01*
X115459263Y-55573795D01*
X115209000Y-55640853D01*
X114984619Y-55770399D01*
X114801414Y-55953604D01*
X114671868Y-56177985D01*
X114604810Y-56428248D01*
X107334212Y-56428248D01*
X107316941Y-56363792D01*
X107187395Y-56139411D01*
X107004190Y-55956206D01*
X106779809Y-55826660D01*
X106529546Y-55759602D01*
X106270454Y-55759602D01*
X106020191Y-55826660D01*
X105795810Y-55956206D01*
X105612605Y-56139411D01*
X105483059Y-56363792D01*
X105416001Y-56614055D01*
X89828328Y-56614055D01*
X89890595Y-56551788D01*
X90020141Y-56327407D01*
X90087199Y-56077144D01*
X90087199Y-55818052D01*
X90020141Y-55567789D01*
X89890595Y-55343408D01*
X89707390Y-55160203D01*
X89483009Y-55030657D01*
X89232746Y-54963599D01*
X88973654Y-54963599D01*
X88881251Y-54988358D01*
X88816941Y-54748351D01*
X88712476Y-54567411D01*
X88766399Y-54366166D01*
X88766399Y-54107074D01*
X88749385Y-54043574D01*
X91606621Y-54043574D01*
X91606621Y-54302666D01*
X91673679Y-54552929D01*
X91803225Y-54777310D01*
X91986430Y-54960515D01*
X92210811Y-55090061D01*
X92461074Y-55157119D01*
X92720166Y-55157119D01*
X92970429Y-55090061D01*
X93194810Y-54960515D01*
X93291272Y-54864053D01*
X98563681Y-54864053D01*
X98563681Y-55123145D01*
X98630739Y-55373408D01*
X98760285Y-55597789D01*
X98943490Y-55780994D01*
X99167871Y-55910540D01*
X99418134Y-55977598D01*
X99677226Y-55977598D01*
X99927489Y-55910540D01*
X100151870Y-55780994D01*
X100335075Y-55597789D01*
X100464621Y-55373408D01*
X100531679Y-55123145D01*
X100531679Y-54864053D01*
X100464621Y-54613790D01*
X100335075Y-54389409D01*
X100151870Y-54206204D01*
X99927489Y-54076658D01*
X99677226Y-54009600D01*
X99418134Y-54009600D01*
X99167871Y-54076658D01*
X98943490Y-54206204D01*
X98760285Y-54389409D01*
X98630739Y-54613790D01*
X98563681Y-54864053D01*
X93291272Y-54864053D01*
X93378015Y-54777310D01*
X93507561Y-54552929D01*
X93574619Y-54302666D01*
X93574619Y-54043574D01*
X93507561Y-53793311D01*
X93378015Y-53568930D01*
X93359899Y-53550814D01*
X101624381Y-53550814D01*
X101624381Y-53809906D01*
X101691439Y-54060169D01*
X101820985Y-54284550D01*
X102004190Y-54467755D01*
X102228571Y-54597301D01*
X102478834Y-54664359D01*
X102737926Y-54664359D01*
X102988189Y-54597301D01*
X103212570Y-54467755D01*
X103395775Y-54284550D01*
X103525321Y-54060169D01*
X103592379Y-53809906D01*
X103592379Y-53627014D01*
X104154221Y-53627014D01*
X104154221Y-53886106D01*
X104221279Y-54136369D01*
X104350825Y-54360750D01*
X104534030Y-54543955D01*
X104758411Y-54673501D01*
X105008674Y-54740559D01*
X105267766Y-54740559D01*
X105385343Y-54709054D01*
X120247661Y-54709054D01*
X120247661Y-54968146D01*
X120314719Y-55218409D01*
X120444265Y-55442790D01*
X120627470Y-55625995D01*
X120851851Y-55755541D01*
X121102114Y-55822599D01*
X121361206Y-55822599D01*
X121611469Y-55755541D01*
X121835850Y-55625995D01*
X122019055Y-55442790D01*
X122148601Y-55218409D01*
X122215659Y-54968146D01*
X122215659Y-54709054D01*
X122148601Y-54458791D01*
X122019055Y-54234410D01*
X121835850Y-54051205D01*
X121611469Y-53921659D01*
X121361206Y-53854601D01*
X121102114Y-53854601D01*
X120851851Y-53921659D01*
X120627470Y-54051205D01*
X120444265Y-54234410D01*
X120314719Y-54458791D01*
X120247661Y-54709054D01*
X105385343Y-54709054D01*
X105518029Y-54673501D01*
X105742410Y-54543955D01*
X105925615Y-54360750D01*
X106055161Y-54136369D01*
X106122219Y-53886106D01*
X106122219Y-53627014D01*
X106068453Y-53426354D01*
X116562121Y-53426354D01*
X116562121Y-53685446D01*
X116629179Y-53935709D01*
X116758725Y-54160090D01*
X116941930Y-54343295D01*
X117166311Y-54472841D01*
X117416574Y-54539899D01*
X117675666Y-54539899D01*
X117925929Y-54472841D01*
X118150310Y-54343295D01*
X118333515Y-54160090D01*
X118463061Y-53935709D01*
X118530119Y-53685446D01*
X118530119Y-53426354D01*
X118463061Y-53176091D01*
X118385337Y-53041468D01*
X118531635Y-52895170D01*
X118661181Y-52670789D01*
X118728239Y-52420526D01*
X118728239Y-52161434D01*
X118661181Y-51911171D01*
X118531635Y-51686790D01*
X118348430Y-51503585D01*
X118124049Y-51374039D01*
X117873786Y-51306981D01*
X117614694Y-51306981D01*
X117364431Y-51374039D01*
X117140050Y-51503585D01*
X116956845Y-51686790D01*
X116827299Y-51911171D01*
X116760241Y-52161434D01*
X116760241Y-52420526D01*
X116827299Y-52670789D01*
X116905023Y-52805412D01*
X116758725Y-52951710D01*
X116629179Y-53176091D01*
X116562121Y-53426354D01*
X106068453Y-53426354D01*
X106055161Y-53376751D01*
X105925615Y-53152370D01*
X105742410Y-52969165D01*
X105518029Y-52839619D01*
X105267766Y-52772561D01*
X105008674Y-52772561D01*
X104758411Y-52839619D01*
X104534030Y-52969165D01*
X104350825Y-53152370D01*
X104221279Y-53376751D01*
X104154221Y-53627014D01*
X103592379Y-53627014D01*
X103592379Y-53550814D01*
X103525321Y-53300551D01*
X103395775Y-53076170D01*
X103212570Y-52892965D01*
X102988189Y-52763419D01*
X102737926Y-52696361D01*
X102478834Y-52696361D01*
X102228571Y-52763419D01*
X102004190Y-52892965D01*
X101820985Y-53076170D01*
X101691439Y-53300551D01*
X101624381Y-53550814D01*
X93359899Y-53550814D01*
X93194810Y-53385725D01*
X92970429Y-53256179D01*
X92720166Y-53189121D01*
X92461074Y-53189121D01*
X92210811Y-53256179D01*
X91986430Y-53385725D01*
X91803225Y-53568930D01*
X91673679Y-53793311D01*
X91606621Y-54043574D01*
X88749385Y-54043574D01*
X88699341Y-53856811D01*
X88569795Y-53632430D01*
X88386590Y-53449225D01*
X88162209Y-53319679D01*
X87911946Y-53252621D01*
X87652854Y-53252621D01*
X87402591Y-53319679D01*
X87178210Y-53449225D01*
X86995005Y-53632430D01*
X86865459Y-53856811D01*
X86798401Y-54107074D01*
X81836000Y-54107074D01*
X81836000Y-52727854D01*
X88665301Y-52727854D01*
X88665301Y-52986946D01*
X88732359Y-53237209D01*
X88861905Y-53461590D01*
X89045110Y-53644795D01*
X89269491Y-53774341D01*
X89519754Y-53841399D01*
X89778846Y-53841399D01*
X90029109Y-53774341D01*
X90253490Y-53644795D01*
X90436695Y-53461590D01*
X90566241Y-53237209D01*
X90633299Y-52986946D01*
X90633299Y-52727854D01*
X90566241Y-52477591D01*
X90436695Y-52253210D01*
X90253490Y-52070005D01*
X90029109Y-51940459D01*
X89778846Y-51873401D01*
X89519754Y-51873401D01*
X89269491Y-51940459D01*
X89045110Y-52070005D01*
X88861905Y-52253210D01*
X88732359Y-52477591D01*
X88665301Y-52727854D01*
X81836000Y-52727854D01*
X81836000Y-50271454D01*
X83042001Y-50271454D01*
X83042001Y-50530546D01*
X83109059Y-50780809D01*
X83238605Y-51005190D01*
X83421810Y-51188395D01*
X83646191Y-51317941D01*
X83896454Y-51384999D01*
X84155546Y-51384999D01*
X84405809Y-51317941D01*
X84630190Y-51188395D01*
X84813395Y-51005190D01*
X84932059Y-50799658D01*
X85137591Y-50680994D01*
X85303456Y-50515129D01*
X93915890Y-50515129D01*
X94115384Y-50694756D01*
X94436257Y-50927884D01*
X94779743Y-51126196D01*
X95142075Y-51287517D01*
X95519285Y-51410080D01*
X95907239Y-51492542D01*
X96301689Y-51534000D01*
X96698311Y-51534000D01*
X96903214Y-51512464D01*
X98537011Y-51512464D01*
X98537011Y-51771556D01*
X98604069Y-52021819D01*
X98733615Y-52246200D01*
X98916820Y-52429405D01*
X99141201Y-52558951D01*
X99391464Y-52626009D01*
X99650556Y-52626009D01*
X99900819Y-52558951D01*
X100125200Y-52429405D01*
X100308405Y-52246200D01*
X100437951Y-52021819D01*
X100447898Y-51984698D01*
X100485019Y-51974751D01*
X100709400Y-51845205D01*
X100892605Y-51662000D01*
X100970873Y-51526434D01*
X114827301Y-51526434D01*
X114827301Y-51785526D01*
X114894359Y-52035789D01*
X115023905Y-52260170D01*
X115207110Y-52443375D01*
X115431491Y-52572921D01*
X115681754Y-52639979D01*
X115940846Y-52639979D01*
X116191109Y-52572921D01*
X116415490Y-52443375D01*
X116598695Y-52260170D01*
X116728241Y-52035789D01*
X116795299Y-51785526D01*
X116795299Y-51526434D01*
X116728241Y-51276171D01*
X116598695Y-51051790D01*
X116415490Y-50868585D01*
X116191109Y-50739039D01*
X115940846Y-50671981D01*
X115681754Y-50671981D01*
X115431491Y-50739039D01*
X115207110Y-50868585D01*
X115023905Y-51051790D01*
X114894359Y-51276171D01*
X114827301Y-51526434D01*
X100970873Y-51526434D01*
X101022151Y-51437619D01*
X101089209Y-51187356D01*
X101089209Y-50928264D01*
X101022151Y-50678001D01*
X100892605Y-50453620D01*
X100709400Y-50270415D01*
X100485019Y-50140869D01*
X100234756Y-50073811D01*
X99975664Y-50073811D01*
X99725401Y-50140869D01*
X99501020Y-50270415D01*
X99317815Y-50453620D01*
X99188269Y-50678001D01*
X99178322Y-50715122D01*
X99141201Y-50725069D01*
X98916820Y-50854615D01*
X98733615Y-51037820D01*
X98604069Y-51262201D01*
X98537011Y-51512464D01*
X96903214Y-51512464D01*
X97092761Y-51492542D01*
X97480715Y-51410080D01*
X97857925Y-51287517D01*
X98220257Y-51126196D01*
X98563743Y-50927884D01*
X98884616Y-50694756D01*
X99084110Y-50515129D01*
X96500000Y-47931019D01*
X93915890Y-50515129D01*
X85303456Y-50515129D01*
X85320796Y-50497789D01*
X85450342Y-50273408D01*
X85517400Y-50023145D01*
X85517400Y-49764053D01*
X85450342Y-49513790D01*
X85320796Y-49289409D01*
X85137591Y-49106204D01*
X85088522Y-49077874D01*
X86973661Y-49077874D01*
X86973661Y-49336966D01*
X87040719Y-49587229D01*
X87170265Y-49811610D01*
X87353470Y-49994815D01*
X87577851Y-50124361D01*
X87828114Y-50191419D01*
X88087206Y-50191419D01*
X88337469Y-50124361D01*
X88561850Y-49994815D01*
X88745055Y-49811610D01*
X88874601Y-49587229D01*
X88941659Y-49336966D01*
X88941659Y-49077874D01*
X88874601Y-48827611D01*
X88745055Y-48603230D01*
X88561850Y-48420025D01*
X88337469Y-48290479D01*
X88087206Y-48223421D01*
X87828114Y-48223421D01*
X87577851Y-48290479D01*
X87353470Y-48420025D01*
X87170265Y-48603230D01*
X87040719Y-48827611D01*
X86973661Y-49077874D01*
X85088522Y-49077874D01*
X84913210Y-48976658D01*
X84662947Y-48909600D01*
X84403855Y-48909600D01*
X84153592Y-48976658D01*
X83929211Y-49106204D01*
X83746006Y-49289409D01*
X83627342Y-49494941D01*
X83421810Y-49613605D01*
X83238605Y-49796810D01*
X83109059Y-50021191D01*
X83042001Y-50271454D01*
X81836000Y-50271454D01*
X81836000Y-50194999D01*
X81858956Y-50194999D01*
X82109219Y-50127941D01*
X82333600Y-49998395D01*
X82496176Y-49835819D01*
X82583700Y-49835819D01*
X82833963Y-49768761D01*
X83058344Y-49639215D01*
X83241549Y-49456010D01*
X83371095Y-49231629D01*
X83438153Y-48981366D01*
X83438153Y-48722274D01*
X83371095Y-48472011D01*
X83241549Y-48247630D01*
X83058344Y-48064425D01*
X82833963Y-47934879D01*
X82817410Y-47930443D01*
X82817410Y-46492154D01*
X86783161Y-46492154D01*
X86783161Y-46751246D01*
X86850219Y-47001509D01*
X86979765Y-47225890D01*
X87162970Y-47409095D01*
X87387351Y-47538641D01*
X87637614Y-47605699D01*
X87896706Y-47605699D01*
X88098273Y-47551689D01*
X92716000Y-47551689D01*
X92716000Y-47948311D01*
X92757458Y-48342761D01*
X92839920Y-48730715D01*
X92962483Y-49107925D01*
X93123804Y-49470257D01*
X93322116Y-49813743D01*
X93555244Y-50134616D01*
X93734871Y-50334110D01*
X96318981Y-47750000D01*
X96681019Y-47750000D01*
X99265129Y-50334110D01*
X99444756Y-50134616D01*
X99677884Y-49813743D01*
X99876196Y-49470257D01*
X100037517Y-49107925D01*
X100098430Y-48920454D01*
X119966001Y-48920454D01*
X119966001Y-49179546D01*
X120033059Y-49429809D01*
X120162605Y-49654190D01*
X120345810Y-49837395D01*
X120570191Y-49966941D01*
X120656601Y-49990095D01*
X120656601Y-50007526D01*
X120723659Y-50257789D01*
X120849582Y-50475895D01*
X120767359Y-50618311D01*
X120700301Y-50868574D01*
X120700301Y-51127666D01*
X120767359Y-51377929D01*
X120896905Y-51602310D01*
X121080110Y-51785515D01*
X121304491Y-51915061D01*
X121554754Y-51982119D01*
X121813846Y-51982119D01*
X122043982Y-51920454D01*
X132016001Y-51920454D01*
X132016001Y-52179546D01*
X132083059Y-52429809D01*
X132212605Y-52654190D01*
X132395810Y-52837395D01*
X132620191Y-52966941D01*
X132870454Y-53033999D01*
X133129546Y-53033999D01*
X133379809Y-52966941D01*
X133604190Y-52837395D01*
X133695973Y-52745612D01*
X133778405Y-52888390D01*
X133961610Y-53071595D01*
X134185991Y-53201141D01*
X134436254Y-53268199D01*
X134695346Y-53268199D01*
X134945609Y-53201141D01*
X135169990Y-53071595D01*
X135353195Y-52888390D01*
X135482741Y-52664009D01*
X135549799Y-52413746D01*
X135549799Y-52154654D01*
X135482741Y-51904391D01*
X135353195Y-51680010D01*
X135169990Y-51496805D01*
X134945609Y-51367259D01*
X134695346Y-51300201D01*
X134436254Y-51300201D01*
X134185991Y-51367259D01*
X133961610Y-51496805D01*
X133869827Y-51588588D01*
X133787395Y-51445810D01*
X133604190Y-51262605D01*
X133379809Y-51133059D01*
X133129546Y-51066001D01*
X132870454Y-51066001D01*
X132620191Y-51133059D01*
X132395810Y-51262605D01*
X132212605Y-51445810D01*
X132083059Y-51670191D01*
X132016001Y-51920454D01*
X122043982Y-51920454D01*
X122064109Y-51915061D01*
X122288490Y-51785515D01*
X122471695Y-51602310D01*
X122601241Y-51377929D01*
X122668299Y-51127666D01*
X122668299Y-50868574D01*
X122601241Y-50618311D01*
X122475318Y-50400205D01*
X122557541Y-50257789D01*
X122624599Y-50007526D01*
X122624599Y-49820454D01*
X132016001Y-49820454D01*
X132016001Y-50079546D01*
X132083059Y-50329809D01*
X132212605Y-50554190D01*
X132395810Y-50737395D01*
X132620191Y-50866941D01*
X132870454Y-50933999D01*
X133129546Y-50933999D01*
X133379809Y-50866941D01*
X133604190Y-50737395D01*
X133787395Y-50554190D01*
X133869827Y-50411412D01*
X133995810Y-50537395D01*
X134220191Y-50666941D01*
X134470454Y-50733999D01*
X134729546Y-50733999D01*
X134979809Y-50666941D01*
X135204190Y-50537395D01*
X135387395Y-50354190D01*
X135516941Y-50129809D01*
X135583999Y-49879546D01*
X135583999Y-49620454D01*
X135516941Y-49370191D01*
X135387395Y-49145810D01*
X135204190Y-48962605D01*
X134979809Y-48833059D01*
X134729546Y-48766001D01*
X134470454Y-48766001D01*
X134220191Y-48833059D01*
X133995810Y-48962605D01*
X133812605Y-49145810D01*
X133730173Y-49288588D01*
X133604190Y-49162605D01*
X133379809Y-49033059D01*
X133129546Y-48966001D01*
X132870454Y-48966001D01*
X132620191Y-49033059D01*
X132395810Y-49162605D01*
X132212605Y-49345810D01*
X132083059Y-49570191D01*
X132016001Y-49820454D01*
X122624599Y-49820454D01*
X122624599Y-49748434D01*
X122557541Y-49498171D01*
X122427995Y-49273790D01*
X122244790Y-49090585D01*
X122020409Y-48961039D01*
X121933999Y-48937885D01*
X121933999Y-48920454D01*
X121866941Y-48670191D01*
X121737395Y-48445810D01*
X121554190Y-48262605D01*
X121329809Y-48133059D01*
X121079546Y-48066001D01*
X120820454Y-48066001D01*
X120570191Y-48133059D01*
X120345810Y-48262605D01*
X120162605Y-48445810D01*
X120033059Y-48670191D01*
X119966001Y-48920454D01*
X100098430Y-48920454D01*
X100160080Y-48730715D01*
X100242542Y-48342761D01*
X100284000Y-47948311D01*
X100284000Y-47551689D01*
X100268717Y-47406275D01*
X107832141Y-47406275D01*
X107832141Y-47665367D01*
X107899199Y-47915630D01*
X108028745Y-48140011D01*
X108211950Y-48323216D01*
X108436331Y-48452762D01*
X108686594Y-48519820D01*
X108945686Y-48519820D01*
X109195949Y-48452762D01*
X109420330Y-48323216D01*
X109603535Y-48140011D01*
X109733081Y-47915630D01*
X109800139Y-47665367D01*
X109800139Y-47406275D01*
X109869221Y-47406275D01*
X109869221Y-47665367D01*
X109936279Y-47915630D01*
X110065825Y-48140011D01*
X110249030Y-48323216D01*
X110473411Y-48452762D01*
X110723674Y-48519820D01*
X110982766Y-48519820D01*
X111233029Y-48452762D01*
X111457410Y-48323216D01*
X111640615Y-48140011D01*
X111770161Y-47915630D01*
X111837219Y-47665367D01*
X111837219Y-47406275D01*
X111770161Y-47156012D01*
X111640615Y-46931631D01*
X111457410Y-46748426D01*
X111233029Y-46618880D01*
X110982766Y-46551822D01*
X110723674Y-46551822D01*
X110473411Y-46618880D01*
X110249030Y-46748426D01*
X110065825Y-46931631D01*
X109936279Y-47156012D01*
X109869221Y-47406275D01*
X109800139Y-47406275D01*
X109733081Y-47156012D01*
X109603535Y-46931631D01*
X109420330Y-46748426D01*
X109195949Y-46618880D01*
X108945686Y-46551822D01*
X108686594Y-46551822D01*
X108436331Y-46618880D01*
X108211950Y-46748426D01*
X108028745Y-46931631D01*
X107899199Y-47156012D01*
X107832141Y-47406275D01*
X100268717Y-47406275D01*
X100242542Y-47157239D01*
X100160080Y-46769285D01*
X100037517Y-46392075D01*
X99876196Y-46029743D01*
X99820546Y-45933354D01*
X122688601Y-45933354D01*
X122688601Y-46192446D01*
X122755659Y-46442709D01*
X122885205Y-46667090D01*
X123068410Y-46850295D01*
X123292791Y-46979841D01*
X123543054Y-47046899D01*
X123802146Y-47046899D01*
X124052409Y-46979841D01*
X124276790Y-46850295D01*
X124459995Y-46667090D01*
X124589541Y-46442709D01*
X124656599Y-46192446D01*
X124656599Y-45933354D01*
X124613042Y-45770794D01*
X133618221Y-45770794D01*
X133618221Y-46029886D01*
X133685279Y-46280149D01*
X133814825Y-46504530D01*
X133991925Y-46681630D01*
X133883059Y-46870191D01*
X133816001Y-47120454D01*
X133816001Y-47379546D01*
X133883059Y-47629809D01*
X134012605Y-47854190D01*
X134195810Y-48037395D01*
X134420191Y-48166941D01*
X134670454Y-48233999D01*
X134929546Y-48233999D01*
X135179809Y-48166941D01*
X135404190Y-48037395D01*
X135587395Y-47854190D01*
X135716941Y-47629809D01*
X135783999Y-47379546D01*
X135783999Y-47120454D01*
X135716941Y-46870191D01*
X135587395Y-46645810D01*
X135410295Y-46468710D01*
X135519161Y-46280149D01*
X135586219Y-46029886D01*
X135586219Y-45770794D01*
X135519161Y-45520531D01*
X135389615Y-45296150D01*
X135376585Y-45283120D01*
X135399775Y-45259930D01*
X135529321Y-45035549D01*
X135596379Y-44785286D01*
X135596379Y-44526194D01*
X135529321Y-44275931D01*
X135399775Y-44051550D01*
X135216570Y-43868345D01*
X134992189Y-43738799D01*
X134741926Y-43671741D01*
X134482834Y-43671741D01*
X134232571Y-43738799D01*
X134008190Y-43868345D01*
X133824985Y-44051550D01*
X133695439Y-44275931D01*
X133628381Y-44526194D01*
X133628381Y-44785286D01*
X133695439Y-45035549D01*
X133824985Y-45259930D01*
X133838015Y-45272960D01*
X133814825Y-45296150D01*
X133685279Y-45520531D01*
X133618221Y-45770794D01*
X124613042Y-45770794D01*
X124589541Y-45683091D01*
X124459995Y-45458710D01*
X124276790Y-45275505D01*
X124052409Y-45145959D01*
X123802146Y-45078901D01*
X123543054Y-45078901D01*
X123292791Y-45145959D01*
X123068410Y-45275505D01*
X122885205Y-45458710D01*
X122755659Y-45683091D01*
X122688601Y-45933354D01*
X99820546Y-45933354D01*
X99677884Y-45686257D01*
X99444756Y-45365384D01*
X99265129Y-45165890D01*
X96681019Y-47750000D01*
X96318981Y-47750000D01*
X93734871Y-45165890D01*
X93555244Y-45365384D01*
X93322116Y-45686257D01*
X93123804Y-46029743D01*
X92962483Y-46392075D01*
X92839920Y-46769285D01*
X92757458Y-47157239D01*
X92716000Y-47551689D01*
X88098273Y-47551689D01*
X88146969Y-47538641D01*
X88371350Y-47409095D01*
X88554555Y-47225890D01*
X88684101Y-47001509D01*
X88751159Y-46751246D01*
X88751159Y-46492154D01*
X88684101Y-46241891D01*
X88554555Y-46017510D01*
X88371350Y-45834305D01*
X88146969Y-45704759D01*
X87896706Y-45637701D01*
X87637614Y-45637701D01*
X87387351Y-45704759D01*
X87162970Y-45834305D01*
X86979765Y-46017510D01*
X86850219Y-46241891D01*
X86783161Y-46492154D01*
X82817410Y-46492154D01*
X82817410Y-44960534D01*
X85231221Y-44960534D01*
X85231221Y-45219626D01*
X85298279Y-45469889D01*
X85427825Y-45694270D01*
X85611030Y-45877475D01*
X85835411Y-46007021D01*
X86085674Y-46074079D01*
X86344766Y-46074079D01*
X86595029Y-46007021D01*
X86819410Y-45877475D01*
X87002615Y-45694270D01*
X87132161Y-45469889D01*
X87199219Y-45219626D01*
X87199219Y-44984871D01*
X93915890Y-44984871D01*
X96500000Y-47568981D01*
X99084110Y-44984871D01*
X98884616Y-44805244D01*
X98563743Y-44572116D01*
X98220257Y-44373804D01*
X97857925Y-44212483D01*
X97480715Y-44089920D01*
X97092761Y-44007458D01*
X96698311Y-43966000D01*
X96301689Y-43966000D01*
X95907239Y-44007458D01*
X95519285Y-44089920D01*
X95142075Y-44212483D01*
X94779743Y-44373804D01*
X94436257Y-44572116D01*
X94115384Y-44805244D01*
X93915890Y-44984871D01*
X87199219Y-44984871D01*
X87199219Y-44960534D01*
X87132161Y-44710271D01*
X87002615Y-44485890D01*
X86819410Y-44302685D01*
X86595029Y-44173139D01*
X86344766Y-44106081D01*
X86085674Y-44106081D01*
X85835411Y-44173139D01*
X85611030Y-44302685D01*
X85427825Y-44485890D01*
X85298279Y-44710271D01*
X85231221Y-44960534D01*
X82817410Y-44960534D01*
X82817410Y-43520454D01*
X116666001Y-43520454D01*
X116666001Y-43779546D01*
X116733059Y-44029809D01*
X116862605Y-44254190D01*
X117045810Y-44437395D01*
X117270191Y-44566941D01*
X117520454Y-44633999D01*
X117779546Y-44633999D01*
X118029809Y-44566941D01*
X118254190Y-44437395D01*
X118437395Y-44254190D01*
X118566941Y-44029809D01*
X118633999Y-43779546D01*
X118633999Y-43520454D01*
X118566941Y-43270191D01*
X118437395Y-43045810D01*
X118254190Y-42862605D01*
X118029809Y-42733059D01*
X117779546Y-42666001D01*
X117520454Y-42666001D01*
X117270191Y-42733059D01*
X117045810Y-42862605D01*
X116862605Y-43045810D01*
X116733059Y-43270191D01*
X116666001Y-43520454D01*
X82817410Y-43520454D01*
X82817410Y-41733805D01*
X82990215Y-41561000D01*
X83435402Y-41561000D01*
X83435408Y-41560999D01*
X83495529Y-41560999D01*
X83553193Y-41542263D01*
X83613093Y-41532776D01*
X83667126Y-41505245D01*
X83724793Y-41486508D01*
X83773847Y-41450867D01*
X83827880Y-41423336D01*
X83998683Y-41252533D01*
X83998684Y-41252531D01*
X84139033Y-41112183D01*
X84220454Y-41133999D01*
X84479546Y-41133999D01*
X84729809Y-41066941D01*
X84954190Y-40937395D01*
X85137395Y-40754190D01*
X85266941Y-40529809D01*
X85333999Y-40279546D01*
X85333999Y-40020454D01*
X85266941Y-39770191D01*
X85144648Y-39558373D01*
X85354190Y-39437395D01*
X85428015Y-39363570D01*
X86275929Y-39363570D01*
X86275929Y-39622662D01*
X86342987Y-39872925D01*
X86472533Y-40097306D01*
X86655738Y-40280511D01*
X86880119Y-40410057D01*
X87130382Y-40477115D01*
X87389474Y-40477115D01*
X87639737Y-40410057D01*
X87864118Y-40280511D01*
X88047323Y-40097306D01*
X88166001Y-39891749D01*
X88166001Y-40029546D01*
X88233059Y-40279809D01*
X88362605Y-40504190D01*
X88545810Y-40687395D01*
X88770191Y-40816941D01*
X89020454Y-40883999D01*
X89279546Y-40883999D01*
X89529809Y-40816941D01*
X89618701Y-40765619D01*
X99600777Y-40765619D01*
X99615729Y-41003276D01*
X99672529Y-41234530D01*
X99769384Y-41452069D01*
X99903232Y-41649019D01*
X100069840Y-41819155D01*
X100263945Y-41957097D01*
X100479408Y-42058487D01*
X100709421Y-42120118D01*
X100946713Y-42140044D01*
X101183783Y-42117635D01*
X101413138Y-42053597D01*
X101627528Y-41949957D01*
X101736460Y-41870813D01*
X101837565Y-41991305D01*
X102031194Y-42103096D01*
X102240356Y-42139977D01*
X103667968Y-42139977D01*
X103968892Y-42059345D01*
X104144545Y-41911955D01*
X104256336Y-41718326D01*
X104293217Y-41509164D01*
X104293217Y-40765619D01*
X107474777Y-40765619D01*
X107489729Y-41003276D01*
X107546529Y-41234530D01*
X107643384Y-41452069D01*
X107777232Y-41649019D01*
X107943840Y-41819155D01*
X108137945Y-41957097D01*
X108353408Y-42058487D01*
X108583421Y-42120118D01*
X108820713Y-42140044D01*
X109057783Y-42117635D01*
X109287138Y-42053597D01*
X109501528Y-41949957D01*
X109610460Y-41870813D01*
X109711565Y-41991305D01*
X109905194Y-42103096D01*
X110114356Y-42139977D01*
X111541968Y-42139977D01*
X111842892Y-42059345D01*
X111914934Y-41998894D01*
X113397281Y-41998894D01*
X113397281Y-42257986D01*
X113464339Y-42508249D01*
X113593885Y-42732630D01*
X113777090Y-42915835D01*
X114001471Y-43045381D01*
X114251734Y-43112439D01*
X114510826Y-43112439D01*
X114761089Y-43045381D01*
X114981279Y-42918255D01*
X115194125Y-43041141D01*
X115444388Y-43108199D01*
X115703480Y-43108199D01*
X115953743Y-43041141D01*
X116178124Y-42911595D01*
X116361329Y-42728390D01*
X116490875Y-42504009D01*
X116557933Y-42253746D01*
X116557933Y-41994654D01*
X133741801Y-41994654D01*
X133741801Y-42253746D01*
X133808859Y-42504009D01*
X133938405Y-42728390D01*
X134121610Y-42911595D01*
X134345991Y-43041141D01*
X134596254Y-43108199D01*
X134855346Y-43108199D01*
X135105609Y-43041141D01*
X135329990Y-42911595D01*
X135513195Y-42728390D01*
X135642741Y-42504009D01*
X135709799Y-42253746D01*
X135709799Y-41994654D01*
X135642741Y-41744391D01*
X135513195Y-41520010D01*
X135329990Y-41336805D01*
X135105609Y-41207259D01*
X134855346Y-41140201D01*
X134596254Y-41140201D01*
X134345991Y-41207259D01*
X134121610Y-41336805D01*
X133938405Y-41520010D01*
X133808859Y-41744391D01*
X133741801Y-41994654D01*
X116557933Y-41994654D01*
X116490875Y-41744391D01*
X116361329Y-41520010D01*
X116178124Y-41336805D01*
X115953743Y-41207259D01*
X115703480Y-41140201D01*
X115444388Y-41140201D01*
X115194125Y-41207259D01*
X114973935Y-41334385D01*
X114761089Y-41211499D01*
X114510826Y-41144441D01*
X114251734Y-41144441D01*
X114001471Y-41211499D01*
X113777090Y-41341045D01*
X113593885Y-41524250D01*
X113464339Y-41748631D01*
X113397281Y-41998894D01*
X111914934Y-41998894D01*
X112018545Y-41911955D01*
X112130336Y-41718326D01*
X112167217Y-41509164D01*
X112167217Y-40081552D01*
X112086585Y-39780629D01*
X111939195Y-39604975D01*
X111745566Y-39493184D01*
X111536404Y-39456303D01*
X110108792Y-39456303D01*
X109807869Y-39536935D01*
X109632215Y-39684325D01*
X109607613Y-39726938D01*
X109560734Y-39688976D01*
X109352062Y-39574257D01*
X109126373Y-39498304D01*
X108890800Y-39463518D01*
X108652790Y-39470997D01*
X108419868Y-39520507D01*
X108199393Y-39610481D01*
X107998335Y-39738076D01*
X107823051Y-39899258D01*
X107679079Y-40088934D01*
X107570972Y-40301107D01*
X107502145Y-40529070D01*
X107474777Y-40765619D01*
X104293217Y-40765619D01*
X104293217Y-40081552D01*
X104212585Y-39780629D01*
X104065195Y-39604975D01*
X103871566Y-39493184D01*
X103662404Y-39456303D01*
X102234792Y-39456303D01*
X101933869Y-39536935D01*
X101758215Y-39684325D01*
X101733613Y-39726938D01*
X101686734Y-39688976D01*
X101478062Y-39574257D01*
X101252373Y-39498304D01*
X101016800Y-39463518D01*
X100778790Y-39470997D01*
X100545868Y-39520507D01*
X100325393Y-39610481D01*
X100124335Y-39738076D01*
X99949051Y-39899258D01*
X99805079Y-40088934D01*
X99696972Y-40301107D01*
X99628145Y-40529070D01*
X99600777Y-40765619D01*
X89618701Y-40765619D01*
X89754190Y-40687395D01*
X89937395Y-40504190D01*
X89970774Y-40446376D01*
X89992736Y-40465568D01*
X90196142Y-40584191D01*
X90418311Y-40662211D01*
X90651224Y-40696813D01*
X90886478Y-40686747D01*
X91115584Y-40632377D01*
X91330276Y-40535666D01*
X91522807Y-40400102D01*
X91686229Y-40230576D01*
X91814648Y-40033208D01*
X91903428Y-39815115D01*
X91949398Y-39584008D01*
X91950241Y-39342406D01*
X91905886Y-39110982D01*
X91818630Y-38892276D01*
X91691593Y-38694015D01*
X91529358Y-38523354D01*
X91337778Y-38386449D01*
X91123766Y-38288240D01*
X90895045Y-38232273D01*
X90659867Y-38220565D01*
X90426718Y-38253539D01*
X90204011Y-38330007D01*
X89999781Y-38447207D01*
X89920428Y-38515582D01*
X89865201Y-38309471D01*
X89735655Y-38085090D01*
X89552450Y-37901885D01*
X89328069Y-37772339D01*
X89077806Y-37705281D01*
X88818714Y-37705281D01*
X88568451Y-37772339D01*
X88344070Y-37901885D01*
X88160865Y-38085090D01*
X88031319Y-38309471D01*
X87964261Y-38559734D01*
X87964261Y-38805864D01*
X87864118Y-38705721D01*
X87639737Y-38576175D01*
X87389474Y-38509117D01*
X87130382Y-38509117D01*
X86880119Y-38576175D01*
X86655738Y-38705721D01*
X86472533Y-38888926D01*
X86342987Y-39113307D01*
X86275929Y-39363570D01*
X85428015Y-39363570D01*
X85537395Y-39254190D01*
X85666941Y-39029809D01*
X85733999Y-38779546D01*
X85733999Y-38520454D01*
X85666941Y-38270191D01*
X85537395Y-38045810D01*
X85354190Y-37862605D01*
X85129809Y-37733059D01*
X84879546Y-37666001D01*
X84842217Y-37666001D01*
X84598685Y-37422470D01*
X84598684Y-37422468D01*
X84427881Y-37251665D01*
X84373848Y-37224134D01*
X84324794Y-37188493D01*
X84267127Y-37169756D01*
X84213094Y-37142225D01*
X84153194Y-37132738D01*
X84095530Y-37114002D01*
X84035409Y-37114002D01*
X84035403Y-37114001D01*
X81044623Y-37114001D01*
X81044617Y-37114002D01*
X80984494Y-37114002D01*
X80926831Y-37132738D01*
X80866932Y-37142225D01*
X80812898Y-37169756D01*
X80755231Y-37188494D01*
X80706174Y-37224136D01*
X80652145Y-37251665D01*
X80602254Y-37301557D01*
X80208010Y-37695802D01*
X80051666Y-37852145D01*
X80024138Y-37906170D01*
X79988491Y-37955234D01*
X79969752Y-38012909D01*
X79942225Y-38066932D01*
X79932739Y-38126827D01*
X79914001Y-38184497D01*
X79914001Y-38255052D01*
X79914000Y-41110401D01*
X79914001Y-41110407D01*
X79914001Y-41170529D01*
X79932736Y-41228191D01*
X79942224Y-41288092D01*
X79969752Y-41342120D01*
X79988492Y-41399794D01*
X80024138Y-41448855D01*
X80051664Y-41502879D01*
X80222467Y-41673683D01*
X80222469Y-41673684D01*
X80439001Y-41890217D01*
X80439000Y-47284784D01*
X79783009Y-47940776D01*
X79626666Y-48097119D01*
X79599138Y-48151144D01*
X79563491Y-48200208D01*
X79544752Y-48257883D01*
X79517225Y-48311906D01*
X79507739Y-48371801D01*
X79489001Y-48429471D01*
X79489001Y-48500026D01*
X79489000Y-68034785D01*
X76557785Y-70966001D01*
X76520454Y-70966001D01*
X76270191Y-71033059D01*
X76045810Y-71162605D01*
X75862605Y-71345810D01*
X75733059Y-71570191D01*
X75666001Y-71820454D01*
X75666001Y-72079546D01*
X75733059Y-72329809D01*
X75862605Y-72554190D01*
X76045810Y-72737395D01*
X76270191Y-72866941D01*
X76520454Y-72933999D01*
X76779546Y-72933999D01*
X77029809Y-72866941D01*
X77254190Y-72737395D01*
X77437395Y-72554190D01*
X77566941Y-72329809D01*
X77633999Y-72079546D01*
X77633999Y-72042215D01*
X79907590Y-69768625D01*
X79907590Y-70616195D01*
X70857785Y-79666001D01*
X70820454Y-79666001D01*
X70570191Y-79733059D01*
X70345810Y-79862605D01*
X70162605Y-80045810D01*
X70033059Y-80270191D01*
X69966001Y-80520454D01*
X63750141Y-80520454D01*
X63784000Y-80198311D01*
X63784000Y-79801689D01*
X63742542Y-79407239D01*
X63660080Y-79019285D01*
X63537517Y-78642075D01*
X63376196Y-78279743D01*
X63177884Y-77936257D01*
X62944756Y-77615384D01*
X62765129Y-77415890D01*
X60181019Y-80000000D01*
X59818981Y-80000000D01*
X57234871Y-77415890D01*
X57055244Y-77615384D01*
X56822116Y-77936257D01*
X56623804Y-78279743D01*
X56462483Y-78642075D01*
X56339920Y-79019285D01*
X56257458Y-79407239D01*
X56216000Y-79801689D01*
X55634000Y-79801689D01*
X55634000Y-77234871D01*
X55634000Y-77234871D01*
G37*
X55634000Y-77234871D02*
X57415890Y-77234871D01*
X60000000Y-79818981D01*
X62584110Y-77234871D01*
X62384616Y-77055244D01*
X62063743Y-76822116D01*
X61720257Y-76623804D01*
X61357925Y-76462483D01*
X60980715Y-76339920D01*
X60592761Y-76257458D01*
X60198311Y-76216000D01*
X59801689Y-76216000D01*
X59407239Y-76257458D01*
X59019285Y-76339920D01*
X58642075Y-76462483D01*
X58279743Y-76623804D01*
X57936257Y-76822116D01*
X57615384Y-77055244D01*
X57415890Y-77234871D01*
X55634000Y-77234871D01*
X55634000Y-70270454D01*
X67766001Y-70270454D01*
X67766001Y-70529546D01*
X67833059Y-70779809D01*
X67962605Y-71004190D01*
X68145810Y-71187395D01*
X68370191Y-71316941D01*
X68620454Y-71383999D01*
X68879546Y-71383999D01*
X69129809Y-71316941D01*
X69354190Y-71187395D01*
X69537395Y-71004190D01*
X69666941Y-70779809D01*
X69733999Y-70529546D01*
X69733999Y-70270454D01*
X69679491Y-70067026D01*
X69679809Y-70066941D01*
X69904190Y-69937395D01*
X70087395Y-69754190D01*
X70166820Y-69616621D01*
X70195191Y-69633001D01*
X70445454Y-69700059D01*
X70704546Y-69700059D01*
X70954809Y-69633001D01*
X71179190Y-69503455D01*
X71362395Y-69320250D01*
X71491941Y-69095869D01*
X71558999Y-68845606D01*
X71558999Y-68586514D01*
X71491941Y-68336251D01*
X71362395Y-68111870D01*
X71179190Y-67928665D01*
X70954809Y-67799119D01*
X70704546Y-67732061D01*
X70445454Y-67732061D01*
X70195191Y-67799119D01*
X69970810Y-67928665D01*
X69787605Y-68111870D01*
X69708180Y-68249439D01*
X69679809Y-68233059D01*
X69429546Y-68166001D01*
X69170454Y-68166001D01*
X68920191Y-68233059D01*
X68695810Y-68362605D01*
X68512605Y-68545810D01*
X68383059Y-68770191D01*
X68316001Y-69020454D01*
X68316001Y-69279546D01*
X68370509Y-69482974D01*
X68370191Y-69483059D01*
X68145810Y-69612605D01*
X67962605Y-69795810D01*
X67833059Y-70020191D01*
X67766001Y-70270454D01*
X55634000Y-70270454D01*
X55634000Y-69671403D01*
X58834616Y-69671403D01*
X59022837Y-69805164D01*
X59248315Y-69911266D01*
X59489019Y-69975762D01*
X59737339Y-69996615D01*
X59985428Y-69973164D01*
X60225442Y-69906150D01*
X60449796Y-69797693D01*
X60624643Y-69670662D01*
X59730000Y-68776019D01*
X58834616Y-69671403D01*
X55634000Y-69671403D01*
X55634000Y-68558310D01*
X58328847Y-68558310D01*
X58344494Y-68807013D01*
X58403934Y-69049014D01*
X58505291Y-69276664D01*
X58651773Y-69492208D01*
X59548981Y-68595000D01*
X59911019Y-68595000D01*
X60809309Y-69493290D01*
X60961780Y-69263802D01*
X61000119Y-69175206D01*
X61045291Y-69276664D01*
X61185360Y-69482768D01*
X61359711Y-69660811D01*
X61562837Y-69805164D01*
X61788315Y-69911266D01*
X62029019Y-69975762D01*
X62277339Y-69996615D01*
X62525428Y-69973164D01*
X62765442Y-69906150D01*
X62989796Y-69797693D01*
X63191399Y-69651221D01*
X63363878Y-69471362D01*
X63501780Y-69263802D01*
X63600747Y-69035102D01*
X63658031Y-68790872D01*
X63666380Y-68472041D01*
X63621956Y-68225147D01*
X63535094Y-67991581D01*
X63408244Y-67777089D01*
X63245414Y-67588449D01*
X63051754Y-67431627D01*
X62833384Y-67311576D01*
X62597205Y-67232093D01*
X62350684Y-67195690D01*
X62101612Y-67203517D01*
X61857863Y-67255328D01*
X61627141Y-67349484D01*
X61416739Y-67483009D01*
X61233308Y-67651683D01*
X61082645Y-67850173D01*
X61001634Y-68009167D01*
X60995094Y-67991581D01*
X60816472Y-67689547D01*
X59911019Y-68595000D01*
X59548981Y-68595000D01*
X58655487Y-67701506D01*
X58542645Y-67850175D01*
X58429513Y-68072208D01*
X58357489Y-68310766D01*
X58328847Y-68558310D01*
X55634000Y-68558310D01*
X55634000Y-67513179D01*
X58829198Y-67513179D01*
X59730000Y-68413981D01*
X60641194Y-67502786D01*
X60293384Y-67311576D01*
X60057205Y-67232093D01*
X59810684Y-67195690D01*
X59561612Y-67203517D01*
X59317863Y-67255328D01*
X59087142Y-67349484D01*
X58829198Y-67513179D01*
X55634000Y-67513179D01*
X55634000Y-64839305D01*
X56843726Y-64032822D01*
X56915127Y-63987772D01*
X56950634Y-63947567D01*
X56990586Y-63911795D01*
X57010438Y-63879851D01*
X57024719Y-63863681D01*
X57049385Y-63917931D01*
X57185620Y-64109988D01*
X57355715Y-64272818D01*
X57553532Y-64400546D01*
X57774820Y-64489728D01*
X58080159Y-64534000D01*
X58296000Y-64534000D01*
X58296000Y-63428000D01*
X58552000Y-63428000D01*
X58552000Y-64534000D01*
X58782811Y-64534000D01*
X58958405Y-64517247D01*
X59184352Y-64450961D01*
X59393688Y-64343146D01*
X59578860Y-64197692D01*
X59733186Y-64019846D01*
X59851099Y-63816027D01*
X59928344Y-63593585D01*
X59952346Y-63428000D01*
X60355511Y-63428000D01*
X60421925Y-63703578D01*
X60519385Y-63917931D01*
X60655620Y-64109988D01*
X60825715Y-64272818D01*
X61023532Y-64400546D01*
X61244820Y-64489728D01*
X61550159Y-64534000D01*
X61766000Y-64534000D01*
X61766000Y-63428000D01*
X62022000Y-63428000D01*
X62022000Y-64534000D01*
X62252811Y-64534000D01*
X62361794Y-64523602D01*
X62350901Y-64564254D01*
X62350901Y-64823346D01*
X62417959Y-65073609D01*
X62547505Y-65297990D01*
X62730710Y-65481195D01*
X62955091Y-65610741D01*
X63205354Y-65677799D01*
X63464446Y-65677799D01*
X63580261Y-65646766D01*
X63580261Y-65852046D01*
X63647319Y-66102309D01*
X63776865Y-66326690D01*
X63960070Y-66509895D01*
X64184451Y-66639441D01*
X64434714Y-66706499D01*
X64693806Y-66706499D01*
X64944069Y-66639441D01*
X65168450Y-66509895D01*
X65351655Y-66326690D01*
X65481201Y-66102309D01*
X65548259Y-65852046D01*
X65548259Y-65592954D01*
X65481201Y-65342691D01*
X65351655Y-65118310D01*
X65168450Y-64935105D01*
X64944069Y-64805559D01*
X64693806Y-64738501D01*
X64434714Y-64738501D01*
X64318899Y-64769534D01*
X64318899Y-64564254D01*
X64251841Y-64313991D01*
X64122295Y-64089610D01*
X63939090Y-63906405D01*
X63714709Y-63776859D01*
X63464446Y-63709801D01*
X63357987Y-63709801D01*
X63398344Y-63593585D01*
X63422346Y-63428000D01*
X62022000Y-63428000D01*
X61766000Y-63428000D01*
X60355511Y-63428000D01*
X59952346Y-63428000D01*
X58552000Y-63428000D01*
X58296000Y-63428000D01*
X58296000Y-62066000D01*
X58552000Y-62066000D01*
X58552000Y-63172000D01*
X59962489Y-63172000D01*
X59896075Y-62896422D01*
X59798615Y-62682069D01*
X59662380Y-62490012D01*
X59492285Y-62327182D01*
X59294468Y-62199454D01*
X59073180Y-62110272D01*
X58767841Y-62066000D01*
X58552000Y-62066000D01*
X58296000Y-62066000D01*
X58065189Y-62066000D01*
X57889595Y-62082753D01*
X57663648Y-62149039D01*
X57454312Y-62256854D01*
X57269140Y-62402308D01*
X57134000Y-62558044D01*
X57134000Y-61791719D01*
X59638584Y-61791719D01*
X59682150Y-61996679D01*
X59770041Y-62186895D01*
X59897891Y-62352911D01*
X60059344Y-62486477D01*
X60246377Y-62580953D01*
X60449692Y-62631645D01*
X60553764Y-62633825D01*
X60466901Y-62783973D01*
X60389656Y-63006415D01*
X60365654Y-63172000D01*
X61766000Y-63172000D01*
X61766000Y-62066000D01*
X62022000Y-62066000D01*
X62022000Y-63172000D01*
X63432489Y-63172000D01*
X63366075Y-62896422D01*
X63268615Y-62682069D01*
X63132380Y-62490012D01*
X62962285Y-62327182D01*
X62764468Y-62199454D01*
X62543180Y-62110272D01*
X62237841Y-62066000D01*
X62022000Y-62066000D01*
X61766000Y-62066000D01*
X61535189Y-62066000D01*
X61430969Y-62075943D01*
X61452645Y-62033766D01*
X61484434Y-61909954D01*
X66122801Y-61909954D01*
X66122801Y-62169046D01*
X66189859Y-62419309D01*
X66319405Y-62643690D01*
X66502610Y-62826895D01*
X66726991Y-62956441D01*
X66977254Y-63023499D01*
X67236346Y-63023499D01*
X67486609Y-62956441D01*
X67710990Y-62826895D01*
X67894195Y-62643690D01*
X68023741Y-62419309D01*
X68090799Y-62169046D01*
X68090799Y-61909954D01*
X68023741Y-61659691D01*
X67894195Y-61435310D01*
X67710990Y-61252105D01*
X67486609Y-61122559D01*
X67236346Y-61055501D01*
X66977254Y-61055501D01*
X66726991Y-61122559D01*
X66502610Y-61252105D01*
X66319405Y-61435310D01*
X66189859Y-61659691D01*
X66122801Y-61909954D01*
X61484434Y-61909954D01*
X61504977Y-61829945D01*
X61508243Y-61596099D01*
X61461622Y-61390898D01*
X61371082Y-61201927D01*
X61240926Y-61037712D01*
X61077625Y-60906415D01*
X60889292Y-60814558D01*
X60685289Y-60766710D01*
X60475754Y-60765246D01*
X60271102Y-60810242D01*
X60081505Y-60899460D01*
X59916385Y-61028466D01*
X59783949Y-61190848D01*
X59690781Y-61378534D01*
X59641510Y-61582199D01*
X59638584Y-61791719D01*
X57134000Y-61791719D01*
X57134000Y-57791719D01*
X59638584Y-57791719D01*
X59682150Y-57996679D01*
X59770041Y-58186895D01*
X59897891Y-58352911D01*
X60059344Y-58486477D01*
X60246377Y-58580953D01*
X60449692Y-58631645D01*
X60659185Y-58636034D01*
X60864445Y-58593900D01*
X60962250Y-58549534D01*
X67303901Y-58549534D01*
X67303901Y-58808626D01*
X67370959Y-59058889D01*
X67500505Y-59283270D01*
X67683710Y-59466475D01*
X67908091Y-59596021D01*
X68158354Y-59663079D01*
X68417446Y-59663079D01*
X68667709Y-59596021D01*
X68892090Y-59466475D01*
X69075295Y-59283270D01*
X69204841Y-59058889D01*
X69271899Y-58808626D01*
X69271899Y-58549534D01*
X69204841Y-58299271D01*
X69075295Y-58074890D01*
X68892090Y-57891685D01*
X68667709Y-57762139D01*
X68417446Y-57695081D01*
X68158354Y-57695081D01*
X67908091Y-57762139D01*
X67683710Y-57891685D01*
X67500505Y-58074890D01*
X67370959Y-58299271D01*
X67303901Y-58549534D01*
X60962250Y-58549534D01*
X61055270Y-58507339D01*
X61222175Y-58380651D01*
X61356864Y-58220134D01*
X61452645Y-58033766D01*
X61504977Y-57829945D01*
X61508243Y-57596099D01*
X61461622Y-57390898D01*
X61425716Y-57315957D01*
X61550159Y-57334000D01*
X61766000Y-57334000D01*
X61766000Y-56228000D01*
X62022000Y-56228000D01*
X62022000Y-57334000D01*
X62252811Y-57334000D01*
X62428405Y-57317247D01*
X62654352Y-57250961D01*
X62863688Y-57143146D01*
X63048860Y-56997692D01*
X63203186Y-56819846D01*
X63321099Y-56616027D01*
X63398344Y-56393585D01*
X63422346Y-56228000D01*
X62022000Y-56228000D01*
X61766000Y-56228000D01*
X60355511Y-56228000D01*
X60421925Y-56503578D01*
X60519385Y-56717931D01*
X60553332Y-56765788D01*
X60475754Y-56765246D01*
X60271102Y-56810242D01*
X60081505Y-56899460D01*
X59916385Y-57028466D01*
X59783949Y-57190848D01*
X59690781Y-57378534D01*
X59641510Y-57582199D01*
X59638584Y-57791719D01*
X57134000Y-57791719D01*
X57134000Y-56837217D01*
X57185620Y-56909988D01*
X57355715Y-57072818D01*
X57553532Y-57200546D01*
X57774820Y-57289728D01*
X58080159Y-57334000D01*
X58296000Y-57334000D01*
X58296000Y-56228000D01*
X58552000Y-56228000D01*
X58552000Y-57334000D01*
X58782811Y-57334000D01*
X58958405Y-57317247D01*
X59184352Y-57250961D01*
X59393688Y-57143146D01*
X59578860Y-56997692D01*
X59733186Y-56819846D01*
X59851099Y-56616027D01*
X59928344Y-56393585D01*
X59952346Y-56228000D01*
X58552000Y-56228000D01*
X58296000Y-56228000D01*
X58296000Y-54866000D01*
X58552000Y-54866000D01*
X58552000Y-55972000D01*
X59962489Y-55972000D01*
X60365654Y-55972000D01*
X61766000Y-55972000D01*
X61766000Y-54866000D01*
X62022000Y-54866000D01*
X62022000Y-55972000D01*
X63432489Y-55972000D01*
X63366075Y-55696422D01*
X63268615Y-55482069D01*
X63132380Y-55290012D01*
X62962285Y-55127182D01*
X62764468Y-54999454D01*
X62543180Y-54910272D01*
X62237841Y-54866000D01*
X62022000Y-54866000D01*
X61766000Y-54866000D01*
X61535189Y-54866000D01*
X61359595Y-54882753D01*
X61133648Y-54949039D01*
X60924312Y-55056854D01*
X60739140Y-55202308D01*
X60584814Y-55380154D01*
X60466901Y-55583973D01*
X60389656Y-55806415D01*
X60365654Y-55972000D01*
X59962489Y-55972000D01*
X59896075Y-55696422D01*
X59798615Y-55482069D01*
X59662380Y-55290012D01*
X59492285Y-55127182D01*
X59294468Y-54999454D01*
X59073180Y-54910272D01*
X58767841Y-54866000D01*
X58552000Y-54866000D01*
X58296000Y-54866000D01*
X58065189Y-54866000D01*
X57889595Y-54882753D01*
X57663648Y-54949039D01*
X57454312Y-55056854D01*
X57269140Y-55202308D01*
X57114814Y-55380154D01*
X56996901Y-55583973D01*
X56993917Y-55592567D01*
X56957206Y-55559292D01*
X56921054Y-55517336D01*
X56845792Y-55468555D01*
X55634000Y-54660694D01*
X55634000Y-52509414D01*
X62267081Y-52509414D01*
X62267081Y-52768506D01*
X62334139Y-53018769D01*
X62463685Y-53243150D01*
X62646890Y-53426355D01*
X62871271Y-53555901D01*
X63121534Y-53622959D01*
X63380626Y-53622959D01*
X63630889Y-53555901D01*
X63855270Y-53426355D01*
X64038475Y-53243150D01*
X64168021Y-53018769D01*
X64212049Y-52854454D01*
X75548341Y-52854454D01*
X75548341Y-53113546D01*
X75615399Y-53363809D01*
X75744945Y-53588190D01*
X75928150Y-53771395D01*
X76152531Y-53900941D01*
X76402794Y-53967999D01*
X76661886Y-53967999D01*
X76912149Y-53900941D01*
X77136530Y-53771395D01*
X77319735Y-53588190D01*
X77449281Y-53363809D01*
X77516339Y-53113546D01*
X77516339Y-52854454D01*
X77449281Y-52604191D01*
X77319735Y-52379810D01*
X77136530Y-52196605D01*
X76912149Y-52067059D01*
X76661886Y-52000001D01*
X76402794Y-52000001D01*
X76152531Y-52067059D01*
X75928150Y-52196605D01*
X75744945Y-52379810D01*
X75615399Y-52604191D01*
X75548341Y-52854454D01*
X64212049Y-52854454D01*
X64235079Y-52768506D01*
X64235079Y-52509414D01*
X64168021Y-52259151D01*
X64038475Y-52034770D01*
X63855270Y-51851565D01*
X63630889Y-51722019D01*
X63380626Y-51654961D01*
X63121534Y-51654961D01*
X62871271Y-51722019D01*
X62646890Y-51851565D01*
X62463685Y-52034770D01*
X62334139Y-52259151D01*
X62267081Y-52509414D01*
X55634000Y-52509414D01*
X55634000Y-49617954D01*
X62663501Y-49617954D01*
X62663501Y-49877046D01*
X62730559Y-50127309D01*
X62860105Y-50351690D01*
X63043310Y-50534895D01*
X63267691Y-50664441D01*
X63517954Y-50731499D01*
X63777046Y-50731499D01*
X64027309Y-50664441D01*
X64251690Y-50534895D01*
X64434895Y-50351690D01*
X64564441Y-50127309D01*
X64631499Y-49877046D01*
X64631499Y-49617954D01*
X64564441Y-49367691D01*
X64546893Y-49337297D01*
X64580771Y-49278619D01*
X64647829Y-49028356D01*
X64647829Y-48769264D01*
X64580771Y-48519001D01*
X64451225Y-48294620D01*
X64268020Y-48111415D01*
X64043639Y-47981869D01*
X63793376Y-47914811D01*
X63534284Y-47914811D01*
X63284021Y-47981869D01*
X63059640Y-48111415D01*
X62876435Y-48294620D01*
X62746889Y-48519001D01*
X62679831Y-48769264D01*
X62679831Y-49028356D01*
X62746889Y-49278619D01*
X62764437Y-49309013D01*
X62730559Y-49367691D01*
X62663501Y-49617954D01*
X55634000Y-49617954D01*
X55634000Y-47143647D01*
X66361101Y-47143647D01*
X66390781Y-47388911D01*
X66463425Y-47625042D01*
X66576735Y-47844577D01*
X66727131Y-48040576D01*
X66909859Y-48206846D01*
X67119142Y-48338129D01*
X67351769Y-48431645D01*
X67706318Y-48484000D01*
X70812577Y-48484000D01*
X70996074Y-48467624D01*
X71234371Y-48402433D01*
X71457356Y-48296073D01*
X71657983Y-48151909D01*
X71829911Y-47974495D01*
X71967703Y-47769437D01*
X72067004Y-47543221D01*
X72124678Y-47302995D01*
X72138899Y-47056353D01*
X72109219Y-46811089D01*
X72036575Y-46574958D01*
X71923265Y-46355423D01*
X71772869Y-46159424D01*
X71590141Y-45993154D01*
X71380858Y-45861871D01*
X71148231Y-45768355D01*
X70793682Y-45716000D01*
X67687423Y-45716000D01*
X67503926Y-45732376D01*
X67265629Y-45797567D01*
X67042644Y-45903927D01*
X66842017Y-46048091D01*
X66670089Y-46225505D01*
X66532297Y-46430563D01*
X66432996Y-46656779D01*
X66375322Y-46897005D01*
X66361101Y-47143647D01*
X55634000Y-47143647D01*
X55634000Y-45670454D01*
X59697881Y-45670454D01*
X59697881Y-45929546D01*
X59764939Y-46179809D01*
X59894485Y-46404190D01*
X60077690Y-46587395D01*
X60302071Y-46716941D01*
X60552334Y-46783999D01*
X60811426Y-46783999D01*
X61061689Y-46716941D01*
X61286070Y-46587395D01*
X61469275Y-46404190D01*
X61598821Y-46179809D01*
X61665879Y-45929546D01*
X61665879Y-45670454D01*
X61598821Y-45420191D01*
X61469275Y-45195810D01*
X61286070Y-45012605D01*
X61061689Y-44883059D01*
X60811426Y-44816001D01*
X60552334Y-44816001D01*
X60302071Y-44883059D01*
X60077690Y-45012605D01*
X59894485Y-45195810D01*
X59764939Y-45420191D01*
X59697881Y-45670454D01*
X55634000Y-45670454D01*
X55634000Y-43928000D01*
X63416000Y-43928000D01*
X63416000Y-45362576D01*
X63432376Y-45546073D01*
X63497567Y-45784370D01*
X63603927Y-46007355D01*
X63748091Y-46207982D01*
X63925505Y-46379910D01*
X64130563Y-46517703D01*
X64356779Y-46617004D01*
X64672000Y-46692682D01*
X64672000Y-43928000D01*
X64928000Y-43928000D01*
X64928000Y-46678695D01*
X65088912Y-46659219D01*
X65325041Y-46586575D01*
X65544575Y-46473265D01*
X65740576Y-46322869D01*
X65906846Y-46140141D01*
X66038129Y-45930858D01*
X66131645Y-45698231D01*
X66184000Y-45343682D01*
X66184000Y-43928000D01*
X64928000Y-43928000D01*
X64672000Y-43928000D01*
X63416000Y-43928000D01*
X55634000Y-43928000D01*
X55634000Y-41981619D01*
X56331777Y-41981619D01*
X56346729Y-42219276D01*
X56403529Y-42450530D01*
X56500384Y-42668069D01*
X56637109Y-42869252D01*
X57489681Y-42016680D01*
X56640446Y-41167445D01*
X56536080Y-41304932D01*
X56427972Y-41517107D01*
X56359145Y-41745070D01*
X56331777Y-41981619D01*
X55634000Y-41981619D01*
X55634000Y-40979785D01*
X56814824Y-40979785D01*
X57851720Y-42016680D01*
X56819784Y-43048615D01*
X56994944Y-43173097D01*
X57210408Y-43274487D01*
X57440421Y-43336118D01*
X57677713Y-43356044D01*
X57914783Y-43333635D01*
X58144138Y-43269597D01*
X58358528Y-43165957D01*
X58467460Y-43086813D01*
X58568565Y-43207305D01*
X58762194Y-43319096D01*
X58971356Y-43355977D01*
X60398968Y-43355977D01*
X60699892Y-43275345D01*
X60875545Y-43127955D01*
X60987336Y-42934326D01*
X61024217Y-42725164D01*
X61024217Y-42256318D01*
X63416001Y-42256318D01*
X63416001Y-43672000D01*
X64672000Y-43672000D01*
X64672000Y-40921305D01*
X64511088Y-40940781D01*
X64274959Y-41013425D01*
X64055424Y-41126735D01*
X63859425Y-41277131D01*
X63693155Y-41459859D01*
X63561872Y-41669142D01*
X63468356Y-41901769D01*
X63416001Y-42256318D01*
X61024217Y-42256318D01*
X61024217Y-41297552D01*
X60943585Y-40996629D01*
X60868645Y-40907318D01*
X64928000Y-40907318D01*
X64928000Y-43672000D01*
X66184000Y-43672000D01*
X66184000Y-43233334D01*
X78431641Y-43233334D01*
X78431641Y-43492426D01*
X78498699Y-43742689D01*
X78507452Y-43757850D01*
X78498699Y-43773011D01*
X78431641Y-44023274D01*
X78431641Y-44282366D01*
X78498699Y-44532629D01*
X78514051Y-44559220D01*
X78498699Y-44585811D01*
X78431641Y-44836074D01*
X78431641Y-45095166D01*
X78498699Y-45345429D01*
X78628245Y-45569810D01*
X78811450Y-45753015D01*
X79035831Y-45882561D01*
X79286094Y-45949619D01*
X79545186Y-45949619D01*
X79795449Y-45882561D01*
X80019830Y-45753015D01*
X80203035Y-45569810D01*
X80332581Y-45345429D01*
X80399639Y-45095166D01*
X80399639Y-44836074D01*
X80332581Y-44585811D01*
X80317229Y-44559220D01*
X80332581Y-44532629D01*
X80399639Y-44282366D01*
X80399639Y-44023274D01*
X80332581Y-43773011D01*
X80323828Y-43757850D01*
X80332581Y-43742689D01*
X80399639Y-43492426D01*
X80399639Y-43233334D01*
X80332581Y-42983071D01*
X80308430Y-42941240D01*
X80332581Y-42899409D01*
X80399639Y-42649146D01*
X80399639Y-42390054D01*
X80332581Y-42139791D01*
X80203035Y-41915410D01*
X80019830Y-41732205D01*
X79795449Y-41602659D01*
X79545186Y-41535601D01*
X79286094Y-41535601D01*
X79035831Y-41602659D01*
X78811450Y-41732205D01*
X78628245Y-41915410D01*
X78498699Y-42139791D01*
X78431641Y-42390054D01*
X78431641Y-42649146D01*
X78498699Y-42899409D01*
X78522850Y-42941240D01*
X78498699Y-42983071D01*
X78431641Y-43233334D01*
X66184000Y-43233334D01*
X66184000Y-42390054D01*
X66184000Y-42237423D01*
X66167624Y-42053926D01*
X66102433Y-41815629D01*
X65996073Y-41592644D01*
X65851909Y-41392017D01*
X65674495Y-41220089D01*
X65469437Y-41082297D01*
X65243221Y-40982996D01*
X64928000Y-40907318D01*
X60868645Y-40907318D01*
X60796195Y-40820975D01*
X60635157Y-40728000D01*
X66371307Y-40728000D01*
X66390781Y-40888912D01*
X66463425Y-41125042D01*
X66576735Y-41344577D01*
X66727131Y-41540576D01*
X66909859Y-41706846D01*
X67119142Y-41838129D01*
X67351769Y-41931645D01*
X67706318Y-41984000D01*
X69122000Y-41984000D01*
X69122000Y-40728000D01*
X69378000Y-40728000D01*
X69378000Y-41984000D01*
X70812577Y-41984000D01*
X70996074Y-41967624D01*
X71234371Y-41902433D01*
X71457356Y-41796073D01*
X71657983Y-41651909D01*
X71829911Y-41474495D01*
X71967703Y-41269437D01*
X72067004Y-41043221D01*
X72142682Y-40728000D01*
X69378000Y-40728000D01*
X69122000Y-40728000D01*
X66371307Y-40728000D01*
X60635157Y-40728000D01*
X60602566Y-40709184D01*
X60393404Y-40672303D01*
X58965792Y-40672303D01*
X58664869Y-40752935D01*
X58489215Y-40900325D01*
X58464613Y-40942938D01*
X58417734Y-40904976D01*
X58209062Y-40790257D01*
X57983373Y-40714304D01*
X57747800Y-40679518D01*
X57509790Y-40686997D01*
X57276868Y-40736507D01*
X57056393Y-40826481D01*
X56814824Y-40979785D01*
X55634000Y-40979785D01*
X55634000Y-40472000D01*
X66357318Y-40472000D01*
X69122000Y-40472000D01*
X69122000Y-39216000D01*
X69378000Y-39216000D01*
X69378000Y-40472000D01*
X72128693Y-40472000D01*
X72109219Y-40311088D01*
X72036575Y-40074958D01*
X71923265Y-39855423D01*
X71772869Y-39659424D01*
X71590141Y-39493154D01*
X71380858Y-39361871D01*
X71148231Y-39268355D01*
X70793682Y-39216000D01*
X69378000Y-39216000D01*
X69122000Y-39216000D01*
X67687423Y-39216000D01*
X67503926Y-39232376D01*
X67265629Y-39297567D01*
X67042644Y-39403927D01*
X66842017Y-39548091D01*
X66670089Y-39725505D01*
X66532297Y-39930563D01*
X66432996Y-40156779D01*
X66357318Y-40472000D01*
X55634000Y-40472000D01*
X55634000Y-39095574D01*
X74416001Y-39095574D01*
X74416001Y-39354666D01*
X74483059Y-39604929D01*
X74612605Y-39829310D01*
X74795810Y-40012515D01*
X75020191Y-40142061D01*
X75270454Y-40209119D01*
X75529546Y-40209119D01*
X75779809Y-40142061D01*
X76004190Y-40012515D01*
X76187395Y-39829310D01*
X76316941Y-39604929D01*
X76383999Y-39354666D01*
X76383999Y-39095574D01*
X76316941Y-38845311D01*
X76187395Y-38620930D01*
X76004190Y-38437725D01*
X75779809Y-38308179D01*
X75529546Y-38241121D01*
X75270454Y-38241121D01*
X75020191Y-38308179D01*
X74795810Y-38437725D01*
X74612605Y-38620930D01*
X74483059Y-38845311D01*
X74416001Y-39095574D01*
X55634000Y-39095574D01*
X55634000Y-36184230D01*
X94440701Y-36184230D01*
X94440701Y-36443322D01*
X94507759Y-36693585D01*
X94637305Y-36917966D01*
X94820510Y-37101171D01*
X95044891Y-37230717D01*
X95295154Y-37297775D01*
X95554246Y-37297775D01*
X95804509Y-37230717D01*
X96028890Y-37101171D01*
X96212095Y-36917966D01*
X96341641Y-36693585D01*
X96408699Y-36443322D01*
X96408699Y-36184230D01*
X96341641Y-35933967D01*
X96212095Y-35709586D01*
X96028890Y-35526381D01*
X95804509Y-35396835D01*
X95554246Y-35329777D01*
X95295154Y-35329777D01*
X95044891Y-35396835D01*
X94820510Y-35526381D01*
X94637305Y-35709586D01*
X94507759Y-35933967D01*
X94440701Y-36184230D01*
X55634000Y-36184230D01*
X55634000Y-34836094D01*
X92195901Y-34836094D01*
X92195901Y-35095186D01*
X92262959Y-35345449D01*
X92392505Y-35569830D01*
X92575710Y-35753035D01*
X92800091Y-35882581D01*
X93050354Y-35949639D01*
X93309446Y-35949639D01*
X93559709Y-35882581D01*
X93784090Y-35753035D01*
X93967295Y-35569830D01*
X94096841Y-35345449D01*
X94163899Y-35095186D01*
X94163899Y-34836094D01*
X94096841Y-34585831D01*
X93967295Y-34361450D01*
X93784090Y-34178245D01*
X93559709Y-34048699D01*
X93309446Y-33981641D01*
X93050354Y-33981641D01*
X92800091Y-34048699D01*
X92575710Y-34178245D01*
X92392505Y-34361450D01*
X92262959Y-34585831D01*
X92195901Y-34836094D01*
X55634000Y-34836094D01*
X55634000Y-33634000D01*
X117366001Y-33634000D01*
X117366000Y-39991460D01*
X117365417Y-40086927D01*
X117378493Y-40132678D01*
X117385237Y-40179769D01*
X117403318Y-40219538D01*
X117415322Y-40261539D01*
X117440706Y-40301771D01*
X117460402Y-40345089D01*
X117488920Y-40378184D01*
X117512227Y-40415126D01*
X117547889Y-40446621D01*
X117578946Y-40482664D01*
X117615601Y-40506422D01*
X117648346Y-40535342D01*
X117691416Y-40555564D01*
X117731338Y-40581439D01*
X117773183Y-40593953D01*
X117813088Y-40612689D01*
X117858546Y-40619483D01*
X117905327Y-40633473D01*
X117954168Y-40633772D01*
X117955694Y-40634000D01*
X117991461Y-40634000D01*
X118086926Y-40634583D01*
X118088966Y-40634000D01*
X137366001Y-40634000D01*
X137366000Y-84366000D01*
X55634000Y-84366000D01*
X55634000Y-82765129D01*
X57415890Y-82765129D01*
X57615384Y-82944756D01*
X57936257Y-83177884D01*
X58279743Y-83376196D01*
X58642075Y-83537517D01*
X59019285Y-83660080D01*
X59407239Y-83742542D01*
X59801689Y-83784000D01*
X60198311Y-83784000D01*
X60592761Y-83742542D01*
X60980715Y-83660080D01*
X61357925Y-83537517D01*
X61720257Y-83376196D01*
X62063743Y-83177884D01*
X62384616Y-82944756D01*
X62584110Y-82765129D01*
X130415890Y-82765129D01*
X130615384Y-82944756D01*
X130936257Y-83177884D01*
X131279743Y-83376196D01*
X131642075Y-83537517D01*
X132019285Y-83660080D01*
X132407239Y-83742542D01*
X132801689Y-83784000D01*
X133198311Y-83784000D01*
X133592761Y-83742542D01*
X133980715Y-83660080D01*
X134357925Y-83537517D01*
X134720257Y-83376196D01*
X135063743Y-83177884D01*
X135384616Y-82944756D01*
X135584110Y-82765129D01*
X133000000Y-80181019D01*
X130415890Y-82765129D01*
X62584110Y-82765129D01*
X60000000Y-80181019D01*
X57415890Y-82765129D01*
X55634000Y-82765129D01*
X55634000Y-79801689D01*
X56216000Y-79801689D01*
X56216000Y-80198311D01*
X56257458Y-80592761D01*
X56339920Y-80980715D01*
X56462483Y-81357925D01*
X56623804Y-81720257D01*
X56822116Y-82063743D01*
X57055244Y-82384616D01*
X57234871Y-82584110D01*
X59818981Y-80000000D01*
X60181019Y-80000000D01*
X62765129Y-82584110D01*
X62944756Y-82384616D01*
X63177884Y-82063743D01*
X63376196Y-81720257D01*
X63537517Y-81357925D01*
X63660080Y-80980715D01*
X63742542Y-80592761D01*
X63750141Y-80520454D01*
X69966001Y-80520454D01*
X69966001Y-80779546D01*
X70033059Y-81029809D01*
X70162605Y-81254190D01*
X70345810Y-81437395D01*
X70570191Y-81566941D01*
X70820454Y-81633999D01*
X71079546Y-81633999D01*
X71130522Y-81620340D01*
X71133059Y-81629809D01*
X71262605Y-81854190D01*
X71445810Y-82037395D01*
X71670191Y-82166941D01*
X71920454Y-82233999D01*
X72179546Y-82233999D01*
X72429809Y-82166941D01*
X72654190Y-82037395D01*
X72837395Y-81854190D01*
X72966941Y-81629809D01*
X73033999Y-81379546D01*
X73033999Y-81120454D01*
X72966941Y-80870191D01*
X72837395Y-80645810D01*
X72822558Y-80630973D01*
X73020454Y-80683999D01*
X73279546Y-80683999D01*
X73529809Y-80616941D01*
X73754190Y-80487395D01*
X73937395Y-80304190D01*
X74066941Y-80079809D01*
X74133999Y-79829546D01*
X74133999Y-79691493D01*
X82113215Y-79691493D01*
X82149465Y-79949428D01*
X82227355Y-80197979D01*
X82344796Y-80430470D01*
X82498630Y-80640659D01*
X82684729Y-80822899D01*
X82898093Y-80972299D01*
X83132993Y-81084844D01*
X83383121Y-81157513D01*
X83641757Y-81188353D01*
X83901959Y-81176538D01*
X84156737Y-81122383D01*
X84399248Y-81027344D01*
X84622982Y-80893973D01*
X84821927Y-80725850D01*
X84990743Y-80527492D01*
X85009993Y-80495454D01*
X95750026Y-80495454D01*
X95750026Y-80754546D01*
X95817084Y-81004809D01*
X95946630Y-81229190D01*
X96129835Y-81412395D01*
X96354216Y-81541941D01*
X96604479Y-81608999D01*
X96863571Y-81608999D01*
X97113834Y-81541941D01*
X97338215Y-81412395D01*
X97521420Y-81229190D01*
X97650966Y-81004809D01*
X97718024Y-80754546D01*
X97718024Y-80495454D01*
X107200026Y-80495454D01*
X107200026Y-80754546D01*
X107267084Y-81004809D01*
X107396630Y-81229190D01*
X107579835Y-81412395D01*
X107804216Y-81541941D01*
X108054479Y-81608999D01*
X108313571Y-81608999D01*
X108563834Y-81541941D01*
X108788215Y-81412395D01*
X108971420Y-81229190D01*
X109100966Y-81004809D01*
X109168024Y-80754546D01*
X109168024Y-80495454D01*
X109100966Y-80245191D01*
X108971420Y-80020810D01*
X108788215Y-79837605D01*
X108726007Y-79801689D01*
X129216000Y-79801689D01*
X129216000Y-80198311D01*
X129257458Y-80592761D01*
X129339920Y-80980715D01*
X129462483Y-81357925D01*
X129623804Y-81720257D01*
X129822116Y-82063743D01*
X130055244Y-82384616D01*
X130234871Y-82584110D01*
X132818981Y-80000000D01*
X133181019Y-80000000D01*
X135765129Y-82584110D01*
X135944756Y-82384616D01*
X136177884Y-82063743D01*
X136376196Y-81720257D01*
X136537517Y-81357925D01*
X136660080Y-80980715D01*
X136742542Y-80592761D01*
X136784000Y-80198311D01*
X136784000Y-79801689D01*
X136742542Y-79407239D01*
X136660080Y-79019285D01*
X136537517Y-78642075D01*
X136376196Y-78279743D01*
X136177884Y-77936257D01*
X135944756Y-77615384D01*
X135765129Y-77415890D01*
X133181019Y-80000000D01*
X132818981Y-80000000D01*
X130234871Y-77415890D01*
X130055244Y-77615384D01*
X129822116Y-77936257D01*
X129623804Y-78279743D01*
X129462483Y-78642075D01*
X129339920Y-79019285D01*
X129257458Y-79407239D01*
X129216000Y-79801689D01*
X108726007Y-79801689D01*
X108563834Y-79708059D01*
X108313571Y-79641001D01*
X108054479Y-79641001D01*
X107804216Y-79708059D01*
X107579835Y-79837605D01*
X107396630Y-80020810D01*
X107267084Y-80245191D01*
X107200026Y-80495454D01*
X97718024Y-80495454D01*
X97650966Y-80245191D01*
X97521420Y-80020810D01*
X97338215Y-79837605D01*
X97113834Y-79708059D01*
X96863571Y-79641001D01*
X96604479Y-79641001D01*
X96354216Y-79708059D01*
X96129835Y-79837605D01*
X95946630Y-80020810D01*
X95817084Y-80245191D01*
X95750026Y-80495454D01*
X85009993Y-80495454D01*
X85124894Y-80304226D01*
X85220779Y-80062048D01*
X85276151Y-79805945D01*
X85284330Y-79471295D01*
X85241535Y-79212793D01*
X85157594Y-78966220D01*
X85034510Y-78736667D01*
X84875585Y-78530299D01*
X84685090Y-78352659D01*
X84468139Y-78208518D01*
X84230560Y-78101745D01*
X83978732Y-78035210D01*
X83719418Y-78010697D01*
X83459583Y-78028867D01*
X83206205Y-78089230D01*
X82966087Y-78190167D01*
X82745680Y-78328965D01*
X82550901Y-78501897D01*
X82386981Y-78704320D01*
X82258325Y-78930797D01*
X82168386Y-79175246D01*
X82119579Y-79431101D01*
X82113215Y-79691493D01*
X74133999Y-79691493D01*
X74133999Y-79570454D01*
X74066941Y-79320191D01*
X74044643Y-79281571D01*
X76755761Y-76570454D01*
X89066001Y-76570454D01*
X89066001Y-76829546D01*
X89133059Y-77079809D01*
X89262605Y-77304190D01*
X89445810Y-77487395D01*
X89670191Y-77616941D01*
X89920454Y-77683999D01*
X90179546Y-77683999D01*
X90429809Y-77616941D01*
X90654190Y-77487395D01*
X90837395Y-77304190D01*
X90877416Y-77234871D01*
X130415890Y-77234871D01*
X133000000Y-79818981D01*
X135584110Y-77234871D01*
X135384616Y-77055244D01*
X135063743Y-76822116D01*
X134720257Y-76623804D01*
X134357925Y-76462483D01*
X133980715Y-76339920D01*
X133592761Y-76257458D01*
X133198311Y-76216000D01*
X132801689Y-76216000D01*
X132407239Y-76257458D01*
X132019285Y-76339920D01*
X131642075Y-76462483D01*
X131279743Y-76623804D01*
X130936257Y-76822116D01*
X130615384Y-77055244D01*
X130415890Y-77234871D01*
X90877416Y-77234871D01*
X90966941Y-77079809D01*
X91033999Y-76829546D01*
X91033999Y-76570454D01*
X90966941Y-76320191D01*
X90837395Y-76095810D01*
X90654190Y-75912605D01*
X90429809Y-75783059D01*
X90179546Y-75716001D01*
X89920454Y-75716001D01*
X89670191Y-75783059D01*
X89445810Y-75912605D01*
X89262605Y-76095810D01*
X89133059Y-76320191D01*
X89066001Y-76570454D01*
X76755761Y-76570454D01*
X78557016Y-74769200D01*
X78595810Y-74807995D01*
X78820191Y-74937541D01*
X79070454Y-75004599D01*
X79329546Y-75004599D01*
X79579809Y-74937541D01*
X79804190Y-74807995D01*
X79987395Y-74624790D01*
X80111811Y-74409294D01*
X95749361Y-74409294D01*
X95749361Y-74668386D01*
X95816419Y-74918649D01*
X95945965Y-75143030D01*
X96129170Y-75326235D01*
X96353551Y-75455781D01*
X96603814Y-75522839D01*
X96862906Y-75522839D01*
X97113169Y-75455781D01*
X97337550Y-75326235D01*
X97520755Y-75143030D01*
X97650301Y-74918649D01*
X97717359Y-74668386D01*
X97717359Y-74409294D01*
X97713651Y-74395454D01*
X107200026Y-74395454D01*
X107200026Y-74654546D01*
X107267084Y-74904809D01*
X107396630Y-75129190D01*
X107579835Y-75312395D01*
X107804216Y-75441941D01*
X108054479Y-75508999D01*
X108313571Y-75508999D01*
X108563834Y-75441941D01*
X108788215Y-75312395D01*
X108971420Y-75129190D01*
X108976463Y-75120454D01*
X122018081Y-75120454D01*
X122018081Y-75379546D01*
X122085139Y-75629809D01*
X122214685Y-75854190D01*
X122397890Y-76037395D01*
X122622271Y-76166941D01*
X122872534Y-76233999D01*
X123131626Y-76233999D01*
X123381889Y-76166941D01*
X123606270Y-76037395D01*
X123789475Y-75854190D01*
X123919021Y-75629809D01*
X123986079Y-75379546D01*
X123986079Y-75120454D01*
X123919021Y-74870191D01*
X123789475Y-74645810D01*
X123606270Y-74462605D01*
X123381889Y-74333059D01*
X123131626Y-74266001D01*
X122872534Y-74266001D01*
X122622271Y-74333059D01*
X122397890Y-74462605D01*
X122214685Y-74645810D01*
X122085139Y-74870191D01*
X122018081Y-75120454D01*
X108976463Y-75120454D01*
X109100966Y-74904809D01*
X109168024Y-74654546D01*
X109168024Y-74395454D01*
X109100966Y-74145191D01*
X108971420Y-73920810D01*
X108918884Y-73868274D01*
X115755901Y-73868274D01*
X115755901Y-74127366D01*
X115822959Y-74377629D01*
X115952505Y-74602010D01*
X116135710Y-74785215D01*
X116360091Y-74914761D01*
X116610354Y-74981819D01*
X116869446Y-74981819D01*
X117119709Y-74914761D01*
X117344090Y-74785215D01*
X117527295Y-74602010D01*
X117656841Y-74377629D01*
X117723899Y-74127366D01*
X117723899Y-73868274D01*
X117656841Y-73618011D01*
X117527295Y-73393630D01*
X117511719Y-73378054D01*
X120763281Y-73378054D01*
X120763281Y-73637146D01*
X120830339Y-73887409D01*
X120959885Y-74111790D01*
X121143090Y-74294995D01*
X121367471Y-74424541D01*
X121617734Y-74491599D01*
X121876826Y-74491599D01*
X122127089Y-74424541D01*
X122351470Y-74294995D01*
X122534675Y-74111790D01*
X122664221Y-73887409D01*
X122731279Y-73637146D01*
X122731279Y-73378054D01*
X122664221Y-73127791D01*
X122534675Y-72903410D01*
X122351470Y-72720205D01*
X122127089Y-72590659D01*
X121876826Y-72523601D01*
X121617734Y-72523601D01*
X121367471Y-72590659D01*
X121143090Y-72720205D01*
X120959885Y-72903410D01*
X120830339Y-73127791D01*
X120763281Y-73378054D01*
X117511719Y-73378054D01*
X117344090Y-73210425D01*
X117119709Y-73080879D01*
X116869446Y-73013821D01*
X116610354Y-73013821D01*
X116360091Y-73080879D01*
X116135710Y-73210425D01*
X115952505Y-73393630D01*
X115822959Y-73618011D01*
X115755901Y-73868274D01*
X108918884Y-73868274D01*
X108788215Y-73737605D01*
X108563834Y-73608059D01*
X108313571Y-73541001D01*
X108054479Y-73541001D01*
X107804216Y-73608059D01*
X107579835Y-73737605D01*
X107396630Y-73920810D01*
X107267084Y-74145191D01*
X107200026Y-74395454D01*
X97713651Y-74395454D01*
X97650301Y-74159031D01*
X97520755Y-73934650D01*
X97337550Y-73751445D01*
X97113169Y-73621899D01*
X96862906Y-73554841D01*
X96603814Y-73554841D01*
X96353551Y-73621899D01*
X96129170Y-73751445D01*
X95945965Y-73934650D01*
X95816419Y-74159031D01*
X95749361Y-74409294D01*
X80111811Y-74409294D01*
X80116941Y-74400409D01*
X80183999Y-74150146D01*
X80183999Y-73891054D01*
X80116941Y-73640791D01*
X79987395Y-73416410D01*
X79948600Y-73377616D01*
X80634723Y-72691493D01*
X82113215Y-72691493D01*
X82149465Y-72949428D01*
X82227355Y-73197979D01*
X82344796Y-73430470D01*
X82498630Y-73640659D01*
X82684729Y-73822899D01*
X82898093Y-73972299D01*
X83132993Y-74084844D01*
X83383121Y-74157513D01*
X83641757Y-74188353D01*
X83901959Y-74176538D01*
X84156737Y-74122383D01*
X84399248Y-74027344D01*
X84622982Y-73893973D01*
X84821927Y-73725850D01*
X84990743Y-73527492D01*
X85124894Y-73304226D01*
X85220779Y-73062048D01*
X85276151Y-72805945D01*
X85284330Y-72471295D01*
X85241535Y-72212793D01*
X85205879Y-72108054D01*
X113765581Y-72108054D01*
X113765581Y-72367146D01*
X113832639Y-72617409D01*
X113962185Y-72841790D01*
X114145390Y-73024995D01*
X114369771Y-73154541D01*
X114620034Y-73221599D01*
X114879126Y-73221599D01*
X115129389Y-73154541D01*
X115353770Y-73024995D01*
X115536975Y-72841790D01*
X115666521Y-72617409D01*
X115733579Y-72367146D01*
X115733579Y-72108054D01*
X115666521Y-71857791D01*
X115536975Y-71633410D01*
X115353770Y-71450205D01*
X115129389Y-71320659D01*
X114879126Y-71253601D01*
X114620034Y-71253601D01*
X114369771Y-71320659D01*
X114145390Y-71450205D01*
X113962185Y-71633410D01*
X113832639Y-71857791D01*
X113765581Y-72108054D01*
X85205879Y-72108054D01*
X85157594Y-71966220D01*
X85034510Y-71736667D01*
X84875585Y-71530299D01*
X84685090Y-71352659D01*
X84468139Y-71208518D01*
X84230560Y-71101745D01*
X83978732Y-71035210D01*
X83719418Y-71010697D01*
X83459583Y-71028867D01*
X83206205Y-71089230D01*
X82966087Y-71190167D01*
X82745680Y-71328965D01*
X82550901Y-71501897D01*
X82386981Y-71704320D01*
X82258325Y-71930797D01*
X82168386Y-72175246D01*
X82119579Y-72431101D01*
X82113215Y-72691493D01*
X80634723Y-72691493D01*
X81654776Y-71671441D01*
X81654782Y-71671434D01*
X81698336Y-71627880D01*
X81725866Y-71573850D01*
X81761507Y-71524794D01*
X81780245Y-71467127D01*
X81807776Y-71413093D01*
X81817263Y-71353194D01*
X81835999Y-71295531D01*
X81835999Y-71235408D01*
X81836000Y-71235402D01*
X81836000Y-70375774D01*
X94283781Y-70375774D01*
X94283781Y-70634866D01*
X94350839Y-70885129D01*
X94480385Y-71109510D01*
X94663590Y-71292715D01*
X94887971Y-71422261D01*
X95138234Y-71489319D01*
X95397326Y-71489319D01*
X95647589Y-71422261D01*
X95871970Y-71292715D01*
X95914992Y-71249693D01*
X101361326Y-71249693D01*
X101583768Y-71423486D01*
X101842231Y-71572710D01*
X102118948Y-71684511D01*
X102408530Y-71756711D01*
X102705343Y-71787908D01*
X103003609Y-71777492D01*
X103297522Y-71725667D01*
X103581363Y-71633441D01*
X103849606Y-71502611D01*
X104209106Y-71260125D01*
X102780000Y-69831019D01*
X101361326Y-71249693D01*
X95914992Y-71249693D01*
X96055175Y-71109510D01*
X96184721Y-70885129D01*
X96251779Y-70634866D01*
X96251779Y-70375774D01*
X96184721Y-70125511D01*
X96055175Y-69901130D01*
X95871970Y-69717925D01*
X95754321Y-69650000D01*
X100640789Y-69650000D01*
X100661608Y-69947721D01*
X100723658Y-70239646D01*
X100825734Y-70520095D01*
X100965846Y-70783609D01*
X101176052Y-71072929D01*
X102598981Y-69650000D01*
X102961019Y-69650000D01*
X104377322Y-71066303D01*
X104510658Y-70907396D01*
X104668811Y-70654299D01*
X104790200Y-70381653D01*
X104872464Y-70094767D01*
X104914000Y-69799224D01*
X104914000Y-69500776D01*
X104872464Y-69205233D01*
X104790200Y-68918347D01*
X104668811Y-68645701D01*
X104579835Y-68503310D01*
X107678847Y-68503310D01*
X107694494Y-68752013D01*
X107753934Y-68994014D01*
X107855291Y-69221664D01*
X107995360Y-69427768D01*
X108169711Y-69605811D01*
X108372837Y-69750164D01*
X108598315Y-69856266D01*
X108839019Y-69920762D01*
X109087339Y-69941615D01*
X109335428Y-69918164D01*
X109575442Y-69851150D01*
X109799796Y-69742693D01*
X110001399Y-69596221D01*
X110173878Y-69416362D01*
X110311780Y-69208802D01*
X110410747Y-68980102D01*
X110468031Y-68735872D01*
X110470387Y-68645893D01*
X110533065Y-68879809D01*
X110662611Y-69104190D01*
X110845816Y-69287395D01*
X111070197Y-69416941D01*
X111320460Y-69483999D01*
X111579552Y-69483999D01*
X111829815Y-69416941D01*
X112054196Y-69287395D01*
X112237401Y-69104190D01*
X112366947Y-68879809D01*
X112434005Y-68629546D01*
X112434005Y-68370454D01*
X112366947Y-68120191D01*
X112290832Y-67988355D01*
X112403441Y-67793309D01*
X112470499Y-67543046D01*
X112470499Y-67283954D01*
X112403441Y-67033691D01*
X112347548Y-66936881D01*
X112430439Y-66793309D01*
X112497497Y-66543046D01*
X112497497Y-66283954D01*
X112497465Y-66283834D01*
X112937541Y-66283834D01*
X112937541Y-66542926D01*
X113004599Y-66793189D01*
X113081241Y-66925937D01*
X113027459Y-67019091D01*
X112960401Y-67269354D01*
X112960401Y-67528446D01*
X113027459Y-67778709D01*
X113119513Y-67938152D01*
X113012219Y-68123991D01*
X112945161Y-68374254D01*
X112945161Y-68633346D01*
X113012219Y-68883609D01*
X113141765Y-69107990D01*
X113324970Y-69291195D01*
X113549351Y-69420741D01*
X113799614Y-69487799D01*
X114058706Y-69487799D01*
X114308969Y-69420741D01*
X114533350Y-69291195D01*
X114716555Y-69107990D01*
X114846101Y-68883609D01*
X114913159Y-68633346D01*
X114913159Y-68374254D01*
X114846101Y-68123991D01*
X114757457Y-67970454D01*
X122766001Y-67970454D01*
X122766001Y-68229546D01*
X122833059Y-68479809D01*
X122962605Y-68704190D01*
X123145810Y-68887395D01*
X123370191Y-69016941D01*
X123620454Y-69083999D01*
X123879546Y-69083999D01*
X124129809Y-69016941D01*
X124354190Y-68887395D01*
X124537395Y-68704190D01*
X124666941Y-68479809D01*
X124723211Y-68269808D01*
X124723211Y-68704535D01*
X124630179Y-68865671D01*
X124563121Y-69115934D01*
X124563121Y-69375026D01*
X124630179Y-69625289D01*
X124759725Y-69849670D01*
X124942930Y-70032875D01*
X125167311Y-70162421D01*
X125417574Y-70229479D01*
X125676666Y-70229479D01*
X125926929Y-70162421D01*
X126151310Y-70032875D01*
X126334515Y-69849670D01*
X126437437Y-69671403D01*
X129834616Y-69671403D01*
X130022837Y-69805164D01*
X130248315Y-69911266D01*
X130489019Y-69975762D01*
X130737339Y-69996615D01*
X130985428Y-69973164D01*
X131225442Y-69906150D01*
X131449796Y-69797693D01*
X131624643Y-69670662D01*
X130730000Y-68776019D01*
X129834616Y-69671403D01*
X126437437Y-69671403D01*
X126464061Y-69625289D01*
X126531119Y-69375026D01*
X126531119Y-69115934D01*
X126464061Y-68865671D01*
X126372210Y-68706580D01*
X126372210Y-68558310D01*
X129328847Y-68558310D01*
X129344494Y-68807013D01*
X129403934Y-69049014D01*
X129505291Y-69276664D01*
X129651773Y-69492208D01*
X130548981Y-68595000D01*
X130911019Y-68595000D01*
X131809309Y-69493290D01*
X131961780Y-69263802D01*
X132000119Y-69175206D01*
X132045291Y-69276664D01*
X132185360Y-69482768D01*
X132359711Y-69660811D01*
X132562837Y-69805164D01*
X132788315Y-69911266D01*
X133029019Y-69975762D01*
X133277339Y-69996615D01*
X133525428Y-69973164D01*
X133765442Y-69906150D01*
X133989796Y-69797693D01*
X134191399Y-69651221D01*
X134363878Y-69471362D01*
X134501780Y-69263802D01*
X134600747Y-69035102D01*
X134658031Y-68790872D01*
X134666380Y-68472041D01*
X134621956Y-68225147D01*
X134535094Y-67991581D01*
X134408244Y-67777089D01*
X134245414Y-67588449D01*
X134051754Y-67431627D01*
X133833384Y-67311576D01*
X133597205Y-67232093D01*
X133350684Y-67195690D01*
X133101612Y-67203517D01*
X132857863Y-67255328D01*
X132627141Y-67349484D01*
X132416739Y-67483009D01*
X132233308Y-67651683D01*
X132082645Y-67850173D01*
X132001634Y-68009167D01*
X131995094Y-67991581D01*
X131816472Y-67689547D01*
X130911019Y-68595000D01*
X130548981Y-68595000D01*
X129655487Y-67701506D01*
X129542645Y-67850175D01*
X129429513Y-68072208D01*
X129357489Y-68310766D01*
X129328847Y-68558310D01*
X126372210Y-68558310D01*
X126372210Y-67513179D01*
X129829198Y-67513179D01*
X130730000Y-68413981D01*
X131641194Y-67502786D01*
X131293384Y-67311576D01*
X131057205Y-67232093D01*
X130810684Y-67195690D01*
X130561612Y-67203517D01*
X130317863Y-67255328D01*
X130087142Y-67349484D01*
X129829198Y-67513179D01*
X126372210Y-67513179D01*
X126372210Y-64942212D01*
X126464651Y-64782099D01*
X126531709Y-64531836D01*
X126531709Y-64272744D01*
X126464651Y-64022481D01*
X126335105Y-63798100D01*
X126151900Y-63614895D01*
X125927519Y-63485349D01*
X125677256Y-63418291D01*
X125418164Y-63418291D01*
X125167901Y-63485349D01*
X124943520Y-63614895D01*
X124760315Y-63798100D01*
X124630769Y-64022481D01*
X124563711Y-64272744D01*
X124563711Y-64531836D01*
X124630769Y-64782099D01*
X124723210Y-64942212D01*
X124723211Y-67930192D01*
X124666941Y-67720191D01*
X124537395Y-67495810D01*
X124354190Y-67312605D01*
X124129809Y-67183059D01*
X123879546Y-67116001D01*
X123620454Y-67116001D01*
X123370191Y-67183059D01*
X123145810Y-67312605D01*
X122962605Y-67495810D01*
X122833059Y-67720191D01*
X122766001Y-67970454D01*
X114757457Y-67970454D01*
X114754047Y-67964548D01*
X114861341Y-67778709D01*
X114928399Y-67528446D01*
X114928399Y-67269354D01*
X114861341Y-67019091D01*
X114784699Y-66886343D01*
X114838481Y-66793189D01*
X114905539Y-66542926D01*
X114905539Y-66283834D01*
X114838481Y-66033571D01*
X114789439Y-65948627D01*
X114866421Y-65815289D01*
X114933479Y-65565026D01*
X114933479Y-65305934D01*
X114866421Y-65055671D01*
X114736875Y-64831290D01*
X114553670Y-64648085D01*
X114329289Y-64518539D01*
X114079026Y-64451481D01*
X113819934Y-64451481D01*
X113569671Y-64518539D01*
X113345290Y-64648085D01*
X113162085Y-64831290D01*
X113032539Y-65055671D01*
X112965481Y-65305934D01*
X112965481Y-65565026D01*
X113032539Y-65815289D01*
X113081581Y-65900233D01*
X113004599Y-66033571D01*
X112937541Y-66283834D01*
X112497465Y-66283834D01*
X112430439Y-66033691D01*
X112361048Y-65913502D01*
X112430441Y-65793309D01*
X112497499Y-65543046D01*
X112497499Y-65283954D01*
X112430441Y-65033691D01*
X112300895Y-64809310D01*
X112117690Y-64626105D01*
X111893309Y-64496559D01*
X111643046Y-64429501D01*
X111383954Y-64429501D01*
X111133691Y-64496559D01*
X110909310Y-64626105D01*
X110726105Y-64809310D01*
X110596559Y-65033691D01*
X110529501Y-65283954D01*
X110529501Y-65543046D01*
X110596559Y-65793309D01*
X110665950Y-65913498D01*
X110596557Y-66033691D01*
X110529499Y-66283954D01*
X110529499Y-66543046D01*
X110596557Y-66793309D01*
X110652450Y-66890119D01*
X110569559Y-67033691D01*
X110502501Y-67283954D01*
X110502501Y-67543046D01*
X110569559Y-67793309D01*
X110645674Y-67925145D01*
X110533065Y-68120191D01*
X110467198Y-68366010D01*
X110431956Y-68170147D01*
X110345094Y-67936581D01*
X110218244Y-67722089D01*
X110055414Y-67533449D01*
X109861754Y-67376627D01*
X109664416Y-67268138D01*
X109799796Y-67202693D01*
X109974643Y-67075662D01*
X109080000Y-66181019D01*
X108184616Y-67076403D01*
X108372837Y-67210164D01*
X108498668Y-67269375D01*
X108437141Y-67294484D01*
X108226739Y-67428009D01*
X108043308Y-67596683D01*
X107892645Y-67795173D01*
X107779513Y-68017208D01*
X107707489Y-68255766D01*
X107678847Y-68503310D01*
X104579835Y-68503310D01*
X104510658Y-68392604D01*
X104377322Y-68233697D01*
X102961019Y-69650000D01*
X102598981Y-69650000D01*
X101176052Y-68227071D01*
X100965846Y-68516391D01*
X100825734Y-68779905D01*
X100723658Y-69060354D01*
X100661608Y-69352279D01*
X100640789Y-69650000D01*
X95754321Y-69650000D01*
X95647589Y-69588379D01*
X95397326Y-69521321D01*
X95138234Y-69521321D01*
X94887971Y-69588379D01*
X94663590Y-69717925D01*
X94480385Y-69901130D01*
X94350839Y-70125511D01*
X94283781Y-70375774D01*
X81836000Y-70375774D01*
X81836000Y-68050307D01*
X101361326Y-68050307D01*
X102780000Y-69468981D01*
X104209106Y-68039875D01*
X103849606Y-67797389D01*
X103581363Y-67666559D01*
X103297522Y-67574333D01*
X103003609Y-67522508D01*
X102705343Y-67512092D01*
X102408530Y-67543289D01*
X102118948Y-67615489D01*
X101842231Y-67727290D01*
X101583768Y-67876514D01*
X101361326Y-68050307D01*
X81836000Y-68050307D01*
X81836000Y-65669154D01*
X96168461Y-65669154D01*
X96168461Y-65928246D01*
X96235519Y-66178509D01*
X96365065Y-66402890D01*
X96548270Y-66586095D01*
X96772651Y-66715641D01*
X97022914Y-66782699D01*
X97282006Y-66782699D01*
X97532269Y-66715641D01*
X97756650Y-66586095D01*
X97939855Y-66402890D01*
X98069401Y-66178509D01*
X98127063Y-65963310D01*
X107678847Y-65963310D01*
X107694494Y-66212013D01*
X107753934Y-66454014D01*
X107855291Y-66681664D01*
X108001773Y-66897208D01*
X108898981Y-66000000D01*
X109261019Y-66000000D01*
X110159309Y-66898290D01*
X110311780Y-66668802D01*
X110410747Y-66440102D01*
X110468031Y-66195872D01*
X110476380Y-65877041D01*
X110431956Y-65630147D01*
X110345094Y-65396581D01*
X110166472Y-65094547D01*
X109261019Y-66000000D01*
X108898981Y-66000000D01*
X108005487Y-65106506D01*
X107892645Y-65255175D01*
X107779513Y-65477208D01*
X107707489Y-65715766D01*
X107678847Y-65963310D01*
X98127063Y-65963310D01*
X98136459Y-65928246D01*
X98136459Y-65669154D01*
X98069401Y-65418891D01*
X97939855Y-65194510D01*
X97756650Y-65011305D01*
X97532269Y-64881759D01*
X97282006Y-64814701D01*
X97022914Y-64814701D01*
X96772651Y-64881759D01*
X96548270Y-65011305D01*
X96365065Y-65194510D01*
X96235519Y-65418891D01*
X96168461Y-65669154D01*
X81836000Y-65669154D01*
X81836000Y-63451734D01*
X84085681Y-63451734D01*
X84085681Y-63710826D01*
X84152739Y-63961089D01*
X84282285Y-64185470D01*
X84465490Y-64368675D01*
X84689871Y-64498221D01*
X84940134Y-64565279D01*
X85199226Y-64565279D01*
X85449489Y-64498221D01*
X85673870Y-64368675D01*
X85857075Y-64185470D01*
X85986621Y-63961089D01*
X86053679Y-63710826D01*
X86053679Y-63451734D01*
X86018503Y-63320454D01*
X96541001Y-63320454D01*
X96541001Y-63579546D01*
X96608059Y-63829809D01*
X96737605Y-64054190D01*
X96920810Y-64237395D01*
X97145191Y-64366941D01*
X97395454Y-64433999D01*
X97654546Y-64433999D01*
X97904809Y-64366941D01*
X98129190Y-64237395D01*
X98312395Y-64054190D01*
X98372726Y-63949693D01*
X99761326Y-63949693D01*
X99983768Y-64123486D01*
X100242231Y-64272710D01*
X100518948Y-64384511D01*
X100808530Y-64456711D01*
X101105343Y-64487908D01*
X101403609Y-64477492D01*
X101697522Y-64425667D01*
X101981363Y-64333441D01*
X102249606Y-64202611D01*
X102609106Y-63960125D01*
X101180000Y-62531019D01*
X99761326Y-63949693D01*
X98372726Y-63949693D01*
X98441941Y-63829809D01*
X98508999Y-63579546D01*
X98508999Y-63320454D01*
X98441941Y-63070191D01*
X98312395Y-62845810D01*
X98129190Y-62662605D01*
X97904809Y-62533059D01*
X97654546Y-62466001D01*
X97395454Y-62466001D01*
X97145191Y-62533059D01*
X96920810Y-62662605D01*
X96737605Y-62845810D01*
X96608059Y-63070191D01*
X96541001Y-63320454D01*
X86018503Y-63320454D01*
X85986621Y-63201471D01*
X85857075Y-62977090D01*
X85673870Y-62793885D01*
X85449489Y-62664339D01*
X85199226Y-62597281D01*
X84940134Y-62597281D01*
X84689871Y-62664339D01*
X84465490Y-62793885D01*
X84282285Y-62977090D01*
X84152739Y-63201471D01*
X84085681Y-63451734D01*
X81836000Y-63451734D01*
X81836000Y-61866774D01*
X85937341Y-61866774D01*
X85937341Y-62125866D01*
X86004399Y-62376129D01*
X86133945Y-62600510D01*
X86317150Y-62783715D01*
X86541531Y-62913261D01*
X86791794Y-62980319D01*
X87050886Y-62980319D01*
X87301149Y-62913261D01*
X87525530Y-62783715D01*
X87708735Y-62600510D01*
X87838281Y-62376129D01*
X87905339Y-62125866D01*
X87905339Y-61866774D01*
X87883019Y-61783474D01*
X88170001Y-61783474D01*
X88170001Y-62042566D01*
X88237059Y-62292829D01*
X88366605Y-62517210D01*
X88549810Y-62700415D01*
X88774191Y-62829961D01*
X89024454Y-62897019D01*
X89283546Y-62897019D01*
X89533809Y-62829961D01*
X89758190Y-62700415D01*
X89941395Y-62517210D01*
X90037933Y-62350000D01*
X99040789Y-62350000D01*
X99061608Y-62647721D01*
X99123658Y-62939646D01*
X99225734Y-63220095D01*
X99365846Y-63483609D01*
X99576052Y-63772929D01*
X100998981Y-62350000D01*
X101361019Y-62350000D01*
X102777322Y-63766303D01*
X102910658Y-63607396D01*
X103025688Y-63423310D01*
X107678847Y-63423310D01*
X107694494Y-63672013D01*
X107753934Y-63914014D01*
X107855291Y-64141664D01*
X107995360Y-64347768D01*
X108169711Y-64525811D01*
X108372837Y-64670164D01*
X108498668Y-64729376D01*
X108437142Y-64754484D01*
X108179198Y-64918179D01*
X109080000Y-65818981D01*
X109991194Y-64907786D01*
X109664416Y-64728138D01*
X109799796Y-64662693D01*
X110001399Y-64516221D01*
X110152634Y-64358514D01*
X121350021Y-64358514D01*
X121350021Y-64617606D01*
X121417079Y-64867869D01*
X121546625Y-65092250D01*
X121729830Y-65275455D01*
X121954211Y-65405001D01*
X122204474Y-65472059D01*
X122463566Y-65472059D01*
X122713829Y-65405001D01*
X122938210Y-65275455D01*
X123121415Y-65092250D01*
X123250961Y-64867869D01*
X123318019Y-64617606D01*
X123318019Y-64475144D01*
X123449919Y-64439801D01*
X123674300Y-64310255D01*
X123857505Y-64127050D01*
X123987051Y-63902669D01*
X124054109Y-63652406D01*
X124054109Y-63393314D01*
X123987051Y-63143051D01*
X123857505Y-62918670D01*
X123674300Y-62735465D01*
X123449919Y-62605919D01*
X123199656Y-62538861D01*
X122940564Y-62538861D01*
X122690301Y-62605919D01*
X122465920Y-62735465D01*
X122282715Y-62918670D01*
X122153169Y-63143051D01*
X122086111Y-63393314D01*
X122086111Y-63535776D01*
X121954211Y-63571119D01*
X121729830Y-63700665D01*
X121546625Y-63883870D01*
X121417079Y-64108251D01*
X121350021Y-64358514D01*
X110152634Y-64358514D01*
X110173878Y-64336362D01*
X110311780Y-64128802D01*
X110410747Y-63900102D01*
X110468031Y-63655872D01*
X110476380Y-63337041D01*
X110431956Y-63090147D01*
X110411512Y-63035174D01*
X111979961Y-63035174D01*
X111979961Y-63294266D01*
X112047019Y-63544529D01*
X112176565Y-63768910D01*
X112359770Y-63952115D01*
X112584151Y-64081661D01*
X112834414Y-64148719D01*
X113093506Y-64148719D01*
X113343769Y-64081661D01*
X113568150Y-63952115D01*
X113751355Y-63768910D01*
X113880901Y-63544529D01*
X113947959Y-63294266D01*
X113947959Y-63035174D01*
X113885206Y-62800974D01*
X116666001Y-62800974D01*
X116666001Y-63060066D01*
X116733059Y-63310329D01*
X116862605Y-63534710D01*
X117045810Y-63717915D01*
X117270191Y-63847461D01*
X117520454Y-63914519D01*
X117779546Y-63914519D01*
X118029809Y-63847461D01*
X118254190Y-63717915D01*
X118437395Y-63534710D01*
X118566941Y-63310329D01*
X118633999Y-63060066D01*
X118633999Y-62800974D01*
X118566941Y-62550711D01*
X118437395Y-62326330D01*
X118254190Y-62143125D01*
X118029809Y-62013579D01*
X117779546Y-61946521D01*
X117520454Y-61946521D01*
X117270191Y-62013579D01*
X117045810Y-62143125D01*
X116862605Y-62326330D01*
X116733059Y-62550711D01*
X116666001Y-62800974D01*
X113885206Y-62800974D01*
X113880901Y-62784911D01*
X113751355Y-62560530D01*
X113568150Y-62377325D01*
X113343769Y-62247779D01*
X113093506Y-62180721D01*
X112834414Y-62180721D01*
X112584151Y-62247779D01*
X112359770Y-62377325D01*
X112176565Y-62560530D01*
X112047019Y-62784911D01*
X111979961Y-63035174D01*
X110411512Y-63035174D01*
X110345094Y-62856581D01*
X110218244Y-62642089D01*
X110055414Y-62453449D01*
X109861754Y-62296627D01*
X109643384Y-62176576D01*
X109407205Y-62097093D01*
X109160684Y-62060690D01*
X108911612Y-62068517D01*
X108667863Y-62120328D01*
X108437141Y-62214484D01*
X108226739Y-62348009D01*
X108043308Y-62516683D01*
X107892645Y-62715173D01*
X107779513Y-62937208D01*
X107707489Y-63175766D01*
X107678847Y-63423310D01*
X103025688Y-63423310D01*
X103068811Y-63354299D01*
X103190200Y-63081653D01*
X103272464Y-62794767D01*
X103314000Y-62499224D01*
X103314000Y-62200776D01*
X103272464Y-61905233D01*
X103190200Y-61618347D01*
X103068811Y-61345701D01*
X102910658Y-61092604D01*
X102777322Y-60933697D01*
X101361019Y-62350000D01*
X100998981Y-62350000D01*
X99576052Y-60927071D01*
X99365846Y-61216391D01*
X99225734Y-61479905D01*
X99123658Y-61760354D01*
X99061608Y-62052279D01*
X99040789Y-62350000D01*
X90037933Y-62350000D01*
X90070941Y-62292829D01*
X90137999Y-62042566D01*
X90137999Y-61889801D01*
X90216911Y-61935361D01*
X90467174Y-62002419D01*
X90726266Y-62002419D01*
X90960530Y-61939648D01*
X91066782Y-62000992D01*
X91317045Y-62068050D01*
X91576137Y-62068050D01*
X91826400Y-62000992D01*
X92050781Y-61871446D01*
X92065862Y-61856365D01*
X92173870Y-61964373D01*
X92398251Y-62093919D01*
X92648514Y-62160977D01*
X92907606Y-62160977D01*
X93157869Y-62093919D01*
X93270733Y-62028757D01*
X93300454Y-62045916D01*
X93550717Y-62112974D01*
X93809809Y-62112974D01*
X94060072Y-62045916D01*
X94284453Y-61916370D01*
X94467658Y-61733165D01*
X94597204Y-61508784D01*
X94664262Y-61258521D01*
X94664262Y-60999429D01*
X94597510Y-60750307D01*
X99761326Y-60750307D01*
X101180000Y-62168981D01*
X102609106Y-60739875D01*
X102249606Y-60497389D01*
X101981363Y-60366559D01*
X101853440Y-60324994D01*
X111017301Y-60324994D01*
X111017301Y-60584086D01*
X111084359Y-60834349D01*
X111213905Y-61058730D01*
X111397110Y-61241935D01*
X111621491Y-61371481D01*
X111871754Y-61438539D01*
X112130846Y-61438539D01*
X112381109Y-61371481D01*
X112605490Y-61241935D01*
X112696241Y-61151184D01*
X112696241Y-61267346D01*
X112763299Y-61517609D01*
X112892845Y-61741990D01*
X113076050Y-61925195D01*
X113300431Y-62054741D01*
X113550694Y-62121799D01*
X113809786Y-62121799D01*
X114060049Y-62054741D01*
X114284430Y-61925195D01*
X114467635Y-61741990D01*
X114597181Y-61517609D01*
X114664239Y-61267346D01*
X114664239Y-61008254D01*
X114597181Y-60757991D01*
X114467635Y-60533610D01*
X114284430Y-60350405D01*
X114060049Y-60220859D01*
X113809786Y-60153801D01*
X113550694Y-60153801D01*
X113300431Y-60220859D01*
X113076050Y-60350405D01*
X112985299Y-60441156D01*
X112985299Y-60324994D01*
X112918241Y-60074731D01*
X112788695Y-59850350D01*
X112605490Y-59667145D01*
X112381109Y-59537599D01*
X112130846Y-59470541D01*
X111871754Y-59470541D01*
X111621491Y-59537599D01*
X111397110Y-59667145D01*
X111213905Y-59850350D01*
X111084359Y-60074731D01*
X111017301Y-60324994D01*
X101853440Y-60324994D01*
X101697522Y-60274333D01*
X101403609Y-60222508D01*
X101105343Y-60212092D01*
X100808530Y-60243289D01*
X100518948Y-60315489D01*
X100242231Y-60427290D01*
X99983768Y-60576514D01*
X99761326Y-60750307D01*
X94597510Y-60750307D01*
X94597204Y-60749166D01*
X94467658Y-60524785D01*
X94284453Y-60341580D01*
X94060072Y-60212034D01*
X93809809Y-60144976D01*
X93550717Y-60144976D01*
X93300454Y-60212034D01*
X93187590Y-60277196D01*
X93157869Y-60260037D01*
X92907606Y-60192979D01*
X92648514Y-60192979D01*
X92398251Y-60260037D01*
X92173870Y-60389583D01*
X92158789Y-60404664D01*
X92050781Y-60296656D01*
X91826400Y-60167110D01*
X91576137Y-60100052D01*
X91317045Y-60100052D01*
X91082781Y-60162823D01*
X90976529Y-60101479D01*
X90726266Y-60034421D01*
X90467174Y-60034421D01*
X90216911Y-60101479D01*
X89992530Y-60231025D01*
X89809325Y-60414230D01*
X89679779Y-60638611D01*
X89612721Y-60888874D01*
X89612721Y-61041639D01*
X89533809Y-60996079D01*
X89283546Y-60929021D01*
X89024454Y-60929021D01*
X88774191Y-60996079D01*
X88549810Y-61125625D01*
X88366605Y-61308830D01*
X88237059Y-61533211D01*
X88170001Y-61783474D01*
X87883019Y-61783474D01*
X87838281Y-61616511D01*
X87708735Y-61392130D01*
X87525530Y-61208925D01*
X87301149Y-61079379D01*
X87050886Y-61012321D01*
X86791794Y-61012321D01*
X86541531Y-61079379D01*
X86317150Y-61208925D01*
X86133945Y-61392130D01*
X86004399Y-61616511D01*
X85937341Y-61866774D01*
X81836000Y-61866774D01*
X81836000Y-59632093D01*
X95423722Y-59632093D01*
X95423722Y-59891185D01*
X95490780Y-60141448D01*
X95620326Y-60365829D01*
X95803531Y-60549034D01*
X96027912Y-60678580D01*
X96278175Y-60745638D01*
X96537267Y-60745638D01*
X96787530Y-60678580D01*
X97011911Y-60549034D01*
X97195116Y-60365829D01*
X97324662Y-60141448D01*
X97391720Y-59891185D01*
X97391720Y-59632093D01*
X97324662Y-59381830D01*
X97195116Y-59157449D01*
X97011911Y-58974244D01*
X96787530Y-58844698D01*
X96537267Y-58777640D01*
X96278175Y-58777640D01*
X96027912Y-58844698D01*
X95803531Y-58974244D01*
X95620326Y-59157449D01*
X95490780Y-59381830D01*
X95423722Y-59632093D01*
X81836000Y-59632093D01*
X81836000Y-57863213D01*
X99140261Y-57863213D01*
X99140261Y-58122305D01*
X99207319Y-58372568D01*
X99336865Y-58596949D01*
X99520070Y-58780154D01*
X99744451Y-58909700D01*
X99994714Y-58976758D01*
X100253806Y-58976758D01*
X100504069Y-58909700D01*
X100728450Y-58780154D01*
X100911655Y-58596949D01*
X101041201Y-58372568D01*
X101108259Y-58122305D01*
X101108259Y-57863213D01*
X101041201Y-57612950D01*
X100911655Y-57388569D01*
X100728450Y-57205364D01*
X100504069Y-57075818D01*
X100253806Y-57008760D01*
X99994714Y-57008760D01*
X99744451Y-57075818D01*
X99520070Y-57205364D01*
X99336865Y-57388569D01*
X99207319Y-57612950D01*
X99140261Y-57863213D01*
X81836000Y-57863213D01*
X81836000Y-54107074D01*
X86798401Y-54107074D01*
X86798401Y-54366166D01*
X86865459Y-54616429D01*
X86969924Y-54797369D01*
X86916001Y-54998614D01*
X86916001Y-55257706D01*
X86983059Y-55507969D01*
X87109421Y-55726835D01*
X87061312Y-55810162D01*
X86994254Y-56060425D01*
X86994254Y-56319517D01*
X87061312Y-56569780D01*
X87190858Y-56794161D01*
X87374063Y-56977366D01*
X87598444Y-57106912D01*
X87848707Y-57173970D01*
X88107799Y-57173970D01*
X88358062Y-57106912D01*
X88582443Y-56977366D01*
X88705563Y-56854246D01*
X88723391Y-56864539D01*
X88973654Y-56931597D01*
X89232746Y-56931597D01*
X89483009Y-56864539D01*
X89707390Y-56734993D01*
X89828328Y-56614055D01*
X105416001Y-56614055D01*
X105416001Y-56873147D01*
X105483059Y-57123410D01*
X105612605Y-57347791D01*
X105795810Y-57530996D01*
X106020191Y-57660542D01*
X106064301Y-57672361D01*
X106064301Y-57851046D01*
X106131359Y-58101309D01*
X106165095Y-58159741D01*
X106121199Y-58235771D01*
X106054141Y-58486034D01*
X106054141Y-58745126D01*
X106121199Y-58995389D01*
X106250745Y-59219770D01*
X106433950Y-59402975D01*
X106658331Y-59532521D01*
X106908594Y-59599579D01*
X107167686Y-59599579D01*
X107417949Y-59532521D01*
X107642330Y-59402975D01*
X107825535Y-59219770D01*
X107955081Y-58995389D01*
X108005127Y-58808614D01*
X112660681Y-58808614D01*
X112660681Y-59067706D01*
X112727739Y-59317969D01*
X112857285Y-59542350D01*
X113040490Y-59725555D01*
X113264871Y-59855101D01*
X113515134Y-59922159D01*
X113774226Y-59922159D01*
X114024489Y-59855101D01*
X114105387Y-59808394D01*
X114120190Y-59816941D01*
X114370454Y-59883999D01*
X114629546Y-59883999D01*
X114879809Y-59816941D01*
X114960327Y-59770454D01*
X116916001Y-59770454D01*
X116916001Y-60029546D01*
X116983059Y-60279809D01*
X117112605Y-60504190D01*
X117295810Y-60687395D01*
X117520191Y-60816941D01*
X117770454Y-60883999D01*
X118029546Y-60883999D01*
X118279809Y-60816941D01*
X118504190Y-60687395D01*
X118687395Y-60504190D01*
X118816941Y-60279809D01*
X118883999Y-60029546D01*
X118883999Y-59820454D01*
X131616001Y-59820454D01*
X131616001Y-60079546D01*
X131683059Y-60329809D01*
X131812605Y-60554190D01*
X131995810Y-60737395D01*
X132220191Y-60866941D01*
X132470454Y-60933999D01*
X132729546Y-60933999D01*
X132979809Y-60866941D01*
X133204190Y-60737395D01*
X133387395Y-60554190D01*
X133516941Y-60329809D01*
X133583999Y-60079546D01*
X133583999Y-59820454D01*
X133516941Y-59570191D01*
X133387395Y-59345810D01*
X133204190Y-59162605D01*
X132979809Y-59033059D01*
X132729546Y-58966001D01*
X132470454Y-58966001D01*
X132220191Y-59033059D01*
X131995810Y-59162605D01*
X131812605Y-59345810D01*
X131683059Y-59570191D01*
X131616001Y-59820454D01*
X118883999Y-59820454D01*
X118883999Y-59770454D01*
X118816941Y-59520191D01*
X118687395Y-59295810D01*
X118504190Y-59112605D01*
X118279809Y-58983059D01*
X118029546Y-58916001D01*
X117770454Y-58916001D01*
X117520191Y-58983059D01*
X117295810Y-59112605D01*
X117112605Y-59295810D01*
X116983059Y-59520191D01*
X116916001Y-59770454D01*
X114960327Y-59770454D01*
X115104190Y-59687395D01*
X115287395Y-59504190D01*
X115416941Y-59279809D01*
X115483999Y-59029546D01*
X115483999Y-58770454D01*
X115417012Y-58520454D01*
X133916001Y-58520454D01*
X133916001Y-58779546D01*
X133983059Y-59029809D01*
X134112605Y-59254190D01*
X134295810Y-59437395D01*
X134520191Y-59566941D01*
X134770454Y-59633999D01*
X135029546Y-59633999D01*
X135279809Y-59566941D01*
X135504190Y-59437395D01*
X135687395Y-59254190D01*
X135816941Y-59029809D01*
X135883999Y-58779546D01*
X135883999Y-58520454D01*
X135816941Y-58270191D01*
X135687395Y-58045810D01*
X135504190Y-57862605D01*
X135279809Y-57733059D01*
X135029546Y-57666001D01*
X134770454Y-57666001D01*
X134520191Y-57733059D01*
X134295810Y-57862605D01*
X134112605Y-58045810D01*
X133983059Y-58270191D01*
X133916001Y-58520454D01*
X115417012Y-58520454D01*
X115416941Y-58520191D01*
X115287395Y-58295810D01*
X115104190Y-58112605D01*
X114879809Y-57983059D01*
X114629546Y-57916001D01*
X114370454Y-57916001D01*
X114120191Y-57983059D01*
X114039293Y-58029766D01*
X114024490Y-58021219D01*
X113774226Y-57954161D01*
X113515134Y-57954161D01*
X113264871Y-58021219D01*
X113040490Y-58150765D01*
X112857285Y-58333970D01*
X112727739Y-58558351D01*
X112660681Y-58808614D01*
X108005127Y-58808614D01*
X108022139Y-58745126D01*
X108022139Y-58486034D01*
X107955081Y-58235771D01*
X107921345Y-58177339D01*
X107965241Y-58101309D01*
X108032299Y-57851046D01*
X108032299Y-57591954D01*
X107965241Y-57341691D01*
X107835695Y-57117310D01*
X107652490Y-56934105D01*
X107428109Y-56804559D01*
X107383999Y-56792740D01*
X107383999Y-56614055D01*
X107334212Y-56428248D01*
X114604810Y-56428248D01*
X114604810Y-56687340D01*
X114671868Y-56937603D01*
X114801414Y-57161984D01*
X114984619Y-57345189D01*
X115209000Y-57474735D01*
X115459263Y-57541793D01*
X115718355Y-57541793D01*
X115968618Y-57474735D01*
X116192999Y-57345189D01*
X116376204Y-57161984D01*
X116505750Y-56937603D01*
X116572808Y-56687340D01*
X116572808Y-56428248D01*
X116505750Y-56177985D01*
X116377700Y-55956194D01*
X116882161Y-55956194D01*
X116882161Y-56215286D01*
X116949219Y-56465549D01*
X117078765Y-56689930D01*
X117123625Y-56734790D01*
X117112605Y-56745810D01*
X116983059Y-56970191D01*
X116916001Y-57220454D01*
X116916001Y-57479546D01*
X116983059Y-57729809D01*
X117112605Y-57954190D01*
X117295810Y-58137395D01*
X117520191Y-58266941D01*
X117770454Y-58333999D01*
X118029546Y-58333999D01*
X118279809Y-58266941D01*
X118504190Y-58137395D01*
X118687395Y-57954190D01*
X118816941Y-57729809D01*
X118883999Y-57479546D01*
X118883999Y-57220454D01*
X118816941Y-56970191D01*
X118687395Y-56745810D01*
X118642535Y-56700950D01*
X118653555Y-56689930D01*
X118783101Y-56465549D01*
X118850159Y-56215286D01*
X118850159Y-55970454D01*
X131616001Y-55970454D01*
X131616001Y-56229546D01*
X131683059Y-56479809D01*
X131812605Y-56704190D01*
X131995810Y-56887395D01*
X132220191Y-57016941D01*
X132470454Y-57083999D01*
X132729546Y-57083999D01*
X132979809Y-57016941D01*
X133204190Y-56887395D01*
X133387395Y-56704190D01*
X133516941Y-56479809D01*
X133583999Y-56229546D01*
X133583999Y-55970454D01*
X133516941Y-55720191D01*
X133387395Y-55495810D01*
X133204190Y-55312605D01*
X132979809Y-55183059D01*
X132729546Y-55116001D01*
X132470454Y-55116001D01*
X132220191Y-55183059D01*
X131995810Y-55312605D01*
X131812605Y-55495810D01*
X131683059Y-55720191D01*
X131616001Y-55970454D01*
X118850159Y-55970454D01*
X118850159Y-55956194D01*
X118783101Y-55705931D01*
X118653555Y-55481550D01*
X118470350Y-55298345D01*
X118245969Y-55168799D01*
X117995706Y-55101741D01*
X117736614Y-55101741D01*
X117486351Y-55168799D01*
X117261970Y-55298345D01*
X117078765Y-55481550D01*
X116949219Y-55705931D01*
X116882161Y-55956194D01*
X116377700Y-55956194D01*
X116376204Y-55953604D01*
X116192999Y-55770399D01*
X115968618Y-55640853D01*
X115718355Y-55573795D01*
X115459263Y-55573795D01*
X115209000Y-55640853D01*
X114984619Y-55770399D01*
X114801414Y-55953604D01*
X114671868Y-56177985D01*
X114604810Y-56428248D01*
X107334212Y-56428248D01*
X107316941Y-56363792D01*
X107187395Y-56139411D01*
X107004190Y-55956206D01*
X106779809Y-55826660D01*
X106529546Y-55759602D01*
X106270454Y-55759602D01*
X106020191Y-55826660D01*
X105795810Y-55956206D01*
X105612605Y-56139411D01*
X105483059Y-56363792D01*
X105416001Y-56614055D01*
X89828328Y-56614055D01*
X89890595Y-56551788D01*
X90020141Y-56327407D01*
X90087199Y-56077144D01*
X90087199Y-55818052D01*
X90020141Y-55567789D01*
X89890595Y-55343408D01*
X89707390Y-55160203D01*
X89483009Y-55030657D01*
X89232746Y-54963599D01*
X88973654Y-54963599D01*
X88881251Y-54988358D01*
X88816941Y-54748351D01*
X88712476Y-54567411D01*
X88766399Y-54366166D01*
X88766399Y-54107074D01*
X88749385Y-54043574D01*
X91606621Y-54043574D01*
X91606621Y-54302666D01*
X91673679Y-54552929D01*
X91803225Y-54777310D01*
X91986430Y-54960515D01*
X92210811Y-55090061D01*
X92461074Y-55157119D01*
X92720166Y-55157119D01*
X92970429Y-55090061D01*
X93194810Y-54960515D01*
X93291272Y-54864053D01*
X98563681Y-54864053D01*
X98563681Y-55123145D01*
X98630739Y-55373408D01*
X98760285Y-55597789D01*
X98943490Y-55780994D01*
X99167871Y-55910540D01*
X99418134Y-55977598D01*
X99677226Y-55977598D01*
X99927489Y-55910540D01*
X100151870Y-55780994D01*
X100335075Y-55597789D01*
X100464621Y-55373408D01*
X100531679Y-55123145D01*
X100531679Y-54864053D01*
X100464621Y-54613790D01*
X100335075Y-54389409D01*
X100151870Y-54206204D01*
X99927489Y-54076658D01*
X99677226Y-54009600D01*
X99418134Y-54009600D01*
X99167871Y-54076658D01*
X98943490Y-54206204D01*
X98760285Y-54389409D01*
X98630739Y-54613790D01*
X98563681Y-54864053D01*
X93291272Y-54864053D01*
X93378015Y-54777310D01*
X93507561Y-54552929D01*
X93574619Y-54302666D01*
X93574619Y-54043574D01*
X93507561Y-53793311D01*
X93378015Y-53568930D01*
X93359899Y-53550814D01*
X101624381Y-53550814D01*
X101624381Y-53809906D01*
X101691439Y-54060169D01*
X101820985Y-54284550D01*
X102004190Y-54467755D01*
X102228571Y-54597301D01*
X102478834Y-54664359D01*
X102737926Y-54664359D01*
X102988189Y-54597301D01*
X103212570Y-54467755D01*
X103395775Y-54284550D01*
X103525321Y-54060169D01*
X103592379Y-53809906D01*
X103592379Y-53627014D01*
X104154221Y-53627014D01*
X104154221Y-53886106D01*
X104221279Y-54136369D01*
X104350825Y-54360750D01*
X104534030Y-54543955D01*
X104758411Y-54673501D01*
X105008674Y-54740559D01*
X105267766Y-54740559D01*
X105385343Y-54709054D01*
X120247661Y-54709054D01*
X120247661Y-54968146D01*
X120314719Y-55218409D01*
X120444265Y-55442790D01*
X120627470Y-55625995D01*
X120851851Y-55755541D01*
X121102114Y-55822599D01*
X121361206Y-55822599D01*
X121611469Y-55755541D01*
X121835850Y-55625995D01*
X122019055Y-55442790D01*
X122148601Y-55218409D01*
X122215659Y-54968146D01*
X122215659Y-54709054D01*
X122148601Y-54458791D01*
X122019055Y-54234410D01*
X121835850Y-54051205D01*
X121611469Y-53921659D01*
X121361206Y-53854601D01*
X121102114Y-53854601D01*
X120851851Y-53921659D01*
X120627470Y-54051205D01*
X120444265Y-54234410D01*
X120314719Y-54458791D01*
X120247661Y-54709054D01*
X105385343Y-54709054D01*
X105518029Y-54673501D01*
X105742410Y-54543955D01*
X105925615Y-54360750D01*
X106055161Y-54136369D01*
X106122219Y-53886106D01*
X106122219Y-53627014D01*
X106068453Y-53426354D01*
X116562121Y-53426354D01*
X116562121Y-53685446D01*
X116629179Y-53935709D01*
X116758725Y-54160090D01*
X116941930Y-54343295D01*
X117166311Y-54472841D01*
X117416574Y-54539899D01*
X117675666Y-54539899D01*
X117925929Y-54472841D01*
X118150310Y-54343295D01*
X118333515Y-54160090D01*
X118463061Y-53935709D01*
X118530119Y-53685446D01*
X118530119Y-53426354D01*
X118463061Y-53176091D01*
X118385337Y-53041468D01*
X118531635Y-52895170D01*
X118661181Y-52670789D01*
X118728239Y-52420526D01*
X118728239Y-52161434D01*
X118661181Y-51911171D01*
X118531635Y-51686790D01*
X118348430Y-51503585D01*
X118124049Y-51374039D01*
X117873786Y-51306981D01*
X117614694Y-51306981D01*
X117364431Y-51374039D01*
X117140050Y-51503585D01*
X116956845Y-51686790D01*
X116827299Y-51911171D01*
X116760241Y-52161434D01*
X116760241Y-52420526D01*
X116827299Y-52670789D01*
X116905023Y-52805412D01*
X116758725Y-52951710D01*
X116629179Y-53176091D01*
X116562121Y-53426354D01*
X106068453Y-53426354D01*
X106055161Y-53376751D01*
X105925615Y-53152370D01*
X105742410Y-52969165D01*
X105518029Y-52839619D01*
X105267766Y-52772561D01*
X105008674Y-52772561D01*
X104758411Y-52839619D01*
X104534030Y-52969165D01*
X104350825Y-53152370D01*
X104221279Y-53376751D01*
X104154221Y-53627014D01*
X103592379Y-53627014D01*
X103592379Y-53550814D01*
X103525321Y-53300551D01*
X103395775Y-53076170D01*
X103212570Y-52892965D01*
X102988189Y-52763419D01*
X102737926Y-52696361D01*
X102478834Y-52696361D01*
X102228571Y-52763419D01*
X102004190Y-52892965D01*
X101820985Y-53076170D01*
X101691439Y-53300551D01*
X101624381Y-53550814D01*
X93359899Y-53550814D01*
X93194810Y-53385725D01*
X92970429Y-53256179D01*
X92720166Y-53189121D01*
X92461074Y-53189121D01*
X92210811Y-53256179D01*
X91986430Y-53385725D01*
X91803225Y-53568930D01*
X91673679Y-53793311D01*
X91606621Y-54043574D01*
X88749385Y-54043574D01*
X88699341Y-53856811D01*
X88569795Y-53632430D01*
X88386590Y-53449225D01*
X88162209Y-53319679D01*
X87911946Y-53252621D01*
X87652854Y-53252621D01*
X87402591Y-53319679D01*
X87178210Y-53449225D01*
X86995005Y-53632430D01*
X86865459Y-53856811D01*
X86798401Y-54107074D01*
X81836000Y-54107074D01*
X81836000Y-52727854D01*
X88665301Y-52727854D01*
X88665301Y-52986946D01*
X88732359Y-53237209D01*
X88861905Y-53461590D01*
X89045110Y-53644795D01*
X89269491Y-53774341D01*
X89519754Y-53841399D01*
X89778846Y-53841399D01*
X90029109Y-53774341D01*
X90253490Y-53644795D01*
X90436695Y-53461590D01*
X90566241Y-53237209D01*
X90633299Y-52986946D01*
X90633299Y-52727854D01*
X90566241Y-52477591D01*
X90436695Y-52253210D01*
X90253490Y-52070005D01*
X90029109Y-51940459D01*
X89778846Y-51873401D01*
X89519754Y-51873401D01*
X89269491Y-51940459D01*
X89045110Y-52070005D01*
X88861905Y-52253210D01*
X88732359Y-52477591D01*
X88665301Y-52727854D01*
X81836000Y-52727854D01*
X81836000Y-50271454D01*
X83042001Y-50271454D01*
X83042001Y-50530546D01*
X83109059Y-50780809D01*
X83238605Y-51005190D01*
X83421810Y-51188395D01*
X83646191Y-51317941D01*
X83896454Y-51384999D01*
X84155546Y-51384999D01*
X84405809Y-51317941D01*
X84630190Y-51188395D01*
X84813395Y-51005190D01*
X84932059Y-50799658D01*
X85137591Y-50680994D01*
X85303456Y-50515129D01*
X93915890Y-50515129D01*
X94115384Y-50694756D01*
X94436257Y-50927884D01*
X94779743Y-51126196D01*
X95142075Y-51287517D01*
X95519285Y-51410080D01*
X95907239Y-51492542D01*
X96301689Y-51534000D01*
X96698311Y-51534000D01*
X96903214Y-51512464D01*
X98537011Y-51512464D01*
X98537011Y-51771556D01*
X98604069Y-52021819D01*
X98733615Y-52246200D01*
X98916820Y-52429405D01*
X99141201Y-52558951D01*
X99391464Y-52626009D01*
X99650556Y-52626009D01*
X99900819Y-52558951D01*
X100125200Y-52429405D01*
X100308405Y-52246200D01*
X100437951Y-52021819D01*
X100447898Y-51984698D01*
X100485019Y-51974751D01*
X100709400Y-51845205D01*
X100892605Y-51662000D01*
X100970873Y-51526434D01*
X114827301Y-51526434D01*
X114827301Y-51785526D01*
X114894359Y-52035789D01*
X115023905Y-52260170D01*
X115207110Y-52443375D01*
X115431491Y-52572921D01*
X115681754Y-52639979D01*
X115940846Y-52639979D01*
X116191109Y-52572921D01*
X116415490Y-52443375D01*
X116598695Y-52260170D01*
X116728241Y-52035789D01*
X116795299Y-51785526D01*
X116795299Y-51526434D01*
X116728241Y-51276171D01*
X116598695Y-51051790D01*
X116415490Y-50868585D01*
X116191109Y-50739039D01*
X115940846Y-50671981D01*
X115681754Y-50671981D01*
X115431491Y-50739039D01*
X115207110Y-50868585D01*
X115023905Y-51051790D01*
X114894359Y-51276171D01*
X114827301Y-51526434D01*
X100970873Y-51526434D01*
X101022151Y-51437619D01*
X101089209Y-51187356D01*
X101089209Y-50928264D01*
X101022151Y-50678001D01*
X100892605Y-50453620D01*
X100709400Y-50270415D01*
X100485019Y-50140869D01*
X100234756Y-50073811D01*
X99975664Y-50073811D01*
X99725401Y-50140869D01*
X99501020Y-50270415D01*
X99317815Y-50453620D01*
X99188269Y-50678001D01*
X99178322Y-50715122D01*
X99141201Y-50725069D01*
X98916820Y-50854615D01*
X98733615Y-51037820D01*
X98604069Y-51262201D01*
X98537011Y-51512464D01*
X96903214Y-51512464D01*
X97092761Y-51492542D01*
X97480715Y-51410080D01*
X97857925Y-51287517D01*
X98220257Y-51126196D01*
X98563743Y-50927884D01*
X98884616Y-50694756D01*
X99084110Y-50515129D01*
X96500000Y-47931019D01*
X93915890Y-50515129D01*
X85303456Y-50515129D01*
X85320796Y-50497789D01*
X85450342Y-50273408D01*
X85517400Y-50023145D01*
X85517400Y-49764053D01*
X85450342Y-49513790D01*
X85320796Y-49289409D01*
X85137591Y-49106204D01*
X85088522Y-49077874D01*
X86973661Y-49077874D01*
X86973661Y-49336966D01*
X87040719Y-49587229D01*
X87170265Y-49811610D01*
X87353470Y-49994815D01*
X87577851Y-50124361D01*
X87828114Y-50191419D01*
X88087206Y-50191419D01*
X88337469Y-50124361D01*
X88561850Y-49994815D01*
X88745055Y-49811610D01*
X88874601Y-49587229D01*
X88941659Y-49336966D01*
X88941659Y-49077874D01*
X88874601Y-48827611D01*
X88745055Y-48603230D01*
X88561850Y-48420025D01*
X88337469Y-48290479D01*
X88087206Y-48223421D01*
X87828114Y-48223421D01*
X87577851Y-48290479D01*
X87353470Y-48420025D01*
X87170265Y-48603230D01*
X87040719Y-48827611D01*
X86973661Y-49077874D01*
X85088522Y-49077874D01*
X84913210Y-48976658D01*
X84662947Y-48909600D01*
X84403855Y-48909600D01*
X84153592Y-48976658D01*
X83929211Y-49106204D01*
X83746006Y-49289409D01*
X83627342Y-49494941D01*
X83421810Y-49613605D01*
X83238605Y-49796810D01*
X83109059Y-50021191D01*
X83042001Y-50271454D01*
X81836000Y-50271454D01*
X81836000Y-50194999D01*
X81858956Y-50194999D01*
X82109219Y-50127941D01*
X82333600Y-49998395D01*
X82496176Y-49835819D01*
X82583700Y-49835819D01*
X82833963Y-49768761D01*
X83058344Y-49639215D01*
X83241549Y-49456010D01*
X83371095Y-49231629D01*
X83438153Y-48981366D01*
X83438153Y-48722274D01*
X83371095Y-48472011D01*
X83241549Y-48247630D01*
X83058344Y-48064425D01*
X82833963Y-47934879D01*
X82817410Y-47930443D01*
X82817410Y-46492154D01*
X86783161Y-46492154D01*
X86783161Y-46751246D01*
X86850219Y-47001509D01*
X86979765Y-47225890D01*
X87162970Y-47409095D01*
X87387351Y-47538641D01*
X87637614Y-47605699D01*
X87896706Y-47605699D01*
X88098273Y-47551689D01*
X92716000Y-47551689D01*
X92716000Y-47948311D01*
X92757458Y-48342761D01*
X92839920Y-48730715D01*
X92962483Y-49107925D01*
X93123804Y-49470257D01*
X93322116Y-49813743D01*
X93555244Y-50134616D01*
X93734871Y-50334110D01*
X96318981Y-47750000D01*
X96681019Y-47750000D01*
X99265129Y-50334110D01*
X99444756Y-50134616D01*
X99677884Y-49813743D01*
X99876196Y-49470257D01*
X100037517Y-49107925D01*
X100098430Y-48920454D01*
X119966001Y-48920454D01*
X119966001Y-49179546D01*
X120033059Y-49429809D01*
X120162605Y-49654190D01*
X120345810Y-49837395D01*
X120570191Y-49966941D01*
X120656601Y-49990095D01*
X120656601Y-50007526D01*
X120723659Y-50257789D01*
X120849582Y-50475895D01*
X120767359Y-50618311D01*
X120700301Y-50868574D01*
X120700301Y-51127666D01*
X120767359Y-51377929D01*
X120896905Y-51602310D01*
X121080110Y-51785515D01*
X121304491Y-51915061D01*
X121554754Y-51982119D01*
X121813846Y-51982119D01*
X122043982Y-51920454D01*
X132016001Y-51920454D01*
X132016001Y-52179546D01*
X132083059Y-52429809D01*
X132212605Y-52654190D01*
X132395810Y-52837395D01*
X132620191Y-52966941D01*
X132870454Y-53033999D01*
X133129546Y-53033999D01*
X133379809Y-52966941D01*
X133604190Y-52837395D01*
X133695973Y-52745612D01*
X133778405Y-52888390D01*
X133961610Y-53071595D01*
X134185991Y-53201141D01*
X134436254Y-53268199D01*
X134695346Y-53268199D01*
X134945609Y-53201141D01*
X135169990Y-53071595D01*
X135353195Y-52888390D01*
X135482741Y-52664009D01*
X135549799Y-52413746D01*
X135549799Y-52154654D01*
X135482741Y-51904391D01*
X135353195Y-51680010D01*
X135169990Y-51496805D01*
X134945609Y-51367259D01*
X134695346Y-51300201D01*
X134436254Y-51300201D01*
X134185991Y-51367259D01*
X133961610Y-51496805D01*
X133869827Y-51588588D01*
X133787395Y-51445810D01*
X133604190Y-51262605D01*
X133379809Y-51133059D01*
X133129546Y-51066001D01*
X132870454Y-51066001D01*
X132620191Y-51133059D01*
X132395810Y-51262605D01*
X132212605Y-51445810D01*
X132083059Y-51670191D01*
X132016001Y-51920454D01*
X122043982Y-51920454D01*
X122064109Y-51915061D01*
X122288490Y-51785515D01*
X122471695Y-51602310D01*
X122601241Y-51377929D01*
X122668299Y-51127666D01*
X122668299Y-50868574D01*
X122601241Y-50618311D01*
X122475318Y-50400205D01*
X122557541Y-50257789D01*
X122624599Y-50007526D01*
X122624599Y-49820454D01*
X132016001Y-49820454D01*
X132016001Y-50079546D01*
X132083059Y-50329809D01*
X132212605Y-50554190D01*
X132395810Y-50737395D01*
X132620191Y-50866941D01*
X132870454Y-50933999D01*
X133129546Y-50933999D01*
X133379809Y-50866941D01*
X133604190Y-50737395D01*
X133787395Y-50554190D01*
X133869827Y-50411412D01*
X133995810Y-50537395D01*
X134220191Y-50666941D01*
X134470454Y-50733999D01*
X134729546Y-50733999D01*
X134979809Y-50666941D01*
X135204190Y-50537395D01*
X135387395Y-50354190D01*
X135516941Y-50129809D01*
X135583999Y-49879546D01*
X135583999Y-49620454D01*
X135516941Y-49370191D01*
X135387395Y-49145810D01*
X135204190Y-48962605D01*
X134979809Y-48833059D01*
X134729546Y-48766001D01*
X134470454Y-48766001D01*
X134220191Y-48833059D01*
X133995810Y-48962605D01*
X133812605Y-49145810D01*
X133730173Y-49288588D01*
X133604190Y-49162605D01*
X133379809Y-49033059D01*
X133129546Y-48966001D01*
X132870454Y-48966001D01*
X132620191Y-49033059D01*
X132395810Y-49162605D01*
X132212605Y-49345810D01*
X132083059Y-49570191D01*
X132016001Y-49820454D01*
X122624599Y-49820454D01*
X122624599Y-49748434D01*
X122557541Y-49498171D01*
X122427995Y-49273790D01*
X122244790Y-49090585D01*
X122020409Y-48961039D01*
X121933999Y-48937885D01*
X121933999Y-48920454D01*
X121866941Y-48670191D01*
X121737395Y-48445810D01*
X121554190Y-48262605D01*
X121329809Y-48133059D01*
X121079546Y-48066001D01*
X120820454Y-48066001D01*
X120570191Y-48133059D01*
X120345810Y-48262605D01*
X120162605Y-48445810D01*
X120033059Y-48670191D01*
X119966001Y-48920454D01*
X100098430Y-48920454D01*
X100160080Y-48730715D01*
X100242542Y-48342761D01*
X100284000Y-47948311D01*
X100284000Y-47551689D01*
X100268717Y-47406275D01*
X107832141Y-47406275D01*
X107832141Y-47665367D01*
X107899199Y-47915630D01*
X108028745Y-48140011D01*
X108211950Y-48323216D01*
X108436331Y-48452762D01*
X108686594Y-48519820D01*
X108945686Y-48519820D01*
X109195949Y-48452762D01*
X109420330Y-48323216D01*
X109603535Y-48140011D01*
X109733081Y-47915630D01*
X109800139Y-47665367D01*
X109800139Y-47406275D01*
X109869221Y-47406275D01*
X109869221Y-47665367D01*
X109936279Y-47915630D01*
X110065825Y-48140011D01*
X110249030Y-48323216D01*
X110473411Y-48452762D01*
X110723674Y-48519820D01*
X110982766Y-48519820D01*
X111233029Y-48452762D01*
X111457410Y-48323216D01*
X111640615Y-48140011D01*
X111770161Y-47915630D01*
X111837219Y-47665367D01*
X111837219Y-47406275D01*
X111770161Y-47156012D01*
X111640615Y-46931631D01*
X111457410Y-46748426D01*
X111233029Y-46618880D01*
X110982766Y-46551822D01*
X110723674Y-46551822D01*
X110473411Y-46618880D01*
X110249030Y-46748426D01*
X110065825Y-46931631D01*
X109936279Y-47156012D01*
X109869221Y-47406275D01*
X109800139Y-47406275D01*
X109733081Y-47156012D01*
X109603535Y-46931631D01*
X109420330Y-46748426D01*
X109195949Y-46618880D01*
X108945686Y-46551822D01*
X108686594Y-46551822D01*
X108436331Y-46618880D01*
X108211950Y-46748426D01*
X108028745Y-46931631D01*
X107899199Y-47156012D01*
X107832141Y-47406275D01*
X100268717Y-47406275D01*
X100242542Y-47157239D01*
X100160080Y-46769285D01*
X100037517Y-46392075D01*
X99876196Y-46029743D01*
X99820546Y-45933354D01*
X122688601Y-45933354D01*
X122688601Y-46192446D01*
X122755659Y-46442709D01*
X122885205Y-46667090D01*
X123068410Y-46850295D01*
X123292791Y-46979841D01*
X123543054Y-47046899D01*
X123802146Y-47046899D01*
X124052409Y-46979841D01*
X124276790Y-46850295D01*
X124459995Y-46667090D01*
X124589541Y-46442709D01*
X124656599Y-46192446D01*
X124656599Y-45933354D01*
X124613042Y-45770794D01*
X133618221Y-45770794D01*
X133618221Y-46029886D01*
X133685279Y-46280149D01*
X133814825Y-46504530D01*
X133991925Y-46681630D01*
X133883059Y-46870191D01*
X133816001Y-47120454D01*
X133816001Y-47379546D01*
X133883059Y-47629809D01*
X134012605Y-47854190D01*
X134195810Y-48037395D01*
X134420191Y-48166941D01*
X134670454Y-48233999D01*
X134929546Y-48233999D01*
X135179809Y-48166941D01*
X135404190Y-48037395D01*
X135587395Y-47854190D01*
X135716941Y-47629809D01*
X135783999Y-47379546D01*
X135783999Y-47120454D01*
X135716941Y-46870191D01*
X135587395Y-46645810D01*
X135410295Y-46468710D01*
X135519161Y-46280149D01*
X135586219Y-46029886D01*
X135586219Y-45770794D01*
X135519161Y-45520531D01*
X135389615Y-45296150D01*
X135376585Y-45283120D01*
X135399775Y-45259930D01*
X135529321Y-45035549D01*
X135596379Y-44785286D01*
X135596379Y-44526194D01*
X135529321Y-44275931D01*
X135399775Y-44051550D01*
X135216570Y-43868345D01*
X134992189Y-43738799D01*
X134741926Y-43671741D01*
X134482834Y-43671741D01*
X134232571Y-43738799D01*
X134008190Y-43868345D01*
X133824985Y-44051550D01*
X133695439Y-44275931D01*
X133628381Y-44526194D01*
X133628381Y-44785286D01*
X133695439Y-45035549D01*
X133824985Y-45259930D01*
X133838015Y-45272960D01*
X133814825Y-45296150D01*
X133685279Y-45520531D01*
X133618221Y-45770794D01*
X124613042Y-45770794D01*
X124589541Y-45683091D01*
X124459995Y-45458710D01*
X124276790Y-45275505D01*
X124052409Y-45145959D01*
X123802146Y-45078901D01*
X123543054Y-45078901D01*
X123292791Y-45145959D01*
X123068410Y-45275505D01*
X122885205Y-45458710D01*
X122755659Y-45683091D01*
X122688601Y-45933354D01*
X99820546Y-45933354D01*
X99677884Y-45686257D01*
X99444756Y-45365384D01*
X99265129Y-45165890D01*
X96681019Y-47750000D01*
X96318981Y-47750000D01*
X93734871Y-45165890D01*
X93555244Y-45365384D01*
X93322116Y-45686257D01*
X93123804Y-46029743D01*
X92962483Y-46392075D01*
X92839920Y-46769285D01*
X92757458Y-47157239D01*
X92716000Y-47551689D01*
X88098273Y-47551689D01*
X88146969Y-47538641D01*
X88371350Y-47409095D01*
X88554555Y-47225890D01*
X88684101Y-47001509D01*
X88751159Y-46751246D01*
X88751159Y-46492154D01*
X88684101Y-46241891D01*
X88554555Y-46017510D01*
X88371350Y-45834305D01*
X88146969Y-45704759D01*
X87896706Y-45637701D01*
X87637614Y-45637701D01*
X87387351Y-45704759D01*
X87162970Y-45834305D01*
X86979765Y-46017510D01*
X86850219Y-46241891D01*
X86783161Y-46492154D01*
X82817410Y-46492154D01*
X82817410Y-44960534D01*
X85231221Y-44960534D01*
X85231221Y-45219626D01*
X85298279Y-45469889D01*
X85427825Y-45694270D01*
X85611030Y-45877475D01*
X85835411Y-46007021D01*
X86085674Y-46074079D01*
X86344766Y-46074079D01*
X86595029Y-46007021D01*
X86819410Y-45877475D01*
X87002615Y-45694270D01*
X87132161Y-45469889D01*
X87199219Y-45219626D01*
X87199219Y-44984871D01*
X93915890Y-44984871D01*
X96500000Y-47568981D01*
X99084110Y-44984871D01*
X98884616Y-44805244D01*
X98563743Y-44572116D01*
X98220257Y-44373804D01*
X97857925Y-44212483D01*
X97480715Y-44089920D01*
X97092761Y-44007458D01*
X96698311Y-43966000D01*
X96301689Y-43966000D01*
X95907239Y-44007458D01*
X95519285Y-44089920D01*
X95142075Y-44212483D01*
X94779743Y-44373804D01*
X94436257Y-44572116D01*
X94115384Y-44805244D01*
X93915890Y-44984871D01*
X87199219Y-44984871D01*
X87199219Y-44960534D01*
X87132161Y-44710271D01*
X87002615Y-44485890D01*
X86819410Y-44302685D01*
X86595029Y-44173139D01*
X86344766Y-44106081D01*
X86085674Y-44106081D01*
X85835411Y-44173139D01*
X85611030Y-44302685D01*
X85427825Y-44485890D01*
X85298279Y-44710271D01*
X85231221Y-44960534D01*
X82817410Y-44960534D01*
X82817410Y-43520454D01*
X116666001Y-43520454D01*
X116666001Y-43779546D01*
X116733059Y-44029809D01*
X116862605Y-44254190D01*
X117045810Y-44437395D01*
X117270191Y-44566941D01*
X117520454Y-44633999D01*
X117779546Y-44633999D01*
X118029809Y-44566941D01*
X118254190Y-44437395D01*
X118437395Y-44254190D01*
X118566941Y-44029809D01*
X118633999Y-43779546D01*
X118633999Y-43520454D01*
X118566941Y-43270191D01*
X118437395Y-43045810D01*
X118254190Y-42862605D01*
X118029809Y-42733059D01*
X117779546Y-42666001D01*
X117520454Y-42666001D01*
X117270191Y-42733059D01*
X117045810Y-42862605D01*
X116862605Y-43045810D01*
X116733059Y-43270191D01*
X116666001Y-43520454D01*
X82817410Y-43520454D01*
X82817410Y-41733805D01*
X82990215Y-41561000D01*
X83435402Y-41561000D01*
X83435408Y-41560999D01*
X83495529Y-41560999D01*
X83553193Y-41542263D01*
X83613093Y-41532776D01*
X83667126Y-41505245D01*
X83724793Y-41486508D01*
X83773847Y-41450867D01*
X83827880Y-41423336D01*
X83998683Y-41252533D01*
X83998684Y-41252531D01*
X84139033Y-41112183D01*
X84220454Y-41133999D01*
X84479546Y-41133999D01*
X84729809Y-41066941D01*
X84954190Y-40937395D01*
X85137395Y-40754190D01*
X85266941Y-40529809D01*
X85333999Y-40279546D01*
X85333999Y-40020454D01*
X85266941Y-39770191D01*
X85144648Y-39558373D01*
X85354190Y-39437395D01*
X85428015Y-39363570D01*
X86275929Y-39363570D01*
X86275929Y-39622662D01*
X86342987Y-39872925D01*
X86472533Y-40097306D01*
X86655738Y-40280511D01*
X86880119Y-40410057D01*
X87130382Y-40477115D01*
X87389474Y-40477115D01*
X87639737Y-40410057D01*
X87864118Y-40280511D01*
X88047323Y-40097306D01*
X88166001Y-39891749D01*
X88166001Y-40029546D01*
X88233059Y-40279809D01*
X88362605Y-40504190D01*
X88545810Y-40687395D01*
X88770191Y-40816941D01*
X89020454Y-40883999D01*
X89279546Y-40883999D01*
X89529809Y-40816941D01*
X89618701Y-40765619D01*
X99600777Y-40765619D01*
X99615729Y-41003276D01*
X99672529Y-41234530D01*
X99769384Y-41452069D01*
X99903232Y-41649019D01*
X100069840Y-41819155D01*
X100263945Y-41957097D01*
X100479408Y-42058487D01*
X100709421Y-42120118D01*
X100946713Y-42140044D01*
X101183783Y-42117635D01*
X101413138Y-42053597D01*
X101627528Y-41949957D01*
X101736460Y-41870813D01*
X101837565Y-41991305D01*
X102031194Y-42103096D01*
X102240356Y-42139977D01*
X103667968Y-42139977D01*
X103968892Y-42059345D01*
X104144545Y-41911955D01*
X104256336Y-41718326D01*
X104293217Y-41509164D01*
X104293217Y-40765619D01*
X107474777Y-40765619D01*
X107489729Y-41003276D01*
X107546529Y-41234530D01*
X107643384Y-41452069D01*
X107777232Y-41649019D01*
X107943840Y-41819155D01*
X108137945Y-41957097D01*
X108353408Y-42058487D01*
X108583421Y-42120118D01*
X108820713Y-42140044D01*
X109057783Y-42117635D01*
X109287138Y-42053597D01*
X109501528Y-41949957D01*
X109610460Y-41870813D01*
X109711565Y-41991305D01*
X109905194Y-42103096D01*
X110114356Y-42139977D01*
X111541968Y-42139977D01*
X111842892Y-42059345D01*
X111914934Y-41998894D01*
X113397281Y-41998894D01*
X113397281Y-42257986D01*
X113464339Y-42508249D01*
X113593885Y-42732630D01*
X113777090Y-42915835D01*
X114001471Y-43045381D01*
X114251734Y-43112439D01*
X114510826Y-43112439D01*
X114761089Y-43045381D01*
X114981279Y-42918255D01*
X115194125Y-43041141D01*
X115444388Y-43108199D01*
X115703480Y-43108199D01*
X115953743Y-43041141D01*
X116178124Y-42911595D01*
X116361329Y-42728390D01*
X116490875Y-42504009D01*
X116557933Y-42253746D01*
X116557933Y-41994654D01*
X133741801Y-41994654D01*
X133741801Y-42253746D01*
X133808859Y-42504009D01*
X133938405Y-42728390D01*
X134121610Y-42911595D01*
X134345991Y-43041141D01*
X134596254Y-43108199D01*
X134855346Y-43108199D01*
X135105609Y-43041141D01*
X135329990Y-42911595D01*
X135513195Y-42728390D01*
X135642741Y-42504009D01*
X135709799Y-42253746D01*
X135709799Y-41994654D01*
X135642741Y-41744391D01*
X135513195Y-41520010D01*
X135329990Y-41336805D01*
X135105609Y-41207259D01*
X134855346Y-41140201D01*
X134596254Y-41140201D01*
X134345991Y-41207259D01*
X134121610Y-41336805D01*
X133938405Y-41520010D01*
X133808859Y-41744391D01*
X133741801Y-41994654D01*
X116557933Y-41994654D01*
X116490875Y-41744391D01*
X116361329Y-41520010D01*
X116178124Y-41336805D01*
X115953743Y-41207259D01*
X115703480Y-41140201D01*
X115444388Y-41140201D01*
X115194125Y-41207259D01*
X114973935Y-41334385D01*
X114761089Y-41211499D01*
X114510826Y-41144441D01*
X114251734Y-41144441D01*
X114001471Y-41211499D01*
X113777090Y-41341045D01*
X113593885Y-41524250D01*
X113464339Y-41748631D01*
X113397281Y-41998894D01*
X111914934Y-41998894D01*
X112018545Y-41911955D01*
X112130336Y-41718326D01*
X112167217Y-41509164D01*
X112167217Y-40081552D01*
X112086585Y-39780629D01*
X111939195Y-39604975D01*
X111745566Y-39493184D01*
X111536404Y-39456303D01*
X110108792Y-39456303D01*
X109807869Y-39536935D01*
X109632215Y-39684325D01*
X109607613Y-39726938D01*
X109560734Y-39688976D01*
X109352062Y-39574257D01*
X109126373Y-39498304D01*
X108890800Y-39463518D01*
X108652790Y-39470997D01*
X108419868Y-39520507D01*
X108199393Y-39610481D01*
X107998335Y-39738076D01*
X107823051Y-39899258D01*
X107679079Y-40088934D01*
X107570972Y-40301107D01*
X107502145Y-40529070D01*
X107474777Y-40765619D01*
X104293217Y-40765619D01*
X104293217Y-40081552D01*
X104212585Y-39780629D01*
X104065195Y-39604975D01*
X103871566Y-39493184D01*
X103662404Y-39456303D01*
X102234792Y-39456303D01*
X101933869Y-39536935D01*
X101758215Y-39684325D01*
X101733613Y-39726938D01*
X101686734Y-39688976D01*
X101478062Y-39574257D01*
X101252373Y-39498304D01*
X101016800Y-39463518D01*
X100778790Y-39470997D01*
X100545868Y-39520507D01*
X100325393Y-39610481D01*
X100124335Y-39738076D01*
X99949051Y-39899258D01*
X99805079Y-40088934D01*
X99696972Y-40301107D01*
X99628145Y-40529070D01*
X99600777Y-40765619D01*
X89618701Y-40765619D01*
X89754190Y-40687395D01*
X89937395Y-40504190D01*
X89970774Y-40446376D01*
X89992736Y-40465568D01*
X90196142Y-40584191D01*
X90418311Y-40662211D01*
X90651224Y-40696813D01*
X90886478Y-40686747D01*
X91115584Y-40632377D01*
X91330276Y-40535666D01*
X91522807Y-40400102D01*
X91686229Y-40230576D01*
X91814648Y-40033208D01*
X91903428Y-39815115D01*
X91949398Y-39584008D01*
X91950241Y-39342406D01*
X91905886Y-39110982D01*
X91818630Y-38892276D01*
X91691593Y-38694015D01*
X91529358Y-38523354D01*
X91337778Y-38386449D01*
X91123766Y-38288240D01*
X90895045Y-38232273D01*
X90659867Y-38220565D01*
X90426718Y-38253539D01*
X90204011Y-38330007D01*
X89999781Y-38447207D01*
X89920428Y-38515582D01*
X89865201Y-38309471D01*
X89735655Y-38085090D01*
X89552450Y-37901885D01*
X89328069Y-37772339D01*
X89077806Y-37705281D01*
X88818714Y-37705281D01*
X88568451Y-37772339D01*
X88344070Y-37901885D01*
X88160865Y-38085090D01*
X88031319Y-38309471D01*
X87964261Y-38559734D01*
X87964261Y-38805864D01*
X87864118Y-38705721D01*
X87639737Y-38576175D01*
X87389474Y-38509117D01*
X87130382Y-38509117D01*
X86880119Y-38576175D01*
X86655738Y-38705721D01*
X86472533Y-38888926D01*
X86342987Y-39113307D01*
X86275929Y-39363570D01*
X85428015Y-39363570D01*
X85537395Y-39254190D01*
X85666941Y-39029809D01*
X85733999Y-38779546D01*
X85733999Y-38520454D01*
X85666941Y-38270191D01*
X85537395Y-38045810D01*
X85354190Y-37862605D01*
X85129809Y-37733059D01*
X84879546Y-37666001D01*
X84842217Y-37666001D01*
X84598685Y-37422470D01*
X84598684Y-37422468D01*
X84427881Y-37251665D01*
X84373848Y-37224134D01*
X84324794Y-37188493D01*
X84267127Y-37169756D01*
X84213094Y-37142225D01*
X84153194Y-37132738D01*
X84095530Y-37114002D01*
X84035409Y-37114002D01*
X84035403Y-37114001D01*
X81044623Y-37114001D01*
X81044617Y-37114002D01*
X80984494Y-37114002D01*
X80926831Y-37132738D01*
X80866932Y-37142225D01*
X80812898Y-37169756D01*
X80755231Y-37188494D01*
X80706174Y-37224136D01*
X80652145Y-37251665D01*
X80602254Y-37301557D01*
X80208010Y-37695802D01*
X80051666Y-37852145D01*
X80024138Y-37906170D01*
X79988491Y-37955234D01*
X79969752Y-38012909D01*
X79942225Y-38066932D01*
X79932739Y-38126827D01*
X79914001Y-38184497D01*
X79914001Y-38255052D01*
X79914000Y-41110401D01*
X79914001Y-41110407D01*
X79914001Y-41170529D01*
X79932736Y-41228191D01*
X79942224Y-41288092D01*
X79969752Y-41342120D01*
X79988492Y-41399794D01*
X80024138Y-41448855D01*
X80051664Y-41502879D01*
X80222467Y-41673683D01*
X80222469Y-41673684D01*
X80439001Y-41890217D01*
X80439000Y-47284784D01*
X79783009Y-47940776D01*
X79626666Y-48097119D01*
X79599138Y-48151144D01*
X79563491Y-48200208D01*
X79544752Y-48257883D01*
X79517225Y-48311906D01*
X79507739Y-48371801D01*
X79489001Y-48429471D01*
X79489001Y-48500026D01*
X79489000Y-68034785D01*
X76557785Y-70966001D01*
X76520454Y-70966001D01*
X76270191Y-71033059D01*
X76045810Y-71162605D01*
X75862605Y-71345810D01*
X75733059Y-71570191D01*
X75666001Y-71820454D01*
X75666001Y-72079546D01*
X75733059Y-72329809D01*
X75862605Y-72554190D01*
X76045810Y-72737395D01*
X76270191Y-72866941D01*
X76520454Y-72933999D01*
X76779546Y-72933999D01*
X77029809Y-72866941D01*
X77254190Y-72737395D01*
X77437395Y-72554190D01*
X77566941Y-72329809D01*
X77633999Y-72079546D01*
X77633999Y-72042215D01*
X79907590Y-69768625D01*
X79907590Y-70616195D01*
X70857785Y-79666001D01*
X70820454Y-79666001D01*
X70570191Y-79733059D01*
X70345810Y-79862605D01*
X70162605Y-80045810D01*
X70033059Y-80270191D01*
X69966001Y-80520454D01*
X63750141Y-80520454D01*
X63784000Y-80198311D01*
X63784000Y-79801689D01*
X63742542Y-79407239D01*
X63660080Y-79019285D01*
X63537517Y-78642075D01*
X63376196Y-78279743D01*
X63177884Y-77936257D01*
X62944756Y-77615384D01*
X62765129Y-77415890D01*
X60181019Y-80000000D01*
X59818981Y-80000000D01*
X57234871Y-77415890D01*
X57055244Y-77615384D01*
X56822116Y-77936257D01*
X56623804Y-78279743D01*
X56462483Y-78642075D01*
X56339920Y-79019285D01*
X56257458Y-79407239D01*
X56216000Y-79801689D01*
X55634000Y-79801689D01*
X55634000Y-77234871D01*
M02*
