G04 #@! TF.GenerationSoftware,KiCad,Pcbnew,6.0.0-unknown-3514473~86~ubuntu18.04.1*
G04 #@! TF.CreationDate,2019-07-31T16:13:07+03:00*
G04 #@! TF.ProjectId,ESP32-ADF_Rev_C,45535033-322d-4414-9446-5f5265765f43,rev?*
G04 #@! TF.SameCoordinates,Original*
G04 #@! TF.FileFunction,Paste,Top*
G04 #@! TF.FilePolarity,Positive*
%FSLAX46Y46*%
G04 Gerber Fmt 4.6, Leading zero omitted, Abs format (unit mm)*
G04 Created by KiCad (PCBNEW 6.0.0-unknown-3514473~86~ubuntu18.04.1) date 2019-07-31 16:13:07*
%MOMM*%
%LPD*%
G04 APERTURE LIST*
%ADD10R,0.800000X0.900000*%
%ADD11R,3.100000X1.500000*%
%ADD12R,0.800000X1.500000*%
%ADD13R,0.550000X0.500000*%
%ADD14R,0.500000X0.550000*%
%ADD15R,0.900000X0.800000*%
%ADD16R,1.270000X1.050000*%
%ADD17R,1.050000X1.270000*%
%ADD18R,0.700000X0.900000*%
%ADD19R,0.900000X0.700000*%
%ADD20R,1.200000X1.400000*%
%ADD21R,1.050000X1.050000*%
%ADD22R,0.670000X1.450000*%
%ADD23R,1.016000X1.016000*%
%ADD24C,1.700000*%
%ADD25C,0.100000*%
%ADD26R,1.200000X1.800000*%
%ADD27R,2.101600X1.001600*%
%ADD28R,1.778000X1.270000*%
%ADD29R,1.270000X1.778000*%
%ADD30R,1.270000X1.524000*%
%ADD31R,0.550000X1.200000*%
%ADD32R,2.898400X1.898400*%
%ADD33R,1.898400X2.898400*%
%ADD34R,0.800000X0.800000*%
%ADD35R,1.778000X2.286000*%
%ADD36R,2.000000X1.700000*%
%ADD37R,1.700000X2.000000*%
%ADD38R,3.000000X1.600000*%
%ADD39R,0.325000X1.270000*%
%ADD40R,1.020000X0.660000*%
%ADD41R,0.660000X1.020000*%
%ADD42R,0.910000X0.210000*%
%ADD43R,0.210000X0.910000*%
%ADD44R,1.650000X0.500000*%
%ADD45R,1.650000X0.325000*%
%ADD46R,1.000000X1.100000*%
%ADD47R,1.016000X0.508000*%
%ADD48R,1.016000X0.762000*%
G04 APERTURE END LIST*
D10*
X92250260Y-50894080D03*
X92250260Y-52494080D03*
D11*
X74650000Y-73500000D03*
X68590000Y-73500000D03*
D12*
X67650000Y-82750000D03*
X68750000Y-82750000D03*
X69850000Y-82750000D03*
X70950000Y-82750000D03*
X72050000Y-82750000D03*
X73150000Y-82750000D03*
X74250000Y-82750000D03*
X75350000Y-82750000D03*
D13*
X76650000Y-71208000D03*
X76650000Y-70192000D03*
D14*
X64808000Y-83500000D03*
X63792000Y-83500000D03*
D13*
X77850000Y-71208000D03*
X77850000Y-70192000D03*
D10*
X80650000Y-63400000D03*
X80650000Y-61800000D03*
X75400000Y-38200000D03*
X75400000Y-36600000D03*
X80233520Y-46654620D03*
X80233520Y-45054620D03*
X78709520Y-46667320D03*
X78709520Y-45067320D03*
X83100000Y-52000000D03*
X83100000Y-50400000D03*
D15*
X85100000Y-55000000D03*
X86700000Y-55000000D03*
X83600000Y-60006500D03*
X85200000Y-60006500D03*
X83600000Y-58306500D03*
X85200000Y-58306500D03*
X97995640Y-58150760D03*
X96395640Y-58150760D03*
X83591500Y-56562500D03*
X85191500Y-56562500D03*
D10*
X111993680Y-61468100D03*
X111993680Y-63068100D03*
D15*
X68450000Y-69150000D03*
X66850000Y-69150000D03*
X78500000Y-64450000D03*
X76900000Y-64450000D03*
D10*
X80450000Y-65350000D03*
X80450000Y-66950000D03*
D15*
X72250000Y-69900000D03*
X70650000Y-69900000D03*
D10*
X65976500Y-60350500D03*
X65976500Y-61950500D03*
X116200000Y-63461000D03*
X116200000Y-61861000D03*
D15*
X70800000Y-71400000D03*
X69200000Y-71400000D03*
X114730000Y-56496000D03*
X113130000Y-56496000D03*
X115211760Y-49110900D03*
X113611760Y-49110900D03*
X111353500Y-58547000D03*
X109753500Y-58547000D03*
D16*
X116583460Y-40083740D03*
X116583460Y-42115740D03*
D17*
X59884000Y-53600000D03*
X61916000Y-53600000D03*
D16*
X62000000Y-43784000D03*
X62000000Y-45816000D03*
X75300000Y-55016000D03*
X75300000Y-52984000D03*
X77700000Y-55016000D03*
X77700000Y-52984000D03*
X88623140Y-50807620D03*
X88623140Y-52839620D03*
X90563700Y-50825400D03*
X90563700Y-52857400D03*
X88700000Y-63584000D03*
X88700000Y-65616000D03*
X86300000Y-63584000D03*
X86300000Y-65616000D03*
D17*
X96277000Y-55353000D03*
X98309000Y-55353000D03*
X96277000Y-53250000D03*
X98309000Y-53250000D03*
D18*
X96677520Y-64204340D03*
X94777520Y-64204340D03*
X95727520Y-66204340D03*
D19*
X61900000Y-51650000D03*
X61900000Y-49750000D03*
X59900000Y-50700000D03*
X66600000Y-58650000D03*
X66600000Y-56750000D03*
X64600000Y-57700000D03*
D18*
X93421240Y-64204340D03*
X91521240Y-64204340D03*
X92471240Y-66204340D03*
D19*
X76500000Y-60850000D03*
X76500000Y-62750000D03*
X78500000Y-61800000D03*
X76507440Y-57499960D03*
X76507440Y-59399960D03*
X78507440Y-58449960D03*
D14*
X113835180Y-50586640D03*
X114851180Y-50586640D03*
X111996220Y-50599340D03*
X113012220Y-50599340D03*
D20*
X78500000Y-66300000D03*
X76900000Y-68500000D03*
X78500000Y-68500000D03*
X76900000Y-66300000D03*
D21*
X89451180Y-49347720D03*
X89451180Y-46247720D03*
D22*
X101325680Y-50001400D03*
X102595680Y-50001400D03*
X103865680Y-50001400D03*
X105135680Y-50001400D03*
X106405680Y-50001400D03*
X107675680Y-50001400D03*
X108945680Y-50001400D03*
X110215680Y-50001400D03*
X110215680Y-54951400D03*
X108945680Y-54951400D03*
X107675680Y-54951400D03*
X106405680Y-54951400D03*
X105135680Y-54951400D03*
X103865680Y-54951400D03*
X102595680Y-54951400D03*
X101325680Y-54951400D03*
D23*
X81600000Y-50322000D03*
X81600000Y-52100000D03*
X79900000Y-54989000D03*
X79900000Y-53211000D03*
D24*
X91986100Y-36283900D03*
D25*
G36*
X91136100Y-38188900D02*
G01*
X91136100Y-34378900D01*
X92836100Y-34378900D01*
X92836100Y-38188900D01*
X91136100Y-38188900D01*
X91136100Y-38188900D01*
G37*
D24*
X89446100Y-36283900D03*
D25*
G36*
X88596100Y-38188900D02*
G01*
X88596100Y-34378900D01*
X90296100Y-34378900D01*
X90296100Y-38188900D01*
X88596100Y-38188900D01*
X88596100Y-38188900D01*
G37*
D24*
X86906100Y-36283900D03*
D25*
G36*
X86056100Y-38188900D02*
G01*
X86056100Y-34378900D01*
X87756100Y-34378900D01*
X87756100Y-38188900D01*
X86056100Y-38188900D01*
X86056100Y-38188900D01*
G37*
D24*
X84366100Y-36283900D03*
D25*
G36*
X83516100Y-38188900D02*
G01*
X83516100Y-34378900D01*
X85216100Y-34378900D01*
X85216100Y-38188900D01*
X83516100Y-38188900D01*
X83516100Y-38188900D01*
G37*
D24*
X81826100Y-36283900D03*
D25*
G36*
X80976100Y-38188900D02*
G01*
X80976100Y-34378900D01*
X82676100Y-34378900D01*
X82676100Y-38188900D01*
X80976100Y-38188900D01*
X80976100Y-38188900D01*
G37*
D24*
X81826100Y-42633900D03*
D25*
G36*
X80976100Y-44538900D02*
G01*
X80976100Y-40728900D01*
X82676100Y-40728900D01*
X82676100Y-44538900D01*
X80976100Y-44538900D01*
X80976100Y-44538900D01*
G37*
D24*
X84366100Y-42633900D03*
D25*
G36*
X83516100Y-44538900D02*
G01*
X83516100Y-40728900D01*
X85216100Y-40728900D01*
X85216100Y-44538900D01*
X83516100Y-44538900D01*
X83516100Y-44538900D01*
G37*
D24*
X86906100Y-42633900D03*
D25*
G36*
X86056100Y-44538900D02*
G01*
X86056100Y-40728900D01*
X87756100Y-40728900D01*
X87756100Y-44538900D01*
X86056100Y-44538900D01*
X86056100Y-44538900D01*
G37*
D24*
X89446100Y-42633900D03*
D25*
G36*
X88596100Y-44538900D02*
G01*
X88596100Y-40728900D01*
X90296100Y-40728900D01*
X90296100Y-44538900D01*
X88596100Y-44538900D01*
X88596100Y-44538900D01*
G37*
D24*
X91986100Y-42633900D03*
D25*
G36*
X91136100Y-44538900D02*
G01*
X91136100Y-40728900D01*
X92836100Y-40728900D01*
X92836100Y-44538900D01*
X91136100Y-44538900D01*
X91136100Y-44538900D01*
G37*
D13*
X112306100Y-43329860D03*
X112306100Y-42313860D03*
X107091480Y-44378880D03*
X107091480Y-45394880D03*
D14*
X112672000Y-53530500D03*
X113688000Y-53530500D03*
D13*
X105610660Y-45405040D03*
X105610660Y-44389040D03*
X99966780Y-42291000D03*
X99966780Y-43307000D03*
X120500000Y-75258000D03*
X120500000Y-74242000D03*
X116000000Y-74008000D03*
X116000000Y-72992000D03*
D14*
X110236000Y-42926000D03*
X109220000Y-42926000D03*
X103124000Y-42799000D03*
X102108000Y-42799000D03*
X112167000Y-69575000D03*
X113183000Y-69575000D03*
X90754200Y-61958220D03*
X89738200Y-61958220D03*
X92659460Y-61954380D03*
X91643460Y-61954380D03*
D13*
X56200000Y-43727000D03*
X56200000Y-44743000D03*
X95300000Y-60008000D03*
X95300000Y-58992000D03*
D14*
X96680020Y-62669420D03*
X95664020Y-62669420D03*
D13*
X57800000Y-43592000D03*
X57800000Y-44608000D03*
X121500000Y-83758000D03*
X121500000Y-82742000D03*
X57900000Y-50792000D03*
X57900000Y-51808000D03*
X86800000Y-57808000D03*
X86800000Y-56792000D03*
D14*
X62008000Y-48000000D03*
X60992000Y-48000000D03*
X87044220Y-45954000D03*
X86028220Y-45954000D03*
X87040720Y-47037500D03*
X86024720Y-47037500D03*
X87040720Y-49196500D03*
X86024720Y-49196500D03*
X87044220Y-48117000D03*
X86028220Y-48117000D03*
X125547120Y-68099940D03*
X124531120Y-68099940D03*
X104592000Y-56450000D03*
X105608000Y-56450000D03*
X113692000Y-63150000D03*
X114708000Y-63150000D03*
D13*
X66850000Y-70392000D03*
X66850000Y-71408000D03*
D14*
X114708000Y-61850000D03*
X113692000Y-61850000D03*
D13*
X67950000Y-71408000D03*
X67950000Y-70392000D03*
D14*
X75758000Y-49250000D03*
X74742000Y-49250000D03*
X113676000Y-54845000D03*
X112660000Y-54845000D03*
X112438180Y-49088040D03*
X111422180Y-49088040D03*
D13*
X120250000Y-83758000D03*
X120250000Y-82742000D03*
D14*
X113179500Y-66413500D03*
X112163500Y-66413500D03*
X65283080Y-65714880D03*
X66299080Y-65714880D03*
X113179500Y-65413500D03*
X112163500Y-65413500D03*
X113179500Y-68513500D03*
X112163500Y-68513500D03*
X113179500Y-67413500D03*
X112163500Y-67413500D03*
X65303400Y-64701420D03*
X66319400Y-64701420D03*
D13*
X78986380Y-60563760D03*
X78986380Y-59547760D03*
D14*
X74942700Y-57513220D03*
X73926700Y-57513220D03*
D13*
X92489020Y-67800220D03*
X92489020Y-68816220D03*
X114750000Y-74008000D03*
X114750000Y-72992000D03*
X121750000Y-75250000D03*
X121750000Y-74234000D03*
D26*
X127768680Y-49864200D03*
X127768680Y-46864200D03*
X125968680Y-49864200D03*
D27*
X136368680Y-62444200D03*
X136368680Y-61174200D03*
X136368680Y-59904200D03*
X136368680Y-58634200D03*
X136368680Y-63714200D03*
X119368680Y-63714200D03*
X119368680Y-58634200D03*
X119368680Y-59904200D03*
X119368680Y-61174200D03*
X119368680Y-62444200D03*
D26*
X125968680Y-46864200D03*
D27*
X119368680Y-40854200D03*
X119368680Y-42124200D03*
X119368680Y-43394200D03*
X119368680Y-44664200D03*
X119368680Y-45934200D03*
X119368680Y-47204200D03*
X119368680Y-48474200D03*
X119368680Y-49744200D03*
X119368680Y-51014200D03*
X119368680Y-52284200D03*
X119368680Y-53554200D03*
X119368680Y-54824200D03*
X119368680Y-56094200D03*
X119368680Y-57364200D03*
X136368680Y-57364200D03*
X136368680Y-56094200D03*
X136368680Y-54824200D03*
X136368680Y-53554200D03*
X136368680Y-52284200D03*
X136368680Y-51014200D03*
X136368680Y-49744200D03*
X136368680Y-48474200D03*
X136368680Y-47204200D03*
X136368680Y-45934200D03*
X136368680Y-44664200D03*
X136368680Y-43394200D03*
X136368680Y-42124200D03*
X136368680Y-40854200D03*
D28*
X116963000Y-71199000D03*
X124837000Y-71199000D03*
D29*
X124405025Y-82876340D03*
X124405025Y-75002340D03*
X117500000Y-82891000D03*
X117500000Y-75017000D03*
D30*
X110833000Y-44377000D03*
X110833000Y-46409000D03*
X108801000Y-44377000D03*
X108801000Y-46409000D03*
X103959000Y-44377000D03*
X103959000Y-46409000D03*
X101927000Y-44377000D03*
X101927000Y-46409000D03*
X75400000Y-42400000D03*
X75400000Y-40368000D03*
D31*
X86850000Y-50900000D03*
X85900000Y-50900000D03*
X84950000Y-50900000D03*
X86850000Y-53500000D03*
X84950000Y-53500000D03*
X79650000Y-48700000D03*
X78700000Y-48700000D03*
X77750000Y-48700000D03*
X79650000Y-51300000D03*
X77750000Y-51300000D03*
X57850000Y-48400000D03*
X58800000Y-48400000D03*
X59750000Y-48400000D03*
X57850000Y-45800000D03*
X59750000Y-45800000D03*
D32*
X87200000Y-80600000D03*
D33*
X82900000Y-67100000D03*
D32*
X80500000Y-78800000D03*
X87200000Y-71100000D03*
X87200000Y-83500000D03*
D34*
X56200000Y-51862000D03*
X56200000Y-50338000D03*
X92527120Y-70563740D03*
X94051120Y-70563740D03*
D35*
X69277000Y-54000000D03*
X64923000Y-54000000D03*
D36*
X64500000Y-50600000D03*
X69500000Y-50600000D03*
D37*
X72500000Y-54300000D03*
X72500000Y-49300000D03*
D38*
X75727560Y-45165160D03*
X75727560Y-47565160D03*
D34*
X56200000Y-47338000D03*
X56200000Y-48862000D03*
D39*
X67975000Y-67519500D03*
X68625000Y-67519500D03*
X69275000Y-67519500D03*
X69925000Y-67519500D03*
X70575000Y-67519500D03*
X71225000Y-67519500D03*
X71875000Y-67519500D03*
X72525000Y-67519500D03*
X73175000Y-67519500D03*
X73825000Y-67519500D03*
X73825000Y-60280500D03*
X73175000Y-60280500D03*
X72525000Y-60280500D03*
X71875000Y-60280500D03*
X71225000Y-60280500D03*
X70575000Y-60280500D03*
X69925000Y-60280500D03*
X69275000Y-60280500D03*
X68625000Y-60280500D03*
X67975000Y-60280500D03*
D40*
X91500000Y-56909400D03*
D41*
X92490600Y-57900000D03*
D42*
X93583820Y-59250000D03*
X93583820Y-58800000D03*
X93583820Y-58350000D03*
X93583820Y-57900000D03*
X93583820Y-57450000D03*
X93583820Y-57000000D03*
X93583820Y-56550000D03*
D43*
X92850000Y-55816180D03*
X92400000Y-55816180D03*
X91950000Y-55816180D03*
X91500000Y-55816180D03*
X91050000Y-55816180D03*
X90600000Y-55816180D03*
X90150000Y-55816180D03*
D42*
X89416180Y-56550000D03*
X89416180Y-57000000D03*
X89416180Y-57450000D03*
X89416180Y-57900000D03*
X89416180Y-58350000D03*
X89416180Y-58800000D03*
X89416180Y-59250000D03*
D43*
X90150000Y-59983820D03*
X90600000Y-59983820D03*
X91050000Y-59983820D03*
X91500000Y-59983820D03*
X91950000Y-59983820D03*
X92400000Y-59983820D03*
X92850000Y-59983820D03*
D41*
X90509400Y-57900000D03*
D40*
X91500000Y-58890600D03*
D44*
X61824000Y-58312500D03*
D45*
X61824000Y-59050000D03*
X61824000Y-59700000D03*
X61824000Y-60350000D03*
D44*
X61824000Y-61087500D03*
D46*
X57274000Y-58200000D03*
X57274000Y-61200000D03*
D47*
X106067860Y-58610500D03*
X106067860Y-59372500D03*
X104543860Y-58610500D03*
X104543860Y-59372500D03*
D48*
X106067860Y-57721500D03*
X104543860Y-57721500D03*
X106067860Y-60261500D03*
X104543860Y-60261500D03*
M02*
