G04 #@! TF.GenerationSoftware,KiCad,Pcbnew,6.0.0-unknown-3514473~86~ubuntu18.04.1*
G04 #@! TF.CreationDate,2019-07-31T16:13:07+03:00*
G04 #@! TF.ProjectId,ESP32-ADF_Rev_C,45535033-322d-4414-9446-5f5265765f43,rev?*
G04 #@! TF.SameCoordinates,Original*
G04 #@! TF.FileFunction,Legend,Bot*
G04 #@! TF.FilePolarity,Positive*
%FSLAX46Y46*%
G04 Gerber Fmt 4.6, Leading zero omitted, Abs format (unit mm)*
G04 Created by KiCad (PCBNEW 6.0.0-unknown-3514473~86~ubuntu18.04.1) date 2019-07-31 16:13:07*
%MOMM*%
%LPD*%
G04 APERTURE LIST*
%ADD10C,0.150000*%
%ADD11C,0.500000*%
%ADD12C,0.350000*%
%ADD13C,0.254000*%
%ADD14C,0.200000*%
%ADD15C,1.000000*%
%ADD16C,0.370000*%
%ADD17C,0.380000*%
%ADD18C,0.400000*%
%ADD19C,0.420000*%
%ADD20C,0.100000*%
%ADD21C,0.700000*%
%ADD22C,0.180000*%
G04 APERTURE END LIST*
D10*
X90063095Y-66752380D02*
X90063095Y-65752380D01*
X89634523Y-66752380D02*
X89634523Y-66228571D01*
X89682142Y-66133333D01*
X89777380Y-66085714D01*
X89920238Y-66085714D01*
X90015476Y-66133333D01*
X90063095Y-66180952D01*
X89301190Y-66085714D02*
X88920238Y-66085714D01*
X89158333Y-65752380D02*
X89158333Y-66609523D01*
X89110714Y-66704761D01*
X89015476Y-66752380D01*
X88920238Y-66752380D01*
X88729761Y-66085714D02*
X88348809Y-66085714D01*
X88586904Y-65752380D02*
X88586904Y-66609523D01*
X88539285Y-66704761D01*
X88444047Y-66752380D01*
X88348809Y-66752380D01*
X88015476Y-66085714D02*
X88015476Y-67085714D01*
X88015476Y-66133333D02*
X87920238Y-66085714D01*
X87729761Y-66085714D01*
X87634523Y-66133333D01*
X87586904Y-66180952D01*
X87539285Y-66276190D01*
X87539285Y-66561904D01*
X87586904Y-66657142D01*
X87634523Y-66704761D01*
X87729761Y-66752380D01*
X87920238Y-66752380D01*
X88015476Y-66704761D01*
X87158333Y-66704761D02*
X87063095Y-66752380D01*
X86872619Y-66752380D01*
X86777380Y-66704761D01*
X86729761Y-66609523D01*
X86729761Y-66561904D01*
X86777380Y-66466666D01*
X86872619Y-66419047D01*
X87015476Y-66419047D01*
X87110714Y-66371428D01*
X87158333Y-66276190D01*
X87158333Y-66228571D01*
X87110714Y-66133333D01*
X87015476Y-66085714D01*
X86872619Y-66085714D01*
X86777380Y-66133333D01*
X86301190Y-66657142D02*
X86253571Y-66704761D01*
X86301190Y-66752380D01*
X86348809Y-66704761D01*
X86301190Y-66657142D01*
X86301190Y-66752380D01*
X86301190Y-66133333D02*
X86253571Y-66180952D01*
X86301190Y-66228571D01*
X86348809Y-66180952D01*
X86301190Y-66133333D01*
X86301190Y-66228571D01*
X85110714Y-65704761D02*
X85967857Y-66990476D01*
X84063095Y-65704761D02*
X84920238Y-66990476D01*
X83586904Y-66752380D02*
X83682142Y-66704761D01*
X83729761Y-66657142D01*
X83777380Y-66561904D01*
X83777380Y-66276190D01*
X83729761Y-66180952D01*
X83682142Y-66133333D01*
X83586904Y-66085714D01*
X83444047Y-66085714D01*
X83348809Y-66133333D01*
X83301190Y-66180952D01*
X83253571Y-66276190D01*
X83253571Y-66561904D01*
X83301190Y-66657142D01*
X83348809Y-66704761D01*
X83444047Y-66752380D01*
X83586904Y-66752380D01*
X82682142Y-66752380D02*
X82777380Y-66704761D01*
X82825000Y-66609523D01*
X82825000Y-65752380D01*
X82301190Y-66752380D02*
X82301190Y-66085714D01*
X82301190Y-65752380D02*
X82348809Y-65800000D01*
X82301190Y-65847619D01*
X82253571Y-65800000D01*
X82301190Y-65752380D01*
X82301190Y-65847619D01*
X81825000Y-66752380D02*
X81825000Y-66085714D01*
X81825000Y-66180952D02*
X81777380Y-66133333D01*
X81682142Y-66085714D01*
X81539285Y-66085714D01*
X81444047Y-66133333D01*
X81396428Y-66228571D01*
X81396428Y-66752380D01*
X81396428Y-66228571D02*
X81348809Y-66133333D01*
X81253571Y-66085714D01*
X81110714Y-66085714D01*
X81015476Y-66133333D01*
X80967857Y-66228571D01*
X80967857Y-66752380D01*
X80110714Y-66704761D02*
X80205952Y-66752380D01*
X80396428Y-66752380D01*
X80491666Y-66704761D01*
X80539285Y-66609523D01*
X80539285Y-66228571D01*
X80491666Y-66133333D01*
X80396428Y-66085714D01*
X80205952Y-66085714D01*
X80110714Y-66133333D01*
X80063095Y-66228571D01*
X80063095Y-66323809D01*
X80539285Y-66419047D01*
X79729761Y-66752380D02*
X79205952Y-66085714D01*
X79729761Y-66085714D02*
X79205952Y-66752380D01*
X78825000Y-66657142D02*
X78777380Y-66704761D01*
X78825000Y-66752380D01*
X78872619Y-66704761D01*
X78825000Y-66657142D01*
X78825000Y-66752380D01*
X77920238Y-66704761D02*
X78015476Y-66752380D01*
X78205952Y-66752380D01*
X78301190Y-66704761D01*
X78348809Y-66657142D01*
X78396428Y-66561904D01*
X78396428Y-66276190D01*
X78348809Y-66180952D01*
X78301190Y-66133333D01*
X78205952Y-66085714D01*
X78015476Y-66085714D01*
X77920238Y-66133333D01*
X77348809Y-66752380D02*
X77444047Y-66704761D01*
X77491666Y-66657142D01*
X77539285Y-66561904D01*
X77539285Y-66276190D01*
X77491666Y-66180952D01*
X77444047Y-66133333D01*
X77348809Y-66085714D01*
X77205952Y-66085714D01*
X77110714Y-66133333D01*
X77063095Y-66180952D01*
X77015476Y-66276190D01*
X77015476Y-66561904D01*
X77063095Y-66657142D01*
X77110714Y-66704761D01*
X77205952Y-66752380D01*
X77348809Y-66752380D01*
X76586904Y-66752380D02*
X76586904Y-66085714D01*
X76586904Y-66180952D02*
X76539285Y-66133333D01*
X76444047Y-66085714D01*
X76301190Y-66085714D01*
X76205952Y-66133333D01*
X76158333Y-66228571D01*
X76158333Y-66752380D01*
X76158333Y-66228571D02*
X76110714Y-66133333D01*
X76015476Y-66085714D01*
X75872619Y-66085714D01*
X75777380Y-66133333D01*
X75729761Y-66228571D01*
X75729761Y-66752380D01*
X74539285Y-65704761D02*
X75396428Y-66990476D01*
X73825000Y-66704761D02*
X73920238Y-66752380D01*
X74110714Y-66752380D01*
X74205952Y-66704761D01*
X74253571Y-66609523D01*
X74253571Y-66228571D01*
X74205952Y-66133333D01*
X74110714Y-66085714D01*
X73920238Y-66085714D01*
X73825000Y-66133333D01*
X73777380Y-66228571D01*
X73777380Y-66323809D01*
X74253571Y-66419047D01*
X73396428Y-66704761D02*
X73301190Y-66752380D01*
X73110714Y-66752380D01*
X73015476Y-66704761D01*
X72967857Y-66609523D01*
X72967857Y-66561904D01*
X73015476Y-66466666D01*
X73110714Y-66419047D01*
X73253571Y-66419047D01*
X73348809Y-66371428D01*
X73396428Y-66276190D01*
X73396428Y-66228571D01*
X73348809Y-66133333D01*
X73253571Y-66085714D01*
X73110714Y-66085714D01*
X73015476Y-66133333D01*
X72539285Y-66085714D02*
X72539285Y-67085714D01*
X72539285Y-66133333D02*
X72444047Y-66085714D01*
X72253571Y-66085714D01*
X72158333Y-66133333D01*
X72110714Y-66180952D01*
X72063095Y-66276190D01*
X72063095Y-66561904D01*
X72110714Y-66657142D01*
X72158333Y-66704761D01*
X72253571Y-66752380D01*
X72444047Y-66752380D01*
X72539285Y-66704761D01*
X71729761Y-65752380D02*
X71110714Y-65752380D01*
X71444047Y-66133333D01*
X71301190Y-66133333D01*
X71205952Y-66180952D01*
X71158333Y-66228571D01*
X71110714Y-66323809D01*
X71110714Y-66561904D01*
X71158333Y-66657142D01*
X71205952Y-66704761D01*
X71301190Y-66752380D01*
X71586904Y-66752380D01*
X71682142Y-66704761D01*
X71729761Y-66657142D01*
X70729761Y-65847619D02*
X70682142Y-65800000D01*
X70586904Y-65752380D01*
X70348809Y-65752380D01*
X70253571Y-65800000D01*
X70205952Y-65847619D01*
X70158333Y-65942857D01*
X70158333Y-66038095D01*
X70205952Y-66180952D01*
X70777380Y-66752380D01*
X70158333Y-66752380D01*
X69729761Y-66371428D02*
X68967857Y-66371428D01*
X68063095Y-66752380D02*
X68063095Y-66228571D01*
X68110714Y-66133333D01*
X68205952Y-66085714D01*
X68396428Y-66085714D01*
X68491666Y-66133333D01*
X68063095Y-66704761D02*
X68158333Y-66752380D01*
X68396428Y-66752380D01*
X68491666Y-66704761D01*
X68539285Y-66609523D01*
X68539285Y-66514285D01*
X68491666Y-66419047D01*
X68396428Y-66371428D01*
X68158333Y-66371428D01*
X68063095Y-66323809D01*
X67158333Y-66752380D02*
X67158333Y-65752380D01*
X67158333Y-66704761D02*
X67253571Y-66752380D01*
X67444047Y-66752380D01*
X67539285Y-66704761D01*
X67586904Y-66657142D01*
X67634523Y-66561904D01*
X67634523Y-66276190D01*
X67586904Y-66180952D01*
X67539285Y-66133333D01*
X67444047Y-66085714D01*
X67253571Y-66085714D01*
X67158333Y-66133333D01*
X66825000Y-66085714D02*
X66444047Y-66085714D01*
X66682142Y-66752380D02*
X66682142Y-65895238D01*
X66634523Y-65800000D01*
X66539285Y-65752380D01*
X66444047Y-65752380D01*
X73826190Y-59583333D02*
X73873809Y-59535714D01*
X73969047Y-59392857D01*
X74016666Y-59297619D01*
X74064285Y-59154761D01*
X74111904Y-58916666D01*
X74111904Y-58726190D01*
X74064285Y-58488095D01*
X74016666Y-58345238D01*
X73969047Y-58250000D01*
X73873809Y-58107142D01*
X73826190Y-58059523D01*
X73016666Y-59154761D02*
X73111904Y-59202380D01*
X73302380Y-59202380D01*
X73397619Y-59154761D01*
X73445238Y-59107142D01*
X73492857Y-59011904D01*
X73492857Y-58726190D01*
X73445238Y-58630952D01*
X73397619Y-58583333D01*
X73302380Y-58535714D01*
X73111904Y-58535714D01*
X73016666Y-58583333D01*
X72683333Y-59583333D02*
X72635714Y-59535714D01*
X72540476Y-59392857D01*
X72492857Y-59297619D01*
X72445238Y-59154761D01*
X72397619Y-58916666D01*
X72397619Y-58726190D01*
X72445238Y-58488095D01*
X72492857Y-58345238D01*
X72540476Y-58250000D01*
X72635714Y-58107142D01*
X72683333Y-58059523D01*
X71969047Y-58297619D02*
X71921428Y-58250000D01*
X71826190Y-58202380D01*
X71588095Y-58202380D01*
X71492857Y-58250000D01*
X71445238Y-58297619D01*
X71397619Y-58392857D01*
X71397619Y-58488095D01*
X71445238Y-58630952D01*
X72016666Y-59202380D01*
X71397619Y-59202380D01*
X70778571Y-58202380D02*
X70683333Y-58202380D01*
X70588095Y-58250000D01*
X70540476Y-58297619D01*
X70492857Y-58392857D01*
X70445238Y-58583333D01*
X70445238Y-58821428D01*
X70492857Y-59011904D01*
X70540476Y-59107142D01*
X70588095Y-59154761D01*
X70683333Y-59202380D01*
X70778571Y-59202380D01*
X70873809Y-59154761D01*
X70921428Y-59107142D01*
X70969047Y-59011904D01*
X71016666Y-58821428D01*
X71016666Y-58583333D01*
X70969047Y-58392857D01*
X70921428Y-58297619D01*
X70873809Y-58250000D01*
X70778571Y-58202380D01*
X69492857Y-59202380D02*
X70064285Y-59202380D01*
X69778571Y-59202380D02*
X69778571Y-58202380D01*
X69873809Y-58345238D01*
X69969047Y-58440476D01*
X70064285Y-58488095D01*
X69016666Y-59202380D02*
X68826190Y-59202380D01*
X68730952Y-59154761D01*
X68683333Y-59107142D01*
X68588095Y-58964285D01*
X68540476Y-58773809D01*
X68540476Y-58392857D01*
X68588095Y-58297619D01*
X68635714Y-58250000D01*
X68730952Y-58202380D01*
X68921428Y-58202380D01*
X69016666Y-58250000D01*
X69064285Y-58297619D01*
X69111904Y-58392857D01*
X69111904Y-58630952D01*
X69064285Y-58726190D01*
X69016666Y-58773809D01*
X68921428Y-58821428D01*
X68730952Y-58821428D01*
X68635714Y-58773809D01*
X68588095Y-58726190D01*
X68540476Y-58630952D01*
D11*
X89832142Y-63385714D02*
X88832142Y-63385714D01*
X88403571Y-64957142D02*
X89832142Y-64957142D01*
X89832142Y-61957142D01*
X88403571Y-61957142D01*
X87260714Y-64814285D02*
X86832142Y-64957142D01*
X86117857Y-64957142D01*
X85832142Y-64814285D01*
X85689285Y-64671428D01*
X85546428Y-64385714D01*
X85546428Y-64100000D01*
X85689285Y-63814285D01*
X85832142Y-63671428D01*
X86117857Y-63528571D01*
X86689285Y-63385714D01*
X86975000Y-63242857D01*
X87117857Y-63100000D01*
X87260714Y-62814285D01*
X87260714Y-62528571D01*
X87117857Y-62242857D01*
X86975000Y-62100000D01*
X86689285Y-61957142D01*
X85975000Y-61957142D01*
X85546428Y-62100000D01*
X84260714Y-64957142D02*
X84260714Y-61957142D01*
X83117857Y-61957142D01*
X82832142Y-62100000D01*
X82689285Y-62242857D01*
X82546428Y-62528571D01*
X82546428Y-62957142D01*
X82689285Y-63242857D01*
X82832142Y-63385714D01*
X83117857Y-63528571D01*
X84260714Y-63528571D01*
X81546428Y-61957142D02*
X79689285Y-61957142D01*
X80689285Y-63100000D01*
X80260714Y-63100000D01*
X79975000Y-63242857D01*
X79832142Y-63385714D01*
X79689285Y-63671428D01*
X79689285Y-64385714D01*
X79832142Y-64671428D01*
X79975000Y-64814285D01*
X80260714Y-64957142D01*
X81117857Y-64957142D01*
X81403571Y-64814285D01*
X81546428Y-64671428D01*
X78546428Y-62242857D02*
X78403571Y-62100000D01*
X78117857Y-61957142D01*
X77403571Y-61957142D01*
X77117857Y-62100000D01*
X76975000Y-62242857D01*
X76832142Y-62528571D01*
X76832142Y-62814285D01*
X76975000Y-63242857D01*
X78689285Y-64957142D01*
X76832142Y-64957142D01*
X75546428Y-63814285D02*
X73260714Y-63814285D01*
X71975000Y-64100000D02*
X70546428Y-64100000D01*
X72260714Y-64957142D02*
X71260714Y-61957142D01*
X70260714Y-64957142D01*
X69260714Y-64957142D02*
X69260714Y-61957142D01*
X68546428Y-61957142D01*
X68117857Y-62100000D01*
X67832142Y-62385714D01*
X67689285Y-62671428D01*
X67546428Y-63242857D01*
X67546428Y-63671428D01*
X67689285Y-64242857D01*
X67832142Y-64528571D01*
X68117857Y-64814285D01*
X68546428Y-64957142D01*
X69260714Y-64957142D01*
X65260714Y-63385714D02*
X66260714Y-63385714D01*
X66260714Y-64957142D02*
X66260714Y-61957142D01*
X64832142Y-61957142D01*
D10*
X60080952Y-39796428D02*
X59319047Y-39796428D01*
X59700000Y-40177380D02*
X59700000Y-39415476D01*
X58080952Y-39796428D02*
X57319047Y-39796428D01*
X72008333Y-36102380D02*
X72484523Y-36102380D01*
X72532142Y-36578571D01*
X72484523Y-36530952D01*
X72389285Y-36483333D01*
X72151190Y-36483333D01*
X72055952Y-36530952D01*
X72008333Y-36578571D01*
X71960714Y-36673809D01*
X71960714Y-36911904D01*
X72008333Y-37007142D01*
X72055952Y-37054761D01*
X72151190Y-37102380D01*
X72389285Y-37102380D01*
X72484523Y-37054761D01*
X72532142Y-37007142D01*
X71675000Y-36102380D02*
X71341666Y-37102380D01*
X71008333Y-36102380D01*
X69770238Y-37102380D02*
X69865476Y-37054761D01*
X69913095Y-37007142D01*
X69960714Y-36911904D01*
X69960714Y-36626190D01*
X69913095Y-36530952D01*
X69865476Y-36483333D01*
X69770238Y-36435714D01*
X69627380Y-36435714D01*
X69532142Y-36483333D01*
X69484523Y-36530952D01*
X69436904Y-36626190D01*
X69436904Y-36911904D01*
X69484523Y-37007142D01*
X69532142Y-37054761D01*
X69627380Y-37102380D01*
X69770238Y-37102380D01*
X69008333Y-36435714D02*
X69008333Y-37102380D01*
X69008333Y-36530952D02*
X68960714Y-36483333D01*
X68865476Y-36435714D01*
X68722619Y-36435714D01*
X68627380Y-36483333D01*
X68579761Y-36578571D01*
X68579761Y-37102380D01*
X67960714Y-37102380D02*
X68055952Y-37054761D01*
X68103571Y-36959523D01*
X68103571Y-36102380D01*
X67675000Y-36435714D02*
X67436904Y-37102380D01*
X67198809Y-36435714D02*
X67436904Y-37102380D01*
X67532142Y-37340476D01*
X67579761Y-37388095D01*
X67675000Y-37435714D01*
X66817857Y-37007142D02*
X66770238Y-37054761D01*
X66817857Y-37102380D01*
X66865476Y-37054761D01*
X66817857Y-37007142D01*
X66817857Y-37102380D01*
X66817857Y-36721428D02*
X66865476Y-36150000D01*
X66817857Y-36102380D01*
X66770238Y-36150000D01*
X66817857Y-36721428D01*
X66817857Y-36102380D01*
X66341666Y-37007142D02*
X66294047Y-37054761D01*
X66341666Y-37102380D01*
X66389285Y-37054761D01*
X66341666Y-37007142D01*
X66341666Y-37102380D01*
X66341666Y-36721428D02*
X66389285Y-36150000D01*
X66341666Y-36102380D01*
X66294047Y-36150000D01*
X66341666Y-36721428D01*
X66341666Y-36102380D01*
X65865476Y-37007142D02*
X65817857Y-37054761D01*
X65865476Y-37102380D01*
X65913095Y-37054761D01*
X65865476Y-37007142D01*
X65865476Y-37102380D01*
X65865476Y-36721428D02*
X65913095Y-36150000D01*
X65865476Y-36102380D01*
X65817857Y-36150000D01*
X65865476Y-36721428D01*
X65865476Y-36102380D01*
D12*
X63411904Y-43842857D02*
X61888095Y-43842857D01*
X70036904Y-49792857D02*
X68513095Y-49792857D01*
X69275000Y-50554761D02*
X69275000Y-49030952D01*
D10*
X127342857Y-73327380D02*
X127676190Y-72851190D01*
X127914285Y-73327380D02*
X127914285Y-72327380D01*
X127533333Y-72327380D01*
X127438095Y-72375000D01*
X127390476Y-72422619D01*
X127342857Y-72517857D01*
X127342857Y-72660714D01*
X127390476Y-72755952D01*
X127438095Y-72803571D01*
X127533333Y-72851190D01*
X127914285Y-72851190D01*
X126771428Y-73327380D02*
X126866666Y-73279761D01*
X126914285Y-73232142D01*
X126961904Y-73136904D01*
X126961904Y-72851190D01*
X126914285Y-72755952D01*
X126866666Y-72708333D01*
X126771428Y-72660714D01*
X126628571Y-72660714D01*
X126533333Y-72708333D01*
X126485714Y-72755952D01*
X126438095Y-72851190D01*
X126438095Y-73136904D01*
X126485714Y-73232142D01*
X126533333Y-73279761D01*
X126628571Y-73327380D01*
X126771428Y-73327380D01*
X126009523Y-73327380D02*
X126009523Y-72327380D01*
X126009523Y-72803571D02*
X125438095Y-72803571D01*
X125438095Y-73327380D02*
X125438095Y-72327380D01*
X125009523Y-73279761D02*
X124866666Y-73327380D01*
X124628571Y-73327380D01*
X124533333Y-73279761D01*
X124485714Y-73232142D01*
X124438095Y-73136904D01*
X124438095Y-73041666D01*
X124485714Y-72946428D01*
X124533333Y-72898809D01*
X124628571Y-72851190D01*
X124819047Y-72803571D01*
X124914285Y-72755952D01*
X124961904Y-72708333D01*
X125009523Y-72613095D01*
X125009523Y-72517857D01*
X124961904Y-72422619D01*
X124914285Y-72375000D01*
X124819047Y-72327380D01*
X124580952Y-72327380D01*
X124438095Y-72375000D01*
X90947619Y-64563095D02*
X91423809Y-64896428D01*
X90947619Y-65134523D02*
X91947619Y-65134523D01*
X91947619Y-64753571D01*
X91900000Y-64658333D01*
X91852380Y-64610714D01*
X91757142Y-64563095D01*
X91614285Y-64563095D01*
X91519047Y-64610714D01*
X91471428Y-64658333D01*
X91423809Y-64753571D01*
X91423809Y-65134523D01*
X90995238Y-63753571D02*
X90947619Y-63848809D01*
X90947619Y-64039285D01*
X90995238Y-64134523D01*
X91090476Y-64182142D01*
X91471428Y-64182142D01*
X91566666Y-64134523D01*
X91614285Y-64039285D01*
X91614285Y-63848809D01*
X91566666Y-63753571D01*
X91471428Y-63705952D01*
X91376190Y-63705952D01*
X91280952Y-64182142D01*
X91614285Y-63372619D02*
X90947619Y-63134523D01*
X91614285Y-62896428D01*
X91042857Y-62515476D02*
X90995238Y-62467857D01*
X90947619Y-62515476D01*
X90995238Y-62563095D01*
X91042857Y-62515476D01*
X90947619Y-62515476D01*
X91042857Y-61467857D02*
X90995238Y-61515476D01*
X90947619Y-61658333D01*
X90947619Y-61753571D01*
X90995238Y-61896428D01*
X91090476Y-61991666D01*
X91185714Y-62039285D01*
X91376190Y-62086904D01*
X91519047Y-62086904D01*
X91709523Y-62039285D01*
X91804761Y-61991666D01*
X91900000Y-61896428D01*
X91947619Y-61753571D01*
X91947619Y-61658333D01*
X91900000Y-61515476D01*
X91852380Y-61467857D01*
D13*
X110597000Y-54334000D02*
X107803000Y-54334000D01*
X110851000Y-54588000D02*
X110851000Y-56112000D01*
X107549000Y-54588000D02*
X107549000Y-56112000D01*
X107803000Y-56366000D02*
X110597000Y-56366000D01*
X110851000Y-56112000D02*
G75*
G02X110597000Y-56366000I-254000J0D01*
G01*
X107803000Y-56366000D02*
G75*
G02X107549000Y-56112000I0J254000D01*
G01*
X107549000Y-54588000D02*
G75*
G02X107803000Y-54334000I254000J0D01*
G01*
X110597000Y-54334000D02*
G75*
G02X110851000Y-54588000I0J-254000D01*
G01*
D14*
X124911020Y-70978280D02*
X127344340Y-68557660D01*
D13*
X127874037Y-69814960D02*
G75*
G03X127874037Y-69814960I-1802237J0D01*
G01*
D15*
X123886680Y-56591800D02*
X123553940Y-57323320D01*
X123886680Y-56683240D02*
X122705580Y-57696700D01*
X123772380Y-56546080D02*
X123155160Y-56873740D01*
X123452340Y-56126980D02*
X122842740Y-56233660D01*
X122616680Y-54968740D02*
X123338040Y-55116060D01*
X122857980Y-54275320D02*
X123513300Y-54641080D01*
X123726660Y-53406640D02*
X124145760Y-53993380D01*
X124313400Y-53155180D02*
X124534380Y-53840980D01*
X125578320Y-53139940D02*
X125410680Y-53749540D01*
X126012660Y-53399020D02*
X125837400Y-53757160D01*
X127010880Y-54176260D02*
X126553680Y-54465820D01*
X127186140Y-54656320D02*
X126744180Y-54816340D01*
X127511260Y-55900920D02*
X126805140Y-55773920D01*
X127262340Y-56546080D02*
X126698460Y-56066020D01*
X126596860Y-57445240D02*
X126231100Y-56683240D01*
X121806420Y-55392920D02*
X123274540Y-55479280D01*
X122797020Y-53208520D02*
X123909540Y-54275320D01*
X125062700Y-52151880D02*
X125057620Y-53665720D01*
X127323300Y-53127240D02*
X126261580Y-54234680D01*
X128308820Y-55413240D02*
X126891500Y-55352280D01*
X127272500Y-57617960D02*
X126419060Y-56596880D01*
D10*
X126256500Y-56187940D02*
X125949160Y-56454640D01*
X126586700Y-53274560D02*
X125603720Y-52781800D01*
X124407380Y-56779760D02*
X124529300Y-56495280D01*
X124270220Y-56325100D02*
X124524220Y-56490200D01*
X125771360Y-56322560D02*
X125545300Y-56497820D01*
X126139660Y-56208260D02*
X125880580Y-56546080D01*
X126363180Y-55987280D02*
X126269200Y-56157460D01*
X126363180Y-55987280D02*
X126269200Y-56157460D01*
X126500340Y-55133840D02*
X126368260Y-55956800D01*
X126076160Y-54397240D02*
X126495260Y-55128760D01*
X125204940Y-53967980D02*
X126076160Y-54397240D01*
X124389600Y-54135620D02*
X125204940Y-53975600D01*
X123879060Y-54564880D02*
X124389600Y-54135620D01*
X123645380Y-55237980D02*
X123879060Y-54564880D01*
X123650460Y-55743440D02*
X123650460Y-55225280D01*
X124026380Y-56454640D02*
X123650460Y-55743440D01*
X124204180Y-56576560D02*
X124026380Y-56454640D01*
X127475700Y-52555740D02*
X126591780Y-53277100D01*
X127231860Y-53909560D02*
X127833840Y-53000240D01*
X127236940Y-53904480D02*
X127623020Y-54902700D01*
X128766020Y-55171940D02*
X127650960Y-54925560D01*
X128623780Y-55116060D02*
X128623780Y-55766300D01*
X124247360Y-56518140D02*
X123719040Y-57899900D01*
X123856200Y-58197080D02*
X124242280Y-57216640D01*
X123327880Y-57869420D02*
X123856200Y-58197080D01*
X122644620Y-58202160D02*
X123465040Y-57673840D01*
X123508220Y-57897360D02*
X122631920Y-58517120D01*
X122621760Y-58512040D02*
X121938500Y-57821160D01*
X122225520Y-57737340D02*
X122710660Y-58268200D01*
X122192500Y-56101580D02*
X122573500Y-57082020D01*
X122296640Y-56134600D02*
X121173960Y-55923780D01*
X121158720Y-54945880D02*
X121161260Y-55903460D01*
X121242540Y-55687560D02*
X122349980Y-55911080D01*
X122545560Y-53917180D02*
X122179800Y-54785860D01*
X121930880Y-53035800D02*
X122634460Y-54026400D01*
X122629380Y-52337300D02*
X121935960Y-53028180D01*
X123645380Y-53012940D02*
X122634460Y-52339840D01*
X124331180Y-52626860D02*
X123526000Y-52964680D01*
X124547080Y-51537200D02*
X124321020Y-52708140D01*
X125512280Y-51537200D02*
X124547080Y-51537200D01*
X125522440Y-51544820D02*
X125723100Y-52570980D01*
X126510500Y-52939280D02*
X125606260Y-52560820D01*
X127445220Y-52291580D02*
X126474940Y-53007860D01*
X128131020Y-53007860D02*
X127457920Y-52294120D01*
X128110700Y-53043420D02*
X127516340Y-53896860D01*
X127849080Y-54727440D02*
X127513800Y-53894320D01*
X128918420Y-54925560D02*
X127747480Y-54722360D01*
X128915880Y-54928100D02*
X128915880Y-55913620D01*
X128915880Y-55921240D02*
X127844000Y-56116820D01*
X128153880Y-57828780D02*
X127556980Y-56965180D01*
X127424900Y-58524740D02*
X128146260Y-57831320D01*
X126591780Y-57953240D02*
X127417280Y-58517120D01*
X126579080Y-57963400D02*
X126233640Y-58184380D01*
X126195540Y-58166600D02*
X125545300Y-56497820D01*
D16*
X122629380Y-58357100D02*
X122075660Y-57811000D01*
X122695420Y-56916920D02*
X122075660Y-57803380D01*
X125951700Y-54519160D02*
G75*
G02X125875500Y-56373360I-965200J-889000D01*
G01*
X124000980Y-54691880D02*
G75*
G02X125926300Y-54493760I1061720J-863600D01*
G01*
X124381980Y-56541000D02*
G75*
G02X124011140Y-54676640I746760J1117600D01*
G01*
X123818100Y-57983720D02*
X124392140Y-56543540D01*
X123480280Y-57798300D02*
X123818100Y-57983720D01*
X122644620Y-58364720D02*
X123480280Y-57798300D01*
X122289020Y-56005060D02*
X122695420Y-56916920D01*
X121275560Y-55834880D02*
X122289020Y-56005060D01*
X121275560Y-54999220D02*
X121275560Y-55834880D01*
X122357600Y-54770620D02*
X121275560Y-54999220D01*
X122697960Y-53833360D02*
X122357600Y-54770620D01*
X122080740Y-53043420D02*
X122697960Y-53833360D01*
X122634460Y-52494780D02*
X122080740Y-53040880D01*
X123538700Y-53127240D02*
X122634460Y-52492800D01*
X124453100Y-52682740D02*
X123551400Y-53132320D01*
X124666460Y-51664200D02*
X124453100Y-52682740D01*
X125433540Y-51643880D02*
X124648680Y-51643880D01*
X125425920Y-51656580D02*
X125631660Y-52670040D01*
X126530820Y-53096760D02*
X125685000Y-52690360D01*
X127419820Y-52454140D02*
X126591780Y-53106920D01*
D17*
X127968460Y-53012940D02*
X127468080Y-52479540D01*
D16*
X127958300Y-53035800D02*
X127402040Y-53886700D01*
X127729700Y-54803640D02*
X127381720Y-53937500D01*
X128778720Y-55019540D02*
X127760180Y-54839200D01*
D17*
X128766020Y-55032240D02*
X128771100Y-55819640D01*
D16*
X128776180Y-55809480D02*
X127826220Y-56027920D01*
X127798280Y-56050780D02*
X127440140Y-56934700D01*
X127973540Y-57811000D02*
X127440140Y-56977880D01*
D17*
X127988780Y-57811000D02*
X127424900Y-58349480D01*
D18*
X127412200Y-58349480D02*
X126632420Y-57818620D01*
D16*
X126622260Y-57800840D02*
X126304760Y-58006580D01*
D19*
X126276820Y-57986260D02*
X125725640Y-56563860D01*
D20*
X78408700Y-56971200D02*
X77037100Y-56971200D01*
X77037100Y-56971200D02*
X76986300Y-56971200D01*
X76986300Y-56971200D02*
X75729000Y-58215800D01*
X79932700Y-57085500D02*
X79831100Y-57085500D01*
X79780300Y-57022000D02*
X79780300Y-57009300D01*
X79780300Y-57009300D02*
X81075700Y-57009300D01*
X81075700Y-57009300D02*
X81101100Y-57009300D01*
X81101100Y-57009300D02*
X81723400Y-57504600D01*
X79780300Y-60031900D02*
X79780300Y-57022000D01*
X83437900Y-57072800D02*
X83514100Y-57072800D01*
X83590300Y-57009300D02*
X82345700Y-57009300D01*
X82345700Y-57009300D02*
X81761500Y-57491900D01*
X83590300Y-60006500D02*
X83590300Y-57022000D01*
X84326900Y-59600100D02*
X84238000Y-59600100D01*
X84669800Y-59600100D02*
X84733300Y-59600100D01*
X84809500Y-59663600D02*
X84199900Y-59663600D01*
X84199900Y-59663600D02*
X84174500Y-59663600D01*
X84174500Y-59663600D02*
X84174500Y-57644300D01*
X84809500Y-57644300D02*
X84809500Y-59663600D01*
X86308100Y-57034700D02*
X86193800Y-57034700D01*
X86435100Y-56958500D02*
X86130300Y-56958500D01*
X86130300Y-56958500D02*
X86130300Y-59993800D01*
X86612900Y-57047400D02*
X86676400Y-57034700D01*
X86727200Y-56958500D02*
X86739900Y-56958500D01*
X86739900Y-56958500D02*
X86752600Y-56958500D01*
X86752600Y-56958500D02*
X86752600Y-60108100D01*
X86447800Y-56958500D02*
X86727200Y-56958500D01*
D21*
X86447800Y-60031900D02*
X86447800Y-57301400D01*
X80110500Y-57314100D02*
X80110500Y-59917600D01*
X88225800Y-57301400D02*
X89229100Y-57301400D01*
X87603500Y-57911000D02*
X87603500Y-59841400D01*
X89826000Y-57949100D02*
X89826000Y-58190400D01*
X89826000Y-59917600D02*
X89241800Y-60489100D01*
X89813300Y-59930300D02*
X89813300Y-59168300D01*
X89254500Y-60489100D02*
X88213100Y-60489100D01*
D18*
X77485659Y-58876200D02*
G75*
G03X77485659Y-58876200I-359659J0D01*
G01*
D21*
X77634000Y-58876200D02*
X78853200Y-58876200D01*
D18*
X74551735Y-57136300D02*
G75*
G03X74551735Y-57136300I-359435J0D01*
G01*
D21*
X74560600Y-57491900D02*
X75424200Y-58385600D01*
D11*
X75983000Y-58482500D02*
X75424200Y-58482500D01*
D21*
X77100600Y-57301400D02*
X76008400Y-58368200D01*
X78322500Y-57301400D02*
X77100600Y-57301400D01*
X78853200Y-57784000D02*
X78370600Y-57276000D01*
X78853200Y-57809400D02*
X78853200Y-60044600D01*
X78853200Y-60044600D02*
X78421400Y-60476400D01*
X78421400Y-60476400D02*
X77100600Y-60476400D01*
X77100600Y-60476400D02*
X75957600Y-59358800D01*
D11*
X75957600Y-59257200D02*
X75424200Y-59257200D01*
D21*
X74611400Y-60171600D02*
X75449600Y-59358800D01*
D18*
X74610666Y-60527200D02*
G75*
G03X74610666Y-60527200I-329466J0D01*
G01*
X80473729Y-60438300D02*
G75*
G03X80473729Y-60438300I-363229J0D01*
G01*
D21*
X81012200Y-57326800D02*
X80123200Y-57326800D01*
D18*
X82094318Y-59155600D02*
G75*
G03X82094318Y-59155600I-370918J0D01*
G01*
D21*
X81647200Y-57834800D02*
X81012200Y-57326800D01*
X81723400Y-58622200D02*
X81723400Y-57911000D01*
X82434600Y-57326800D02*
X81825000Y-57834800D01*
X83272800Y-57326800D02*
X82434600Y-57326800D01*
X83272800Y-59917600D02*
X83272800Y-57326800D01*
D18*
X83619759Y-60425600D02*
G75*
G03X83619759Y-60425600I-359659J0D01*
G01*
X84852818Y-57225200D02*
G75*
G03X84852818Y-57225200I-373518J0D01*
G01*
D21*
X84492000Y-57758600D02*
X84492000Y-59358800D01*
D18*
X84858324Y-60451000D02*
G75*
G03X84858324Y-60451000I-366324J0D01*
G01*
D21*
X85004800Y-60476400D02*
X85990600Y-60476400D01*
X85990600Y-60476400D02*
X86447800Y-60019200D01*
X87616200Y-59879500D02*
X88175000Y-60463700D01*
X88225800Y-57314100D02*
X87590800Y-57923700D01*
X89826000Y-57898300D02*
X89318000Y-57390300D01*
D18*
X90150747Y-58673000D02*
G75*
G03X90150747Y-58673000I-337447J0D01*
G01*
D14*
X110139685Y-57807409D02*
X110025400Y-57845504D01*
X109834923Y-57845504D01*
X109758733Y-57807409D01*
X109720638Y-57769314D01*
X109682542Y-57693123D01*
X109682542Y-57616933D01*
X109720638Y-57540742D01*
X109758733Y-57502647D01*
X109834923Y-57464552D01*
X109987304Y-57426457D01*
X110063495Y-57388361D01*
X110101590Y-57350266D01*
X110139685Y-57274076D01*
X110139685Y-57197885D01*
X110101590Y-57121695D01*
X110063495Y-57083600D01*
X109987304Y-57045504D01*
X109796828Y-57045504D01*
X109682542Y-57083600D01*
X109111114Y-57045504D02*
X109111114Y-57616933D01*
X109149209Y-57731219D01*
X109225400Y-57807409D01*
X109339685Y-57845504D01*
X109415876Y-57845504D01*
X108311114Y-57845504D02*
X108768257Y-57845504D01*
X108539685Y-57845504D02*
X108539685Y-57045504D01*
X108615876Y-57159790D01*
X108692066Y-57235980D01*
X108768257Y-57274076D01*
D13*
X127260068Y-70604327D02*
X127260068Y-68904327D01*
X126688640Y-68904327D01*
X126545782Y-68985280D01*
X126474354Y-69066232D01*
X126402925Y-69228137D01*
X126402925Y-69470994D01*
X126474354Y-69632899D01*
X126545782Y-69713851D01*
X126688640Y-69794803D01*
X127260068Y-69794803D01*
X125760068Y-70604327D02*
X125760068Y-68904327D01*
X125760068Y-69551946D02*
X125617211Y-69470994D01*
X125331497Y-69470994D01*
X125188640Y-69551946D01*
X125117211Y-69632899D01*
X125045782Y-69794803D01*
X125045782Y-70280518D01*
X125117211Y-70442422D01*
X125188640Y-70523375D01*
X125331497Y-70604327D01*
X125617211Y-70604327D01*
X125760068Y-70523375D01*
D22*
X125680797Y-60244580D02*
X125680797Y-59244580D01*
X125252225Y-60244580D02*
X125252225Y-59720771D01*
X125299844Y-59625533D01*
X125395082Y-59577914D01*
X125537940Y-59577914D01*
X125633178Y-59625533D01*
X125680797Y-59673152D01*
X124347463Y-60244580D02*
X124347463Y-59720771D01*
X124395082Y-59625533D01*
X124490320Y-59577914D01*
X124680797Y-59577914D01*
X124776035Y-59625533D01*
X124347463Y-60196961D02*
X124442701Y-60244580D01*
X124680797Y-60244580D01*
X124776035Y-60196961D01*
X124823654Y-60101723D01*
X124823654Y-60006485D01*
X124776035Y-59911247D01*
X124680797Y-59863628D01*
X124442701Y-59863628D01*
X124347463Y-59816009D01*
X123871273Y-60244580D02*
X123871273Y-59577914D01*
X123871273Y-59768390D02*
X123823654Y-59673152D01*
X123776035Y-59625533D01*
X123680797Y-59577914D01*
X123585559Y-59577914D01*
X122823654Y-60244580D02*
X122823654Y-59244580D01*
X122823654Y-60196961D02*
X122918892Y-60244580D01*
X123109368Y-60244580D01*
X123204606Y-60196961D01*
X123252225Y-60149342D01*
X123299844Y-60054104D01*
X123299844Y-59768390D01*
X123252225Y-59673152D01*
X123204606Y-59625533D01*
X123109368Y-59577914D01*
X122918892Y-59577914D01*
X122823654Y-59625533D01*
X122442701Y-59577914D02*
X122252225Y-60244580D01*
X122061749Y-59768390D01*
X121871273Y-60244580D01*
X121680797Y-59577914D01*
X120871273Y-60244580D02*
X120871273Y-59720771D01*
X120918892Y-59625533D01*
X121014130Y-59577914D01*
X121204606Y-59577914D01*
X121299844Y-59625533D01*
X120871273Y-60196961D02*
X120966511Y-60244580D01*
X121204606Y-60244580D01*
X121299844Y-60196961D01*
X121347463Y-60101723D01*
X121347463Y-60006485D01*
X121299844Y-59911247D01*
X121204606Y-59863628D01*
X120966511Y-59863628D01*
X120871273Y-59816009D01*
X120395082Y-60244580D02*
X120395082Y-59577914D01*
X120395082Y-59768390D02*
X120347463Y-59673152D01*
X120299844Y-59625533D01*
X120204606Y-59577914D01*
X120109368Y-59577914D01*
X119395082Y-60196961D02*
X119490320Y-60244580D01*
X119680797Y-60244580D01*
X119776035Y-60196961D01*
X119823654Y-60101723D01*
X119823654Y-59720771D01*
X119776035Y-59625533D01*
X119680797Y-59577914D01*
X119490320Y-59577914D01*
X119395082Y-59625533D01*
X119347463Y-59720771D01*
X119347463Y-59816009D01*
X119823654Y-59911247D01*
D13*
X129996298Y-60198379D02*
X130101060Y-60145998D01*
X130153440Y-60093617D01*
X130205821Y-59988855D01*
X130205821Y-59674569D01*
X130153440Y-59569807D01*
X130101060Y-59517426D01*
X129996298Y-59465045D01*
X129839155Y-59465045D01*
X129734393Y-59517426D01*
X129682012Y-59569807D01*
X129629631Y-59674569D01*
X129629631Y-59988855D01*
X129682012Y-60093617D01*
X129734393Y-60145998D01*
X129839155Y-60198379D01*
X129996298Y-60198379D01*
X129158202Y-59465045D02*
X129158202Y-60565045D01*
X129158202Y-59517426D02*
X129053440Y-59465045D01*
X128843917Y-59465045D01*
X128739155Y-59517426D01*
X128686774Y-59569807D01*
X128634393Y-59674569D01*
X128634393Y-59988855D01*
X128686774Y-60093617D01*
X128739155Y-60145998D01*
X128843917Y-60198379D01*
X129053440Y-60198379D01*
X129158202Y-60145998D01*
X127743917Y-60145998D02*
X127848679Y-60198379D01*
X128058202Y-60198379D01*
X128162964Y-60145998D01*
X128215345Y-60041236D01*
X128215345Y-59622188D01*
X128162964Y-59517426D01*
X128058202Y-59465045D01*
X127848679Y-59465045D01*
X127743917Y-59517426D01*
X127691536Y-59622188D01*
X127691536Y-59726950D01*
X128215345Y-59831712D01*
X127220107Y-59465045D02*
X127220107Y-60198379D01*
X127220107Y-59569807D02*
X127167726Y-59517426D01*
X127062964Y-59465045D01*
X126905821Y-59465045D01*
X126801060Y-59517426D01*
X126748679Y-59622188D01*
X126748679Y-60198379D01*
M02*
